<svg height="82" width="61.57" xmlns="http://www.w3.org/2000/svg"><g fill="#d5d5d5" fill-rule="evenodd"><path d="m3.203 62.78v-59.576h55.165v3.204a1.602 1.602 0 0 0 3.204 0v-4.806c0-.885-.717-1.602-1.602-1.602h-58.368c-.885 0-1.602.717-1.602 1.602v61.178a1.602 1.602 0 1 0 3.203 0zm55.165-43.555v42.919h-15.058c-.885 0-1.601.717-1.601 1.601v15.058h-38.506v-3.204a1.602 1.602 0 0 0 -3.203.001v4.806a1.601 1.601 0 0 0 1.6 1.6h41.722l.013-.001a1.846 1.846 0 0 0 .181-.013l.03-.005c.025-.004.05-.006.075-.011a.593.593 0 0 0 .04-.01l.04-.01a1.31 1.31 0 0 1 .072-.018.727.727 0 0 0 .073-.026 1.872 1.872 0 0 1 .075-.027.824.824 0 0 0 .064-.03 5.657 5.657 0 0 1 .078-.037c.02-.01.039-.022.058-.034.026-.016.052-.03.076-.046a.698.698 0 0 0 .045-.032l.022-.017.06-.045a1.34 1.34 0 0 0 .119-.107l16.659-16.66a1.538 1.538 0 0 0 .17-.203c.04-.058.079-.115.112-.176l.005-.012a1.576 1.576 0 0 0 .096-.23 1.662 1.662 0 0 0 .056-.202 1.653 1.653 0 0 0 .029-.277v-.006a.43.43 0 0 0 .001-.026v-44.52a1.601 1.601 0 1 0 -3.203 0zm-13.456 57.313v-11.191h11.19zm16.629-12.48v-.003"/><path d="m22.963 45.467a22.586 22.586 0 0 0 -7.955 4.046 1.598 1.598 0 0 1 -2.23-.39 1.6 1.6 0 0 1 .306-2.168c4.564-3.677 11.017-5.787 17.705-5.787a31.428 31.428 0 0 1 8.214 1.086c3.452.9 6.683 2.5 9.49 4.7a1.602 1.602 0 0 1 -2.01 2.494 21.271 21.271 0 0 0 -5.032-2.973 27.47 27.47 0 0 0 -10.662-2.104 28.177 28.177 0 0 0 -7.826 1.096zm23.386-28.181-3.62 3.619-3.62-3.62a1.601 1.601 0 1 0 -2.264 2.265l3.62 3.62-3.62 3.62a1.601 1.601 0 1 0 2.265 2.264l3.62-3.62 3.619 3.62a1.594 1.594 0 0 0 1.132.47 1.596 1.596 0 0 0 1.57-1.287 1.6 1.6 0 0 0 -.438-1.448l-3.619-3.62 3.62-3.619a1.6 1.6 0 0 0 -.817-2.703 1.6 1.6 0 0 0 -1.448.439zm-31.126 11.754 3.62-3.62 3.619 3.62a1.594 1.594 0 0 0 1.14.469 1.596 1.596 0 0 0 1.124-.47 1.601 1.601 0 0 0 0-2.264l-3.618-3.62 3.619-3.62a1.602 1.602 0 0 0 -2.265-2.264l-3.62 3.62-3.619-3.62a1.6 1.6 0 0 0 -2.703.817 1.599 1.599 0 0 0 .438 1.448l3.62 3.62-3.62 3.619a1.602 1.602 0 1 0 2.265 2.265zm-13.621 41.75a1.604 1.604 0 0 0 1.601-1.602c0-.883-.72-1.602-1.601-1.602-.884.002-1.6.718-1.602 1.602.001.884.718 1.6 1.602 1.601zm58.365-59.586c-.883 0-1.602.719-1.602 1.602 0 .882.72 1.601 1.602 1.601s1.601-.72 1.601-1.601c0-.883-.72-1.602-1.601-1.602z"/></g></svg>