<svg height="40" viewBox="0 0 118 40" width="118" xmlns="http://www.w3.org/2000/svg"><g fill="none" transform=""><path d="m0 6.8370272v26.3259456c0 2.3773833.24753496 3.2394799.71235388 4.1086157.46481891.8691358 1.14692177 1.5512387 2.01605758 2.0160576.8691358.464819 1.73123243.7123539 4.10861574.7123539h104.2206818c2.377384 0 3.23948-.2475349 4.108616-.7123539.869136-.4648189 1.551239-1.1469218 2.016058-2.0160576s.712354-1.7312324.712354-4.1086157v-26.3259456c0-2.37738331-.247535-3.23947994-.712354-4.10861574-.464819-.86913581-1.146922-1.55123867-2.016058-2.01605758-.869136-.46481892-1.731232-.71235388-4.108616-.71235388h-104.2206818c-2.37738331 0-3.23947994.24753496-4.10861574.71235388-.86913581.46481891-1.55123867 1.14692177-2.01605758 2.01605758-.46481892.8691358-.71235388 1.73123243-.71235388 4.10861574z" fill="#000" opacity=".9"/><g fill="#fff"><path d="m51.8872515 20.5865684c1.0003378 0 1.8354256.3952421 2.5034958 1.1866105.6698375.7922527 1.0038726 1.8338527 1.0038726 3.1256842 0 1.4430316-.3897076 2.5836632-1.1691228 3.4210106-.6981157.7453894-1.5650163 1.1176421-2.5998181 1.1176421-1.1169851 0-1.9193762-.4014316-2.4080572-1.2042947h-.0353476v4.4696842h-1.8840286v-9.1489264c0-.9072-.0238597-1.8382736-.0698115-2.793221h1.65692l.1051592 1.3448842h.0353476c.6283042-1.0133052 1.5818064-1.5190737 2.8613906-1.5190737zm9.754178 0c.9994542 0 1.8345419.3952421 2.5043795 1.1866105.6671865.7922527 1.0021052 1.8338527 1.0021052 3.1256842 0 1.4430316-.3897076 2.5836632-1.1700065 3.4210106-.697232.7453894-1.5641325 1.1176421-2.5989344 1.1176421-1.116985 0-1.9193762-.4014316-2.4071734-1.2042947h-.0353476v4.4696842h-1.8840286v-9.1489264c0-.9072-.0238597-1.8382736-.0698116-2.793221h1.65692l.1051592 1.3448842h.0353477c.6274204-1.0133052 1.5809227-1.5190737 2.8613905-1.5190737zm25.9257178.0008842c1.2442367 0 2.245458.4129263 3.001014 1.2396632.7228587.8019789 1.0834047 1.8373895 1.0834047 3.1062316 0 1.3042105-.3729173 2.3749895-1.1169853 3.2123368-.7802987.8621053-1.815984 1.2918316-3.107056 1.2918316-1.2442367 0-2.234854-.4129263-2.9736194-1.2387789-.7387653-.8258527-1.1081486-1.8683369-1.1081486-3.1248 0-1.3148211.3799873-2.3917895 1.1426126-3.2291369.7608574-.8382316 1.787706-1.2573474 3.078778-1.2573474zm-14.6365693-3.2813052c1.07015 0 1.9591427.1865684 2.668746.558821l-.4710067 1.5367579c-.662768-.3607579-1.412138-.5411368-2.2507606-.5411368-.662768 0-1.1806107.1635789-1.5517607.4889684-.31371.2909052-.4710073.6454737-.4710073 1.0654737 0 .4650947.1793893.8497263.5399353 1.1521263.31371.2794105.8836907.5818105 1.7108253.9080842 1.0118254.407621 1.7550094.8842105 2.233086 1.4306526.4763094.5446737.714022 1.2264.714022 2.0398737 0 1.0009263-.34729 1.8152842-1.044522 2.4439579-.76616.6870316-1.8327746 1.0301053-3.2033786 1.0301053-1.2654454 0-2.2799227-.2440421-3.0478494-.7330105l.4365427-1.5712422c.8271347.5004632 1.7346853.751579 2.7235353.751579.7096034 0 1.26191-.1609263 1.6586874-.4810105.3950093-.3200843.5920726-.7498105.5920726-1.2856421 0-.4774737-.1625993-.8797895-.4886813-1.2060632-.324314-.3262737-.8660167-.6295579-1.622456-.9098526-2.0589993-.768379-3.0876153-1.893979-3.0876153-3.3741474 0-.9673263.360546-1.7604632 1.0825213-2.3776421.719324-.6180631 1.679012-.9266526 2.879064-.9266526zm7.274542 1.3404631v2.112379h2.0766733v1.4165052h-2.0766733v4.1195369c0 1.0477895.365848 1.5712421 1.0993113 1.5712421.336686 0 .6159327-.029179.8368554-.0875368l.0521373 1.4315368c-.37115.138821-.8598307.2086737-1.4651587.2086737-.744068 0-1.325536-.2272421-1.7452893-.6808421-.417986-.4544842-.628304-1.2166737-.628304-2.2874527v-4.2769263h-1.2371673v-1.4147368h1.2371673v-1.5535579zm22.473139 1.9240421c1.222144 0 2.147368.4536 2.775672 1.3608.497518.7206316.747602 1.6119158.747602 2.6703158 0 .3377685-.022092.6224842-.068928.8550316h-5.652085c.022092.8382316.295153 1.4792842.820065 1.9213895.476309.3952421 1.092242.5933052 1.848681.5933052.836855 0 1.600363-.1335158 2.286991-.4014316l.295153 1.3086316c-.802391.3501474-1.749707.5243369-2.842833.5243369-1.314932 0-2.347082-.3872842-3.0982197-1.1609685-.74937-.7736842-1.124938-1.8126315-1.124938-3.1159578 0-1.2794527.3490574-2.3449264 1.0480567-3.1946527.731696-.9072 1.720546-1.3608 2.964783-1.3608zm-60.8235481-3.0920842 3.8042884 11.7670737h-2.0068616l-1.0993112-3.456379h-3.8210786l-1.0471735 3.456379h-1.9538401l3.785731-11.7670737zm55.4498244 3.108c.1740874 0 .331384.012379.4710074.0344842v1.7976c-.1864587-.0344842-.3852894-.0521684-.59384-.0521684-.662768 0-1.1753087.2502316-1.5358547.7515789-.31371.4421053-.4710073 1.0009264-.4710073 1.675579v4.452h-1.8831447l.017674-5.8128c0-.9779368-.02386-1.8683368-.0706953-2.6712h1.6410133l.068928 1.6234105h.052138c.19883-.5579368.5125407-1.0071157.942014-1.344.4197533-.3032842.8730867-.4544842 1.3617673-.4544842zm-9.804548 1.3793685c-.7573233 0-1.332606.3386526-1.7276153 1.0150736-.338454.5605895-.5054713 1.2423158-.5054713 2.0487158 0 .7825263.1670173 1.4536421.5054713 2.0124632.4073813.6773052.976478 1.0150736 1.7108247 1.0150736.7193246 0 1.2840026-.344842 1.691384-1.0327578.3472906-.5703158.5222613-1.2485053.5222613-2.0301474 0-.7825263-.1670173-1.4536421-.5054707-2.0133474-.39501-.6773052-.9596886-1.0150736-1.691384-1.0150736zm-36.2233661.1211368c-.4648213 0-.8872255.155621-1.2645614.4624421-.3782197.3094737-.6256531.7135579-.7414165 1.2140211-.0583236.2334315-.0874854.424421-.0874854.5747368v1.4147368c0 .617179.1891098 1.137979.5673294 1.5632842.3782196.4253053.8695517.6375158 1.4739961.6375158.7096037 0 1.2619103-.2741052 1.6569201-.8205474.3958934-.5473262.5938402-1.268842.5938402-2.1654315 0-.8258527-.1855751-1.5066947-.5584926-2.0425263-.4073814-.5588211-.9543859-.8382316-1.6401299-.8382316zm9.7532943 0c-.465705 0-.8872254.155621-1.265445.4624421-.3782197.3094737-.6247694.7135579-.7405329 1.2140211-.0574399.2334315-.0874853.424421-.0874853.5747368v1.4147368c0 .617179.1891098 1.137979.565562 1.5632842.3782196.4244211.8695516.6375158 1.4757635.6375158.7096036 0 1.2619103-.2741052 1.6569201-.8205474.3958934-.5473262.5938401-1.268842.5938401-2.1654315 0-.8258527-.1864587-1.5066947-.5593762-2.0425263-.4073814-.5588211-.9526186-.8382316-1.6392463-.8382316zm-20.3955815-3.0372632h-.0353477l-.0412049.175662c-.1168557.4920043-.2894917 1.1725626-.5172876 2.0410538l-.9764782 3.0726316h3.1574269l-.994152-3.0726316-.0239415-.0737726c-.1098475-.3478875-.2990475-1.0624379-.569015-2.1429432zm61.903418 2.8277053c-.615933 0-1.116985.2555368-1.499623.7683789-.31371.4076211-.500169.8965895-.557609 1.4660211h3.92447c.012372-.5579369-.110461-1.0407158-.365848-1.4483369-.326081-.5243368-.827134-.7860631-1.50139-.7860631z"/><path d="m44.7700065 9.01402107c.611514 0 1.102846.2024842 1.4748798.6083368.3534763.39435793.5310981.90366323.5310981 1.52614743 0 .6410526-.182924 1.1662736-.5487719 1.5783158-.3835218.4235368-.891644.6348631-1.5261339.6348631-.6115139 0-1.0984275-.2024842-1.4616244-.6092211-.3623132-.4058526-.5434698-.9178105-.5434698-1.5349894 0-.6454737.1864587-1.1751158.5611436-1.5862737.3746849-.41115787.8783886-.61717893 1.5128785-.61717893zm19.74872 0c.6123976 0 1.102846.2024842 1.4757634.6083368.3534763.39435793.5310982.90366323.5310982 1.52614743 0 .6410526-.182924 1.1662736-.548772 1.5783158-.3835218.4235368-.8925276.6348631-1.5261338.6348631-.6123977 0-1.0993113-.2024842-1.4616245-.6092211-.3623131-.4058526-.5434697-.9178105-.5434697-1.5349894 0-.6454737.1864587-1.1751158.5611436-1.5862737.3746848-.41115787.8783885-.61717893 1.5119948-.61717893zm4.7940222 0c1.0887066 0 1.634828.5747368 1.634828 1.72421053v1.5349895c0 .4164631.0203246.748042.0600906.9938526h-.8315526l-.068928-.4801263h-.0256274c-.284548.3828631-.690162.5747368-1.216842.5747368-.3932426 0-.7113713-.1264421-.9508513-.3775579-.217388-.2281263-.326082-.5119579-.326082-.8488421 0-.5093053.212086-.8974737.6389087-1.1662737.4259386-.2688 1.0250813-.4005474 1.7965433-.3943579v-.0778105c0-.5490947-.2880833-.82319997-.8651333-.82319997-.410916 0-.7732294.1034526-1.086056.30858947l-.188226-.60833687c.3870566-.23962106.8651333-.35987366 1.428928-.35987366zm6.9246-1.8276632v4.95776843c0 .4058526.0106046.7798737.0326966 1.1229474h-.821832l-.0433013-.6693474h-.0256267c-.262456.5093053-.709604.7639579-1.337908.7639579-.501936 0-.919922-.1971789-1.251306-.5915368s-.496634-.9063158-.496634-1.5349895c0-.6746526.1793894-1.2210948.5399347-1.6384421.349058-.38905267.7767647-.58357893 1.28577-.58357893.5593767 0 .9508513.1883368 1.1735413.56589473h.017674v-2.39267373zm5.9481226 1.8276632c.61063 0 1.102846.2024842 1.473996.6083368.353476.39435793.531098.90366323.531098 1.52614743 0 .6410526-.182924 1.1662736-.548772 1.5783158-.383522.4235368-.89076.6348631-1.526134.6348631-.61063 0-1.097544-.2024842-1.461624-.6092211-.3623133-.4058526-.54347-.9178105-.54347-1.5349894 0-.6454737.1864587-1.1751158.5611434-1.5862737.3746853-.41115787.8783886-.61717893 1.5137626-.61717893zm12.1966987-.95317894v1.03717894h1.0197793v.69498946h-1.0188953v2.02484207c0 .5146105.1811567.7719158.5399347.7719158.166134 0 .30399-.0141473.412684-.0433263l.0238593.7029474c-.182924.0689684-.423288.1034526-.719324.1034526-.365848 0-.6503967-.1114105-.8562967-.3342316-.2067833-.222821-.3092913-.5977263-.3092913-1.1238316v-2.10176837h-.6088633v-.69410526h.6088633v-.76395787zm9.247823.945221c.599143 0 1.054244.22282107 1.361768.6684632.248317.35368417.37115.79136837.37115 1.31128417 0 .1662316-.012372.3059369-.034464.42h-2.77744c.012372.4120421.144926.7259369.40208.9434526.235061.1945264.538167.2917895.909317.2917895.410917 0 .785601-.0654315 1.123171-.1971789l.144925.6437052c-.395009.1715369-.859831.2573053-1.397999.2573053-.645094 0-1.153216-.1901053-1.520831-.5703158-.369383-.3802105-.552307-.8904-.552307-1.5305684 0-.6286737.170552-1.1521263.514308-1.56947367.358778-.44564213.843925-.6684632 1.456322-.6684632zm-65.1854446-1.5632842c1.0118259 0 1.7744509.22016847 2.2887589.66050527.5761664.49781053.8651332 1.2096.8651332 2.1362527 0 1.0407157-.3119428 1.8241262-.9349447 2.3502315-.5770501.4854316-1.397115.7285895-2.4593113.7285895-.5266796 0-.9773619-.0229895-1.3546978-.0689684v-5.6863579c.4922157-.079579 1.0224301-.12025267 1.5950617-.12025267zm18.6255491 1.56858947c.3888239 0 .7122547.12555793.9694087.37755793.319896.30858947.479844.76926317.479844 1.38113677v2.4970106h-.9261079v-2.3873684c0-.7356632-.2792462-1.10349477-.8395061-1.10349477-.2748278 0-.4966342.1008-.6689539.30328417-.1705523.2024842-.257154.4412211-.257154.7144422v2.4722526h-.9261078v-2.9762526c0-.36606323-.011488-.76307377-.0335803-1.19280003h.8138791l.0433009.65166313h.0256271c.1078102-.2024842.2686419-.3696.479844-.5031158.2509682-.15562107.5319818-.2343158.8395062-.2343158zm-8.4357116.08753687.4710072 1.98151583c.1139961.4686315.2076673.9151578.282781 1.3378105h.0167902c.0689278-.348379.182924-.7922527.3437556-1.3289685l.5911891-1.98947363h.7546719l.5664458 1.94703163c.136972.474821.248317.9319578.334035 1.3722947h.025627c.0627421-.4288421.157297-.8859789.2827811-1.3722947l.5054711-1.94703163.9085458-.00009827-1.3026719 4.1673825h-.8483431l-.539935-1.809979c-.136972-.4518316-.2483171-.9010105-.3349188-1.3466526h-.0167901c-.0804159.458021-.1917609.9063158-.3349188 1.3466526l-.5735153 1.809979h-.8580636l-1.225679-4.16816843zm12.4388305-1.9125474v6.08071583h-.9252242v-6.08071583zm26.6485769 1.82501053c.38794 0 .7113714.12555793.9685254.37755793.3207793.30858947.479844.76926317.479844 1.38113677v2.4970106h-.9252247v-2.3873684c0-.7356632-.279246-1.10349477-.8403893-1.10349477-.274828 0-.4966347.1008-.6680707.30328417-.171436.2024842-.257154.4412211-.257154.7144422v2.4722526h-.9269913v-2.9762526c0-.36606323-.010604-.76307377-.0326967-1.19280003h.8129953l.0433014.65166313h.0256266c.108694-.2024842.269526-.3696.479844-.5031158.251852-.15562107.531982-.2343158.84039-.2343158zm9.89115-1.82501053v2.51204213h.017674c.291618-.45713687.7096034-.68526313 1.251306-.68526313.383522 0 .7007667.12555786.9526187.37755786.31371.31389474.471007.78075787.471007 1.39793687v2.4784421h-.9269917v-2.3696842c0-.7471579-.279246-1.12117897-.838622-1.12117897-.429474 0-.7228593.2166316-.8836913.64989477-.027394.0910736-.0433007.2024842-.0433007.3333473v2.5067369h-.925224v-6.07983163zm-15.461936 2.50408426c-.37115 0-.6539313.16623154-.8492266.49869477-.166134.2749894-.2483174.6101052-.2483174 1.0062315 0 .3846316.0830667.7144421.2483174.9894316.2005973.3324631.479844.4986947.8403893.4986947.3534767 0 .6318393-.1688842.8315533-.5075368.170552-.2802948.257154-.6127579.257154-.9973895 0-.3846315-.0830673-.7144421-.2483173-.9894315-.1952953-.33246323-.4710073-.49869477-.8315527-.49869477zm-13.6371153 2.34138947c0 .2175158.058324.3802105.177622.4889684s.2712933.1626947.4524493.1626947c.2032494 0 .3932427-.0645473.566446-.1927578.1740874-.1290948.281014-.2926738.32078-.4933895.0097207-.0450948.0150227-.0999158.0150227-.1626948v-.642821c-1.0215467-.0176842-1.53232.2626105-1.53232.84zm-4.0278621-2.34138947c-.3729175 0-.6556985.16623154-.8492268.49869477-.1661338.2749894-.2483171.6101052-.2483171 1.0062315 0 .3846316.0830669.7144421.2483171.9894316.2005978.3324631.4798441.4986947.8403899.4986947.3534763 0 .6300715-.1688842.8297855-.5075368.1723198-.2802948.257154-.6127579.257154-.9973895 0-.3846315-.0830669-.7144421-.248317-.9894315-.1935283-.33246323-.4710072-.49869477-.8297856-.49869477zm-19.7496036 0c-.3720338 0-.6548148.16623154-.8492268.49869477-.1661339.2749894-.2483171.6101052-.2483171 1.0062315 0 .3846316.0830669.7144421.2483171.9894316.2005978.3324631.479844.4986947.8403898.4986947.3534763 0 .6309552-.1688842.8306693-.5075368.171436-.2802948.257154-.6127579.257154-.9973895 0-.3846315-.0830669-.7144421-.2483171-.9894315-.194412-.33246323-.4710071-.49869477-.8306692-.49869477zm29.5939184.04332627c-.3455234 0-.6159327.13705267-.8147634.4120421-.1970626.2749895-.29692.6260211-.29692 1.0548632 0 .4120421.0945554.7462737.2845487 1.0035789.200598.2741053.4710073.4111579.8094607.4111579.3039893 0 .5470046-.1140631.731696-.3430736.1785053-.2113264.2659906-.465979.2659906-.7630738v-.6949894c0-.1202526-.0088366-.2175158-.0256266-.2917895-.052138-.2228211-.1643667-.4102737-.3349194-.56147367-.1723193-.1512-.3799866-.22724213-.6194666-.22724213zm-35.8089152-1.5615158c-.291618 0-.539935.01945267-.745835.06012633v4.32290527c.1139962.0176842.3225472.0256421.625653.0256421.70872 0 1.2557246-.1971789 1.6410137-.5915368s.5797011-.9690948.5797011-1.7242106c0-.67465257-.1785055-1.19191577-.5355166-1.55267363-.357011-.35987367-.8783885-.54025267-1.5650162-.54025267zm65.0414035 1.4757474c-.302222 0-.548772.12555787-.736998.3775579-.153762.2007158-.244782.4403368-.274828.7206316h1.928213c.00707-.2749895-.053905-.5119579-.179389-.7117895-.160832-.25730527-.405614-.3864-.736998-.3864z"/><path d="m18.5728235 13.7102668c.8930191 0 2.5934987-1.2334715 4.3465612-1.0489855.7334878.0213896 2.8207642.2896518 4.1674228 2.2530462-.1087309.0650604-2.4865504 1.4625194-2.4607045 4.3349753.0294108 3.4428473 3.0114887 4.5809565 3.0480295 4.5934338-.0178248.0802113-.4670081 1.6425492-1.5855101 3.2289505-.9340161 1.3965679-1.9125939 2.7619425-3.4669107 2.7868971-1.5097549.0347583-2.0177598-.8885629-3.7494327-.8885629-1.7477151 0-2.2886958.8636083-3.7369554.9233212-1.4803441.0543654-2.6113235-1.491039-3.5792065-2.8751296-1.93487483-2.8261115-3.44106483-7.964091-1.4215225-11.4604124.9785779-1.7147394 2.7628337-2.8189817 4.6700802-2.8483925 1.4821266-.030302 2.8573048 1.0008588 3.7681487 1.0008588zm4.3652772-6.55237207c.1479453 1.34487614-.3850142 2.67014507-1.1639551 3.64426677-.8128078.9589707-2.1131221 1.6924585-3.3795695 1.5979874-.16577-1.2940757.4759204-2.6701451 1.1942572-3.50969003.8119166-.95273207 2.221853-1.68265487 3.3492674-1.73256414z"/></g></g></svg>