<svg height="40" width="118" xmlns="http://www.w3.org/2000/svg"><g fill="none"><path d="m0 6.837v26.326c0 2.377.248 3.24.712 4.109a4.846 4.846 0 0 0 2.016 2.016c.87.464 1.732.712 4.109.712h104.22c2.378 0 3.24-.248 4.11-.712a4.846 4.846 0 0 0 2.015-2.016c.465-.87.713-1.732.713-4.109v-26.326c0-2.377-.248-3.24-.713-4.109a4.846 4.846 0 0 0 -2.016-2.016c-.869-.464-1.73-.712-4.108-.712h-104.221c-2.377 0-3.24.248-4.109.712a4.846 4.846 0 0 0 -2.016 2.016c-.464.87-.712 1.732-.712 4.109z" fill="#000" opacity=".9"/><path d="m51.887 20.587c1 0 1.836.395 2.504 1.186.67.792 1.004 1.834 1.004 3.126 0 1.443-.39 2.584-1.17 3.42-.698.746-1.565 1.119-2.6 1.119-1.116 0-1.919-.402-2.407-1.205h-.036v4.47h-1.884v-9.149c0-.907-.024-1.838-.07-2.793h1.657l.106 1.345h.035c.628-1.014 1.582-1.52 2.861-1.52zm9.754 0c1 0 1.835.395 2.505 1.186.667.792 1.002 1.834 1.002 3.126 0 1.443-.39 2.584-1.17 3.42-.697.746-1.564 1.119-2.599 1.119-1.117 0-1.92-.402-2.407-1.205h-.036v4.47h-1.884v-9.149c0-.907-.023-1.838-.07-2.793h1.658l.105 1.345h.035c.627-1.014 1.581-1.52 2.861-1.52zm25.926 0c1.244 0 2.246.413 3.001 1.24.723.802 1.084 1.838 1.084 3.106 0 1.305-.373 2.375-1.117 3.213-.78.862-1.816 1.292-3.107 1.292-1.245 0-2.235-.413-2.974-1.24-.739-.825-1.108-1.868-1.108-3.124 0-1.315.38-2.392 1.142-3.23.761-.837 1.788-1.257 3.08-1.257zm-14.636-3.28c1.07 0 1.959.186 2.668.558l-.47 1.537c-.663-.361-1.413-.541-2.251-.541-.663 0-1.181.163-1.552.489-.314.29-.471.645-.471 1.065 0 .465.18.85.54 1.152.313.28.883.582 1.71.908 1.012.408 1.756.884 2.234 1.43.476.546.714 1.227.714 2.04 0 1.002-.348 1.816-1.045 2.445-.766.687-1.833 1.03-3.203 1.03-1.266 0-2.28-.244-3.048-.733l.436-1.571c.828.5 1.735.751 2.724.751.71 0 1.262-.16 1.659-.48.395-.32.592-.75.592-1.286 0-.478-.163-.88-.489-1.207-.324-.326-.866-.63-1.622-.91-2.06-.768-3.088-1.893-3.088-3.374 0-.967.36-1.76 1.083-2.377.719-.618 1.679-.927 2.879-.927zm7.274 1.34v2.112h2.077v1.416h-2.077v4.12c0 1.048.366 1.571 1.1 1.571.336 0 .615-.029.836-.087l.052 1.431c-.37.14-.86.209-1.465.209-.744 0-1.325-.227-1.745-.68-.418-.455-.628-1.218-.628-2.288v-4.277h-1.237v-1.415h1.237v-1.554zm22.473 1.924c1.222 0 2.148.453 2.776 1.36.497.721.748 1.612.748 2.67 0 .339-.023.623-.07.856h-5.651c.022.838.295 1.48.82 1.921.476.395 1.092.593 1.848.593.837 0 1.6-.133 2.287-.4l.295 1.308c-.802.35-1.75.524-2.842.524-1.315 0-2.348-.387-3.099-1.16-.749-.775-1.125-1.814-1.125-3.117 0-1.28.35-2.345 1.048-3.195.732-.907 1.721-1.36 2.965-1.36zm-60.823-3.092 3.804 11.767h-2.007l-1.1-3.457h-3.82l-1.047 3.457h-1.955l3.785-11.767h2.339zm55.45 3.108c.174 0 .33.012.47.034v1.798a3.27 3.27 0 0 0 -.593-.053c-.663 0-1.176.25-1.536.752-.314.442-.471 1.001-.471 1.676v4.452h-1.883l.017-5.813c0-.978-.023-1.868-.07-2.671h1.64l.07 1.623h.051c.199-.558.512-1.007.942-1.344.42-.303.873-.454 1.362-.454zm-9.805 1.379c-.757 0-1.333.339-1.728 1.015-.338.56-.505 1.242-.505 2.049 0 .782.167 1.453.505 2.012.408.677.977 1.015 1.711 1.015.72 0 1.284-.345 1.692-1.032.347-.57.522-1.249.522-2.03 0-.783-.167-1.454-.506-2.014-.395-.677-.96-1.015-1.691-1.015zm-36.223.121c-.465 0-.888.156-1.265.463-.378.309-.626.713-.741 1.214a2.47 2.47 0 0 0 -.088.574v1.415c0 .617.19 1.138.567 1.563.379.426.87.638 1.474.638.71 0 1.262-.274 1.657-.82.396-.548.594-1.27.594-2.166 0-.826-.185-1.507-.558-2.043-.408-.559-.955-.838-1.64-.838zm9.753 0a1.96 1.96 0 0 0 -1.266.463c-.378.309-.624.713-.74 1.214a2.518 2.518 0 0 0 -.088.574v1.415c0 .617.19 1.138.566 1.563.378.425.87.638 1.476.638.71 0 1.262-.274 1.657-.82.396-.548.594-1.27.594-2.166 0-.826-.187-1.507-.56-2.043-.407-.559-.952-.838-1.64-.838zm-20.396-3.037h-.034l-.041.175a96.3 96.3 0 0 1 -.518 2.042l-.976 3.072h3.157l-.994-3.072-.024-.074c-.11-.348-.299-1.063-.569-2.143zm61.904 2.828c-.616 0-1.117.255-1.5.768-.314.408-.5.896-.557 1.466h3.924c.012-.558-.11-1.04-.366-1.448-.326-.525-.827-.786-1.501-.786zm-57.768-12.864c.612 0 1.103.203 1.475.608.353.395.531.904.531 1.527 0 .64-.183 1.166-.549 1.578-.383.423-.891.635-1.526.635-.611 0-1.098-.203-1.462-.61-.362-.405-.543-.917-.543-1.535 0-.645.186-1.175.561-1.586s.879-.617 1.513-.617zm19.749 0c.612 0 1.103.203 1.475.608.354.395.532.904.532 1.527 0 .64-.183 1.166-.55 1.578-.383.423-.892.635-1.525.635-.613 0-1.1-.203-1.462-.61-.362-.405-.543-.917-.543-1.535 0-.645.186-1.175.56-1.586.375-.411.88-.617 1.513-.617zm4.794 0c1.088 0 1.635.575 1.635 1.724v1.535c0 .417.02.748.06.994h-.832l-.069-.48h-.025c-.285.383-.69.575-1.217.575-.394 0-.712-.127-.951-.378a1.184 1.184 0 0 1 -.326-.849c0-.509.212-.897.639-1.166.426-.269 1.025-.4 1.796-.394v-.078c0-.55-.288-.823-.865-.823-.41 0-.773.103-1.086.308l-.188-.608c.387-.24.865-.36 1.429-.36zm6.924-1.828v4.958c0 .406.011.78.033 1.123h-.822l-.043-.67h-.026c-.262.51-.71.765-1.338.765-.502 0-.92-.197-1.25-.592-.332-.394-.498-.906-.498-1.535 0-.674.18-1.22.54-1.638a1.66 1.66 0 0 1 1.286-.584c.56 0 .951.188 1.174.566h.017v-2.393zm5.948 1.828c.611 0 1.103.203 1.474.608.354.395.532.904.532 1.527 0 .64-.183 1.166-.55 1.578-.383.423-.89.635-1.525.635-.611 0-1.098-.203-1.462-.61-.362-.405-.543-.917-.543-1.535 0-.645.186-1.175.56-1.586.375-.411.88-.617 1.514-.617zm12.197-.953v1.037h1.02v.695h-1.019v2.025c0 .514.181.772.54.772.166 0 .304-.014.413-.044l.024.703c-.183.07-.424.104-.72.104-.366 0-.65-.112-.856-.334-.207-.223-.31-.598-.31-1.124v-2.102h-.608v-.694h.609v-.764zm9.248.945c.6 0 1.054.223 1.362.669.248.353.37.79.37 1.31 0 .167-.011.307-.034.42h-2.777c.012.413.145.727.402.944.235.195.538.292.91.292.41 0 .785-.065 1.123-.197l.144.644c-.395.171-.86.257-1.397.257-.646 0-1.154-.19-1.521-.57-.37-.38-.553-.89-.553-1.531 0-.629.17-1.152.515-1.57.358-.445.844-.668 1.456-.668zm-65.185-1.563c1.011 0 1.774.22 2.288.66.576.498.865 1.21.865 2.137 0 1.04-.312 1.824-.935 2.35-.577.485-1.397.728-2.459.728-.526 0-.977-.023-1.355-.069v-5.686a9.991 9.991 0 0 1 1.596-.12zm18.625 1.567c.389 0 .712.126.97.378.32.309.48.77.48 1.381v2.497h-.927v-2.386c0-.736-.279-1.104-.84-1.104-.274 0-.496.101-.668.303-.17.203-.257.442-.257.715v2.472h-.926v-2.976c0-.366-.012-.763-.034-1.193h.814l.043.652h.026c.108-.203.268-.37.48-.503.25-.156.532-.235.84-.235zm-8.436.088.471 1.981c.114.47.208.916.283 1.338h.017c.069-.348.183-.792.344-1.329l.59-1.99h.756l.566 1.948c.137.475.248.932.334 1.372h.026c.062-.429.157-.886.282-1.372l.507-1.946h.908l-1.302 4.167h-.849l-.54-1.81a13.553 13.553 0 0 1 -.334-1.347h-.017c-.08.458-.192.907-.335 1.347l-.574 1.81h-.858l-1.226-4.167h.951zm12.44-1.913v6.081h-.926v-6.08h.925zm26.648 1.825c.388 0 .711.126.968.378.321.309.48.77.48 1.381v2.497h-.925v-2.386c0-.736-.28-1.104-.84-1.104-.275 0-.497.101-.669.303a1.072 1.072 0 0 0 -.257.715v2.472h-.927v-2.976c0-.366-.01-.763-.032-1.193h.813l.043.652h.026c.108-.203.27-.37.48-.503.251-.156.531-.235.84-.235zm9.89-1.825v2.512h.019c.291-.457.71-.685 1.25-.685.384 0 .702.126.954.378.313.314.47.78.47 1.398v2.478h-.926v-2.37c0-.747-.28-1.12-.84-1.12-.429 0-.722.216-.883.65a1.165 1.165 0 0 0 -.043.332v2.507h-.925v-6.08h.925zm-15.46 2.505c-.371 0-.654.167-.85.5-.165.274-.248.61-.248 1.005 0 .385.084.715.249.99.2.332.48.498.84.498.354 0 .632-.168.832-.507.17-.28.257-.613.257-.997 0-.385-.083-.715-.248-.99-.196-.332-.471-.499-.832-.499zm-13.637 2.342c0 .217.058.38.178.489.119.109.27.162.452.162a.935.935 0 0 0 .566-.192.79.79 0 0 0 .336-.656v-.643c-1.021-.018-1.532.262-1.532.84zm-4.029-2.342c-.373 0-.656.167-.85.5-.165.274-.248.61-.248 1.005 0 .385.084.715.249.99.2.332.48.498.84.498.354 0 .63-.168.83-.507.172-.28.257-.613.257-.997 0-.385-.083-.715-.248-.99-.194-.332-.471-.499-.83-.499zm-19.75 0c-.372 0-.654.167-.849.5-.166.274-.248.61-.248 1.005 0 .385.083.715.248.99.2.332.48.498.84.498.354 0 .632-.168.831-.507.172-.28.257-.613.257-.997 0-.385-.083-.715-.248-.99-.194-.332-.47-.499-.83-.499zm29.594.044a.95.95 0 0 0 -.814.412c-.197.275-.297.626-.297 1.055 0 .412.094.746.284 1.003.2.274.471.411.81.411a.892.892 0 0 0 .731-.343c.179-.211.266-.466.266-.763v-.695a1.055 1.055 0 0 0 -.36-.853.91.91 0 0 0 -.62-.227zm-35.809-1.562c-.291 0-.54.02-.745.06v4.323c.114.018.322.026.625.026.709 0 1.256-.197 1.641-.592.386-.394.58-.969.58-1.724 0-.674-.179-1.192-.536-1.552s-.878-.54-1.565-.54zm65.042 1.476a.88.88 0 0 0 -.737.378c-.154.2-.245.44-.275.72h1.928a1.248 1.248 0 0 0 -.18-.712c-.16-.257-.405-.386-.736-.386zm-84.99 4.062c.893 0 2.593-1.233 4.346-1.049.734.022 2.821.29 4.168 2.253-.109.065-2.487 1.463-2.46 4.335.029 3.443 3.01 4.581 3.047 4.594-.018.08-.467 1.642-1.585 3.229-.934 1.396-1.913 2.762-3.467 2.787-1.51.034-2.018-.889-3.75-.889-1.747 0-2.288.864-3.737.923-1.48.055-2.611-1.49-3.579-2.875-1.935-2.826-3.44-7.964-1.421-11.46.978-1.715 2.762-2.82 4.67-2.849 1.482-.03 2.857 1.001 3.768 1.001zm4.365-6.552c.148 1.345-.385 2.67-1.164 3.644-.813.96-2.113 1.693-3.38 1.598-.165-1.294.476-2.67 1.195-3.51.812-.952 2.222-1.682 3.35-1.732z" fill="#fff"/></g></svg>