<svg xmlns="http://www.w3.org/2000/svg" width="30.198" height="36.335" viewBox="0 0 30.198 36.335">
    <g data-name="doctor (3)">
        <path data-name="Path 4797" d="M29.6 22.282a6.255 6.255 0 0 1-6.044-5.455 2.032 2.032 0 0 1-1.138-.723 2.288 2.288 0 0 1-.426-1.557 2.148 2.148 0 0 1 .507-1.67 1.571 1.571 0 0 1 .378-.285A8.256 8.256 0 0 1 21.644 7.9a4.592 4.592 0 0 1 4.64-4.271 4.576 4.576 0 0 1 1.645-1.213 5.8 5.8 0 0 1 3.726-.208c2.42.632 4.034 1.843 4.8 3.6 1.09 2.5.134 5.375-.415 6.666a1.59 1.59 0 0 1 .567.325 2.082 2.082 0 0 1 .579 1.745 2.284 2.284 0 0 1-.426 1.557 2.035 2.035 0 0 1-1.139.723 6.247 6.247 0 0 1-6.021 5.458zm-5.857-8.86a.7.7 0 0 0-.5.179 1.237 1.237 0 0 0-.212.929.533.533 0 0 1 0 .1 1.282 1.282 0 0 0 .217.843 1.185 1.185 0 0 0 .83.393.519.519 0 0 1 .456.471c.017.193.478 4.753 5.071 4.9 4.568-.151 5.03-4.71 5.047-4.9a.519.519 0 0 1 .456-.47 1.184 1.184 0 0 0 .83-.393 1.284 1.284 0 0 0 .217-.848.543.543 0 0 1 0-.1 1.237 1.237 0 0 0-.234-.953.787.787 0 0 0-.564-.147.519.519 0 0 1-.548-.757c.019-.036 1.921-3.645.7-6.449a5.681 5.681 0 0 0-4.106-3.007 4.754 4.754 0 0 0-3.048.156 3.491 3.491 0 0 0-1.4 1.094.514.514 0 0 1-.46.208 3.571 3.571 0 0 0-3.811 3.337 6.861 6.861 0 0 0 1.493 4.539.519.519 0 0 1 .1.571.492.492 0 0 1-.492.307z" transform="translate(-14.513 -1.998)" style="fill:#acc4cc"/>
        <path data-name="Path 4798" d="M36.742 17.557a.519.519 0 0 1-.519-.5c-.006-.134-.167-3.27-2.508-3.572a7.9 7.9 0 0 1-6.028-1.746c-.662.5-2.187 2.011-1.894 5.238a.519.519 0 0 1-1.032.094c-.43-4.734 2.61-6.378 2.739-6.445a.519.519 0 0 1 .6.085 6.932 6.932 0 0 0 5.516 1.74.58.58 0 0 1 .144-.005c2.639.275 3.445 3.11 3.5 4.568a.519.519 0 0 1-.5.539z" transform="translate(-15.995 -6.12)" style="fill:#acc4cc"/>
        <path data-name="Path 4799" d="M37.59 59.77H8.43a.519.519 0 0 1-.519-.519v-5.786a6.908 6.908 0 0 1 6.9-6.894h1a.519.519 0 0 1 0 1.038h-1a5.869 5.869 0 0 0-5.865 5.856v5.267h28.125v-5.267a5.862 5.862 0 0 0-5.856-5.856h-1.068a.519.519 0 1 1 0-1.038h1.068a6.9 6.9 0 0 1 6.894 6.894v5.786a.519.519 0 0 1-.519.519z" transform="translate(-7.911 -23.435)" style="fill:#acc4cc"/>
        <path data-name="Path 4800" d="M39.861 58.157a.519.519 0 0 1-.513-.6l2.1-13.9a.519.519 0 0 1 .663-.419l3.625 1.093a.519.519 0 0 1 .316.727l-1.441 2.892.836.938a.519.519 0 0 1 .052.618l-5.2 8.405a.519.519 0 0 1-.438.246zm2.525-13.751-1.632 10.8 3.661-5.917-.811-.911a.519.519 0 0 1-.077-.577l1.323-2.654z" transform="translate(-23.027 -21.822)" style="fill:#acc4cc"/>
        <path data-name="Path 4801" d="M27.755 58.159a.519.519 0 0 1-.442-.246l-5.2-8.4a.519.519 0 0 1 .052-.618l.835-.942-1.441-2.891a.519.519 0 0 1 .316-.727l3.625-1.092a.519.519 0 0 1 .662.419l2.1 13.9a.519.519 0 0 1-.512.595zM23.2 49.292l3.661 5.917-1.632-10.8-2.462.742L24.09 47.8a.519.519 0 0 1-.077.577z" transform="translate(-14.451 -21.824)" style="fill:#acc4cc"/>
        <path data-name="Path 4802" d="M33.469 52.207a28.139 28.139 0 0 1-3.358-.2.519.519 0 1 1 .124-1.03 26.17 26.17 0 0 0 6.388 0 .519.519 0 1 1 .13 1.03 26.212 26.212 0 0 1-3.284.2z" transform="translate(-18.361 -25.549)" style="fill:#acc4cc"/>
        <path data-name="Path 4803" d="M43.149 41.418a.519.519 0 0 1-.415-.21 7.536 7.536 0 0 1-.924-3.342.519.519 0 0 1 .488-.548.525.525 0 0 1 .548.488 6.627 6.627 0 0 0 .722 2.785.519.519 0 0 1-.415.827z" transform="translate(-24.214 -18.984)" style="fill:#acc4cc"/>
        <path data-name="Path 4804" d="M29.015 41.416a.519.519 0 0 1-.415-.827 6.619 6.619 0 0 0 .723-2.785.52.52 0 1 1 1.038.06 7.579 7.579 0 0 1-.924 3.342.519.519 0 0 1-.422.21z" transform="translate(-17.812 -18.983)" style="fill:#acc4cc"/>
        <path data-name="Path 4805" d="M55.2 52.529a.519.519 0 0 1-.519-.5c-.1-3.38-1.382-4.444-1.395-4.454a.523.523 0 0 1-.09-.727.516.516 0 0 1 .719-.1c.069.052 1.691 1.312 1.8 5.25a.519.519 0 0 1-.5.534z" transform="translate(-29.638 -23.469)" style="fill:#acc4cc"/>
        <path data-name="Path 4806" d="M55.258 60.086a2.052 2.052 0 1 1 2.051-2.052 2.052 2.052 0 0 1-2.051 2.052zm0-3.066a1.014 1.014 0 1 0 1.013 1.014 1.014 1.014 0 0 0-1.013-1.014z" transform="translate(-29.695 -27.961)" style="fill:#acc4cc"/>
        <path data-name="Path 4807" d="M15.578 52.556a.519.519 0 0 1-.519-.482c-.283-3.984 1.912-5.257 2.006-5.309a.519.519 0 1 1 .51.9c-.079.047-1.713 1.055-1.481 4.332a.519.519 0 0 1-.481.554z" transform="translate(-11.337 -23.495)" style="fill:#acc4cc"/>
        <path data-name="Path 4808" d="M13.037 61.065a.519.519 0 0 1-.415-.2 3.245 3.245 0 0 1-.55-1.115 3.121 3.121 0 0 1 2.039-3.889 2.907 2.907 0 0 1 2.232.276 3.331 3.331 0 0 1 1.619 3.432.519.519 0 1 1-1.024-.17 2.3 2.3 0 0 0-1.1-2.357 1.878 1.878 0 0 0-1.442-.183 2.084 2.084 0 0 0-1.323 2.614 2.215 2.215 0 0 0 .377.763.519.519 0 0 1-.413.833z" transform="translate(-9.846 -27.848)" style="fill:#acc4cc"/>
        <path data-name="Path 4809" d="M21.552 62.913a.415.415 0 0 1-.062 0l-.585-.069a.519.519 0 1 1 .123-1.031l.585.07a.519.519 0 0 1-.061 1.034z" transform="translate(-13.94 -30.762)" style="fill:#acc4cc"/>
        <path data-name="Path 4810" d="M13.577 64.824a.519.519 0 0 1-.181-1.006l.623-.23a.519.519 0 0 1 .363.973l-.623.23a.519.519 0 0 1-.183.032z" transform="translate(-10.386 -31.603)" style="fill:#acc4cc"/>
    </g>
</svg>
