<svg style="width:auto; height:24px" fill="currentColor" viewBox="0 0 16 16" xmlns="http://www.w3.org/2000/svg"><g fill-rule="evenodd"><path d="m6 12.5a.5.5 0 0 0 .5.5h8a.5.5 0 0 0 .5-.5v-9a.5.5 0 0 0 -.5-.5h-8a.5.5 0 0 0 -.5.5v2a.5.5 0 0 1 -1 0v-2a1.5 1.5 0 0 1 1.5-1.5h8a1.5 1.5 0 0 1 1.5 1.5v9a1.5 1.5 0 0 1 -1.5 1.5h-8a1.5 1.5 0 0 1 -1.5-1.5v-2a.5.5 0 0 1 1 0z"/><path d="m.146 8.354a.5.5 0 0 1 0-.708l3-3a.5.5 0 1 1 .708.708l-2.147 2.146h8.793a.5.5 0 0 1 0 1h-8.793l2.147 2.146a.5.5 0 0 1 -.708.708z"/></g></svg>