<svg height="12" viewBox="0 0 12 12" width="12" xmlns="http://www.w3.org/2000/svg"><path d="m324.500989 172.488016c-.003015.515552-.343702.600874-.542687.605698 0 0-8.128235.001507-8.480981.001809-.159791 0-.286417-.044621-.376865-.132958-.129642-.129341-.19597-.370836-.19597-.695845 0-.295462 0-3.338123 0-5.46666h9.599517c0 2.044722.003015 4.964977-.003014 5.687956zm-9.596503-7.761017c0-.473042.180895-.675645.606-.678057h.868298v.664489c0 .249636.202.452239.452238.452239.247224 0 .452239-.202603.452239-.452239v-.66479h.612029 4.160595v.66479c0 .249636.202.452239.452239.452239s.452238-.202603.452238-.452239v-.66479c.545702 0 .895433.000301.907493.000301.220089.007236.376865.063314.476358.172454.141701.151952.162805.398573.15979.476056v.030451 1.16768h-9.599517c0-.700668 0-1.168283 0-1.168283zm10.503995.011456c.003015-.124817.003015-.686498-.388926-1.120345-.186925-.205317-.530626-.453746-1.136626-.473645-.063313 0-.410029 0-.922567 0v-.692226c0-.249938-.201999-.452239-.452238-.452239s-.452239.202301-.452239.452239v.692226c-1.420029 0-3.36767 0-4.772624 0v-.692226c0-.249938-.205015-.452239-.452239-.452239-.250238 0-.452238.202301-.452238.452239v.692226c-.506508 0-.835134 0-.871313 0-.729612.004221-1.510477.422391-1.507471 1.583438 0 .07477.003024 7.079041 0 7.536707 0 .580674.15377 1.030802.461292 1.337722.262298.260187.61203.397668 1.013014.397668h.003015c.355761-.000301 8.480981-.001809 8.477966-.001809h.003015c.578866 0 1.441134-.400382 1.447164-1.504447.009044-1.115823.003015-7.443847.003015-7.755289z" fill="#202a4d" fill-opacity=".4" fill-rule="evenodd" transform="translate(-314 -162)"/></svg>