<svg xmlns="http://www.w3.org/2000/svg" xmlns:xlink="http://www.w3.org/1999/xlink" width="409" height="333"><defs><path id="a" d="M0 0h409v333H0z"/></defs><g fill="none" fill-rule="evenodd"><mask id="b" fill="#fff"><use xlink:href="#a"/></mask><use xlink:href="#a" fill="#FFF"/><g fill="#FFF" mask="url(#b)"><path d="M-6 415h429V-14H-6z"/></g><g mask="url(#b)"><path fill="#BDEBF6" fill-rule="nonzero" d="M-20.152-23h466.15v451.047h-466.15z"/><g style="mix-blend-mode:soft-light" fill-rule="nonzero"><path fill="#E4F4FE" d="M263.263 245.09c-1.247-1.459-2.492-.123-3.445-2.453a7.032 7.032 0 0 1-.277-4.719c.865-2.797 1.902-4.943 2.021-8.114.145-3.72.74-5.78 3.965-7.74 2.449-1.49 4.212-2.921 5.987-5.333.787-1.068 1.552-3.23 2.85-3.316.55 1.537.769 4.107.987 5.62.149 1.055.067 6.242-1.483 3.614-.156 2.62.46 5.136-.272 7.719-.603 2.123-1.613 4.25-2.64 6.18-.892 1.686-4.684 12.025-7.693 8.726v-.184z"/><path fill="#FFF" d="M445.998 43.972c-2.162-.865-8.75-1.73-10.062-1.945-4.021-.649-7.417-1.996-11.673-1.676 1.362 2.594-3.776 1.081-5.125.876-2.529-.37-4.972-1.018-7.544-1.275-3.026-.303-5.76-.256-8.452-1.563-1.482-.72-2.81-.707-4.82-.707-1.673 0-3.368-.08-5.04 0-1.674.08-3.135.341-4.715-.188-1.73-.584-2.732-1.591-4.54-1.7-3.025-.179-6.663.217-9.78.412-.649 2.879-3.357 1.878-5.694 2.228-2.244.335-3.936.525-6.028-.417-1.47-.66-2.618-1.362-4.205-1.613-1.586-.25-2.983-1.113-4.487-1.379-2.732-.482-5.62 1.038-8.493.582-3.026-.482-5.588-1.133-8.862-1.133-2.698 0-6.77.956-9.213-.032-.242-1.144.553-1.59 1.275-2.274 1.447-1.366 2.181-1.762.016-2.594-1.28-.497-2.953-.595-4.345-.945-2.793-.702-6.312-2.784-9.243-1.688-1.243.467-1.894 1.658-3.214 2.07-1.228.386-3.052.316-4.34.38-3.273.157-5.651 1.006-8.647 1.728.242.569.39 1.256.16 1.861l-3.026.377c-.689.002-1.375.075-2.05.216-.378 1.58 1.557 2.045 1.298 3.184-.167.72-2.088.96-2.832.938-2.125-.06-3.796-2.162-6.01-1.297-.18 2.272 1.667 3.612 2.75 5.488.716 1.237 1.081 2.309.802 3.915-.244 1.45-1.256 3.318-2.792 1.463-1.146-1.383.118-2.747.162-4.107.045-1.513-.884-2.924-1.708-4.15-1.442-2.147-2.724-4.842-5.657-5.101-2.754-.242-4.476 4.228-3.357 6.42.58 1.145 2.657 2.215.143 2.308-1.66.06-2.481-1.716-3.776-2.453-2.648-1.513-6.41.624-9.245.905-3.608.357-6.344-.302-9.483 1.887-1.373.951-2.611 2.493-4.064 1.127-1.132-1.064-.936-3.297-3.242-2.076-1.73.917-.707 2.337-1.513 3.77-.774 1.392-2.337 1.412-3.554 2.317-1.463 1.081-1.468 1.656-3.424 1.457-1.327-.134-3.657-.371-2.607-2.217.833-1.468 7.782.36 6.559-3.437-.627-1.93-5.687-3.21-7.35-3.545-1.554-.314-3.16-.31-4.718-.603-1.609-.305-2.132-.783-3.396-1.513-2.473-1.438-5.96-.71-8.679-.178-2.594.504-5.778 1.155-8.264 2.112-2.667 1.025-4.694 4.062-6.7 5.992-2.071 2.006-4.401 3.523-6.608 5.425-1.446 1.248-2.393 1.626-4.107 2.458-1.332.649-2.439 1.228-2.45 2.88 0 1.296 1.034 3.05 1.646 4.16 1.08 1.946 1.616 1.756 3.493.986 3.05-1.254 5.146-.973 6.75 2.397.608 1.276-.216 3.731.997 4.684.864.692 2.793-.2 3.538-1.048 1.055-1.2.404-2.13.886-3.487.483-1.357 2.07-2.76 2.93-3.93 1.296-1.757.624-1.553.321-3.376-.216-1.238.245-3.043 1.081-3.98.992-1.1 2.237-1.486 3.217-2.636.69-.81 2.775-2.765 4.154-1.282 1.325 1.424-3.854 5.32-4.107 7.133-.594 4.055 4.025 3.642 6.608 3.026 1.297-.304 3.361-1.642 4.727-1.152 1.743.627 1.358 1.987-.198 2.276-1.297.24-3.375-.624-4.717.041-1.837.913-.125 2-.404 3.515-1.513.188-2.512-1.297-3.939-.923-1.833.482-1.312 2.497-1.32 3.97-.028 4.875-3.822 1.553-6.982 2.268-1.846.415-2.259 1.513-4.15 1.315-1.254-.137-2.765.155-3.965-.316-2.185-.865-1.448-1.894-1.132-3.458.315-1.565-.335-2.553-.597-4.125-2.1-.352-3.79 3.171-3.564 4.879.387 2.905 1.513 3.638-2.255 3.774-3.352.123-4.394 2.853-6.97 4.719-2.249 1.625-4.575 3.724-7.134 4.952-1.234.592-8.538-.75-5.758 2.978 1.783 2.391 4.971 2.754 4.755 6.6-.216 3.99-4.293 2.038-7.17 1.887-1.418-.074-3.39-.06-4.54.75-1.577 1.12-1.054 2.302-1.309 3.968-.432 2.793-2.06 5.255-1.141 8.115 1.158 3.608 5.01-.679 6.037 3.586l.945-.754c.648.955 3.458.142 4.539-.184 3.11-.95 3.975-3.675 5.888-6.003 1.042-1.27 2.412-1.541 3.554-2.687 1.472-1.478.54-2.643 1.296-4.158.828-1.643 2.378-.454 3.779-.368 2.259.143 1.988-.84 3.458-1.833 1.883-1.282 5.796 1.048 7.464 2.45 2.045 1.728 5.024 3.12 6.701 5.187.798.983 1.016 2.663-.229 3.627-.98.759-3.588-.821-3.986.759-.216.864 2.162 2.401 2.797 2.505 1.414.236 2.112-.815 3.204-1.796 1.236-1.114 1.513-1.673 1.376-3.355-.17-2.162-.4-1.96 2.047-2.099-.181-1.377-2.038-1.513-3.04-2.002-1.337-.648-1.497-1.318-2.454-2.258-1.546-1.513-5.311-3.09-5.62-5.519-.562-4.282 5.084.084 6.193.986 2.19 1.779 5.499 3.242 6.884 5.797.798 1.472.489 3.145 1.232 4.576.577 1.107 1.717 1.81 2.162 2.966.512 1.297.279 3.458 2.215 3.601 2.34.182 1.215-1.945.97-3.184 2.12.333 1.255-.949.866-1.87-.554-1.336-1.533-2.185-.331-3.64 1.785-2.161 4.69-.536 6.794-.367 5.812.464-.117-3.552.804-6.003.717-1.915 3.625-5.81 5.62-5.706.4.019 1.805.432 2.116.71.523.455.15 1.146.648 1.605 1.403 1.277 2.594-.24 4.198-.571 2.594-.538 5.568 1.956 7.691 3.218 2.337 1.393 6.958 2.951 3.446 5.664-2.737 2.118-5.558-.026-8.863.138-1.55.078-2.946.536-4.54.376-1.592-.16-3.09-.622-4.72-.192-1.336.352-2.302 1.48-3.577 1.898-1.844.603-3.085-.433-2.782 1.697.432 3.069 1.336 5.656 4.852 5.656 3.027 0 6.023-.635 9.06-.754 2.362-.093 2.604.238 2.304 2.306a33.824 33.824 0 0 0-.417 4.488c-.033 3-.061 6.348-3.777 6.605-3.056.217-6.417-.378-9.623-.378-1.576 0-3.128.078-4.57-.335-1.441-.413-2.786-1.12-4.299-1.32-1.011-.137-3.89-.433-4.727.138-.837.57-.171 1.297-.746 1.904-.575.608-.903.348-1.699.558-3.722.979-4.172-1.256-6.973-2.88-1.403-.812-3.026-1.167-4.35-2.081-1.322-.914-1.246-2.015-2.217-3.201-.523-.649-1.433-.865-1.76-1.652-.263-.635.266-1.614.016-2.265-.711-1.824-2.22-.865-3.973-1.122-2.955-.432-5.75-.393-8.863-.242-3.045.15-5.248 1.496-7.935 2.81-1.264.625-2.51 1.613-3.953 1.563-1.334-.046-2.162-1.115-3.586-1.133-3.091-.037-4.503 3.026-6.368 5.101-.798.887-2.246 1.61-2.882 2.594-.892 1.373-.162 2.914-.704 4.393-.986 2.678-4.215 2.967-5.709 5.09l-.728.956c-1.207 1.536-2.916 1.63-4.004 3.199-1.256 1.809-1.582 4.323-2.563 6.238-.39.752-1.565 2.14-1.704 2.81-.23 1.122.61 1.876.915 2.84.704 2.214.741 4.36-.145 6.459-.661 1.567-.47 3.206-1.13 4.675-.761 1.693-1.462 2.2-1.183 4.34.471 3.615 4.561 5.405 6.937 7.783 2.507 2.511 5.968 3.512 7.213 6.975.977 2.71.486 3.73 3.59 3.547 1.76-.106 3.519-.754 5.283-.765 1.615 0 2.916.58 4.54.575 2.28 0 4.497-.662 6.594-1.552 3.05-1.297 6.485-3.026 9.079-.145 1.418 1.571 2.032 2.732 4.146 3.164 1.845.379 2.557.202 3.633 1.89 2.082 3.272-.73 6.41.132 9.854.709 2.832 4.018 5.296 5.53 7.732.991 1.6.432 2.95.747 4.721.314 1.73 1.474 3.175 1.987 4.803 1.137 3.608-1.425 6.24-1.987 9.545-.34 1.996-.996 4.161-.986 6.185 0 1.673.664 3.287.986 4.945.337 1.717.575 3.515 1.513 5.054.841 1.373 2.39 2.378 2.789 4.003.75 3.046-.106 6.435.977 9.397.536 1.47 1.64 2.092 2.466 3.242.8 1.109 1.204 2.55 1.798 3.783 1.2 2.492-.216 6.288 2.68 7.349l.943 2.075c1.608 0 2.683-.462 4.012-1.08 1.73-.807 2.378-.323 4.297-.433 3.04-.164 5.62-2.514 7.922-4.2 2.65-1.945 4.812-3.582 6.656-6.329a8.365 8.365 0 0 0 1.28-4.196c0-1.355-.926-2.725 0-3.96a.497.497 0 0 1 .028-.348c2.198-1.223 6.268-1.945 5.836-5.693-.193-1.61-1.706-2.397-1.513-4.152.151-1.514 1.53-3.027 2.453-4.192 1.21-1.532 2.322-3.218 3.921-4.347 1.42-1.005 2.966-1.297 3.951-2.784 2.015-3.026.923-6.292 1.418-9.625.353-2.378 0-2.233-1.137-4.35-.676-1.255-1.126-2.718-.648-3.998.268-.744.99-.54.994-1.654 0-.778-.819-1.013-.949-1.694-.315-1.61.664-2.748 1.18-4.107.578-1.513.77-2.676 1.801-4.008 1.031-1.331 2.365-2.419 3.632-3.582 2.667-2.455 4.675-5.404 7.565-7.6 4.641-3.547 6.513-10.862 7.583-16.328.292-1.513 1.323-2.979-.236-3.63-1.297-.538-3.134.178-4.197.707-2.594 1.297-5.417 3.06-8.446 2.88-3.316-.197-4.872-2.895-5.505-5.817-1.297-.716-1.513-1.945-2.419-3.015-.886-1.045-2.255-1.533-3.026-2.68-.772-1.149-.785-2.685-1.552-3.775-1.11-1.574-1.909-1.608-2.224-3.586-.249-1.571-.018-2.931-.893-4.34-.912-1.468-2.186-1.412-3.307-2.406-2.81-2.503-2.378-5.564-3.396-8.729-.502-1.536-2.668-6.897-.943-8.086 1.258 1.47 1.708 2.257 3.305 1.708 1.73-.597 1.805-1.416 2.968.715 1.31 2.4 1.768 4.135 3.731 6.269 1.963 2.133 3.705 4.673 4.805 7.312.67 1.61.67 3.1 1.081 4.723.41 1.624 1.262 1.825 2.499 2.968 1.945 1.803 4.349 4.224 4.673 6.841.333 2.683-1.2 6.876 3.026 6.792 2.76-.054 6.005-2.222 8.672-3.026 3.772-1.14 5.1-3.515 7.894-6.269 2.475-2.43 5.056-4.13 5.893-7.507.216-.864.056-1.266.558-2.08.501-.812 1.677-.972 1.513-2.26-.13-1.053-1.8-2.114-2.594-2.877-.956-.921-1.716-2.006-2.497-2.793-1.467-1.483-1.688-.677-2.646.763-1.45 2.179-6.233 3.28-8.062.89-1.185-1.547-.33-2.902-2.508-4.05-1.526-.804-2.903-.735-3.404-2.69-.633-2.476-.78-8.228 3.227-5.708 1.191.75 1.446 2.071 2.207 3.109a20.148 20.148 0 0 0 3.493 3.685c2.404 1.868 5.584.478 7.74 2.637 1.2 1.2 1.222 1.496 2.969 1.946 1.26.322 2.719.834 4.01 1.08 3.356.67 6.37-1.746 9.765-1.465 2.594.216 4.803 1.924 6.238 3.76.988 1.268.478 2.62 1.645 3.84.837.864 2.78 2.226 3.976 1.995.298-1.146.789-2.43 2.107-2.06 2.203.612 1.73 3.752 1.885 5.296.333 3.415 3.223 7.168 4.582 10.375 1.393 3.286 1.481 6.984 2.309 10.475.597 2.527 4.54 3.891 4.812 2.644.33-1.56 2.326-2.207 2.84-3.675.865-2.464-.024-6.616-.201-9.258-.177-2.641 2.291-5.568 4.576-7.12 1.215-.826 2.557-1.571 3.398-2.834.733-1.096.782-2.438 1.654-3.443.948-1.081 2.286-1.172 3.586-1.513 1.366-.357 1.945-.876 3.26-1.457 1.85-.82 4.106.588 5.042 2.594 1.061 2.282 1.844 4.55 3.026 6.798.902 1.73 2.832 5.283 2.832 5.283.934.408 1.21-.556 1.835-1.183 1.048-1.055 1.384-2.133 2.512-.897.389.433.363 1.479.748 2.043.385.564 1.104.949 1.461 1.543 1.753 2.914 1.182 5.383 1.18 8.685 0 1.879.059 3.506.577 5.294.405 1.394 1.107 2.006 2.013 3.242 1.729 2.36 2.209 4.274 4.107 6.751l.376 1.513c.432.649 4.154 4.436 5.162 3.746 1.007-.69-.48-2.172-.772-3.327-.292-1.154-.087-2.639-.467-3.815-.38-1.176-1.297-1.824-2.13-2.641-.967-.97-1.296-1.65-2.03-2.836-1.179-1.907-3.243-3.51-3.954-5.668-.71-2.12-.046-5.365.544-7.509 1.5-.082 2.194 2.05 3.355 2.853 1.284.884 2.782 1.42 3.938 2.832 1.358 1.654.182 8.11 3.197 3.863.89-1.256 1.587-2.627 2.69-3.727 1.102-1.1 2.714-1.772 3.348-3.208 1.281-2.896-.567-6.755-2.454-8.862-1.532-1.712-5.386-4.513-5.421-6.794l.186-.754c-.017-.18.326-1.297.709-1.892 2.222-3.395 5.265.433 7.974-1.353 1.398-.923 1.427-2.075 3.404-2.607 1.347-.358 2.562-.147 3.958-.371 2.65-.433 4.503-3.262 6.176-5.298 2.055-2.497 3.406-6.053 3.443-9.239.041-3.58-1.08-5.39-2.406-8.486-1.08-2.525-5.375-4.766-3.869-7.6.631-1.198 2.378-1.706.577-3.124-1.37-1.08-2.92.3-4.107.3-2.84 0-3.486-5.978-.78-5.784-.06 3.392 1.057 2.49 3.424 2.045.6-.114 2.691-.268 3.212.033.865.495.648 1.85 1.362 2.436 1.563 1.264 3.424.1 5.05 1.913 1.463 1.638 1.463 3.458 2.076 5.436l.71.41c.481-.881 2.695-.615 3.211-2.07.539-1.513-.784-3.173-1.655-4.2-.997-1.167-6.777-6.268-2.346-6.971.31-2.23-1.603-5.741 2.257-5.021 1.252.233 2.162 1.063 3.108-.184.433-.573.649-2.44.897-3.255.716-2.305 1.06-4.849 1.514-7.162.56-2.81-.969-3.778-2.134-6.039-.648-1.236-.748-2.594-1.513-3.735-.735-1.092-2.341-1.946-3.402-2.64-1.116-.73-2.006-1.56-3.344-1.75-1.76-.247-2.687.607-4.157-.951-1.772-1.887.02-5.177 1.894-6.597 1.402-1.064 2.284-.783 3.821-1.276 1.65-.525 1.995-.992 3.915-.795 1.578.162 2.613.194 4.01.897 1.318.663 2.453 1.729 4.107 1.372 4.699-.99-2.02-5.7 1.878-6.247.5-.069 1.638.534 2.265.578.76.075 1.526.012 2.263-.186 1.53-.48 3.046-2.002 2.834.752-.11 1.407-.538 2.82-.75 4.34-.216 1.559-1.323 2.508-1.15 4.15.277 2.575 3.32 5.085 5.054 6.8.808.8 7.332 5.902 8.318 5.243.795-.536-.383-3.342-.489-4.107-.216-1.708.592-2.964.716-4.529.304-3.82-2.365-3.914-4.339-6.268-.899-1.07-1.513-2.657-.188-3.36 1.252-.663 3.69.15 5.093-.363 1.582-.579 1.697-1.902 2.682-2.987.28-.303.605-.561.962-.767l.018-11.878z"/><path fill="#E4F4FE" d="M334.03 168c.865.288 1.57 2.562 1.892 3.394.534 1.388-.216 2.378-1.158 3.458-.688.785-1.846 2.417-2.994 1.7-1.148-.718-.515-3.04.164-3.945.465-.623 1.152-1.081 1.416-1.807.309-.865.054-1.879.68-2.622V168zm54.63 22.835c-.216-.633-.543-1.77-.562-2.449-.024-.865.482-1.48.471-2.367-.028-1.699 1.146-2.177 2.642-2.64 1.537-.473 2.103-1.983 3.372-2.852.627-.433 1.403-.402 2.103-.66.61-.216 1.578-2.235 2.161-2.524 1.25-.619 3.12-3.353 4.248-4.196 1.128-.843 1.396 2.073 2.83 2.023.648-.021 1.597-.032 2.007.54.54.755-.185 1.26-.683 1.73-.472.452-.915.934-1.327 1.442-.75.897-.493.998.03 2.053.433.865.13 1.381.258 2.263.114.82.73 1.204 1.061 1.868.374.743.249 1.193-.614 1.602-.92.432-1.219.274-1.582 1.437-.236.75-.324 1.513-.633 2.263-.411.984-1.137 1.85-1.514 2.83-.265.698.048 1.532-.216 2.176-.216.571-1.08 1.105-1.612 1.343-.305.138-.688.177-.964.328-.327.18-.433.515-.824.592-.851.167-.949-.598-1.701-.834-1.513-.471-2.849.551-4.245.551-1.062 0-3.186-1.297-2.266-2.552.018-.007-1.891-2.432-2.44-3.967zm-27.55-15.57c-.62-1.969 1.851-2.58 3.21-1.77 1.401.839 1.99 2.207 3.027 3.35 1.08 1.207 2.628 1.583 3.458 3.16.796 1.5 1.93 2.422 3.027 3.675 1.988 2.296 4.238 4.323 6.128 6.701.596.752.767 1.446.99 2.339.24.949.557 1.386 1.115 2.149.938 1.296.184 3.41-.942 4.476-1.818 1.73-2.93-.538-3.965-1.928a32.661 32.661 0 0 1-2.06-3.26c-.648-1.147-1.586-1.904-2.563-2.76-3.16-2.752-4.03-7.323-6.398-10.66-.779-1.097-1.652-1.762-2.568-2.718-.675-.7-1.31-1.766-2.162-2.285l-.296-.469zm38.877 31.233c-.528-.257-1.447.274-2.076.283-.804 0-1.489-.231-2.263-.303-1.571-.153-3.192-.127-4.714-.365-1.522-.238-2.96-.804-4.44-1.247-1.334-.396-3.119-.407-3.964-1.554-.51-.694-.608-1.183-.184-1.998.46-.884.912-.676 1.88-.566.65.073 1.483.136 2.054.488.605.374.886 1.023 1.63 1.211.744.188 1.634.067 2.358.18 1.256.192 1.068-.336 1.982-.824 1.513-.81 2.923.823 4.246 1.115.484.108 1.08-.181 1.513.158.365.285.233.84.488 1.228.575.877 1.835.735 1.963 1.818l-.473.376zm8.419-10.216c-.51-.599-1.24-.57-1.064-1.673.117-.733.772-1.055 1.068-1.673.296-.618.106-1.468.184-2.192.089-.797.296-1.586.454-2.362.246-1.232.992-2.76 2.146-3.424 1.474-.845 2.901-.106 4.457-.089a5.78 5.78 0 0 0 2.264-.36c.419-.174 1.491-1.14 1.984-.948.847.333.216 1.46-.076 1.898-.341.508-.581 1.135-.89 1.578-.82 1.172-2.884.809-4.131.683-1.176-.116-4.107-.847-3.586 1.321.073.34.143.741.564.759.527.026.363-.649.757-.766.499-.157 1.277.498 1.884.478.547-.015 1.479-.594 1.983-.382.864.356.525 1.407 0 1.872-.93.817-3.388.568-2.549 2.19.177.343.452.544.592.922.12.311.037.765.169 1.061.294.668.997.811 1.13 1.697.2 1.297-.505.865-1.415 1.038-.729.138-1.198 1.124-1.87 1.024-.322-.899-.288-4.755-1.89-4.323-.144 1.107.906 1.922.625 3.173-.181.813-.168 3.042-1.392 2.378-1.223-.663-.598-2.946-1.398-3.88zm-17.571-50.22c.542 2.346-5.66.472-3.373-1.675.51-.48.954-.298 1.58-.402.433-.069.95-.536 1.34-.544 1.762-.04 0 2.077.262 2.434l.19.188zm14.34-8.257c.237 1.023.777 4.019 2.479 2.475.93-.845.748-2.831.918-3.985.206-1.362 1.081-2.635 1.135-3.963.093-2.289-2.006-1.268-2.646.091-.737 1.55-1.887 5.382-1.887 5.382zm6.324 19.437c-.603 1.377-2.594-.285-3.279-.778-1.128-.808-1.498-2.112-1.422-3.458 2.81-.632-1.82-7.605 2.695-5.279.577.298 1.453.326 1.911.824.545.585.274 1.262.467 1.988.216.791.432.813.264 1.671-.132.72-.329 1.44-.47 2.162-.103.56-.408 1.632-.097 2.213.433.798 1.206.394 1.913.352 1.868-.108 2.356 1.382 2.627 2.821-.796-.142-1.397-1.022-2.25-1.219-.446-.082-2.359-1.297-2.359-1.297zm-2.736 2.266c0 .38 2.678 3.28 2.641 1.132-.013-.821-1.73-2.36-2.453-1.699l-.188.567zm37.235 66.288a2.306 2.306 0 0 1-.906-.149 10.211 10.211 0 0 1-4.06-2.546c-1.23-1.239-3.89-1.137-3.728-3.072.177-2.036 4.107-4.755 3.067-5.704-1.04-.95-4.479-1.23-5.942-1.7-2.343-.745-1.794.589-3.21 2.266-1.208 1.429-2.136.326-3.257 1.312-.703.616-1.63 3.065-1.557 3.973-1.208.34-2.641.837-3.73.244-1.886-1.037-1.827-1.945-4.108-.432-1.225.817-2.777 1.891-3.395 3.206-.824 1.729-.245 2.477-2.274 3.026-.552.149-1.044-.255-1.73.13-.933.525-.979 1.296-1.325 2.127-.637 1.513-.864 2.364-2.414 3.166-2.693 1.403-5.631 1.585-8.303 3.243-2.725 1.699-5.328 2.403-6.028 5.663-.333 1.552-.238 3.255-.897 4.725-.357.793-.962.694-1.001 1.69-.04.997.737 1.213 1.08 2.071 1.008 2.495.82 7.019-.196 9.208-.97 2.086-3.802 6.077.815 5.333 2.918-.467 5.607-1.36 8.674-1.703 3.005-.338 5.389-2.42 8.117-3.584 5.07-2.162 11.441-4.447 15.094 1.513.586.951 1.418 3.675 2.453 4.15 1.036.476 1.67-1.05 2.503-1.645.93-.67 1.35-1.677 2.564-1.922.06.714.145 1.58-.112 2.246-.283.722-.954.815-1.176 1.321-.616 1.386.216 2.425.564 3.964.233 1.036-.147 1.345.566 2.22.37.459 1.64 1.202 2.119 1.513.622.407 1.281.988 2.032 1.124 1.236.217 1.245-.408 2.124-.685 2.378-.756 5.074-.391 7.566-.97l.01-45.322zM166.687 77.886c1.457-1.194 4.159-1.81 4.669-3.961.143-.586.067-1.133.32-1.701.253-.569.76-.493.815-1.271.095-1.457-1.446-1.645-2.443-1.168-.884.422-1.381 1.414-2.12 1.978-1.081.828-2.506.48-3.543 1.276-.649.497-1.107 1.897-.649 2.87.491 1.033 2.125.754 2.095 1.837v.14h.856zm-10.332-25.475c1.457-1.196 6.69-.964 7.2-3.113.138-.588-.249-1.554 0-2.125.248-.57-1.455-.918-1.403-1.699.095-1.454-1.444-1.645-2.443-1.167-.884.432-1.38 1.414-2.12 1.978-1.08.83-2.503.484-3.54 1.277-.65.498-4.222 2.039-3.76 3.011.495 1.034 2.127.755 2.097 1.838 0 .047 3.113-.048 3.113 0h.856z"/><path fill="#E4F4FE" d="M172.205 79.303c.154-1.68.876-1.628 1.667-2.864.57-.889.108-2.225.285-3.223.167-.95.917-1.805.74-2.83-.188-1.067-1.204-1.333-1.74-2.224-1.1-1.844-.368-5.142 1.173-6.554.67-.614 2.222-1.48 3.072-.817 1.08.847.261 1.946-.543 2.378.649 1.174 2.43.296 2.71 1.705.15.742-.466.865-.6 1.416-.17.7-.097.476.03 1.275.12.731.387.521.182 1.313-.164.624-.865.544-.718 1.489.136.875 1.297 1.53 1.842 1.978.545.447.724.082.962.88.188.637-.417 1.067-.286 1.558.217.806 2.268 1.666 1.105 2.66-.538.463-2.594-.064-3.333.206-1.027.372-1.658 1.38-2.693 1.695-.805.242-2.594-.065-3.005.534l-.85-.575zM111.77 59.205c1.466 3.415 5.188.84 6.658-.88.85-.999 1.316-2.09 2.365-2.972 1.048-.882 2.377-1.466 3.43-2.337 1.105-.908 1.613-1.945 2.438-2.979.889-1.117 2.039-1.27 3.368-1.556 2.55-.543 5.132-.316 7.226-2.015 2.492-2.02 4.624-2.671 7.881-2.831 1.712-.082 6.628-.093 7.44-2.088.405-.999-.821-1.946.662-2.594 1.13-.486 2.431.864 2.968-.432.536-1.297-1.475-1.753-1.025-2.966.45-1.213 2.436-.595 3.439-.707 2.365-.27 2.458-2.019 2.568-4.081 1.264-.525 1.66-1.154 1.82-2.43.201-1.62.257-2.23 1.837-3.117 2.015-1.134 4.362-1.405 6.269-2.542.545-.326 2.24-1.346 1.945-2.129-.294-.782-2.546-.445-3.264-.421-3.201.104-6.335 1.44-9.62 1.277-5.95-.298-11.509-2.687-17.51-2.693-3.789 0-7.803.367-11.389 1.558-3.549 1.176-7.133 1.393-10.831 1.844-1.797.216-3.277.705-5.16.703-1.883-.002-3.458.4-5.21.95-2.453.775-4.917 2.219-7.36 2.595-1.755.263-6.376.497-3.073 3.08 1.729 1.36 3.964 1.029 6.052 1.297 1.429.186 2.936.96 4.107 1.844 1.824 1.387.538 1.58.432 3.253-.138 1.928 1.576 1.17 2.551 1.876 1.68 1.22-.763 1.297-1.68 1.546-.06 1.206.178 1.837-.728 2.561-.817.649-1.576.7-2.263 1.665-1.336 1.87-1.593 3.942-1.701 6.227-.084 1.861 1.565 11.22 4.388 9.766l.97-.272zm-38.5-30.997c.937-.463 2.361.709 3.392.864 1.176.169 2.266-.233 3.405-.29 2.062-.103 5.17 1.24 7.081.433.767-.322 1.766-1.772 2.685-2.274 1.08-.599 2.31-.808 3.538-1.14a24.123 24.123 0 0 1 4.678-.842c1.53-.115 2.04-.787 3.393-1.388 2.244-.998 4.996-.817 7.35-1.41 2.418-.604 4.667-1.597 7.055-2.18.74-1.915-5.106-1.064-6.091-1.109-3.18-.143-6.2.119-9.343.417-4.885.465-10.111-.685-14.826.013-1.217.18-5.836.603-3.685 2.402.942.789 5.756.3 4.425 2.593-.727 1.254-4.514 1.645-5.837 1.946a93.306 93.306 0 0 0-6.084 1.558l-1.135.407z"/><path fill="#E4F4FE" d="M83.746 23.75c-.908-.73-2.147-1.063-3.113-1.718a4.273 4.273 0 0 0-3.595-.478c-.776.217-1.394.666-2.194.865-.629.158-1.236.33-1.854.432-.536.08-3.33-.29-3.398.338-.07.626 2.096 2.068 2.617 2.198a9.576 9.576 0 0 0 3.612.138c1.213-.238 2.28-.648 3.537-.776a11.374 11.374 0 0 1 1.77-.142c.525.026 1.185.237 1.697.142.255-.078.494-.198.709-.356l.212-.642zm-9.412 24.556a8.657 8.657 0 0 0-2.403-.566c-.94-.083-1.297.339-1.998.851-1.982 1.43.335 2.192 1.911 2.192 1.946 0 3.299-.216 4.756 1.206 1.27 1.243 2.353 2.523 4.035 3.253.608.266 2.276 1.081 2.903.649.958-.672-.261-1.662-.305-2.27-.054-.73.865-.596 1.431-.514.995.151 1.604.216 2.27-.744 1.215-1.729.471-2.689-.197-4.468-.294-.79.216-1.668 1.185-1.563.968.106 1.137 1.423 1.98 1.842 2.174 1.08 6.132-2.23 2.89-3.402-1.381-.502-3.14-.456-3.878-1.892-.616-1.2-.14-1.5.588-2.418 1.513-1.918-3.31-3.787-4.745-4.24a10.045 10.045 0 0 0-3.004-.507c-1.345 0-2.447-.344-3.733.138-.72.27-1.946 1.005-2.464.275-.52-.73-.171-1.563-1.297-1.758-1.127-.194-1.885.865-2.674 1.472-.712.55-1.535.94-2.413 1.142a1.83 1.83 0 0 1 .217-2.052c.546-.685.752-1.061-.433-1.2-1.377-.16-3.143 1.384-4.035 2.268-.61.601-1.146 1.582-.539 2.389.649.864 2.05 1.048 3.027 1.132 1.993.173 4.059.327 6-.123.672-.153 1.513-.484 2.214-.29.265.074.272.325.633.36.398.036.536-.217.852-.336 1.573-.586 2.183 1.513 2.974 2.53 1.2 1.53 1.547 3.363-.126 4.668-.676.526-1.296.882-1.787 1.563-.519.72-.83.837-1.77.845h-.578l-1.487-.432zm6.794-13.516c-.564-.054-1.535-.216-1.827-.796a1.018 1.018 0 0 1 .692-1.4c1.081-.307 2.317.382 3.327.57.432.08 1.148-.073 1.558.154.634.35.53.96 0 1.189-.432.188-1.145.05-1.627.144-.623.12-1.196.772-1.768.776l-.355-.637zm-14.792-2.052c-1.316-.147-2.721.067-3.979-.198-.27-.057-1.25-.383-1.418-.316-.249.095-.216.493-.387.648a2.417 2.417 0 0 1-.743.405c-.63.3-2.266 1.448-1.38 2.196.776.648 2.231-.37 3.027-.48 1.063-.147 1.649.145 2.637-.34.691-.337 1.688-.68 1.965-1.5l.278-.415zm11.82.212c.3-.77 2.395-.739 3.097-1.223.433-.299 1.042-1.165.798-1.753-.244-.588-1.239-.57-1.772-.547-.8.034-1.544.337-2.337.5a7.933 7.933 0 0 1-3.242-.038c-1.373-.263-3.111-.378-4.324-1.06-.773-.433-1.402-.749-2.068.15-.614.826-.716 1.414-1.62 2.004.973 1.41 3.844 1.046 5.441 1.046.921 0 2-.157 2.9.013.898.171 1.674.817 2.55.837l.577.071zM51.05 37.48c1.32.378 2.927-.299 3.917-1.206.508-.472.713-1.001 1.08-1.552.292-.433.999-1.014.798-1.63-.216-.649-1.32-.433-1.91-.303-.976.216-1.847.478-2.83.29-.902-.173-1.14-.242-1.632.717-.422.83-.612 1.081-1.552 1.278-1.02.216-.878.627-.216 1.472.577.733 1.513 1.245 2.477 1.146l-.132-.212zm5.317-7.784c-.153.432 1.215.815 1.64.847a2.259 2.259 0 0 0 1.46-.432 3.776 3.776 0 0 1 1.57-.649c.57-.088 1.253-.131.905-.977-.465-1.139-2.343-1.016-3.242-.598-.448.216-.785.553-1.2.784-.49.27-1.064.348-1.487.722l.354.303zm-.151 22.007c.022-.822 1.286-1.278 1.842-1.682.69-.497.715-.97 1.132-1.628.81-1.281 2.268-.851 2.882.217.451.784.933 1.013 1.513 1.668.36.411 1.037 1.643.432 2.013-.605.37-1.414-.57-1.917-.794-.631-.278-1.176-.32-1.768.14-.779.604-1.271.91-2.322.92-.782 0-1.945.216-1.783-.92l-.011.066zm-9.06-20.027c.49-.1 3.71-.562 2.482-1.485-.227-.173-.616-.039-.851-.158-.491-.248-.216-.216-.433-.62-.309-.58-.568-.845-1.411-.778-.776.06-1.193.674-1.913.903a2.378 2.378 0 0 1-2.054-.283c-1.27-.76-2.427-.88-3.84-.337-1.099.42-3.693.244-3.734 1.697-.04 1.39 1.61 1.113 2.633 1.065 1.576-.073 3.041-.127 4.585.07 1.422.183 3.607.503 4.952 0l-.415-.074zm-6.013 10.544c.997-.296 2.415-.966 3.171-1.716 1.235-1.228-.994-1.905-.622-3.307.166-.649.778-.962.834-1.7a1.126 1.126 0 0 0-1.256-1.273c-1.214.063-2.941 3.221-4.167 1.892-.48-.523-.266-.99-1.215-.902-.562.054-1.275.573-1.84.5-.637-.082-.736-.75-1.487-.852-.51-.07-1.15.35-1.556.216-.594-.203-.398-.888-.495-1.342-.175-.865-.722-.878-1.543-.923a18.59 18.59 0 0 1-2.138-.216c-.625-.102-1.128-.348-1.766-.42-1.513-.168-2.992.5-4.461.7-1.92.262-3.267 1.98-5.028 2.534-.484.151-1.751.558-1.386 1.366.11.244.95.465 1.189.493.73.093 1.187-.326 1.829-.57.968-.368 2.083-.182 3.1-.403.678-.149 2.075-.698 2.758-.443.588.216.287.376-.05.85.233.138.48.39.702.497.223.106.865.093.995.277.512.752-1.031.894-1.472.923-.722.047-1.15.194-.727.977.348.648.817.758-.08 1.357.379.45 1.081.285 1.583.547.607.311.415.804.987 1.014.649.237 1.63-.36 2.236-.552.84-.265 1.638-.324 2.494-.492 1.68-.331 3.16-.921 4.868-.532.925.216 2.436.024 3.056.938l1.487.562zm48.311 38.688c-1.945.53-2.544-1.503-1.396-2.81.39-.433 1.47-.906 1.215-1.73-.37-1.193-1.487-.013-1.894.472-1.491 1.779-2.282 4.202-4.435 5.31-.915.47-1.81.638-2.454 1.483-.618.813-.806 1.546.188 1.883.625.216 1.831.242 2.454-.013.758-.305 1.297-1.04 2.19-1.12.648-.058 1.64.286 2.245.478.755.242 1.273.886 1.98 1.135 2.311.813 1.632-1.254 1.887-2.549.126-.637.19-1.63.398-2.248.208-.618 1.174-1.335-.216-1.342-.562 0-.96.432-1.416.569l-.746.482zm-46.328 13.87c-1.37.217-2.404.729-3.854.649a2.55 2.55 0 0 1 .384-2.977c.954-1.029 1.855-1 3.17-1.08.559-1.71.552-2.83-1.4-3.459-.983-.313-3.302-.882-3.754-1.928-.357-.824.089-1.844-.374-2.695-.39-.718-1.24-.988-1.93-1.319-1.563-.744-3.184.337-4.583 1.226-.76.48-1.461 1.162-2.287 1.513-.825.35-1.63.231-2.45.477-.509.152-1.92.407-1.778 1.11.169.81 1.617.747 2.162.648 1.595-.26 3.119-.74 4.81-.569.775.078 1.482.387 2.265.474.782.086 1.485 0 2.191.166.286.063.53.151.813.216.266.95-1.186.649-1.777.649a8.765 8.765 0 0 0-2.258.287c-1.97.495-1.972 1.33-3.1 2.83-1.05 1.398-1.768 2.248-2.194 3.962-.305 1.221-.277 3.66 1.602 2.356.67-.467 1.253-1.559 1.776-2.162a15.728 15.728 0 0 0 1.65-2.364c.825-1.425 1.874-2.7 3.458-3.28.662-.235 1.438-.466 1.513.45.056.685-.847 1.325-1.253 1.868-.76 1.022-.284.7.24 1.513.484.739.242 1.364-.284 2.03-.665.84-1.945 1.575-1.08 2.64.676.846 2.161.958 3.136.736a10.592 10.592 0 0 0 3.115-1.397c.899-.57 1.43-1.366 2.161-2.003l-.09-.567z"/><path fill="#E4F4FE" d="M111.533 203.748c0-2.174-.478-2.265-1.838-3.767-2.144-2.378-3.806-3.73-7.031-4.527-3.182-.784-5.932-.96-8.493-3.214-2.562-2.254-5.62-.901-8.292-2.494-.955-.569-2.76-1.924-3.218-2.975-.552-1.243-.649-2.496-1.367-3.767-1.396-2.445-2.196-5.469-5.051-6.574-2.46-.95-6.51.169-7.879-2.118-.787-1.318-.884-2.161-2.118-3.255-.958-.845-2.199-1.373-3.07-2.212-1.046-1.007-1.355-2.256-2.637-2.989-1.282-.733-2.739-.614-4.107-.413-1.368.201-3.087.774-4.54.387-1.156-.305-2.48-1.407-3.566-1.945-1.582-.791-2.527-1.36-3.826 0-.912.96-.46 3.354-2.008 3.026.1-1.027.407-2.354-.748-2.834-.255-1.682 1.416-1.75 1.252-3.156-2.134 1.17-4.682 1.61-6.94 2.57-1.384.586-2.193 1.312-2.653 2.696-.333 1-.247 1.664-.897 2.503-.456.588-1.144.82-1.552 1.459l-1.13-1.32c-.993-3.202-4.782-.027-6.803-.71-2.313-.78-3.649-3.638-3.534-5.897.108-2.185 1.052-6.452-.807-7.731-1.858-1.28-5.695-.106-7.883-.794-.343-2.112 1.926-3.705 2.85-5.246.511-.864.68-1.945 1.08-2.836.318-.702 1.23-1.872 1.373-2.594.616-3.08-2.566-1.975-4.393-1.75-3.067.376-2.875 2.064-3.586 4.718v.376c-1.744 1.688-7.206 3.05-9.256 1.332-1.106-.93-.836-3.43-1.08-4.728-.31-1.662-.787-3.17-.798-4.906 0-1.654.545-3.186 1.094-4.719.49-1.383.85-3.426 1.55-4.719.949-1.75 5.114-4.373 7.16-4.958 2.839-.813 5.057 1.956 7.616-.093 1.53-1.226 1.824-1.474 3.908-1.883 1.606-.318 2.998-.847 4.715-.614 4.245.582 2.879 4.399 3.21 7.553.484 4.597 4.874 4.556 5.706.043.344-1.863-.432-3.459-.233-5.33.25-2.294 1.454-3.128 2.972-4.708 1.872-1.946 3.16-3.675 5.285-5.296 1.822-1.399 3.555-3.215 4.58-5.283 1.922-3.88 5.59-6.755 9.295-9.204 1.78-1.178 3.355-1.945 4.896-3.441 1.361-1.327 2.563-2.44 4.122-3.437a19.357 19.357 0 0 1 4.49-2.198c-.623 3.112.933 3.33 3.568 2.572 2.233-.649 6.362-.63 3.255-3.117-1.124-.897-1.91-.692-1.513-2.69.188-.948 1.578-2.41 1.144-3.393-.765-1.73-5.564-.715-7.155-.787-.774-3.551 6.258-2.47 8.089-2.397 1.593.056 3.181.346 4.718 0s2.901-1.37 4.34-2.122c2.547-1.336 6.183-.954 5.852-4.484-.305-3.22-4.381-3.88-4.907-7.172-.525-3.292.679-8.185-4.152-5.507-1.126.624-3.21 1.47-4.345.417-1.033-.955-.648-2.555-1.684-3.59-1.459-1.46-5.289-3.602-7.38-2.65-.98.445-2.146 3.216-2.868 4.156-.789 1.027-2.788 2.147-3.164 3.208-.266.75.37 1.513.197 2.267-.217.902-1.03 1.617-1.697 2.266-1.325 1.28-3.132 1.859-4.207 3.387-1.163 1.662-1.428 2.782-3.169 4.014-1.171.834-2.496 1.779-3.726 2.576-.556-1.175-.3-3.242 0-4.504.542-2.222 1.174-2.183-.949-3.444-2.367-1.402-5.227-3-7.968-3.162-1.696-.1-3.196.279-3.395-1.697-.091-.877.605-1.318.566-2.075-.041-.91-.683-1.323-.763-2.073-.296-2.905 5.026-4.016 7.217-5.058 1.7-.804 3.517-1.135 5.244-1.73 1.66-.576 2.88-1.655 4.34-2.682 2.502-1.766 5.294-3.605 8.126-4.682 2.453-.929 5.733.668 7.019-2.784 1.59-4.275-4.866 1.377-5.897 1.842-1.54.694-3.074.454-2.293-1.66-.418-.087-.753-.463-1.265-.432.303-1.533-1.046-1.801-2.261-1.706-.536-.912-.035-1.833.707-2.378-3.89-1.606-4.144 3.085-6.41 4.723-2.708 1.946-5.13.433-8.293 1.233-1.513.38-3.085 1.044-4.725.804-1.544-.217-2.966-1.351-4.67-1.513-3.674-.372-7.398.572-11.175.384-2.401-.116-3.047-1.08-4.902-2.256-1.757-1.116-4.129-1.049-6.243-.95-2.114.1-4.137.418-6.216.608-1.978.18-3.52-.322-5.424-.607-3.704-.558-7.461-.216-10.995-1.124-1.823-.465-3.258.216-5.05.367-1.01.055-2.022.02-3.026-.104v97.69c.752.865 1.347 1.79 1.474 2.97.34 3.171-.88 5.272 2.315 7.503 1.263.882 2.81 1.297 4.289 1.744 1.865.58 2.297 1.403 3.77 2.499a13.782 13.782 0 0 0 9.251 2.782c2.996-.156 4.39 2.734 7.16 3.787 2.913 1.107 4.653 1.716 6.376 4.56.812 1.345.627 2.642 1.513 3.933.819 1.184 2.393 2.116 3.59 2.872 1.107.696 2.553 1.67 3.817 2.02 1.764.488 1.868-.372 3.243-1.081 3.71-1.913 3.737 3.519 3.74 5.803 0 1.877-.305 2.648-1.133 4.153l-1.7 3.398c.303.188.56.136.35.724-2.593.767-2.08 1.87-2.954 4.189-.85 2.26-.184 3.195-.216 5.464-.024 1.838-1.448 1.807-1.86 3.243-.328 1.15 1.127 2.93 1.657 3.932.648 1.232 1.297 3.175 2.302 4.282 1.374 1.526 2.537 2.057 3.506 3.968 1.36 2.68 1.729 6.537 3.774 8.774 1.8 1.974 4.734 3.009 6.839 4.477 2.687 1.876 5.596 6.268 5.851 9.435.377 4.66.028 9.078-.179 13.765-.238 5.334 1.349 10.016 1.122 15.3-.197 4.65.41 8.583 1.513 12.969.912 3.6 3.95 5.094 5.134 8.875 1.204 3.841 2.39 7.808 4.107 11.508 1.338 2.89 2.738 7.68 6.372 7.594 2.291-.054 1.824-.34 3.104 1.846 1.033 1.761 2.321 1.459 3.543 2.494h-.376c1.156 0 4.014.698 4.906 0 1.641-1.284-.815-2.278-1.887-2.87a14.956 14.956 0 0 1-6.1-6.135c-1.668-3.089 3.122-4.924 1.777-7.61-.743-1.49-7.254-1.484-5.16-4.38.552-.763 1.907-.78 2.5-1.652l-.567-1.132c1.027-2.454-.076-2.395-1.08-4.382-.284-.553-.716-1.945-.433-2.594.516-1.165 1.377-.533 2.282-.931 1.561-.692 1.641-2.3 3-3.264 1.436-1.014 4.162-.575 5.108-2.211 1.803-3.102-6.227-6.917-.946-7.181 1.705-.089 3.292.322 4.906.382 2.136.078 2.242-.693 3.027-2.457.68-1.544 1.284-2.897 1.7-4.54.293-1.134.316-1.497 1.092-2.455.47-.577 1.217-.772 1.7-1.364.767-.936 1.785-3.08 1.93-4.297.173-1.492-.828-2.975-.394-4.54.685-2.457 3.956-5.138 6.424-5.477 1.537-.216 3.295.432 4.54-.746 1.026-.968 1.256-2.658 2.313-3.73 1.297-1.315 2.293-1.73 2.593-3.634.249-1.606-.13-3.318-.19-4.905-.138-3.62.551-5.877 1.892-9.054.661-1.572.702-3.027 1.744-4.492.882-1.239 2.3-2.162 3.128-3.441.87-1.338.581-3.063.586-4.702z"/><path fill="#E4F4FE" d="M21.069 140.443c-1.984-.731-.432-2.36.793-2.726 1.176-.35 2.71-.123 3.958-.123 1.351 0 2.732-.346 3.96.192 1.228.538 2.15 1.73 3.325 2.341 1.134.6 7.217 2.944 5.427 4.95-.648.72-2.937.216-3.845.274-1.93.115-2.261.761-2.693-1.266-.5-2.352-1.9-2.635-4.107-3.459-.649-.24-1.792-1.093-2.367-1.152-1.245-.127-1.79 1.066-3.027.8l-1.424.169zm19.32 8.87c-.432-.12-1.541-.58-1.55-1.147-.015-.938.763-.55 1.388-.757 2.13-.7 1.297-.901 1.548-2.81.099-.735-.556-.48.51-.821.748-.242 1.297.181 1.902.432 1.357.582 6.182 1.494 6.016 3.36-.137 1.512-2.039.734-3.167.95-.83.16-.865.433-1.464.753-.661.36-4.011.365-5.183.04z"/></g><path fill="#093B59" fill-rule="nonzero" d="M152.868 82.932c-.298 5.105-2.704 3.875-7.816 3.875s-11.024-2.717-11.024-10.477c0-6.666 6.208-8.646 5.298-19.754-.82-10.077 15.323-4.107 13.542 26.356z"/><path fill="#093B59" fill-rule="nonzero" d="M153.421 82.932c.299 5.105 2.702 3.88 7.817 3.88 5.114 0 11.024-2.717 11.024-10.477 0-6.667-6.208-8.647-5.298-19.755.815-10.081-15.328-4.111-13.543 26.352z"/><path fill="#7FC5E7" fill-rule="nonzero" d="M172.912 156.436s8.863 7.92 13.802 40.832c4.384 29.153-17.416 140.847-17.706 141.798-1.89 3.27-13.423 2.884-15.33.716-.185-1.362 3.675-129.12.163-129.204h-3.947s12.872-37.77 23.018-54.142z"/><path fill="#7FC5E7" fill-rule="nonzero" d="M172.912 156.436h-38.828s-8.966 8.592-14.62 40.827c-5.655 32.236 12.405 140.848 12.694 141.799 1.892 3.27 13.423 2.883 15.33.715.186-1.362 1.342-129.119 4.857-129.203h3.947s16.813-33.1 16.62-54.138z"/><path fill="#FDFDFD" fill-rule="nonzero" d="M172.912 156.436c1.535-6.269 4.77-32.5 5.071-42.2.3-9.702-2.613-21.052-5.069-22.993-2.455-1.941-13.118-5.754-13.118-5.754h-13.322s-10.561 4.345-14.268 8.114c-3.707 3.77-4.475 7.438-4.475 21.4 0 13.961 4.94 38.452 6.353 41.433 3.156 3.782 37.52 5.328 38.828 0z"/><path fill="#F8BB98" fill-rule="nonzero" d="M164.662 79.41c-2.315 1.466-5.348 1.168-5.348 1.168l.48 4.91s-3.614 4.378-6.917 4.378-6.394-4.377-6.394-4.377l-.13-9.762a31.258 31.258 0 0 0-2.075-9.67c-2.034-5.16-3.327-3.22-2.899-9.25.547-7.61 16.333-11.934 16.333-11.934l8.03 1.297s2.404 6.742 2.428 12.753c.024 6.012 2.676 16.573-3.508 20.488z"/><path fill="#093B59" fill-rule="nonzero" d="M139.296 53.331c2.544-8.979 9.225-11.93 17.539-12.727 8.313-.798 11.752 6.158 11.914 8.698.162 2.54-.61 8.68-.61 8.68s-3.062-8.95-6.456-8.503c-4.941 8.225-13.233 10.564-13.233 10.564s-1.01 3.1-1.033 4.461c-.04 2.18-2.759 3.872-3.407 1.978-.648-1.893-5.96-8.76-4.714-13.15z"/><path fill="#F8BB98" fill-rule="nonzero" d="M147.41 64.504c2.214.333-1.282 3.171-2.948 2.89-1.19-.198-2.484-1.807-2.484-4.05 0-2.469 1.578-3.474 2.77-3.277 2.07.348 1.15 4.208 2.662 4.437z"/><path fill="#392E39" fill-rule="nonzero" d="M155.816 61.82c0 .73-.261 1.323-.583 1.323-.322 0-.584-.593-.584-1.323s.262-1.323.584-1.323c.322 0 .583.588.583 1.323z"/><path fill="#093B59" fill-rule="nonzero" d="M152.883 58.995c1.351-1.081 3.859-1.081 3.859-1.297 0-.217.2-.98.015-1.11-.186-.129-3.184.762-4.057 1.873-.234.3-.182.825.183.534z"/><path fill="#392E39" fill-rule="nonzero" d="M164.662 61.82c0 .73.261 1.323.583 1.323.322 0 .586-.593.586-1.323s-.264-1.323-.586-1.323c-.322 0-.583.588-.583 1.323z"/><path fill="#093B59" fill-rule="nonzero" d="M167.137 58.802c-1.35-1.08-3.398-.897-3.396-1.098.002-.2-.201-.98-.018-1.109.184-.13 2.763.616 3.638 1.73.232.291.143.771-.224.477z"/><path stroke="#E9A37C" stroke-linecap="round" stroke-width="3.48" d="M160.635 61.658c-.353 3.774 2.1 3.964 2.13 5.099.031 1.135-1.62 1.768-1.62 1.768m-8.14 10.302c2.124 2.086 5.62 1.75 5.62 1.75"/><path stroke="#0069A5" stroke-linecap="round" stroke-width="4.04" d="M150.955 210.565c6.254.865 12.69-.39 12.69-.39"/><path fill="#96D6F7" fill-rule="nonzero" d="M174.447 150.174s4.107-16.294 4.107-35.163c0-13.97-.56-20.219-4.27-23.993-3.708-3.774-14.482-5.525-14.482-5.525s-3.417 19.471-5.862 19.471c-2.444 0-7.466-19.477-7.466-19.477s-10.764 1.748-14.482 5.525c-3.718 3.776-4.27 10.027-4.27 23.993 0 18.868 4.108 35.162 4.108 35.162s-13.607 18.045-12.453 39.388c.216 4.05 68.418 5.385 67.946-.389-1.772-21.732-12.876-38.992-12.876-38.992z"/><path stroke="#278FC8" stroke-linecap="round" stroke-width="4.04" d="M162.195 128.958s-6.331-.357-12.753 1.35"/><path fill="#F8BB98" fill-rule="nonzero" d="M115.594 190.779c1.96 6.089 5.404 9.318 5.854 9.915.389.523 1.465.179 1.163-.465-.46-.988-2.52-5.045-2.52-5.045s3.077 5.075 3.771 6.15c.694 1.074 2.363.194 1.677-.939-.836-1.383-3.862-6.484-3.862-6.484s4.433 5.89 5.077 6.75c.644.86 2.75-.142 1.73-1.57-1.02-1.426-4.996-7.132-4.996-7.132s4.12 4.539 4.993 5.512c.874.972 2.612-.167 1.472-1.73-1.139-1.562-4.865-6.484-4.865-6.484l-1.137-3.139s1.325.912 2.555 1.946c1.106.938 2.91-1.053 1.258-2.514-1.652-1.462-3.943-2.616-5.07-6.904-4.074-15.499 3.165-42.339 3.165-42.339l-12.295-7.386s-6.575 35.134 2.03 61.858z"/><path fill="#FFF" fill-rule="nonzero" d="M123.458 177.857c-4.072-15.525 2.401-41.55 2.401-41.55l-13.315-8.246s-5.235 28.965 0 54.158c.577 2.78 12.038-.074 10.914-4.362z"/><path fill="#96D6F7" fill-rule="nonzero" d="M125.753 141.86c2.91-20.373 11.171-26.7 11.171-26.7s2.56-28.197-2.075-26.128c-12.848 5.734-24.425 32.607-24.084 39.245.342 6.638 14.988 13.583 14.988 13.583z"/><path stroke="#278FC8" stroke-linecap="round" stroke-width="4.04" d="M129.093 128.065s1.271-10.978 3.113-14.05"/><path fill="#F4A38E" fill-rule="nonzero" d="M167.917 65.42c-.041.602-1.014 1.019-2.162.937-1.147-.082-2.049-.638-2.006-1.24.044-.604 1.014-1.021 2.162-.937 1.148.084 2.051.638 2.006 1.24zm-9.701.494c.127.69-.843 1.45-2.162 1.697-1.318.246-2.503-.113-2.63-.805-.128-.691.838-1.45 2.161-1.699 1.323-.248 2.501.115 2.63.807zm6.934 5.455c.102.753-1.063 3.243-2.503 3.448-1.44.206-3.534-1.444-3.636-2.194-.101-.75 1.474-2.103 2.914-2.3 1.44-.196 3.121.294 3.225 1.046z"/><path fill="#FFF" fill-rule="nonzero" d="M158.568 71.735s.573 2.438 3.731 2.161c3.158-.276 2.88-3.203 2.88-3.203l-6.61 1.042z"/><path fill="#F7A856" fill-rule="nonzero" d="M159.917 158.048c.341 1.922.132 2.916-1.79 3.258l-16.86 3.002c-1.922.344-2.875-.432-3.219-2.367l-4.035-22.608c-.342-1.923.302-2.877 2.224-3.218l15.671-2.79c1.92-.344 3.636.19 3.98 2.113l4.029 22.61z"/><path fill="#FEF0E7" fill-rule="nonzero" d="M180 180.666c-4.062 1.372-8.413 1.513-12.153-.792-6.834-4.19-8.518-13.548-7.93-21.386l-3.528.627c-1.922.341-2.566 1.297-2.224 3.218l4.025 22.608c.343 1.924 1.297 2.71 3.218 2.367l16.86-3.002c1.922-.342 2.132-1.336 1.79-3.258l-.058-.382z" style="mix-blend-mode:multiply" transform="translate(-20.152 -23)"/><path fill="#E6BCC3" fill-rule="nonzero" d="M159.188 161.438a1.37 1.37 0 1 1-2.698.481 1.37 1.37 0 0 1 2.698-.48zm4.968-.884a1.368 1.368 0 1 1-2.695.477 1.368 1.368 0 0 1 2.695-.477zm4.969-.886a1.368 1.368 0 1 1-2.694.48 1.368 1.368 0 0 1 2.694-.48zm4.97-.884a1.37 1.37 0 1 1-2.699.48 1.37 1.37 0 0 1 2.698-.48z" style="mix-blend-mode:multiply" transform="translate(-20.152 -23)"/><path fill="#EDEDED" fill-rule="nonzero" d="M138.479 138.218a.865.865 0 0 1-.694 1 .865.865 0 0 1-1.001-.697l-.486-2.735a.865.865 0 0 1 .696-.992c.466-.08.91.23.996.696l.489 2.728zm4.969-.882a.865.865 0 0 1-.696.997.865.865 0 0 1-.999-.696l-.486-2.735a.865.865 0 0 1 .696-.999.865.865 0 0 1 .999.699l.486 2.734zm4.97-.886a.865.865 0 0 1-.697.998.865.865 0 0 1-1-.696l-.487-2.736a.865.865 0 0 1 .698-.997.865.865 0 0 1 1 .694l.485 2.737zm4.967-.886a.865.865 0 0 1-.694 1 .865.865 0 0 1-.999-.69l-.486-2.736a.865.865 0 0 1 .702-1.003c.467-.08.911.23.997.696l.48 2.733z"/><path fill="#F8BB98" fill-rule="nonzero" d="M138.446 157.776s-.793-.253-2.473-1.31c-1.18-.742-1.608-1.258-1.746-1.891-.139-.634.581-.865.581-.865s-1.66-.97-.882-2.086c-1.178-1.835 0-2.278 0-2.278s-.354-.216-.648-1.31c-.337-1.265 1.967-1.762 1.967-1.762l.406 2.276 4.2.752s-1.2-1.08-2.5-2.023c-1.174-.864.336-3.076 2.146-1.815 1.809 1.26 3.592 2.256 7.902 3.305 17.4 4.234 29.164-9.488 29.164-9.488l11.357 1.916s-8.93 17.556-49.474 16.579z"/><path fill="#FFF" fill-rule="nonzero" d="M148.018 147.824c24.38.865 29.159-12.753 29.159-12.753h14.824s0 25.61-45.663 24.384c-2.836-.071-2.756-11.787 1.68-11.631z"/><path fill="#96D6F7" fill-rule="nonzero" d="M176.09 136.614c2.248-13.925-2.76-23.71-2.76-23.71s-3.734-23.83.96-21.89c21.053 8.7 21.46 37.423 18.766 43.503-2.693 6.08-16.966 2.097-16.966 2.097z"/><path stroke="#278FC8" stroke-linecap="round" stroke-width="4.04" d="M176.135 135.075c2.475-6.15 4.22-15.563 2.765-22.556"/><path stroke="#E9A37C" stroke-linecap="round" stroke-width="3.48" d="M137.476 155.06c-.783-.317-1.472-.457-2.184-1.02m1.565-1.294c-.78-.316-1.472-.458-2.183-1.018m2.023-1.282c-.782-.316-1.472-.458-2.18-1.018"/><path fill="#F8BB98" fill-rule="nonzero" d="M47.868 211.759c1.327 6.268 4.427 9.824 4.805 10.464.335.56 1.44.328 1.206-.344-.356-1.027-1.99-5.276-1.99-5.276s2.542 5.367 3.123 6.504c.581 1.137 2.328.432 1.764-.759-.692-1.463-3.178-6.852-3.178-6.852s3.807 6.318 4.358 7.24c.551.92 2.75.137 1.872-1.386-.878-1.524-4.237-7.616-4.237-7.616s3.634 4.94 4.403 5.996c.77 1.058 2.614.106 1.641-1.556-.973-1.662-4.174-6.945-4.174-6.945l-.81-3.242s1.225 1.042 2.338 2.205c1.008 1.048 3.005-.746 1.513-2.378-1.491-1.632-3.657-3.007-4.334-7.388-2.455-15.862 7.501-41.814 7.501-41.814l-13.44-8.101s-8.182 33.783-2.361 61.248z"/><path fill="#278FC8" fill-rule="nonzero" d="M116.305 208.136H66.434c-7.847 33.178-5.517 148.728-5.227 149.669 1.894 3.268 13.423 2.881 15.33.715.186-1.362 16.5-121.188 20.014-121.264h3.947s16-8.08 15.807-29.12z"/><path fill="#278FC8" fill-rule="nonzero" d="M78.29 208.136h49.871c7.847 33.178 5.519 148.728 5.227 149.669-1.891 3.268-13.423 2.881-15.33.715-.186-1.362-16.499-121.188-20.011-121.264h-3.95s-16-8.08-15.807-29.12z"/><path fill="#6DA8D5" fill-rule="nonzero" d="M64.696 212.43c7.998 3.913 60.923 1.881 64.801-2.872s-.934-67.61-.934-67.61-1.995-28.986-4.45-30.931c-2.456-1.946-20.103-6.79-20.103-6.79H90.68s-16.748 3.945-20.457 7.726c-3.71 3.78-3.325 32.698-3.325 32.698s-5.434 66.195-2.202 67.78z"/><path fill="#F8BB98" fill-rule="nonzero" d="M108.867 98.16c-2.343 1.418-5.345 1.165-5.345 1.165l.48 4.911-4.663 14.454-8.659-14.454-.13-9.76a31.258 31.258 0 0 0-2.066-9.681c-2.034-5.162-3.327-3.22-2.899-9.25.547-7.593 16.333-11.92 16.333-11.92l8.017 1.284s2.404 6.741 2.428 12.753c.023 6.011 3.307 16.382-3.496 20.498z"/><path fill="#05263B" fill-rule="nonzero" d="M83.501 72.08c2.545-8.98 9.005-10.552 17.321-11.35 8.316-.797 13.343 4.08 13.343 8.16 0 3.348-1.82 7.842-1.82 7.842s-.296-4.796-1.984-7.92c-1.926-3.564-3.026.05-6.426.5-4.853.648-5.973-1.297-7.806-.964-4.811.864-3.48 10.444-3.48 10.444s-1.01 3.102-1.033 4.462c-.039 2.176-2.758 3.871-3.407 1.978-.648-1.894-5.955-8.763-4.708-13.151z"/><path fill="#F8BB98" fill-rule="nonzero" d="M91.616 83.254c2.213.333-1.282 3.17-2.948 2.892-1.191-.203-2.484-1.811-2.484-4.053 0-2.468 1.578-3.474 2.769-3.275 2.07.344 1.15 4.204 2.663 4.436z"/><path fill="#6DA8D5" fill-rule="nonzero" d="m62.366 165.017 8.862-10.35s14.71-56.003-1.005-42.706c-15.715 13.298-23.427 40.314-23.427 40.314l15.57 12.742z"/><path fill="#392E39" fill-rule="nonzero" d="M100.03 80.57c0 .73-.26 1.322-.583 1.322-.322 0-.583-.592-.583-1.323 0-.73.259-1.323.583-1.323.324 0 .584.592.584 1.323z"/><path fill="#05263B" fill-rule="nonzero" d="M97.089 77.742c1.349-1.081 3.856-1.081 3.856-1.297 0-.216.203-.98.018-1.111-.186-.132-3.33.562-4.203 1.67-.23.303-.038 1.032.329.738z"/><path fill="#392E39" fill-rule="nonzero" d="M108.867 80.57c0 .73.264 1.322.586 1.322.322 0 .586-.592.586-1.323 0-.73-.264-1.323-.586-1.323-.322 0-.586.592-.586 1.323z"/><path fill="#05263B" fill-rule="nonzero" d="M111.34 77.552c-1.346-1.081-3.396-.9-3.393-1.099.002-.198-.204-.979-.02-1.11.184-.132 2.87.37 3.744 1.48.231.294.032 1.02-.33.729z"/><path stroke="#0069A5" stroke-linecap="round" stroke-width="4.04" d="M95.16 237.252c6.254.865 15.865-1.007 15.865-1.007m8.583-22.58c1.747 6.305 6.887 11.06 10.767 12.61m-55.202-10.53c-1.747 6.307-6.887 11.058-10.769 12.612"/><path stroke="#278FC8" stroke-linecap="round" stroke-width="4.04" d="M68.904 156.098s-2.991 5.716-6.538 8.919"/><path fill="#F8BB98" fill-rule="nonzero" d="M170.56 119.064c-.07-6.396-2.41-10.503-2.658-11.203-.216-.616-1.345-.605-1.25.097.147 1.081.915 5.566.915 5.566s-1.436-5.76-1.784-6.99c-.348-1.23-2.198-.884-1.878.398.391 1.571 1.77 7.349 1.77 7.349s-2.49-6.939-2.85-7.957c-.362-1.018-2.67-.679-2.108.986.562 1.664 2.658 8.3 2.658 8.3s-2.593-5.555-3.138-6.744c-.545-1.189-2.544-.616-1.915 1.206s2.73 7.628 2.73 7.628l.158 3.334s-.997-1.265-1.862-2.625c-.78-1.223-3.09.143-1.945 2.03 1.146 1.887 2.996 3.664 2.81 8.095-.315 7.133-2.484 18.868-7.94 20.319-5.455 1.45-6.84-1.946-6.84-1.946l-11.487 16.86s12.143 6.676 23.513.472c11.818-6.452 13.238-32.884 13.101-45.175z"/><path fill="#6DA8D5" fill-rule="nonzero" d="m133.194 165.017-8.863-10.35s-14.711-56.003 1.003-42.706c15.715 13.298 20.09 34.96 20.09 34.96l-12.23 18.096z"/><path stroke="#278FC8" stroke-linecap="round" stroke-width="4.04" d="M127.25 156.098s2.394 5.716 5.944 8.919"/><path stroke="#E9A37C" stroke-linecap="round" stroke-width="4.04" d="M167.454 115.87s-2.738 1.744-2.533 5.754"/><path stroke="#E9A37C" stroke-linecap="round" stroke-width="3.48" d="M104.838 80.407c-.35 3.776 2.103 3.962 2.134 5.1.03 1.136-1.624 1.767-1.624 1.767"/><path fill="#EDEDED" fill-rule="nonzero" d="M77.479 141.313h16.804v9.022H77.479z"/><path stroke="#D59675" stroke-linecap="round" stroke-width="3.48" d="M102.536 90.698c1.628 1.129 5.746.378 6.07-1.251"/><path stroke="#E9A37C" stroke-linecap="round" stroke-width="3.48" d="M97.22 97.574c2.123 2.088 5.62 1.751 5.62 1.751"/><path fill="#632E0E" fill-rule="nonzero" d="M249.886 68.454a9.26 9.26 0 1 0 18.52 0 9.26 9.26 0 0 0-18.52 0z"/><path fill="#7FC5E7" fill-rule="nonzero" d="M230.302 154.61s-8.863 7.921-13.802 40.831c-4.383 29.153 15.866 140.85 16.156 141.788 1.891 3.27 13.423 2.883 15.33.717.185-1.361-2.127-129.12 1.385-129.205h3.95s-12.873-37.758-23.02-54.132z"/><path fill="#7FC5E7" fill-rule="nonzero" d="M230.302 154.61h38.826s8.968 8.591 14.623 40.831c5.654 32.24-10.054 140.85-10.346 141.788-1.89 3.27-13.423 2.883-15.327.717-.186-1.361-3.696-129.12-7.209-129.205h-3.947s-16.815-33.093-16.62-54.132z"/><path fill="#FDFDFD" fill-rule="nonzero" d="M230.302 154.61c-1.537-6.27-4.77-32.5-5.071-42.201-.3-9.701 2.613-21.052 5.069-22.99 2.455-1.94 13.118-5.757 13.118-5.757h13.326s10.763 1.749 14.483 5.527c3.72 3.779 4.269 10.028 4.269 23.994s-4.933 38.443-6.355 41.422c-3.165 3.787-37.534 5.332-38.84.004z"/><path fill="#F8BB98" fill-rule="nonzero" d="M238.548 77.584c2.315 1.466 5.348 1.167 5.348 1.167l-.478 4.911s3.614 4.38 6.928 4.38 6.398-4.38 6.398-4.38l.126-9.761c.171-3.317.869-6.585 2.066-9.682 2.034-5.16 3.329-3.219 2.899-9.25-.552-7.59-16.331-11.92-16.331-11.92l-8.02 1.286s-2.403 6.742-2.429 12.742c-.026 6-2.687 16.592 3.493 20.507z"/><path fill="#632E0E" fill-rule="nonzero" d="M263.918 51.507c-2.546-8.984-9.225-11.932-17.54-12.73-8.316-.797-11.751 6.16-11.915 8.699-.165 2.537.611 8.683.611 8.683s3.063-8.954 6.455-8.506c4.943 8.225 13.242 10.563 13.242 10.563s1.007 3.102 1.03 4.464c.04 2.177 2.761 3.87 3.41 1.978.648-1.892 5.963-8.761 4.707-13.151z"/><path fill="#F8BB98" fill-rule="nonzero" d="M255.802 62.68c-2.214.333 1.284 3.169 2.948 2.89 1.189-.203 2.486-1.81 2.486-4.053 0-2.468-1.58-3.474-2.77-3.275-2.072.346-1.149 4.207-2.664 4.438z"/><path fill="#392E39" fill-rule="nonzero" d="M247.398 60.004c0 .73.261 1.323.583 1.323.322 0 .582-.592.582-1.323 0-.73-.26-1.32-.582-1.32-.322 0-.583.58-.583 1.32z"/><path fill="#632E0E" fill-rule="nonzero" d="M250.329 57.168c-1.35-1.08-3.857-1.08-3.857-1.297 0-.216-.198-.977-.015-1.109.184-.132 3.182.763 4.055 1.87.234.303.18.83-.183.536z"/><path fill="#392E39" fill-rule="nonzero" d="M238.548 60.004c0 .73-.26 1.323-.581 1.323-.322 0-.584-.592-.584-1.323 0-.73.26-1.32.584-1.32.324 0 .581.58.581 1.32z"/><path fill="#632E0E" fill-rule="nonzero" d="M236.077 56.978c1.347-1.081 3.396-.897 3.396-1.098 0-.201.201-.977.018-1.11-.184-.131-2.765.62-3.638 1.73-.234.29-.143.77.224.478z"/><path stroke="#E9A37C" stroke-linecap="round" stroke-width="3.48" d="M242.58 59.831c.35 3.776-2.104 3.964-2.132 5.1-.028 1.134 1.62 1.767 1.62 1.767M250.207 77c-2.123 2.088-5.62 1.751-5.62 1.751"/><path stroke="#0069A5" stroke-linecap="round" stroke-width="4.04" d="M252.257 208.737c-6.254.864-12.689-.39-12.689-.39"/><path fill="#96D6F7" fill-rule="nonzero" d="M228.765 148.347s-4.107-16.292-4.107-35.16c0-13.97.562-20.22 4.271-23.993 3.71-3.774 14.483-5.527 14.483-5.527s3.432 19.48 5.877 19.48 7.455-19.485 7.455-19.485 10.763 1.749 14.483 5.527c3.72 3.779 4.269 10.028 4.269 23.994 0 18.868-4.107 35.16-4.107 35.16s13.607 18.044 12.455 39.388c-.216 4.053-68.42 5.384-67.947-.39 1.766-21.725 12.868-38.994 12.868-38.994z"/><path stroke="#278FC8" stroke-linecap="round" stroke-width="4.04" d="M241.019 127.131s6.329-.354 12.753 1.351"/><path fill="#F8BB98" fill-rule="nonzero" d="M287.613 188.958c-1.96 6.087-5.403 9.319-5.853 9.913-.391.524-1.466.18-1.165-.462.46-.988 2.52-5.047 2.52-5.047s-3.076 5.077-3.772 6.151c-.696 1.075-2.362.195-1.677-.94.839-1.383 3.865-6.485 3.865-6.485l-5.078 6.751c-.648.865-2.751-.143-1.729-1.567 1.022-1.425 4.995-7.133 4.995-7.133s-4.12 4.539-4.993 5.512c-.873.972-2.611-.165-1.474-1.73 1.137-1.565 4.866-6.484 4.866-6.484l1.139-3.139s-1.325.915-2.555 1.956c-1.109.94-2.91-1.05-1.262-2.514 1.647-1.463 3.947-2.615 5.07-6.904 4.073-15.524-3.164-42.366-3.164-42.366l14.201-6.701s4.68 34.46-3.934 61.19z"/><path fill="#96D6F7" fill-rule="nonzero" d="M279.008 175.929c0-1.857-.114-25.831-1.55-35.895-2.913-20.373-11.173-26.698-11.173-26.698s-2.684-27.897 2.075-26.129c5.757 2.138 18.674 14.822 24.082 39.246 5.188 23.411.865 50.48-1.6 52.58-2.463 2.098-11.834-1.245-11.834-3.104z"/><path stroke="#278FC8" stroke-linecap="round" stroke-width="4.04" d="M274.119 126.236s-1.269-10.974-3.11-14.05"/><path fill="#F4A38E" fill-rule="nonzero" d="M235.295 63.594c.045.601 1.014 1.02 2.162.938 1.147-.082 2.05-.648 2.005-1.242-.045-.595-1.013-1.02-2.161-.936-1.148.084-2.05.64-2.006 1.24zm9.703.493c-.13.692.841 1.453 2.162 1.7 1.32.246 2.503-.118 2.63-.805.128-.687-.84-1.452-2.161-1.699-1.32-.246-2.503.115-2.63.804zm-6.934 5.456c-.102.752 1.061 3.242 2.503 3.458 1.442.217 3.532-1.446 3.636-2.196.104-.75-1.474-2.103-2.916-2.3-1.442-.196-3.12.288-3.223 1.038z"/><path fill="#FFF" fill-rule="nonzero" d="M244.64 69.908s-.573 2.439-3.731 2.173-2.875-3.215-2.875-3.215l6.605 1.042z"/><path stroke="#278FC8" stroke-linecap="round" stroke-width="4.04" d="M279.157 174.902c-1.024-3.026-.497-11.007-.497-11.007"/><path fill="#F8BB98" fill-rule="nonzero" d="M212.519 188.958c1.96 6.087 5.403 9.319 5.855 9.913.387.524 1.464.18 1.163-.462-.462-.988-2.52-5.047-2.52-5.047s3.076 5.077 3.772 6.151c.696 1.075 2.362.195 1.677-.94-.839-1.383-3.865-6.485-3.865-6.485l5.078 6.751c.648.865 2.751-.143 1.729-1.567-1.022-1.425-4.995-7.133-4.995-7.133s4.12 4.539 4.993 5.512c.873.972 2.611-.165 1.474-1.73-1.137-1.565-4.866-6.484-4.866-6.484l-1.152-3.13s1.325.914 2.555 1.956c1.11.94 2.912-1.05 1.26-2.514-1.651-1.463-3.944-2.615-5.068-6.904-4.073-15.524 3.164-42.367 3.164-42.367l-14.201-6.7s-4.665 34.45 3.947 61.18z"/><path fill="#96D6F7" fill-rule="nonzero" d="M221.122 175.929c0-1.857.114-25.831 1.552-35.895 2.91-20.373 11.17-26.698 11.17-26.698s2.685-27.897-2.075-26.129c-5.758 2.138-18.673 14.822-24.084 39.246-5.187 23.411-.864 50.48 1.6 52.58 2.464 2.098 11.84-1.245 11.837-3.104z"/><path stroke="#278FC8" stroke-linecap="round" stroke-width="4.04" d="M226.011 126.236s1.271-10.974 3.113-14.05m-8.15 62.716c1.025-3.026.496-11.007.496-11.007"/><path fill="#0A3F67" fill-rule="nonzero" d="M199.783 86.874a9.262 9.262 0 1 1-18.523 0c0-5.112 5.348-12.969 5.348-12.969s13.175 7.857 13.175 12.97z"/><path fill="#278FC8" fill-rule="nonzero" d="M216.492 172.621s8.862 7.923 13.803 40.832c4.384 29.153-15.866 140.848-16.157 141.799-1.892 3.268-13.424 2.883-15.33.717-.186-1.363 2.129-129.12-1.386-129.203h-3.947s12.872-37.784 23.017-54.145z"/><path fill="#278FC8" fill-rule="nonzero" d="M216.492 172.621h-38.826s-8.967 8.593-14.621 40.832c-5.655 32.24 10.053 140.848 10.343 141.799 1.893 3.268 13.423 2.883 15.33.717.186-1.363 3.694-129.12 7.208-129.203h3.947s16.813-33.117 16.619-54.145z"/><path fill="#FDFDFD" fill-rule="nonzero" d="M216.492 172.621c1.536-6.268 4.772-32.499 5.07-42.2.299-9.7-2.613-21.051-5.068-22.992-2.456-1.941-13.117-5.754-13.117-5.754h-13.321s-10.767 1.748-14.483 5.525c-3.716 3.776-4.267 10.027-4.267 23.993s4.937 38.437 6.36 41.428c3.153 3.772 37.52 5.318 38.826 0z"/><path fill="#F8BB98" fill-rule="nonzero" d="M208.243 95.585c-2.313 1.466-5.346 1.166-5.346 1.166l.48 4.913s-3.614 4.38-6.917 4.38-6.394-4.38-6.394-4.38l-.13-9.762a31.343 31.343 0 0 0-2.066-9.681c-2.034-5.16-3.326-3.219-2.898-9.25.547-7.591 16.33-11.92 16.33-11.92l8.022 1.283s2.401 6.744 2.427 12.753c.026 6.01 2.676 16.584-3.508 20.498z"/><path fill="#0A3F67" fill-rule="nonzero" d="M182.875 69.515c2.548-8.981 9.225-11.93 17.541-12.727 8.316-.798 11.752 6.16 11.915 8.698.162 2.537-.61 8.68-.61 8.68s-3.063-8.95-6.457-8.503c-4.937 8.216-13.24 10.553-13.24 10.553s-1.009 3.102-1.032 4.461c-.04 2.177-2.759 3.872-3.407 1.98-.649-1.891-5.953-8.763-4.71-13.142z"/><path fill="#F8BB98" fill-rule="nonzero" d="M190.992 80.68c2.213.334-1.282 3.17-2.949 2.892-1.189-.204-2.483-1.81-2.483-4.053 0-2.469 1.58-3.474 2.769-3.275 2.072.346 1.15 4.206 2.663 4.435z"/><path fill="#392E39" fill-rule="nonzero" d="M199.398 77.995c0 .73-.262 1.323-.584 1.323-.322 0-.583-.593-.583-1.323s.261-1.323.583-1.323c.322 0 .584.594.584 1.323z"/><path fill="#0A3F67" fill-rule="nonzero" d="M196.467 75.17c1.346-1.081 3.854-1.092 3.854-1.297 0-.206.2-.977.017-1.111-.184-.134-3.184.765-4.06 1.871-.23.303-.179.828.189.537z"/><path fill="#392E39" fill-rule="nonzero" d="M208.243 77.995c0 .73.264 1.323.586 1.323.322 0 .583-.593.583-1.323s-.261-1.323-.583-1.323c-.322 0-.586.594-.586 1.323z"/><path fill="#0A3F67" fill-rule="nonzero" d="M210.718 74.977c-1.349-1.08-3.398-.9-3.398-1.098 0-.199-.201-.977-.015-1.111s2.762.62 3.636 1.73c.233.291.142.773-.223.48z"/><path stroke="#E9A37C" stroke-linecap="round" stroke-width="3.48" d="M204.218 77.833c-.352 3.776 2.101 3.962 2.131 5.099.03 1.137-1.62 1.768-1.62 1.768m-8.143 10.302c2.125 2.086 5.62 1.749 5.62 1.749"/><path stroke="#0069A5" stroke-linecap="round" stroke-width="4.04" d="M194.537 226.74c6.255.865 12.688-.39 12.688-.39"/><path fill="#6DA8D5" fill-rule="nonzero" d="M218.028 166.353s4.107-16.292 4.107-35.162c0-13.97-.562-20.22-4.269-23.994-3.707-3.774-14.482-5.525-14.482-5.525s-3.43 19.478-5.875 19.478-7.466-19.478-7.466-19.478-10.767 1.75-14.483 5.525c-3.716 3.777-4.267 10.028-4.267 23.994 0 18.87 4.107 35.162 4.107 35.162s-13.607 18.045-12.453 39.388c.217 4.05 68.418 5.384 67.945-.39-1.76-21.736-12.864-38.998-12.864-38.998z"/><path stroke="#278FC8" stroke-linecap="round" stroke-width="4.04" d="M206.596 141.48s-6.33-.355-12.753 1.353"/><path fill="#F4A38E" fill-rule="nonzero" d="M211.5 81.596c-.045.6-1.015 1.02-2.161.936-1.146-.084-2.051-.649-2.01-1.24.04-.593 1.016-1.021 2.161-.937 1.146.084 2.052.64 2.01 1.24zm-9.703.493c.128.691-.843 1.45-2.161 1.699-1.319.248-2.503-.117-2.63-.804-.128-.688.838-1.455 2.16-1.7 1.323-.244 2.502.12 2.631.805zm6.932 5.453c.102.755-1.061 3.253-2.5 3.459-1.44.205-3.535-1.444-3.636-2.194-.102-.75 1.472-2.103 2.913-2.3 1.442-.197 3.122.287 3.223 1.035z"/><path fill="#FFF" fill-rule="nonzero" d="M202.15 87.91s.572 2.438 3.73 2.161c3.158-.276 2.877-3.197 2.877-3.197l-6.607 1.036z"/><path fill="#6DA8D5" fill-rule="nonzero" d="M194.588 92.577c.897 2.425 4.462 4.195 8.677 4.195 3.817 0 6.037-.964 7.805-3.348 1.823-2.456 1.338-8.724 1.338-8.724s-3.765-3.12-6.746-2.795c-3.99.432-6.556 4.174-10.464 3.12-1.236-.334-1.022 6.434-.61 7.552z"/><path fill="#6DA8D5" fill-rule="nonzero" d="M195.198 85.024c.865.631.666 2.503-.294 1.85-3.197-2.174-4.686-6.968-4.686-6.968l-.346-1.395s1.989 4.09 5.326 6.513zm-.35 6.29c1.586 1.057 3.182 4.038 0 1.784-3.182-2.255-5.545-7.371-6.005-7.907-.46-.537-.5-1.645-.5-1.645s2.633 5.187 6.505 7.768z"/><path fill="#6DA8D5" fill-rule="nonzero" d="M205.459 66.722c3.123-.29 5.823 3.506 6.052 6.035.23 2.53.296 3.915.296 3.915s4.57-8.275 3.407-13.66c-1.163-5.384-11.61-9.821-16.973-8.075-5.362 1.747-14.458 5.6-16.211 11.13-1.753 5.53-.474 9.511-.765 11.766-.297 2.282-1.13 6.7-.908 11.439.145 3.09 4.193 6.975 6.184 7.5 2.473.649 3.458 0 3.458 0s.037-4.993-.412-8.04c-.45-3.049-2.162-7.726.512-9.786 9.684-7.42 12.234-11.932 15.36-12.224z" opacity=".8"/><path fill="#F8BB98" fill-rule="nonzero" d="M196.45 136.716c.488-6.377-.882-9.786-1.068-10.503-.162-.632-1.094-.977-1.06-.264.055 1.08.217 5.748.217 5.748s-1.282-5.95-1.513-7.203c-.232-1.253-1.526-1.381-1.319-.073.25 1.597.8 7.857.8 7.857s-2.06-7.183-2.332-8.214c-.273-1.031-2.169-1.353-1.736.355.432 1.707 1.742 8.948 1.742 8.948s-2.395-5.825-2.834-7.057c-.439-1.232-1.92-1.433-1.455.432.465 1.866 2.039 7.931 2.039 7.931l-.432 4.176a28.317 28.317 0 0 1-2.112-3.23c-.668-1.296-2.354-.393-1.382 1.585.973 1.978 2.694 3.498 2.11 7.892-.257 1.945-.465 4.088-1.39 6.052-1.297 2.793-3.458 4.678-6.396 4.285-4.364-.582-4.083-12.475-4.083-12.475l-11.331-.432s-.024 25.962 14.441 25.962c9.267 0 15.36-11.24 16.117-14.244 1.435-5.737 2.531-11.683 2.977-17.528z"/><path fill="#9CC7E4" fill-rule="nonzero" d="M196.869 136.884c.49-6.374-1.479-10.671-1.662-11.391-.165-.631-1.297-.722-1.256-.01.054 1.08.432 5.62.432 5.62s-.942-5.86-1.189-7.117c-.246-1.256-2.112-1.08-1.906.232.25 1.6 1.117 7.47 1.117 7.47l-2.144-8.173c-.268-1.04-2.594-.908-2.183.802.41 1.71 1.92 8.497 1.92 8.497s-2.095-5.758-2.534-6.993c-.439-1.234-2.48-.834-2.015 1.034.465 1.867 2.05 7.837 2.05 7.837l-.126 3.344s-.882-1.346-1.623-2.775c-.67-1.297-3.093-.13-2.12 1.848.972 1.978 2.662 3.915 2.079 8.31a34.41 34.41 0 0 1-.945 4.543l9.444 2.892a99.992 99.992 0 0 0 2.66-15.97z"/><path fill="#6DA8D5" fill-rule="nonzero" d="M178.43 105.207c-5.749 2.135-19.76 16.96-16.613 41.958 6.452 2.94 13.15 1.394 13.15 1.394l5.539-17.223s2.685-27.885-2.075-26.13z"/><path stroke="#278FC8" stroke-linecap="round" stroke-width="4.04" d="M175.785 147.921s.782-10.71 3.11-15.963"/><path fill="#F8BB98" fill-rule="nonzero" d="M189.89 150.498c-5.889-2.499-8.284-5.285-8.837-5.78-.487-.433-.361-1.418.255-1.064.94.55 5.002 2.84 5.002 2.84s-4.69-3.875-5.696-4.664c-1.005-.789-.525-1.989.54-1.204 1.297.96 6.61 4.323 6.61 4.323s-5.427-5.134-6.227-5.853c-.8-.72-.201-2.534 1.124-1.382 1.325 1.152 7.144 5.668 7.144 5.668s-4.068-4.81-4.972-5.765c-.903-.955-.389-2.365 1.057-1.092 1.446 1.274 6.105 5.458 6.105 5.458l3.91 1.535a28.046 28.046 0 0 0-1.9-3.359c-.835-1.189.735-2.274 2.045-.5 1.31 1.775 1.863 4 6.035 5.504 1.841.666 3.843 1.47 6.022 1.556 3.078.124 10.57.083 12.143-2.431 4.367-6.967.69-17.12.69-17.12l11.495.813s5.279 12.455-3.026 23.56c-5.52 7.437-19.57 5.085-22.573 4.37-5.772-1.356-11.552-3.122-16.947-5.413z"/><path fill="#9CC7E4" fill-rule="nonzero" d="M189.85 150.943c-5.888-2.499-8.797-6.225-9.348-6.72-.489-.433-.05-1.474.566-1.118.94.547 4.799 2.962 4.799 2.962s-4.778-3.52-5.787-4.308c-1.01-.79.017-2.378 1.08-1.587 1.298.96 6.118 4.431 6.118 4.431s-5.473-4.943-6.269-5.665c-.795-.722.387-2.724 1.715-1.57 1.327 1.155 6.662 5.62 6.662 5.62s-4.146-4.52-5.04-5.475c-.892-.955.4-2.594 1.843-1.312 1.441 1.282 6.017 5.43 6.017 5.43l3.027 1.414s-.792-1.403-1.719-2.72c-.836-1.188 1.297-2.81 2.618-1.03 1.32 1.778 2.248 4.163 6.417 5.67 1.462.518 2.957.94 4.475 1.26l-1.777 9.711a100.329 100.329 0 0 1-15.397-4.993z"/><path stroke="#85BADB" stroke-linecap="round" stroke-width="2.69" d="M185.54 135.793c1.803-.134 5.326 5.58 9.042 6.809m-12.974-5.536c1.803-.134 5.326 5.581 9.042 6.809m-10.14-3.906c1.803-.136 4.838 4.239 8.553 5.466m5.612-3.326c-.9-1.161-1.392-2.834-1.061-3.083 1.828-1.379 2.788 1.135 3.229 1.836"/><path fill="#6DA8D5" fill-rule="nonzero" d="M215.182 105.207c5.752 2.135 18.92 9.1 19.739 36.212-6.452 2.94-14.997 0-14.997 0l-3.43-15.18s-6.072-22.788-1.312-21.032z"/><path stroke="#278FC8" stroke-linecap="round" stroke-width="4.04" d="M220.862 140.494s-.216-11.324-2.537-16.575"/><path stroke="#278FC8" stroke-linecap="round" stroke-width="2.69" d="M207.281 88.692c-2.464 3.08-6.078 2.743-6.078 2.743"/><path fill="#F8BB98" fill-rule="nonzero" d="M366.335 207.526c-1.325 6.269-4.323 9.79-4.705 10.428-.333.562-.768.138-.534-.532.356-1.029 1.891-5.774 1.891-5.774s-3.104 5.603-3.688 6.742c-.583 1.14-1.437.761-.864-.432.69-1.461 2.494-6.554 2.494-6.554s-3.89 5.633-4.435 6.554c-.545.92-2.04.7-1.163-.824.877-1.523 3.605-7.492 3.605-7.492s-3.808 4.494-4.576 5.551c-.767 1.057-2.44.552-1.467-1.11.972-1.663 4.474-6.552 4.474-6.552l.973-4.27s-1.894.94-3.01 2.104c-1.006 1.046-2.364.305-.864-1.321 1.5-1.625 3.69-3.385 4.367-7.766 2.453-15.862-7.966-41.742-7.966-41.742l13.439-8.115s7.837 33.634 2.03 61.105z"/><path fill="#6DA8D5" fill-rule="nonzero" d="M366.642 207.662c-1.327 6.269-4.422 9.825-4.805 10.465-.333.56-1.437.328-1.206-.344.357-1.027 1.99-5.276 1.99-5.276s-2.541 5.367-3.118 6.504c-.577 1.137-2.333.432-1.766-.759.69-1.463 3.175-6.852 3.175-6.852l-4.358 7.239c-.553.92-2.747.138-1.87-1.383.878-1.522 4.235-7.618 4.235-7.618s-3.634 4.94-4.4 5.996c-.768 1.057-2.616.106-1.644-1.556.973-1.662 4.174-6.945 4.174-6.945l.81-3.242s-1.223 1.041-2.34 2.204c-1.005 1.049-3.002-.745-1.513-2.377 1.49-1.632 3.657-3.007 4.323-7.389a36.12 36.12 0 0 0 .389-5.213l10.002 2.522c-.299 4.414-1.178 9.78-2.078 14.024z"/><path fill="#278FC8" fill-rule="nonzero" d="M298.207 204.04h49.87c7.846 33.178 5.516 148.728 5.226 149.668-1.891 3.269-13.423 2.882-15.33.716-.185-1.364-16.499-121.188-20.013-121.264h-3.945s-16.002-8.08-15.808-29.12z"/><path fill="#278FC8" fill-rule="nonzero" d="M336.22 204.04h-49.862c-7.847 33.178-5.519 148.728-5.227 149.668 1.891 3.269 13.423 2.882 15.33.716.186-1.364 16.499-121.188 20.014-121.264h3.947s15.99-8.08 15.798-29.12z"/><path fill="#6DA8D5" fill-rule="nonzero" d="M349.817 208.335c-7.998 3.912-60.924 1.882-64.804-2.873-3.88-4.755.927-67.61.927-67.61s2.002-28.982 4.458-30.923c2.455-1.94 20.102-6.79 20.102-6.79h13.322s16.748 3.948 20.455 7.726c3.707 3.779 3.324 32.696 3.324 32.696s5.445 66.19 2.216 67.774z"/><path fill="#F8BB98" fill-rule="nonzero" d="M305.64 94.064c2.346 1.418 5.349 1.167 5.349 1.167l-.478 4.909s1.463 3.58 6.651 3.486c5.897-.108 6.67-3.486 6.67-3.486l.13-9.76a31.29 31.29 0 0 1 2.065-9.681c2.034-5.162 3.326-3.219 2.898-9.25-.547-7.59-16.333-11.923-16.333-11.923l-8.017 1.286s-2.401 6.742-2.427 12.754c-.026 6.01-3.307 16.38 3.493 20.498z"/><path fill="#05263B" fill-rule="nonzero" d="M331.011 67.984c-2.546-8.98-9.007-10.552-17.32-11.35-8.314-.797-13.346 4.079-13.346 8.16 0 3.348 1.82 7.842 1.82 7.842s.296-4.796 1.984-7.922c1.926-3.562 3.027.052 6.427.502 4.855.648 5.974-1.297 7.807-.965 4.81.865 3.48 10.445 3.48 10.445s1.008 3.1 1.031 4.462c.04 2.178 2.759 3.871 3.407 1.977.649-1.893 5.955-8.763 4.71-13.15z"/><path fill="#F8BB98" fill-rule="nonzero" d="M322.888 79.158c-2.213.332 1.284 3.17 2.948 2.89 1.191-.201 2.484-1.807 2.484-4.051 0-2.469-1.578-3.476-2.769-3.277-2.064.348-1.15 4.206-2.663 4.438z"/><path fill="#6DA8D5" fill-rule="nonzero" d="m352.147 160.92-8.863-10.349s-14.698-56.004 1.006-42.706c15.703 13.298 23.429 40.313 23.429 40.313l-15.572 12.743z"/><path fill="#392E39" fill-rule="nonzero" d="M314.49 76.473c0 .73.26 1.323.584 1.323.324 0 .581-.592.581-1.323 0-.73-.259-1.323-.581-1.323-.322 0-.584.592-.584 1.323z"/><path fill="#05263B" fill-rule="nonzero" d="M317.421 73.646c-1.346-1.081-3.856-1.081-3.856-1.297 0-.216-.2-.98-.017-1.11.184-.129 3.329.563 4.202 1.67.233.304.039 1.03-.329.737z"/><path fill="#392E39" fill-rule="nonzero" d="M305.64 76.473c0 .73-.259 1.323-.583 1.323-.324 0-.581-.592-.581-1.323 0-.73.26-1.323.581-1.323.322 0 .584.592.584 1.323z"/><path fill="#05263B" fill-rule="nonzero" d="M303.17 73.455c1.347-1.08 3.396-.897 3.394-1.098-.002-.2.203-.979.02-1.109-.184-.13-2.871.37-3.742 1.479-.234.294-.04 1.022.328.728z"/><path stroke="#0069A5" stroke-linecap="round" stroke-width="4.04" d="M319.35 233.145c-6.254.865-15.864-1.007-15.864-1.007m-8.582-22.569c-1.746 6.307-6.889 11.06-10.769 12.613m55.207-10.534c1.746 6.306 6.889 11.059 10.769 12.613"/><path stroke="#278FC8" stroke-linecap="round" stroke-width="4.04" d="M344.35 132.034s4.609 18.431 3.792 24.21"/><path fill="#F8BB98" fill-rule="nonzero" d="M244.114 114.979c.071-6.396 2.378-10.313 2.618-11.024.216-.616.899-.29.8.413-.147 1.08-.649 5.31-.649 5.31s1.643-5.435 1.989-6.668c.346-1.232 1.63-.992 1.31.29-.392 1.572-1.455 7.276-1.455 7.276s2.769-6.846 3.128-7.857c.359-1.012 2.09-1.01 1.528.648-.562 1.658-2.402 8.804-2.402 8.804s2.81-5.577 3.349-6.768c.538-1.19 2.081-1.42 1.454.402-.626 1.823-2.838 7.894-2.838 7.894l.216 3.813s1.243-1.513 2.11-2.877c.78-1.225 2.454-.298 1.312 1.59-1.141 1.886-2.89 3.812-2.693 8.241.313 7.146 2.905 18.825 8.36 20.282 5.457 1.457 6.842-1.945 6.842-1.945l11.485 16.847s-11.779 5.65-23.153-.556c-11.83-6.43-13.447-31.826-13.31-44.115z"/><path fill="#4E96C2" fill-rule="nonzero" d="M243.95 114.966c.071-6.394 2.458-11.56 2.706-12.26.216-.616 1.297.454 1.202 1.158-.15 1.081-.914 5.564-.914 5.564s1.435-5.76 1.783-6.99c.348-1.23 2.198-.884 1.878.397-.39 1.572-1.77 7.35-1.77 7.35s2.492-6.941 2.851-7.95c.359-1.01 2.672-.68 2.108.987-.565 1.667-2.66 8.299-2.66 8.299s2.595-5.556 3.14-6.745c.544-1.188 2.544-.616 1.915 1.204-.63 1.82-2.728 7.63-2.728 7.63l-.16 3.334s.996-1.265 1.86-2.622c.783-1.226 3.094.143 1.946 2.027-1.147 1.885-2.996 3.675-2.81 8.093.056 1.297.175 2.728.361 4.226l-9.997 2.162a139.492 139.492 0 0 1-.711-15.864z"/><path fill="#6DA8D5" fill-rule="nonzero" d="m281.319 160.92 8.862-10.349s14.712-56.004-1.005-42.706c-15.716 13.298-20.085 34.961-20.085 34.961l12.228 18.095z"/><path stroke="#278FC8" stroke-linecap="round" stroke-width="4.04" d="M247.058 111.773s2.737 1.745 2.531 5.757"/><path stroke="#E9A37C" stroke-linecap="round" stroke-width="3.48" d="M309.67 76.31c.352 3.775-2.101 3.965-2.131 5.1-.03 1.135 1.623 1.768 1.623 1.768"/><path fill="#EDEDED" fill-rule="nonzero" d="M320.605 131.515h16.806v9.022h-16.806z"/><path stroke="#D59675" stroke-linecap="round" stroke-width="3.48" d="M311.974 86.591c-1.627 1.124-5.745.374-6.067-1.253"/><path stroke="#E9A37C" stroke-linecap="round" stroke-width="3.48" d="M317.302 93.478c-2.124 2.088-5.62 1.753-5.62 1.753"/><path fill="#6DA8D5" fill-rule="nonzero" d="M308.942 65.89c-3.126-.292-6.312 2.123-6.533 4.652l-.261 3.015s-4.267-6.94-3.102-12.32c1.165-5.381 9.254-7.664 16.028-7.279 5.63.322 14.78 4.49 16.527 10.021 1.747 5.532.878 9.511.763 11.763-.333 6.628-8.253 14.468-8.065 11.39.457-7.386-1.876-6.159-2.965-14.753-1.09-8.594-9.269-6.197-12.392-6.49z" opacity=".8"/><path fill="#6DA8D5" fill-rule="nonzero" d="M319.257 91.17c-.895 2.425-4.462 4.197-8.675 4.197-3.817 0-6.037-.966-7.805-3.35-1.822-2.456-1.442-7.468-1.442-7.468s.884 5.403 6.204 5.885c3.996.357 6.644-.216 10.31-3.931.897-.91 1.82 3.547 1.408 4.666z"/><path fill="#6DA8D5" fill-rule="nonzero" d="M317.85 86.503c-.865.63.267 1.638 1.093.821 3.53-3.49 4.686-8.826 4.686-8.826l.346-1.394s-2.788 6.973-6.126 9.399zm1.147 3.404c-1.584 1.057-3.18 4.038 0 1.783 3.18-2.254 5.555-7.375 6.007-7.907.452-.531.5-1.645.5-1.645s-2.631 5.19-6.507 7.77z"/><path fill="#26385E" fill-rule="nonzero" d="M228.382 103.97h42.978v49.476h-42.978z"/><path fill="#61697D" fill-rule="nonzero" d="M248.059 130.283s.981-.625 1.811-.625 1.812.625 1.812.625l-.216-23.607h-3.17l-.237 23.607z"/><path fill="#61697D" fill-rule="nonzero" d="M247.748 108.356c0 .313.253.566.566.566h3.113a.566.566 0 0 0 .566-.566.568.568 0 0 0-.566-.566h-3.113a.566.566 0 0 0-.566.566zm0 1.753a.566.566 0 0 0 .566.569h3.113a.566.566 0 0 0 .566-.569.566.566 0 0 0-.566-.564h-3.113a.564.564 0 0 0-.566.564zm0 1.755a.566.566 0 0 0 .566.569h3.113a.566.566 0 0 0 .566-.569.568.568 0 0 0-.566-.566h-3.113a.566.566 0 0 0-.566.566zm0 1.747a.566.566 0 0 0 .566.568h3.113a.568.568 0 0 0-.004-1.135h-3.109a.566.566 0 0 0-.566.567zm0 1.764a.564.564 0 0 0 .566.564h3.113a.564.564 0 0 0 .566-.564.564.564 0 0 0-.566-.565h-3.113a.564.564 0 0 0-.566.565zm0 1.755a.564.564 0 0 0 .566.564h3.113a.564.564 0 0 0 .566-.564.568.568 0 0 0-.566-.567h-3.113a.566.566 0 0 0-.566.567zm0 1.755a.564.564 0 0 0 .566.562h3.113a.566.566 0 1 0 0-1.13h-3.113a.566.566 0 0 0-.566.566v.002zm0 1.755a.564.564 0 0 0 .566.564h3.113a.566.566 0 0 0 .566-.564.568.568 0 0 0-.566-.568h-3.113a.566.566 0 0 0-.566.568zm0 1.755a.564.564 0 0 0 .566.565h3.113a.566.566 0 0 0 .566-.565.568.568 0 0 0-.566-.568h-3.113a.566.566 0 0 0-.566.568zm0 1.753c0 .313.253.567.566.567h3.113a.566.566 0 0 0 0-1.133h-3.113a.566.566 0 0 0-.566.566zm0 1.756a.564.564 0 0 0 .566.564h3.113a.564.564 0 0 0 .566-.564.566.566 0 0 0-.566-.567h-3.113a.566.566 0 0 0-.566.567zm0 1.757a.566.566 0 0 0 .566.568h3.113a.566.566 0 0 0-.004-1.133h-3.109a.564.564 0 0 0-.566.565z"/><path fill="#59616F" fill-rule="nonzero" d="M234.113 132.83c-3.753 9.674-3.176 16.254-1.673 16.983 4.251 2.057 12.647.704 14.815-4.347 1.524-3.563 1.068-7.953.471-14.215-.065-.668.486-.3.48-2.174-.022-5.657-1.012-8.232-1.675-8.841-.865-.789-7.896.94-12.418 12.593z"/><path fill="#61697D" fill-rule="nonzero" d="M248.059 130.283c-.432.106-2.516.828-3.577 1.647a7.862 7.862 0 0 0-1.922 2.162c-.61.955-.93 1.822-1.334 2.887-.464 1.224-.739 2.635-.153 3.85.19.39.545.668.685 1.064-.387-.026-.607-.284-.826-.534.169.51.577 1.297.921 1.608-.475-.601-1.07-.884-1.26-1.671-.08-.333-.195-.718-.294-1.057a9.565 9.565 0 0 1-.145-1.08c-.432.782-.378 1.88-.242 2.706-.17-.269-.3-.56-.389-.865-.039.18-.089.395-.132.555-.13-.242-.253-.462-.367-.72-.39.742-.913 1.248-1.133 2.119a9.675 9.675 0 0 0-.231 2.378c-.383-.491-.547-.729-.837.03-.16.432-.261.947-.445 1.33-.432-1.146.46-2.342.84-3.312-.342.16-.722.22-1.097.17.648-.48 1.318-.363 1.379-1.32-.234.078-.558.335-.692.069a3.067 3.067 0 0 0 1.314-1.418c.322-.633.666-1.284.95-1.928a31.689 31.689 0 0 1 1.393-2.985c.28-.499.463-1.046.539-1.613.062-.581.253-1.109.216-1.729-1.466-.071-3.117 1.34-3.582 2.687-.192.562-.136 1.24-.467 1.73-.14-.327.017-.736-.013-1.064-.413.188-.877 1.113-1.055 1.554-.259.648-.49 1.325-.797 1.958.104-.237.134-.5.086-.754-.3-.018-.469.24-.733.33.264-.432.72-.583.973-1.026.217-.381.35-.804.391-1.241-.354.112-.793.456-1.08.432.324-.14.51-.432.784-.67.236-.196.547-.333.774-.534a5.244 5.244 0 0 0 1.14-1.686c.328-.71.786-1.1 1.296-1.653.51-.554.934-1.03 1.628-1.36a3.458 3.458 0 0 1-.216-1.77c.075-.47.477-1.356-.327-1.46.281-.15.62 0 .85.176.114-.934-.242-2.205.73-2.912-.389.404-.37 1.14-.108 1.61a1.589 1.589 0 0 1 1.081-.112c-.81.314-1.016.484-1.193 1.269-.151.67-.59.98-.502 1.714a.718.718 0 0 1 .433-.432c-.072.29-.286.467-.318.784-.104 1.006.048 2.13 1.226 1.593a7.17 7.17 0 0 0 2.05-1.547c1.008-1.046 3.064-2.594 4.045-3.78-.002.006.186 3.713-.257 3.82z"/><path fill="#59616F" fill-rule="nonzero" d="M265.626 132.83c3.755 9.674 3.178 16.254 1.675 16.983-4.252 2.057-12.65.704-14.815-4.347-1.513-3.563-1.068-7.953-.471-14.215.065-.668-.485-.3-.48-2.174.021-5.657 1.01-8.232 1.675-8.841.865-.789 7.896.94 12.416 12.593z"/><path fill="#61697D" fill-rule="nonzero" d="M251.682 130.283c.432.106 2.514.828 3.577 1.647a7.905 7.905 0 0 1 1.924 2.162c.607.955.927 1.822 1.331 2.887.465 1.224.74 2.635.154 3.85-.19.39-.547.668-.685 1.064.384-.026.61-.284.823-.534-.166.51-.575 1.297-.918 1.608.475-.601 1.08-.884 1.26-1.671.08-.333.197-.718.294-1.057.069-.357.117-.718.145-1.08.432.782.38 1.88.242 2.706.168-.27.3-.56.389-.865.039.18.088.395.132.555.13-.242.253-.462.367-.72.39.742.912 1.248 1.133 2.119.175.78.252 1.579.231 2.378.383-.491.547-.729.834.03.163.432.264.947.45 1.33.432-1.146-.465-2.342-.843-3.312.342.16.723.22 1.098.17-.648-.48-1.318-.363-1.379-1.32.233.078.558.335.692.069a3.067 3.067 0 0 1-1.315-1.418c-.322-.633-.665-1.284-.948-1.928a31.179 31.179 0 0 0-1.397-2.985 4.511 4.511 0 0 1-.536-1.613c-.063-.581-.253-1.109-.216-1.729 1.465-.071 3.117 1.34 3.582 2.687.192.562.134 1.24.467 1.73.14-.327-.018-.736.013-1.064.412.188.877 1.113 1.054 1.554.26.648.491 1.325.798 1.958a1.28 1.28 0 0 1-.086-.754c.3-.018.469.24.73.33-.261-.432-.72-.583-.97-1.026a3.117 3.117 0 0 1-.392-1.241c.353.112.794.456 1.081.432-.324-.14-.51-.432-.785-.67-.235-.196-.546-.333-.773-.534a5.244 5.244 0 0 1-1.14-1.686c-.328-.71-.786-1.1-1.296-1.653-.51-.554-.934-1.03-1.632-1.36.225-.561.3-1.171.216-1.77-.076-.47-.478-1.356.324-1.46-.279-.15-.618 0-.847.176-.115-.934.242-2.205-.731-2.912.39.404.37 1.14.108 1.61a1.589 1.589 0 0 0-1.08-.112c.81.314 1.015.484 1.193 1.269.15.67.587.98.501 1.714a.718.718 0 0 0-.432-.432c.071.29.285.467.317.784.104 1.006-.047 2.13-1.225 1.593a7.17 7.17 0 0 1-2.051-1.547c-1.008-1.046-3.005-2.722-3.986-3.91.006.006-.24 3.843.203 3.95z"/><path fill="#6DA8D5" fill-rule="nonzero" d="M249.451 107.39c-.18 1.264-1.254 1.66-1.824.391-.454-1.012-.757-3.484-.958-4.712-.2-1.228 2.144-1.535 2.328-.409.184 1.126.614 3.662.454 4.73z"/><path fill="#6DA8D5" fill-rule="nonzero" d="M251.816 107.701c-.091 1.018-1.548 1.375-2.013.313-.536-1.216-.72-4.193-.903-5.667-.184-1.474 2.401-1.643 2.572-.292.17 1.351.46 4.386.344 5.646zm4.102-.32c-.216.923-1.638 1.12-1.945.106-.36-1.159-.177-3.89-.173-5.259.004-1.368 2.477-1.297 2.475-.039-.002 1.258-.097 4.049-.357 5.192z"/><path fill="#6DA8D5" fill-rule="nonzero" d="M254.018 107.852c-.136 1.047-1.608 1.356-2.027.24-.476-1.277-.528-4.362-.649-5.89-.12-1.528 2.471-1.6 2.58-.197.107 1.403.27 4.548.096 5.847z"/><path stroke="#278FC8" stroke-linecap="round" stroke-width="4.04" d="M286.907 126.468s-1.297 23.025-2.125 28.803"/></g></g></svg>