<svg xmlns="http://www.w3.org/2000/svg" width="117.857" height="109.799" viewBox="0 0 117.857 109.799">
    <g data-name="clinic (1)">
        <path data-name="Path 4793" d="M50.188 31.273h7.3v7.3a1.611 1.611 0 0 0 1.611 1.611h7.366a1.611 1.611 0 0 0 1.611-1.611v-7.3h7.3a1.611 1.611 0 0 0 1.611-1.611V22.3a1.611 1.611 0 0 0-1.611-1.611h-7.3v-7.3a1.611 1.611 0 0 0-1.611-1.611h-7.37a1.611 1.611 0 0 0-1.611 1.611v7.3h-7.3a1.611 1.611 0 0 0-1.607 1.611v7.366a1.611 1.611 0 0 0 1.611 1.607zm1.612-7.366h7.3a1.611 1.611 0 0 0 1.606-1.607V15h4.144v7.294a1.611 1.611 0 0 0 1.611 1.612h7.3v4.143h-7.3a1.611 1.611 0 0 0-1.611 1.611v7.3h-4.144v-7.3a1.611 1.611 0 0 0-1.611-1.61H51.8z" transform="translate(-3.849 -4.962)" style="fill:#acc4cc"/>
        <path data-name="Path 4794" d="M116.246 46.411a1.611 1.611 0 0 0 1.611-1.611v-9.783a8.066 8.066 0 0 0-8.057-8.057H83.559V5.986a1.611 1.611 0 0 0-1.611-1.611H35.91a1.611 1.611 0 0 0-1.61 1.611v20.97H8.057A8.066 8.066 0 0 0 0 35.017V44.8a1.611 1.611 0 0 0 1.611 1.611h5.295v54.417H1.611A1.611 1.611 0 0 0 0 102.434v10.128a1.611 1.611 0 0 0 1.611 1.611h114.635a1.611 1.611 0 0 0 1.611-1.611v-10.128a1.611 1.611 0 0 0-1.611-1.611h-5.294V46.406zM109.8 30.183a4.84 4.84 0 0 1 4.834 4.834v8.171H83.559V30.179zM37.521 7.6h42.815v35.59H37.521zM3.223 35.017a4.84 4.84 0 0 1 4.834-4.838H34.3v13.009H3.223zm111.412 75.936H3.223v-6.906h111.412zM74.17 66.1v34.723H60.54V66.1zm-16.85 34.723H43.693V66.1H57.32zm50.412 0H77.393V64.489a1.611 1.611 0 0 0-1.611-1.611h-33.7a1.61 1.61 0 0 0-1.611 1.611v36.334H10.128V46.406h97.6z" style="fill:#acc4cc" transform="translate(0 -4.375)"/>
        <path data-name="Path 4795" d="M91.048 90.108h18.013a1.612 1.612 0 0 0 1.611-1.611V69.523a1.611 1.611 0 0 0-1.611-1.611H91.048a1.611 1.611 0 0 0-1.611 1.611V88.5a1.612 1.612 0 0 0 1.611 1.608zm1.612-18.973h14.79v15.75H92.66z" transform="translate(-7.087 -9.41)" style="fill:#acc4cc"/>
        <path data-name="Path 4796" d="M35.123 67.912H17.111a1.611 1.611 0 0 0-1.611 1.611V88.5a1.612 1.612 0 0 0 1.611 1.611h18.012a1.611 1.611 0 0 0 1.612-1.611V69.523a1.61 1.61 0 0 0-1.611-1.611zm-1.611 18.973H18.723v-15.75h14.789z" transform="translate(-1.228 -9.41)" style="fill:#acc4cc"/>
    </g>
</svg>
