<svg height="15.712" viewBox="0 0 15.726 15.712" width="15.726" xmlns="http://www.w3.org/2000/svg"><g fill="#24bce3"><path d="m9.106 16.962a7.856 7.856 0 0 1 0-15.712 7.7 7.7 0 0 1 3.522.84.549.549 0 0 1 -.5.979 6.577 6.577 0 0 0 -3.026-.731 6.76 6.76 0 1 0 6.76 6.767 1.462 1.462 0 0 0 0-.183.55.55 0 1 1 1.1-.1v.285a7.863 7.863 0 0 1 -7.856 7.856z" transform="translate(-1.25 -1.25)"/><path d="m10.321 12.315a.512.512 0 0 1 -.38-.161l-3.53-3.464a.548.548 0 0 1 0-.775.563.563 0 0 1 .782 0l3.135 3.091 7.052-6.934a.563.563 0 0 1 .782 0 .548.548 0 0 1 0 .775l-7.44 7.308a.541.541 0 0 1 -.401.16z" transform="translate(-2.596 -1.967)"/></g></svg>