<svg xmlns="http://www.w3.org/2000/svg" width="24" height="24" viewBox="0 0 24 24">
    <g data-name="Group 4318" transform="translate(-566 -891)">
        <circle data-name="Ellipse 1262" cx="12" cy="12" r="12" transform="translate(566 891)" style="fill:#03b934"/>
        <path data-name="Path 3218" d="M10.321 12.315a.512.512 0 0 1-.38-.161L6.411 8.69a.548.548 0 0 1 0-.775.563.563 0 0 1 .782 0l3.135 3.091 7.052-6.934a.563.563 0 0 1 .782 0 .548.548 0 0 1 0 .775l-7.44 7.308a.541.541 0 0 1-.401.16z" transform="translate(566.541 895.033)" style="fill:#fff"/>
    </g>
</svg>
