<svg height="19" viewBox="0 0 19 19" width="19" xmlns="http://www.w3.org/2000/svg"><g fill="none" transform=""><path d="m7.526965 1.169865c.8036-1.55982 3.0338-1.55982 3.8374 0 .4829.93727 1.5722 1.3885 2.5764 1.06719 1.6712-.53471 3.2482 1.04226 2.7135 2.71346-.3213 1.0042.1299 2.09357 1.0672 2.57645 1.5598.8036 1.5598 3.0338 0 3.8374-.9373.4829-1.3885 1.5723-1.0672 2.5764.5347 1.6712-1.0423 3.2482-2.7135 2.7135-1.0041-.3213-2.0935.1299-2.5764 1.0672-.8036 1.5598-3.0338 1.5598-3.8374 0-.48288-.9373-1.57225-1.3885-2.57645-1.0672-1.6712.5347-3.24817-1.0423-2.71346-2.7135.32131-1.0041-.12992-2.0935-1.06719-2.5764-1.55982-.8036-1.55982-3.0338 0-3.8374.93727-.48288 1.3885-1.57225 1.06719-2.57645-.53471-1.6712 1.04226-3.24817 2.71346-2.71346 1.0042.32131 2.09357-.12992 2.57645-1.06719z" fill="#439d88"/><path d="m12.301965 5.635965c.2043-.24046.5208-.2518.7612-.04741.2405.20439.2054.52144.001.76191l-3.7555 4.751c-.2076.2443-.5754.27-.815.057l-2.57144-2.2857c-.23588-.2097-.25712-.5708-.04745-.8067.20966-.2359.57085-.2571.80672-.0475l2.13477 1.8976z" fill="#fff"/></g></svg>