<svg height="16" viewBox="0 0 12 16" width="12" xmlns="http://www.w3.org/2000/svg"><path d="m30.5326574 32.036109-4.6298026 5.150215-5.0885486-4.7827179zm-4.7822155-9.286109c.055174 0 .1102442.0215073.1524129.063676l4.7827179 4.7827179c.03167.03167.0530161.0677159.0606627.1063325.0086409.0436382.0016842.0881797-.0148395.1280308-.016487.0397628-.0430188.0760959-.0799499.1007792-.0328948.0219855-.0737226.0323546-.1187886.0323546h-9.5654358c-.045066 0-.0858938-.0103691-.1187887-.0323546-.0369311-.0246833-.0634628-.0610164-.0799499-.1007792-.0165236-.0398511-.0234803-.0843926-.0148394-.1280308l4.850228-4.891894c.0402987-.040732.0934489-.0608324.1465703-.0608324z" fill="none" stroke="#20add0" stroke-width="1.5" transform="translate(-20 -22)"/></svg>