<svg width="13.89" height="9.51" xmlns="http://www.w3.org/2000/svg"><g><path d="M5.835 5.695L3.967 7.574V.556a.566.566 0 1 0-1.132 0v7.018L.967 5.706a.566.566 0 1 0-.803.798l2.83 2.83a.516.516 0 0 0 .186.125.532.532 0 0 0 .43 0 .47.47 0 0 0 .187-.125l2.83-2.83a.563.563 0 0 0 0-.798.566.566 0 0 0-.792-.011zM13.737 3.002l-2.83-2.83a.566.566 0 0 0-.617-.125.47.47 0 0 0-.186.125l-2.83 2.83a.563.563 0 0 0 0 .798.566.566 0 0 0 .803 0l1.857-1.88V8.94a.566.566 0 1 0 1.132 0V1.92l1.867 1.867a.566.566 0 0 0 .405.165c.15 0 .293-.06.399-.165a.566.566 0 0 0 0-.786z" fill="#24bce3" fill-rule="evenodd"/></g></svg>