<svg height="50" viewBox="0 0 50 50" width="50" xmlns="http://www.w3.org/2000/svg"><g fill="none" transform=""><path d="m48.5351562 17.1358398h-6.5377929v-10.00693355c0-.80898438-.6558594-1.46484375-1.4648438-1.46484375h-5.1750976v-4.19921875c0-.80898437-.6558594-1.46484375-1.4648438-1.46484375h-17.5899414c-.8089844 0-1.4648437.65585938-1.4648437 1.46484375v4.19921875h-5.37021488c-.80898437 0-1.46484375.65585937-1.46484375 1.46484375v10.00693355h-6.53789062c-.80898437 0-1.46484375.6558594-1.46484375 1.4648438v29.9344726c0 .8089844.65585938 1.4648438 1.46484375 1.4648438h47.07031245c.8089844 0 1.4648438-.6558594 1.4648438-1.4648438v-29.9344726c0-.8089844-.6558594-1.4648438-1.4648438-1.4648438zm-45.6054687 2.9296875h5.07304688v27.0047852h-5.07304688zm25.5769531 27.0047852h-7.3823242v-9.0426758h7.3823242zm10.5610352 0h-7.6313477v-10.5075195c0-.8089844-.6558593-1.4648438-1.4648437-1.4648438h-10.3120117c-.8089844 0-1.4648438.6558594-1.4648438 1.4648438v10.5075195h-7.262207v-38.4765625h5.3703125c.8089844 0 1.4648437-.65585937 1.4648437-1.46484375v-4.19921875h14.6601563v4.19921875c0 .80898438.6558594 1.46484375 1.4648437 1.46484375h5.1750977zm8.0026367 0h-5.0729492v-27.0047852h5.0729492z" fill="#23bde3"/><path d="m33.2106445 29.2905273c.8089844 0 1.4648438.6557618 1.4648438 1.4648438 0 .8089844-.6558594 1.4648437-1.4648438 1.4648437h-1.577539c-.8089844 0-1.4648438-.6558593-1.4648438-1.4648437s.6558594-1.4648438 1.4648438-1.4648438zm-7.421875 0c.8089844 0 1.4648438.6557618 1.4648438 1.4648438 0 .8089844-.6558594 1.4648437-1.4648438 1.4648437h-1.577539c-.8089844 0-1.4648438-.6558593-1.4648438-1.4648437s.6558594-1.4648438 1.4648438-1.4648438zm-7.421875 0c.8089844 0 1.4648438.6557618 1.4648438 1.4648438 0 .8089844-.6558594 1.4648437-1.4648438 1.4648437h-1.577539c-.8089844 0-1.4648438-.6558593-1.4648438-1.4648437s.6558594-1.4648438 1.4648438-1.4648438zm14.84375-5.859375c.8089844 0 1.4648438.6557618 1.4648438 1.4648438 0 .8089844-.6558594 1.4648437-1.4648438 1.4648437h-1.577539c-.8089844 0-1.4648438-.6558593-1.4648438-1.4648437s.6558594-1.4648438 1.4648438-1.4648438zm-7.421875 0c.8089844 0 1.4648438.6557618 1.4648438 1.4648438 0 .8089844-.6558594 1.4648437-1.4648438 1.4648437h-1.577539c-.8089844 0-1.4648438-.6558593-1.4648438-1.4648437s.6558594-1.4648438 1.4648438-1.4648438zm-7.421875 0c.8089844 0 1.4648438.6557618 1.4648438 1.4648438 0 .8089844-.6558594 1.4648437-1.4648438 1.4648437h-1.577539c-.8089844 0-1.4648438-.6558593-1.4648438-1.4648437s.6558594-1.4648438 1.4648438-1.4648438zm14.84375-5.859375c.8089844 0 1.4648438.6558594 1.4648438 1.4648438s-.6558594 1.4648437-1.4648438 1.4648437h-1.577539c-.8089844 0-1.4648438-.6558593-1.4648438-1.4648437s.6558594-1.4648438 1.4648438-1.4648438zm-7.421875 0c.8089844 0 1.4648438.6557618 1.4648438 1.4648438 0 .8089844-.6558594 1.4648437-1.4648438 1.4648437h-1.577539c-.8089844 0-1.4648438-.6558593-1.4648438-1.4648437s.6558594-1.4648438 1.4648438-1.4648438zm-7.421875 0c.8089844 0 1.4648438.6557618 1.4648438 1.4648438 0 .8089844-.6558594 1.4648437-1.4648438 1.4648437h-1.577539c-.8089844 0-1.4648438-.6558593-1.4648438-1.4648437s.6558594-1.4648438 1.4648438-1.4648438zm6.6583985-11.7124023c.8089843 0 1.4648437.65585937 1.4648437 1.46484375v1.48740234h1.4873047c.8089844 0 1.4648438.65585938 1.4648438 1.46484371 0 .8089844-.6558594 1.4648438-1.4648438 1.4648438h-1.4873047v1.4874023c0 .8089844-.6558594 1.4648438-1.4648437 1.4648438-.8089844 0-1.4648438-.6558594-1.4648438-1.4648438v-1.4874023h-1.4874023c-.8089844 0-1.4648438-.6558594-1.4648438-1.4648438 0-.80898433.6558594-1.46484371 1.4648438-1.46484371h1.4874023v-1.48740234c0-.80898438.6558594-1.46484375 1.4648438-1.46484375z" fill="#f7b222"/></g></svg>