<svg height="52" viewBox="0 0 42 52" width="42" xmlns="http://www.w3.org/2000/svg"><g fill="none" transform="translate(1 1)"><path d="m8.42761239 30.8283998c.19891125-.3557809.64857813-.482949 1.00435909-.2840377s.48294899.6485781.28403773 1.0043591c-.64904835 1.1600843-1.31623125 2.9437021-1.77718632 4.7156167l.35531074.0250932c1.0170219.0732423 1.79736847.9321014 1.77307447 1.9514678l.7696642 5.501096c.0070996.0511275.0088951.1028599.0052716.1543546-.0705887.9980383-.90001315 1.7721096-1.90054342 1.7737092-.04561754 0-.09148109-.0015486-.13759066-.0048522-.40542795-.0301765-.71010361-.3825469-.68141264-.7880827s.37994271-.7115004.7855809-.6842955c.21531964.0151731.40883178-.1308161.45336386-.3420261l-.76597406-5.4729452c-.00713032-.0511627-.00889713-.1029303-.00527167-.15446.01678046-.2380837-.16257009-.4447144-.40064713-.4615877l-2.62624194-.1856683c-.23808361-.0167805-.44471432.1625701-.46158767.4006471-.00361098.0515495-.01262218.1025776-.02688553.1522459l-1.5287851 5.3105777c.01456463.215297.18542545.3870121.40064713.4026504.40600841.0294989.71146595.3821692.68270871.7882308-.02875725.4060616-.38086892.7121629-.7869824.6841474-1.05062779-.0756465-1.84185043-.9873187-1.76885708-2.0381341.00361172-.0514802.01262305-.1024384.02688553-.1520351l1.53690348-5.337885c.11803634-1.013494 1.01242688-1.7548405 2.03022662-1.6828233l.77556849.0548254c.40518077-1.6116558 1.11179579-3.7697732 1.98436307-5.3301884zm23.61978261.0309448c.3671647-.1770753.8083585-.0229773.9854337.3441875 1.1191762 2.3208012 1.8393921 5.4665138 1.9634873 8.5252437 1.4512745.3917037 2.3885552 1.7970765 2.1924821 3.2874405-.1960732 1.4903639-1.4649527 2.605493-2.9681561 2.6085038-.2012304 0-.4019489-.0202741-.5991783-.0602025-1.3808653-.2786-2.3817163-1.479675-2.4067736-2.8876251-.0250574-1.40795.9324222-2.6438775 2.3019728-2.9714175-.1242007-2.8378468-.7873771-5.7332604-1.8134555-7.8606967-.1770752-.3671647-.0229772-.8083585.3441876-.9854337zm2.163758 10.2405933c-.7241127.0021434-1.3468584.5132408-1.4901964 1.2230281-.1218317.6039849.1322325 1.2219816.6437205 1.5657083s1.1796687.3454908 1.6929645.0044696.7706196-.9576677.6519793-1.5623929c-.1186402-.6047252-.5898797-1.0784359-1.1939761-1.2002374-.1002303-.0202765-.2022311-.0305189-.3044918-.0305757z" fill="#f7b222"/><path d="m18.0837354 49.9899814c.0769887.0133581.1557029.0133581.2326916 0h18.6688911c1.4965225 0 3.0793949-1.6014287 3.0793949-3.1155586v-8.1418877c0-3.3334895-3.3598479-6.4917487-9.003279-8.4852845-.2952137-.6182618-.8281798-1.1492246-1.5357437-1.5189798-.2127647-.1126029-1.7624257-.6661285-3.1336932-1.1482757l-.8434676-1.6578357c2.2326588-1.7291087 2.8723236-4.3960479 3.0530365-5.6600896 1.5489229-.4023341 2.9763865-2.221272 3.5472032-4.6366471.2944757-1.2479103-.1295777-2.4223336-1.0550726-2.9226154-.2333959-.1275674-.4909708-.2047214-.7560633-.226471.4489357-1.5589391.885641-3.63207712.885641-4.09988536-.000759-1.72717833-.7757463-3.36305508-2.1117869-4.4576514-1.3360405-1.09459633-3.0924101-1.53261908-4.785986-1.19358181-2.187268-2.50106303-5.6960532-3.38389037-8.806508-2.21576-3.1104548 1.16813038-5.1707055 4.14240755-5.1709106 7.46497545 0 .33991746.0811837 1.68176904.2086528 3.01086322.0560906.5856828.1101779 1.0588682.1618403 1.4429622-.3112542-.007875-.6193749.0637574-.89523543.2081257-.96429438.4968024-1.40795836 1.6974786-1.10420458 2.9886167v.0006326c.56934066 2.4108414 1.99269231 4.2278816 3.53834681 4.6341167.1659522 1.2831251.7845303 3.978426 3.0771808 5.7090107l-.8730945 1.7855156c-1.7489301.5519441-2.7249276.8783661-2.89942.9692497-.5811964.2883456-1.0717824.7311461-1.4179745 1.2798567-6.44693952 2.1058224-10.1441745 5.2864335-10.1441745 8.7291521v8.1418877c0 1.5141299 1.61682204 3.1155586 3.14550171 3.1155586zm.7436222-1.4760683-1.9957499-12.6784785c1.3724273.4659105 3.029314.7965498 3.5023939.7965498.5026013 0 2.2421479-.3467707 3.6585409-.8346113l-1.9569503 12.71654zm-2.251426-14.3549758-.8156333-5.7000489.844522-1.727c1.1070513.5166239 2.3913362.7772554 3.8292377.7772554 1.4487611 0 2.7412698-.271702 3.854858-.8079366l.8150006 1.6025885-.8542219 5.8120193c-1.2273508.5548962-3.4876332 1.040101-3.9151659 1.040101-.3887331 0-2.5655123-.4739234-3.7585972-.9969787zm14.4109609-1.5510316c.1255418-.2238267.2180508-.4646342.2746542-.7149443 4.5460797 1.7520932 7.327098 4.3246695 7.327098 6.8395737v8.1418877c0 .7048227-.9140027 1.6394903-1.6033266 1.6394903h-12.9851844l6.6567521-10.541026c.5020741-.7234844.723379-1.5700096.5922197-2.2680845-.0713033-.4485395-.3242221-.847901-.6992346-1.1040992-.2543674-.1600758-.5244552-.2936889-.8060388-.3987493.4841249-.4730559.9022461-1.009237 1.2430604-1.5940484zm-5.3166928 1.9926923.7984475-5.4288741c1.1457454.4058134 2.2035593.7882206 2.3785788.866663.487946.2573631.8345058.6285943.9515369 1.019647.0839336.2797229.0468412.5818158-.1022704.8329243-.6022359 1.0851211-1.8433986 2.0183126-1.8556288 2.027169-.2292856.1702667-.3397577.4575352-.2836358.7375582.0561219.2800231.2687634.5025336.5459542.5712928.4473541.1111268 1.2848121.3726018 1.6281034.6016032.0384839.0405803.0621476.0929599.0671611.1486612.0443564.2360655-.0234062.6823653-.3607933 1.1633528-.0067477.0096998-.01339.0196106-.019716.0297322l-5.4784278 8.6750647zm-11.9944262-15.013724c-.0110787-.3995955-.3382852-.7177337-.7380342-.7175801h-.0138118c-.9202232.0157095-2.2562759-1.4182909-2.7679445-3.5828397-.1598371-.6799404.0517678-1.1877079.3436077-1.338056.2775008-.1430732.565545.1159768.7123084.2834051.2540056.2899228.6883421.3355513.9970522.1047436s.3878137-.6603106.1815884-.9859564c-.2568359-.6451473-.5662831-4.66247826-.5662831-5.37626276-.0003364-2.78070365 1.7686512-5.25346041 4.4004716-6.15114316s5.5431506-.02132692 7.2421231 2.17999207c.1856748.24009677.4994094.34203961.7907509.25694133 1.2958291-.37776743 2.6938891-.12359403 3.7738327.68609922 1.0799436.80969324 1.7158052 2.08046306 1.7164037 3.43023374 0 .55183871-.9307666 4.38149806-1.2474887 4.93976826-.2246517.315695-.1669228.7513646.1321958.9976567.2991185.2462921.7377688.2193377 1.0044823-.0617239.1242006-.1309484.4466161-.4174111.755009-.2508262.2663249.1440221.4802494.6075076.3204122 1.2849175-.5115631 2.1647597-1.8493028 3.5998145-2.7679445 3.583156-.4022084-.0085687-.7369092.3071231-.7518459.7091454-.0433332.6283834-.3901038 3.8460016-2.9803929 5.4810636-1.0218611.6463071-2.2926505.9731508-3.7782079.9731508-1.4897747 0-2.7641489-.3204123-3.7873806-.952275-2.6391048-1.6308446-2.9379032-4.8624855-2.9709039-5.4936101zm-2.4031448 11.4778022c.1186127-.3936885.4660159-.7656578.9567032-1.0238643.1799749-.075174 1.1304575-.3866245 2.1638108-.716104l.8145789 5.692774c.0022141.0161313.0050608.03163.0083292.0476559l1.6825071 10.688422-5.2426785-8.4883421c-.0074858-.0122303-.0153933-.0242497-.0236171-.0359528-.3189362-.4547345-.4104525-.9309774-.3596336-1.2013088.0050649-.0575334.0283737-.1119451.0665286-.1553035.3465597-.231321 1.1892893-.506924 1.6387522-.6261693.273481-.0723494.481544-.2946551.5356538-.5723212.0541097-.277666-.0552558-.5618301-.2815592-.7315743-.3460326-.2595772-1.3543982-1.132039-1.858581-2.0405591-.1495215-.2526376-.1860921-.5564491-.1007944-.8373525zm-9.79656032 15.8097466v-8.1418877c0-2.5872316 3.08287423-5.187326 8.29539883-7.041795.04431299.3261896.15006752.6410204.31166129.9278144.3454897.5926297.7690845 1.1361218 1.2594026 1.6158731-.2869751.109272-.5624422.2466524-.8223809.4101361-.3755948.2585115-.62821807.6602301-.69849667 1.1107415-.13463852.7169475.0854011 1.5758084.58895127 2.3028775l6.4576937 10.4557304h-13.72279679c-.70208138 0-1.66943333-.9499555-1.66943333-1.6394903z" fill="#23bde3" stroke="#23bde3" stroke-width="1.3"/></g></svg>