<svg height="50" viewBox="0 0 44 50" width="44" xmlns="http://www.w3.org/2000/svg"><g fill="none" fill-rule="evenodd" transform=""><path d="m25.2776164 27.3938537c.054657 3.0183733-1.1288988 5.512882-3.5813951 7.4412418-1.2545283.9864098-1.7355646 2.5335301-1.2425636 3.9968972.492865 1.4632312 1.865681 2.4395798 3.4643311 2.4275904 2.7396496-.0209136 5.2884074-.7358058 7.6110592-2.19523 3.5771802-2.2473284 5.8767183-5.4949349 7.3036475-9.4146053.4469096-1.2278796.7555451-2.4924693.9881773-3.7765015.1313401-.7250894-.0833451-1.1857313-.6721998-1.4102058-.6478626-.2469083-1.2987163-.4867467-1.9548726-.7102694-1.1835558-.4029936-2.3868262-.4809003-3.5986623-.1405855-.5044218.1416732-1.0065323.3007496-1.4939588.4916413-1.5192478.5945652-3.0074962.555-4.4811965-.1517344-.3966034-.1902119-.8089785-.3446656-1.2550723-.3881737-.9778441-.0958537-1.493007.4391597-1.3136721 1.4023199.1434407.7698211.1839576 1.5465764.226378 2.427615m-25.24706065 17.129948c0-1.5263179-.05098604-3.0549472.00938143-4.5788178.18722072-4.7188595 4.1769119-8.4001871 8.89740292-8.2780926 1.3091854.0338548 2.537473.4065287 3.7635851.795926 1.5161207.4817161 3.0389036.7842332 4.647479.5706357 2.5529728-.3390911 4.4046496-2.2909725 4.5952694-4.8656992.1801506-2.4304703-.5325662-4.6531895-1.5108182-6.8207078-.6617308-1.4663583-1.515033-2.8408059-2.0909713-4.3491767-.7380058-1.9323027-1.2882471-3.8949251-.9951114-5.9973173.0259689-.1853172-.0357582-.3182888-.1699535-.4482692-2.2932838-2.22149551-3.3556968-5.03687635-3.8961488-8.10188482-.1148885-.65139758-.1842295-1.30741789-.2237947-1.96860478-.0206663-.34561734.0602315-.48443531.4312739-.48175518 1.8995357.0136354 3.7993433.01227577 5.699015.00112682.3318851-.00190347.4210766.11855953.4436465.44119916.1222305 1.74127505.6726077 3.34359616 1.6262505 4.80764314.1312041.20163277.2297771.32794217.5196497.19945737 2.372822-1.0518079 4.8662431-1.27152372 7.4184-1.01061119 2.7581405.2818508 5.3432005 1.07288213 7.6277827 2.69423803 3.2232691 2.28770937 5.0847352 5.47576415 6.0446323 9.24261235 2.0167356 7.9143922-.6076175 17.3761765-6.4506171 23.0764152-3.639995 3.5509393-8.0398858 5.3169596-13.1291078 5.0647487-4.7226664-.2338559-8.8333645-2.0537175-12.3138751-5.2688288-.2116941-.1956504-.4103356-.4062567-.6293716-.5930696-.73977342-.6307312-1.57308916-.7906234-2.45915846-.3781124-.86146004.4010901-1.30197938 1.1094561-1.30306708 2.0682655-.00312714 3.0021937-.01536379 6.0045233.01087702 9.006581.00448677.522097-.14208108.6560203-.65098969.6479589-1.79756363-.0301441-3.59594304-.0236179-5.39364263-.0033595-.41495834.0046228-.55432017-.1063228-.54839364-.536645.02357739-1.6450134.00957323-3.2904347.00957323-4.93572.0069341 0 .0138682 0 .0208023-.000136" fill="#23bde3"/><path d="m26.1244583 35.8276645c.0010898.6039465.4549335 1.0654041 1.0471873 1.0643183.5997317-.0012255 1.0800881-.4983054 1.0730181-1.1109536-.0061184-.540316-.4779091-.9535068-1.095588-.9597611-.6108806-.0059823-1.025703.4013621-1.0246174 1.0063964m5.4128155-3.1902302c-.6013633-.0106051-1.0666279.4413351-1.0709787 1.0402511-.0044867.5945651.4643129 1.0716584 1.0512641 1.0704371.5662849-.001362 1.0262469-.4528943 1.0448738-1.0254335.0194427-.6009554-.4281467-1.0747856-1.0251592-1.0852547m2.1558255-2.2553503c.5940213.0072061 1.0662199-.456291 1.0667645-1.0471851.0006791-.5845039-.4825325-1.0675796-1.0628216-1.0626849-.554864.0047587-1.0299179.4739661-1.0459615 1.0333169-.0167234.5831443.4538437 1.0694831 1.0420186 1.0765531m-4.348225-.9994687c-.5891266-.0020329-1.0719304.476284-1.0678515 1.0579327.0040789.555136.4753258 1.0356284 1.0322293 1.0522158.5847758.0172673 1.0711146-.4522121 1.0794083-1.0422905.0084297-.6010913-.4456859-1.0656761-1.0437861-1.067858m-1.9187065-1.9505152c0-.4210767-.1665543-1.0189049.0436441-1.2170027.2443251-.2304569.7513302.1669623 1.1577229.2467724 1.3484786.2645836 2.6606552.1575809 3.9474068-.3113547.4292344-.1563572.853982-.3253589 1.2867515-.4707031 1.2218973-.4097917 2.3711905-.0637665 3.5124619.3522795.1802866.0656701.208023.1832778.1719929.3590777-1.1302584 5.4975182-4.899418 11.0537723-10.9727385 12.4464388-.9108145.2089748-1.8379445.2987102-2.7718727.3080551-.5993239.0058829-1.0446019-.2578848-1.2934138-.8097577-.2538424-.5632937-.1993214-1.0935484.241198-1.547936.211558-.2183562.4372562-.4276029.6784541-.6119684 2.4297905-1.8571153 4.0951983-5.3542134 3.9983928-8.7439009" fill="#f7b222"/></g></svg>