<svg height="50" viewBox="0 0 52 50" width="52" xmlns="http://www.w3.org/2000/svg"><path d="m45.8088354 22.5881332v-8.0164464c0-4.4864089-3.656669-8.13646878-8.1513246-8.13646878-4.4946555 0-8.1513245 3.65005988-8.1513245 8.13646878v24.5670982c0 4.3316222-3.5305042 7.8556487-7.8700886 7.8556487s-7.8700886-3.5240265-7.8700886-7.8556487v-9.6625951l8.469095-6.201385c.3401529-.2490612.5599625-.629065.6060322-1.0476402l1.6527879-15.02412467c.1405176-1.27806698-.2719015-2.56034175-1.131568-3.51781499-.8597669-.95757343-2.0916042-1.50669039-3.379749-1.50669039h-.7825825v-.67565131c0-.82993704-.6740829-1.50288334-1.5055455-1.50288334s-1.5055456.6729463-1.5055456 1.50288334v3.62200796c0 .82993704.674083 1.50278315 1.5055456 1.50278315.811489 0 1.4711187-.64128766 1.5025344-1.4435735h.7855936c.4399204 0 .8438081.18013361 1.1374899.50713923.2935813.32700561.4287793.74738415.3808026 1.18379238l-1.5054451 13.68534524h-15.46988169l-1.50544514-13.68534524c-.04797672-.43650841.08722127-.85698714.38080264-1.18389257.29358138-.32690543.69756943-.50713922 1.13748983-.50713922h.76702525c.03141572.80228583.69104539 1.4435735 1.50253442 1.4435735.83146261 0 1.50554552-.67284611 1.50554552-1.50278316v-3.62200796c0-.82993704-.67408291-1.50278315-1.50554552-1.50278315-.8314626 0-1.50554551.67284611-1.50554551 1.50278315v.67565131h-.76401416c-1.28814475 0-2.51998209.54911697-3.37974894 1.50669039-.85976686.95757343-1.27218597 2.23974801-1.13166838 3.51781499l1.65278786 15.02412466c.04596933.418475.26587934.798579.60603226 1.0476403l8.46909496 6.2014851v9.6625951c0 5.9888915 4.8812797 10.861215 10.8811797 10.861215s10.8811796-4.8723235 10.8811796-10.861215v-24.5670982c0-2.8291396 2.3058936-5.13090247 5.1402335-5.13090247 2.83434 0 5.1402335 2.30176287 5.1402335 5.13090247v8.0164464c-3.1860354.6909797-5.5800535 3.5261304-5.5800535 6.9101977 0 3.8998225 3.1785077 7.0725985 7.085599 7.0725985 3.9070914 0 7.0855991-3.172776 7.0855991-7.0725985 0-3.3840673-2.3940181-6.2191178-5.5800535-6.9101977zm-33.3088354 3.8007557-4.16666667-2.7777778h8.33333337zm31.9444444 6.9444444c-2.2974914 0-4.1666666-1.8691982-4.1666666-4.166718 0-2.2975197 1.8691752-4.1666153 4.1666666-4.1666153 2.2974915 0 4.1666667 1.8690956 4.1666667 4.1666153 0 2.2975198-1.8691752 4.166718-4.1666667 4.166718z" fill="#25bce3" transform=""/></svg>