<svg height="25.848" viewBox="0 0 25.849 25.848" width="25.849" xmlns="http://www.w3.org/2000/svg"><path d="m22.334 15.333a7 7 0 1 0 7 7 7.008 7.008 0 0 0 -7-7zm-.134 6.194h.27a2.014 2.014 0 0 1 .674 3.914v.393a.808.808 0 0 1 -1.615 0v-.27h-.538a.808.808 0 0 1 0-1.615h1.479a.4.4 0 1 0 0-.808h-.27a2.014 2.014 0 0 1 -.674-3.914v-.393a.808.808 0 0 1 1.615 0v.27h.538a.808.808 0 0 1 0 1.615h-1.479a.4.4 0 1 0 0 .808z" fill="#53cae9" transform="translate(-3.486 -3.486)"/><g fill="#24bce3"><path d="m30.617 8h-7.54a4.341 4.341 0 0 0 -3.123 1.346l-11.07 11.513a3.224 3.224 0 0 0 .065 4.5l7.54 7.54a3.227 3.227 0 0 0 3.951.485 9.435 9.435 0 0 1 -1.39-1.744 1.063 1.063 0 0 1 -1.05-.259l-7.54-7.54a1.079 1.079 0 0 1 -.021-1.5l11.076-11.509a2.1 2.1 0 0 1 1.562-.679h7.54a1.08 1.08 0 0 1 1.078 1.078v7.54c0 .1-.011.205-.021.3a8.92 8.92 0 0 1 1.788 1.454 4.129 4.129 0 0 0 .388-1.756v-7.54a3.243 3.243 0 0 0 -3.233-3.229z" transform="translate(-8 -8)"/><path d="m21.487 14.309a2.154 2.154 0 1 1 2.153-2.155 2.156 2.156 0 0 1 -2.153 2.155z" transform="translate(-1.024 -6.769)"/></g></svg>