<svg height="19" viewBox="0 0 71 19" width="71" xmlns="http://www.w3.org/2000/svg"><path d="m917.2839 245.5472c-.28 3.865 1.042 6.385 1.455 9.068.131.856.334 1.983-.795 2.177-1.245.213-1.119-1.034-1.329-1.823-1.218-4.577-1.655-9.344-3.377-13.801-.28-.724-.25-1.509.54-1.968.598-.348 1.245-.216 1.751.192 3.788 3.06 7.569 6.128 11.319 9.234.601.497.962 1.28.17 1.906-.743.588-1.437.077-1.963-.465-1.114-1.15-2.084-2.46-4.339-3.479.842 1.767 1.407 2.931 1.954 4.104 5.197 11.147 8.889 22.578 6.381 35.112-1.616 8.074-5.506 14.943-11.339 20.72-.701.695-1.516 1.356-2.403 1.765-1.343.62-3.076 2.557-4.149.801-.816-1.337 1.699-1.647 2.699-2.427 9.606-7.483 13.767-17.648 13.694-29.451-.069-11.112-4.229-21.14-10.269-31.665" fill="#f7b222" fill-rule="evenodd" transform="matrix(0 1 1 0 -238.976579 -911.023421)"/></svg>