<svg xmlns="http://www.w3.org/2000/svg" width="21.675" height="32" viewBox="0 0 21.675 32">
    <path data-name="Path 4797" d="m100.025 297.006-.478-.006-.145.132a6.464 6.464 0 0 1-9.222 0l-.145-.132-.479.006a6.67 6.67 0 0 0-5.581 7.282l.989 6.129h19.647l1-6.173a6.653 6.653 0 0 0-5.586-7.238zm4.561 7.118-.85 5.26h-17.89L85 304.168a5.62 5.62 0 0 1 4.643-6.129 7.458 7.458 0 0 0 10.306 0 5.609 5.609 0 0 1 4.637 6.085z" transform="translate(-83.953 -278.417)" style="fill:#000"/>
    <path data-name="Path 4798" d="M329.7 403.7h3.1v1.033h-3.1z" transform="translate(-314.22 -378.396)" style="fill:#000"/>
    <path data-name="Path 4799" d="M93.643 14.391h1.55V9.225h-.769a8.262 8.262 0 0 1 16 0h-.769v5.165h1.033v1.55h-2.614a10.41 10.41 0 0 0 1.065-4.239 6.716 6.716 0 0 0-13.43 0c0 3.5 2.885 8.888 6.715 8.888 2.085 0 3.887-1.594 5.1-3.616h4.2V14.3a1.549 1.549 0 0 0 1.033-1.455v-2.07a1.548 1.548 0 0 0-1.266-1.518 9.282 9.282 0 0 0-18.117 0 1.548 1.548 0 0 0-1.274 1.518v2.066a1.543 1.543 0 0 0 1.543 1.55zm13.285 1.55h-3.477v-.517h-1.027v2.066h1.033v-.517h2.854c-1.014 1.48-2.381 2.583-3.887 2.583-3.137 0-5.682-4.75-5.682-7.855a5.683 5.683 0 0 1 11.364 0 9.743 9.743 0 0 1-1.178 4.239zm3.754-5.676h.517a.519.519 0 0 1 .517.517v2.066a.519.519 0 0 1-.517.517h-.517zm-17.556.51a.519.519 0 0 1 .517-.517h.517v3.1h-.517a.519.519 0 0 1-.517-.517z" transform="translate(-91.586 -2)" style="fill:#000"/>
</svg>
