<svg xmlns="http://www.w3.org/2000/svg" width="33.867" height="50" viewBox="0 0 33.867 50" fill="#acc4cc">
    <path data-name="Path 4797" d="m25.113 29.045-.748-.01-.226.207a10.1 10.1 0 0 1-14.409 0l-.227-.207-.748.01c-5.246.61-9.163 5.679-8.72 11.378L1.58 50h30.7l1.555-9.646c.441-5.63-3.476-10.699-8.722-11.309zm7.126 11.122-1.329 8.219H2.957l-1.319-8.15c-.374-4.754 2.884-9.045 7.254-9.577a11.654 11.654 0 0 0 16.1 0c4.355.531 7.611 4.813 7.247 9.508z"/>
    <path data-name="Path 4798" d="M24.188 39.537h4.843v1.614h-4.843z"/>
    <path data-name="Path 4799" d="M3.214 19.36h2.421v-8.071h-1.2a12.909 12.909 0 0 1 25 0h-1.2v8.071h1.614v2.421h-4.086a16.267 16.267 0 0 0 1.663-6.624 10.494 10.494 0 0 0-20.984 0c0 5.463 4.508 13.888 10.492 13.888 3.258 0 6.073-2.49 7.963-5.65h6.555v-4.182a2.42 2.42 0 0 0 1.614-2.274v-3.228a2.419 2.419 0 0 0-1.978-2.372 14.5 14.5 0 0 0-28.307 0 2.419 2.419 0 0 0-1.978 2.372v3.228a2.411 2.411 0 0 0 2.411 2.421zm20.758 2.421h-5.433v-.807h-1.6V24.2h1.614v-.8h4.45c-1.585 2.313-3.72 4.035-6.073 4.035-4.9 0-8.878-7.421-8.878-12.274a8.88 8.88 0 0 1 17.756 0 15.224 15.224 0 0 1-1.836 6.62zm5.866-8.868h.807a.811.811 0 0 1 .807.807v3.228a.811.811 0 0 1-.807.807h-.807zm-27.431.8a.811.811 0 0 1 .807-.807h.807v4.843h-.807a.811.811 0 0 1-.807-.807z"/>
</svg>
