<svg height="80" viewBox="0 0 80 80" width="80" xmlns="http://www.w3.org/2000/svg"><circle cx="40" cy="40" fill="#eef3f5" r="40"/><g fill="#acc4cc" transform="translate(20 20)"><path d="m39.219 16.563h-6.713v-12.028a.781.781 0 0 0 -.781-.781h-2.506v-2.973a.781.781 0 0 0 -.782-.781h-16.875a.781.781 0 0 0 -.781.781v2.972h-2.506a.781.781 0 0 0 -.781.781v12.029h-6.713a.781.781 0 0 0 -.781.781v21.875a.781.781 0 0 0 .781.781h38.438a.781.781 0 0 0 .781-.781v-21.875a.781.781 0 0 0 -.781-.781zm-37.657 1.562h5.932v20.312h-5.932zm7.494-12.809h7.428a.781.781 0 1 0 0-1.562h-4.14v-2.191h15.312v2.19h-4.14a.781.781 0 1 0 0 1.562h7.428v33.122h-2.819v-10.468a.781.781 0 0 0 -.781-.781h-14.688a.781.781 0 0 0 -.781.781v10.468h-2.819zm4.381 23.434h5.781v9.687h-5.781zm7.344 9.687v-9.687h5.781v9.687zm17.656 0h-5.931v-20.312h5.931z"/><path d="m152.781 301.563h2.4a.781.781 0 1 0 0-1.562h-2.4a.781.781 0 0 0 0 1.563z" transform="translate(-140.125 -276.563)"/><path d="m233.843 300h-2.4a.781.781 0 0 0 0 1.563h2.4a.781.781 0 0 0 0-1.562z" transform="translate(-212.645 -276.563)"/><path d="m312.51 300h-2.4a.781.781 0 0 0 0 1.563h2.4a.781.781 0 0 0 0-1.562z" transform="translate(-285.166 -276.563)"/><path d="m152.781 249.6h2.4a.781.781 0 1 0 0-1.562h-2.4a.781.781 0 0 0 0 1.563z" transform="translate(-140.125 -228.664)"/><path d="m233.843 248.042h-2.4a.781.781 0 0 0 0 1.563h2.4a.781.781 0 0 0 0-1.562z" transform="translate(-212.645 -228.664)"/><path d="m309.333 248.823a.781.781 0 0 0 .781.781h2.4a.781.781 0 0 0 0-1.562h-2.4a.781.781 0 0 0 -.781.781z" transform="translate(-285.166 -228.664)"/><path d="m194.781 103.386h1.563v1.563a.781.781 0 0 0 .781.781h3.438a.781.781 0 0 0 .781-.781v-1.562h1.562a.781.781 0 0 0 .781-.781v-3.439a.781.781 0 0 0 -.781-.781h-1.562v-1.563a.781.781 0 0 0 -.781-.781h-3.437a.781.781 0 0 0 -.781.781v1.563h-1.562a.781.781 0 0 0 -.781.781v3.433a.781.781 0 0 0 .779.786zm.781-3.437h1.563a.781.781 0 0 0 .781-.781v-1.568h1.875v1.563a.781.781 0 0 0 .781.781h1.562v1.875h-1.562a.781.781 0 0 0 -.781.781v1.562h-1.875v-1.562a.781.781 0 0 0 -.781-.781h-1.562z" transform="translate(-178.844 -88.539)"/><path d="m246.781 49.6a.782.782 0 1 0 -.552-.229.787.787 0 0 0 .552.229z" transform="translate(-226.781 -44.287)"/></g></svg>