<svg height="61.129" viewBox="0 0 44.258 61.129" width="44.258" xmlns="http://www.w3.org/2000/svg"><g fill="#2fbee2" transform="translate(-11.9 -5)"><path d="m17.377 66.13h33.3a5.484 5.484 0 0 0 5.477-5.477v-46.129a5.484 5.484 0 0 0 -5.477-5.477h-3.577v-1.3a2.755 2.755 0 0 0 -2.752-2.747h-20.648a2.755 2.755 0 0 0 -2.751 2.751v1.3h-3.57a5.484 5.484 0 0 0 -5.479 5.473v46.128a5.484 5.484 0 0 0 5.477 5.478zm6.323-58.685h20.65a.3.3 0 0 1 .306.306v5.037a.3.3 0 0 1 -.306.306h-20.65a.3.3 0 0 1 -.306-.306v-5.037a.311.311 0 0 1 .306-.306zm-9.353 7.079a3.032 3.032 0 0 1 3.032-3.032h3.57v1.3a2.755 2.755 0 0 0 2.751 2.747h20.65a2.755 2.755 0 0 0 2.75-2.751v-1.3h3.582a3.032 3.032 0 0 1 3.032 3.032v46.132a3.031 3.031 0 0 1 -3.032 3.032h-33.3a3.031 3.031 0 0 1 -3.032-3.032z"/><path d="m26.643 25.222h3.157v3.154a1.223 1.223 0 1 0 2.445 0v-3.154h3.155a1.223 1.223 0 1 0 0-2.445h-3.158v-3.154a1.223 1.223 0 0 0 -2.445 0v3.154h-3.154a1.223 1.223 0 0 0 0 2.445z" transform="translate(3.009 2.983)"/><path d="m18.673 34.885h28.241a1.223 1.223 0 0 0 0-2.445h-28.241a1.223 1.223 0 1 0 0 2.445z" transform="translate(1.235 6.108)"/><path d="m18.673 41.775h28.241a1.223 1.223 0 1 0 0-2.445h-28.241a1.223 1.223 0 1 0 0 2.445z" transform="translate(1.235 7.642)"/><path d="m18.673 48.655h28.241a1.223 1.223 0 1 0 0-2.445h-28.241a1.223 1.223 0 1 0 0 2.445z" transform="translate(1.235 9.173)"/></g></svg>