<svg width="10.34" height="10" xmlns="http://www.w3.org/2000/svg"><g><path d="M0 5.548V1.104a1.111 1.111 0 1 1 2.222 0v4.444c0 .614-.498 1.11-1.11 1.111C.497 6.66 0 6.162 0 5.55zM8.948 6.67H7.313l.011.047c.159.68.153 1.362-.008 1.93a2.355 2.355 0 0 1-.345.736c-.254.381-.68.613-1.138.62a.78.78 0 0 1-.23-.032c-.418-.128-.418-.628-.418-1.007a4.44 4.44 0 0 0-.025-.492c-.086-.774-.444-1.732-1.795-2.243a4.475 4.475 0 0 0-.377-.123.282.282 0 0 1-.21-.27V1.39c0-.766.621-1.386 1.387-1.387H8.24c.67 0 1.244.48 1.364 1.139l.708 3.892A1.385 1.385 0 0 1 8.948 6.67z" fill="#24bce3" fill-rule="evenodd"/></g></svg>