<svg width="36" height="36" xmlns="http://www.w3.org/2000/svg"><path d="M35.946 34.612l-2.378-7.134a6.737 6.737 0 0 0-4.905-4.423l-6.22-1.382v-2.67a8.97 8.97 0 0 0 4.52-7.781V6.86a4.948 4.948 0 0 0-.984-2.95l-.004-.006A9.768 9.768 0 0 0 18.802.029C18.535.008 18.268-.002 18 0a10.65 10.65 0 0 0-2.12.208c-3.321.673-5.183 2.801-5.855 3.696l-.005.007a4.948 4.948 0 0 0-.983 2.95v4.36c-.002 2.4.962 4.7 2.674 6.381a9.019 9.019 0 0 0 1.844 1.401v2.67l-6.219 1.382a6.737 6.737 0 0 0-4.905 4.423L.055 34.612a1.055 1.055 0 0 0 2.001.667l2.377-7.134a4.617 4.617 0 0 1 3.362-3.031l1.243-.276v4.707a3.32 3.32 0 0 0-2.26 3.141A3.318 3.318 0 0 0 10.092 36a3.318 3.318 0 0 0 3.314-3.314 3.32 3.32 0 0 0-2.259-3.14v-5.177l2.948-.655 3 4.996a1.055 1.055 0 0 0 1.81 0l2.997-4.997 2.951.656v2.87c-1.049.254-3.389 1.442-3.389 4.317v3.39A1.055 1.055 0 0 0 22.52 36h1.13a1.055 1.055 0 0 0 0-2.11h-.076v-2.334a2.333 2.333 0 1 1 4.67 0v2.335h-.076a1.055 1.055 0 0 0 0 2.11h1.13c.582 0 1.055-.473 1.055-1.056v-3.389a4.45 4.45 0 0 0-3.39-4.316v-2.402l1.243.276a4.617 4.617 0 0 1 3.362 3.031l2.378 7.134a1.055 1.055 0 0 0 2-.667zM24.293 5.178l-.002-.002a7.65 7.65 0 0 0-4.628-2.908 8.474 8.474 0 0 0-1.652-.159c-.25 0-.5.01-.748.031a7.655 7.655 0 0 0-5.558 3.04 2.825 2.825 0 0 0-.558 1.68v1.814l1.589-1.587a1.054 1.054 0 0 1 1.217-.197 9.093 9.093 0 0 0 8.094 0c.147-.074.308-.112.472-.112.423 0 .649.212.861.425l.021.02 1.452 1.453V6.86a2.826 2.826 0 0 0-.558-1.68zm-13.146 6.044v-.224a3.762 3.762 0 0 0 1.62-.959l.943-.943c1.36.563 2.818.853 4.29.852 1.472.001 2.93-.289 4.29-.852l.944.943c.45.452 1.007.782 1.62.959v.224A6.861 6.861 0 0 1 18 18.075a6.861 6.861 0 0 1-6.853-6.853zm9.187 11.005L18 26.117l-2.334-3.89v-2.352a8.942 8.942 0 0 0 4.668 0v2.352zM10.092 33.89a1.206 1.206 0 0 0 0-2.41 1.206 1.206 0 0 0 0 2.41zM24.293 5.178l.002.003" fill="#24bce3" fill-rule="evenodd"/></svg>