<svg fill="#24bce3" height="15.783" viewBox="0 0 13.636 15.783" width="13.636" xmlns="http://www.w3.org/2000/svg"><path d="m155.388 0a3.087 3.087 0 0 0 -3.088 3.084v1.6a3.084 3.084 0 1 0 6.168 0v-1.6a3.087 3.087 0 0 0 -3.08-3.084z" transform="translate(-148.57)"/><path d="m47.626 265.414a7.822 7.822 0 0 0 -4.444-3.513.123.123 0 0 0 -.123.03 12.876 12.876 0 0 1 -2.231 1.7 16.023 16.023 0 0 1 -2.236-1.7.123.123 0 0 0 -.123-.03 7.82 7.82 0 0 0 -4.444 3.513.123.123 0 0 0 0 .125 7.908 7.908 0 0 0 13.6 0 .123.123 0 0 0 .001-.125zm-2.607.92a.129.129 0 0 1 -.133.12h-.835a.144.144 0 0 0 -.142.127v.864a.106.106 0 0 1 -.1.12h-.75a.128.128 0 0 1 -.132-.12v-.864a.119.119 0 0 0 -.115-.127h-.871a.122.122 0 0 1 -.124-.12v-.744a.124.124 0 0 1 .124-.123h.871a.116.116 0 0 0 .115-.124v-.865a.13.13 0 0 1 .132-.122h.741a.113.113 0 0 1 .113.122v.867a.131.131 0 0 0 .134.121h.844a.134.134 0 0 1 .133.126z" transform="translate(-34.007 -253.629)"/></svg>