<svg xmlns="http://www.w3.org/2000/svg" width="111.159" height="120.579" viewBox="0 0 111.159 120.579">
    <path data-name="Path 4792" d="M95.688 70.028 68.58 62.952v-2.636a23.977 23.977 0 0 0 10.98-20.14V23.661A23.687 23.687 0 0 0 55.9 0h-.638A23.688 23.688 0 0 0 31.6 23.661v16.515A23.982 23.982 0 0 0 42.716 60.4v2.55l-27.228 7.086A20.705 20.705 0 0 0 0 90.069v28.155a2.355 2.355 0 0 0 2.355 2.355H108.8a2.355 2.355 0 0 0 2.355-2.355v-6.005a2.355 2.355 0 1 0-4.71 0v3.65H58.014v-15.727l14.524-31.065A19.725 19.725 0 0 1 85.335 87.5v9.413a7.193 7.193 0 1 0 4.71 0V87.5a24.364 24.364 0 0 0-5.624-15.544l10.079 2.63a16 16 0 0 1 11.951 15.473v.965a2.355 2.355 0 1 0 4.71 0v-.965a20.708 20.708 0 0 0-15.472-20.03zm-8 36.164a2.484 2.484 0 1 1 2.483-2.484 2.486 2.486 0 0 1-2.481 2.484zM36.311 23.661a18.971 18.971 0 0 1 18.95-18.95h.639a18.972 18.972 0 0 1 18.95 18.95v2.987a11.2 11.2 0 0 1-6.188-3.7l-.686-.807a13.943 13.943 0 0 0 .76-4.544 2.355 2.355 0 0 0-4.71 0 9.308 9.308 0 0 1-9.3 9.3H36.311zm0 16.515V31.61h18.416a13.984 13.984 0 0 0 10.8-5.1 15.89 15.89 0 0 0 9.32 4.921v8.746a19.269 19.269 0 1 1-38.538 0zm19.269 23.98a23.87 23.87 0 0 0 8.29-1.477v2.093a2.355 2.355 0 0 0 1.76 2.278l2.336.684-12.318 26.347L43.314 67.7l2.35-.65a2.355 2.355 0 0 0 1.762-2.28v-2.043a23.868 23.868 0 0 0 8.153 1.429zM4.711 115.869v-25.8a15.994 15.994 0 0 1 11.964-15.475l10.043-2.614a24.361 24.361 0 0 0-5.6 15.519v1.11a10.906 10.906 0 0 0-8.534 10.63v9.307a2.355 2.355 0 0 0 2.355 2.355H18.2a2.355 2.355 0 1 0 0-4.71h-.911V99.24a6.179 6.179 0 1 1 12.359 0v6.952H28.4a2.355 2.355 0 1 0 0 4.71H32a2.355 2.355 0 0 0 2.355-2.355V99.24a10.906 10.906 0 0 0-8.534-10.63V87.5a19.724 19.724 0 0 1 12.917-18.466L53.3 100.187v15.682zm0 0" transform="translate(-.001)" style="fill:#acc4cc"/>
</svg>
