<svg height="22.12" width="22.12" xmlns="http://www.w3.org/2000/svg"><circle cx="11" cy="11" fill="#24bce3" r="10"/><path d="m11.752 5.61v-.769a.691.691 0 1 0 -1.383 0v.77a3.115 3.115 0 0 0 -2.419 3.032 3.114 3.114 0 0 0 3.11 3.11 1.73 1.73 0 0 1 1.729 1.729 1.73 1.73 0 0 1 -1.728 1.728 1.73 1.73 0 0 1 -1.729-1.728.691.691 0 0 0 -1.382 0 3.115 3.115 0 0 0 2.42 3.032v.77a.691.691 0 1 0 1.382 0v-.77a3.115 3.115 0 0 0 2.42-3.032 3.114 3.114 0 0 0 -3.111-3.11 1.73 1.73 0 0 1 -1.729-1.729 1.73 1.73 0 0 1 1.729-1.728 1.73 1.73 0 0 1 1.728 1.728.691.691 0 1 0 1.382 0 3.115 3.115 0 0 0 -2.42-3.032z" fill="#fff" fill-rule="evenodd"/></svg>