<svg height="16" viewBox="0 0 16 16" width="16" xmlns="http://www.w3.org/2000/svg"><path d="m8 0a8 8 0 1 0 8 8 8 8 0 0 0 -8-8zm2.3 11.154a2.573 2.573 0 0 1 -1.333.856.371.371 0 0 0 -.323.425c.01.237 0 .471 0 .708a.293.293 0 0 1 -.316.329c-.135 0-.27.007-.4.007-.119 0-.237 0-.356 0a.306.306 0 0 1 -.329-.349c0-.171 0-.346 0-.517 0-.382-.016-.4-.382-.454a4.853 4.853 0 0 1 -1.356-.388c-.336-.165-.372-.247-.277-.6.072-.263.145-.527.227-.787.059-.191.115-.277.217-.277a.577.577 0 0 1 .237.082 4.392 4.392 0 0 0 1.508.451 2.416 2.416 0 0 0 .267.016 1.779 1.779 0 0 0 .721-.148.767.767 0 0 0 .184-1.347 2.4 2.4 0 0 0 -.563-.329 13.18 13.18 0 0 1 -1.541-.691 2.178 2.178 0 0 1 -1.244-2.09 2.3 2.3 0 0 1 1.679-2.127c.412-.148.415-.145.415-.573 0-.145 0-.29 0-.438.01-.323.063-.379.385-.388h.38c.612 0 .612.026.616.688 0 .487 0 .487.487.563a4.287 4.287 0 0 1 1.067.319.31.31 0 0 1 .2.415c-.086.3-.168.6-.26.889-.059.178-.115.26-.221.26a.529.529 0 0 1 -.224-.069 3.366 3.366 0 0 0 -1.491-.342c-.066 0-.135 0-.2.007a1.328 1.328 0 0 0 -.451.092.639.639 0 0 0 -.158 1.139 2.98 2.98 0 0 0 .735.414 13.238 13.238 0 0 1 1.34.606 2.409 2.409 0 0 1 .76 3.648z" fill="#24bce3"/></svg>