<svg height="22.12" width="22.12" xmlns="http://www.w3.org/2000/svg"><g fill-rule="evenodd"><path d="m11.06 22.12c-2.954 0-5.732-1.15-7.82-3.24a10.987 10.987 0 0 1 -3.24-7.82 10.988 10.988 0 0 1 3.24-7.82 10.987 10.987 0 0 1 7.82-3.24 10.987 10.987 0 0 1 7.82 3.24 10.987 10.987 0 0 1 3.24 7.82 10.988 10.988 0 0 1 -3.24 7.82 10.987 10.987 0 0 1 -7.82 3.24zm0-20.738a9.688 9.688 0 0 0 -9.678 9.678 9.688 9.688 0 0 0 9.678 9.677c5.336 0 9.677-4.341 9.677-9.677a9.688 9.688 0 0 0 -9.677-9.678z" fill="#24bce3"/><path d="m11.752 5.61v-.769a.691.691 0 1 0 -1.383 0v.77a3.115 3.115 0 0 0 -2.419 3.032 3.114 3.114 0 0 0 3.11 3.11 1.73 1.73 0 0 1 1.729 1.729 1.73 1.73 0 0 1 -1.728 1.728 1.73 1.73 0 0 1 -1.729-1.728.691.691 0 0 0 -1.382 0 3.115 3.115 0 0 0 2.42 3.032v.77a.691.691 0 1 0 1.382 0v-.77a3.115 3.115 0 0 0 2.42-3.032 3.114 3.114 0 0 0 -3.111-3.11 1.73 1.73 0 0 1 -1.729-1.729 1.73 1.73 0 0 1 1.729-1.728 1.73 1.73 0 0 1 1.728 1.728.691.691 0 1 0 1.382 0 3.115 3.115 0 0 0 -2.42-3.032z" fill="#fff"/></g></svg>