<svg xmlns="http://www.w3.org/2000/svg" width="27.68" height="27.68" viewBox="0 0 27.68 27.68">
    <circle data-name="Ellipse 1392" cx="13.839" cy="13.839" r="13.839" transform="translate(.001 .001)" style="fill:#fff"/>
    <path data-name="Path 4746" d="M322.747 157.875h-8.527a38.265 38.265 0 0 1 .007 9.174h8.538a13.853 13.853 0 0 0-.018-9.174z" transform="translate(-295.858 -148.649)" style="fill:#efecec"/>
    <path data-name="Path 4747" d="M261.394 10.141h8.527v-.012a13.848 13.848 0 0 0-11.8-9.157c2.112 1.161 2.731 4.84 3.273 9.169z" transform="translate(-243.032 -.915)" style="fill:#c42b27"/>
    <path data-name="Path 4748" d="M258.115 324.094a13.849 13.849 0 0 0 11.811-9.184c0-.013.009-.026.013-.039H261.4c-.536 4.352-1.158 8.057-3.285 9.223z" transform="translate(-243.032 -296.471)" style="fill:#0b0b0b"/>
    <path data-name="Path 4749" d="M0 162.49a13.82 13.82 0 0 0 .772 4.56h18.309a38.269 38.269 0 0 0-.007-9.174H.791A13.811 13.811 0 0 0 0 162.49z" transform="translate(0 -148.649)" style="fill:#efefef"/>
    <path data-name="Path 4750" d="M13.537 9.214v.012h18.28C31.275 4.9 29.944 1.218 27.825.057 27.415.021 27 0 26.582 0a13.843 13.843 0 0 0-13.045 9.214z" transform="translate(-12.742)" style="fill:#cc3434"/>
    <path data-name="Path 4751" d="M31.528 314.871H13.219l.013.039a13.844 13.844 0 0 0 13.054 9.241c.419 0 .833-.021 1.243-.057 2.128-1.166 3.462-4.871 3.999-9.223z" transform="translate(-12.447 -296.471)" style="fill:#151515"/>
    <g data-name="Group 5765">
        <path data-name="Path 4752" d="M195.394 188.651a3.742 3.742 0 0 0-.616-.02c-.038.022-.033.088-.05.132.02.041.061.018.1.05.063.061.106.142.2.172-.082.086-.08.257-.2.3.021.2-.108.233-.3.272a11.864 11.864 0 0 1-3.371.07 1.684 1.684 0 0 1-.576-.151.188.188 0 0 1-.05-.172c-.117-.058-.118-.232-.212-.313.131-.044.156-.194.3-.222a.452.452 0 0 0-.031-.141 4.052 4.052 0 0 0-.636.02c.016-.226.021-.482.041-.747.026-.354.022-.768.05-1.12.015-.18.009-.365.021-.545.021-.341.006-.68.03-1 .026-.345.014-.713.04-1.039s.12-.608.515-.576c.468.039.762.431 1.272.434a1.331 1.331 0 0 0 .343-1.14c-.03-.2-.239-.481-.444-.373-.03-.332.286-.287.494-.182.064-.04.082-.1.151-.111a.76.76 0 0 1 .475.091.654.654 0 0 1 .232.586c0 .141-.032.282-.021.424a1.272 1.272 0 0 0 .253.7c.474.043.822-.378 1.282-.424a.464.464 0 0 1 .444.182 8.817 8.817 0 0 1 .131 1.565c.025.326.01.667.03 1 .048.749.07 1.505.103 2.278zm-2.271-5.279a2.944 2.944 0 0 0-.04-.818c-.045-.043-.071-.1-.132-.131h-.151c-.076.041-.1.125-.182.141-.187.04-.2-.137-.343-.192-.037-.014-.087-.006-.132-.021-.135-.041-.215-.09-.283.1.247-.014.468.065.525.273-.141-.039-.1.087-.091.171a1.5 1.5 0 0 1-.182.979c-.067.109-.153.194-.2.293.147-.027.279-.019.353-.111.1-.123.078-.387.141-.535a1.091 1.091 0 0 1-.242.717c.36-.051.422-.351.454-.717a.952.952 0 0 1-.081.5c.047.058.073.136.142.172a.492.492 0 0 0 .131-.182.768.768 0 0 1-.061-.495c0 .388.1.666.434.717a1 1 0 0 1-.222-.727 1.633 1.633 0 0 0 .131.555.718.718 0 0 0 .354.1 1.4 1.4 0 0 1-.323-.79zm-.635-.919v.04c.024 0 .022.019.05.01a.062.062 0 0 0 .01-.05.05.05 0 0 0-.061 0zm-1.948 1.2a.386.386 0 0 0-.343.424c.1-.034.191-.125.293-.121-.055 1.519-.121 2.9-.182 4.4a1.2 1.2 0 0 0-.262.252h.545c.029-.241.3-.29.525-.222.107-.37.216-.739.313-1.12-.1.061-.151.172-.253.232.036-.971.085-1.917.121-2.907a.888.888 0 0 0 .656.091 2.015 2.015 0 0 0 .737-.323 1.648 1.648 0 0 0 .909.343 1.1 1.1 0 0 0 .464-.091c.021.99.092 1.958.111 2.9a2.832 2.832 0 0 0-.242-.233c.089.382.205.737.3 1.111.235-.074.495-.01.535.222.178-.007.383.013.545-.01-.064-.113-.22-.145-.262-.262a2.042 2.042 0 0 1-.02-.505c-.056-1.221-.133-2.663-.162-3.886a3.072 3.072 0 0 1 .293.131c-.023-.243-.124-.409-.353-.424-.522-.035-.824.446-1.352.434 0 .064.1.078.091.121a1.535 1.535 0 0 1-.353-.05c-.01.056.092.082.1.151a.9.9 0 0 1-.474-.232.935.935 0 0 1-.151.192 1.2 1.2 0 0 0-.151-.192.658.658 0 0 1-.464.222c.03-.051.09-.071.1-.141a.915.915 0 0 1-.353.041c.031-.037.085-.05.091-.111-.502.01-.851-.475-1.353-.436zm.979 1.091a2.586 2.586 0 0 0 1.171 2.332 2.633 2.633 0 0 0 1.141-2.332 2.081 2.081 0 0 1-.828-.151c-.124-.053-.244-.151-.343-.182a1.793 1.793 0 0 1-1.142.334zm.02.737c-.009.49-.088 1.089-.05 1.6a3.433 3.433 0 0 0 .091-.979 1.328 1.328 0 0 0-.03-.646.048.048 0 0 1-.012.025zm2.241.909a1.612 1.612 0 0 0 .1.7c.01-.537-.057-1.1-.06-1.625-.013 0-.014-.012-.03-.01a4.152 4.152 0 0 0-.011.935zm-2.079.575c.087-.1.184-.186.262-.293a.78.78 0 0 0-.182-.514c-.032.259-.281.593-.081.807zm1.7-.283c.095.087.176.241.283.283.151-.245-.067-.509-.09-.788-.013 0-.014-.013-.031-.01a.8.8 0 0 0-.163.515zm-1.353.455a2.8 2.8 0 0 0 .252-.323c-.125-.1-.217-.234-.333-.344.021.223.033.457.076.667zm1.02-.313a1.706 1.706 0 0 0 .262.313c.021-.219.037-.441.07-.646 0-.012 0-.024-.02-.021a3.458 3.458 0 0 1-.318.353zm-1.393.2c-.012-.065-.047-.108-.061-.171a1.385 1.385 0 0 0-.141.444c-.016.056-.055.1-.05.162.116-.05.163-.167.283-.212a2.513 2.513 0 0 0 .1.262c.094-.045.089-.187.172-.242.046.163.094.323.151.475.108-.091.23-.167.262-.333-.061-.138-.116-.281-.172-.424-.082.056-.134.2-.2.232a1.56 1.56 0 0 0-.071-.484 1.86 1.86 0 0 1-.279.292zm1.676.2c-.073-.075-.124-.172-.2-.242-.029.066-.063.132-.091.2a.873.873 0 0 0-.081.222c-.008.158.167.233.262.333a2.893 2.893 0 0 1 .131-.475c.063.079.091.192.182.242.047-.085.079-.184.121-.273a2.694 2.694 0 0 0 .262.222 3.54 3.54 0 0 0-.182-.616.794.794 0 0 1-.081.181 2.7 2.7 0 0 0-.273-.283 3.21 3.21 0 0 0-.056.492zm-1.03-.383c-.163.116.018.353.081.485.029-.116.055-.235.081-.354a1.456 1.456 0 0 1-.168-.128zm.565.141a1.211 1.211 0 0 0 .091.344c.056-.119.1-.252.151-.374-.029-.042-.047-.094-.1-.111-.028.072-.119.078-.148.144zm-1.221.3a1.031 1.031 0 0 1-.262.222c-.07.2.075.377.141.535.092-.067.131-.186.222-.252a1.526 1.526 0 0 0 .121.343c.1-.069.156-.234.252-.272a.762.762 0 0 0 .081.313c.036-.193.082-.376.121-.566-.082.017-.141.141-.222.192-.056-.146-.092-.311-.151-.455-.079.056-.09.179-.162.242a.941.941 0 0 0-.147-.296zm1.877.3c-.058-.084-.092-.19-.182-.242-.036.152-.078.3-.111.455-.084-.048-.141-.176-.222-.192a2.627 2.627 0 0 0 .141.575 1.858 1.858 0 0 1 .071-.333c.091.087.138.218.252.283.032-.12.075-.228.111-.343.085.073.126.19.222.252.056-.162.2-.313.141-.524-.1-.067-.183-.16-.283-.233-.063.097-.082.22-.146.311zm-1.1.8c-.052.029-.089.073-.142.1-.021-.025-.084-.108-.1-.071s-.016.092-.03.132c.1.009.287-.028.333.061.137-.019.247.026.353 0 .04-.01.071-.053.111-.061.075-.015.148.013.222 0-.014-.044 0-.111-.031-.141-.066 0-.055.073-.121.07-.035-.046-.1-.065-.132-.111-.038-.281-.063-.577-.121-.838-.023.279.041.557.03.858-.054.047-.08.122-.141.162-.023-.068-.115-.1-.132-.192-.044-.247.092-.629.031-.828-.061.277-.072.598-.135.865zm-1.292.01a.249.249 0 0 0 .172.04 1.63 1.63 0 0 1 .192-.242 2.348 2.348 0 0 0 .122.313h.07c.055-.066.085-.157.141-.222.035.079.052.176.09.252a.69.69 0 0 0 .182.01.782.782 0 0 0-.01-.626c-.093.082-.147.2-.242.283a1.019 1.019 0 0 0-.132-.343c-.07.08-.134.168-.2.252-.072-.127-.092-.306-.192-.4-.061.241-.13.465-.199.691zm2.675-.283a1.161 1.161 0 0 0-.212-.252c-.059.1-.068.248-.132.343-.078-.087-.148-.235-.242-.273a.8.8 0 0 0 .01.616.61.61 0 0 0 .172-.01c.047-.071.054-.181.1-.252.043.075.088.147.131.222h.081a3.2 3.2 0 0 1 .132-.323 1.481 1.481 0 0 0 .192.262c.056-.014.128-.014.151-.061-.068-.218-.125-.446-.192-.666h-.03a5.84 5.84 0 0 1-.167.401zm-2.473.343a2.079 2.079 0 0 0 .242.04.566.566 0 0 0-.111-.242c-.04.084-.111.124-.137.209zm2.423.04a1.889 1.889 0 0 0 .232-.04c-.008-.061-.086-.135-.131-.192-.07.055-.083.153-.107.24zm-2.029.021c.033.021.1.005.151.01-.019-.059-.016-.139-.07-.162a.508.508 0 0 0-.087.159zm1.726.01h.141a.189.189 0 0 0-.1-.162c-.013.067-.061.124-.047.169zm.979-.142a7.606 7.606 0 0 1-.838.172 4.189 4.189 0 0 1-.646.02c-.059.064-.029.137.01.2a2.345 2.345 0 0 0 .636-.01c-.011-.214.243-.267.272-.04a2.691 2.691 0 0 0 .636-.162c-.004-.076-.004-.161-.076-.173zm-2.887.152c-.173-.025-.407-.107-.566-.141-.09-.02-.117 0-.151.04v.142a3.321 3.321 0 0 0 .636.151c.019-.228.275-.185.262.04a2.365 2.365 0 0 0 .636.01c.045-.071.074-.123.02-.2a4.659 4.659 0 0 1-.843-.035zm-.918.121a.421.421 0 0 0 .172-.091c0-.049.01-.118-.01-.151a.189.189 0 0 0-.168.249zm3.906-.081a.476.476 0 0 0 .172.081.2.2 0 0 0-.161-.242c-.028.043-.012.116-.017.168zm-2.937.272a.421.421 0 0 1 .081-.061.224.224 0 0 0-.04-.181c-.184-.017-.178.23-.047.249zm2.049-.07c.014.035.061.043.1.07.041-.023.061-.067.091-.1-.011-.215-.265-.124-.197.037zm-2.2-.02c-.269-.009-.54-.2-.777-.081-.008.049-.044.07-.03.141-.114-.012-.245.14-.252.192-.016.115.1.2.161.273a.248.248 0 0 0 .03.161 9.058 9.058 0 0 0 3.321.172c.31-.035.8-.066.889-.242v-.121c.112-.03.13-.152.161-.262-.09-.059-.12-.176-.262-.181.028-.041-.02-.078-.02-.121-.126-.107-.276-.029-.454.01-.245.053-.4.054-.465.233-.025-.062-.085-.09-.131-.132a2.1 2.1 0 0 1-.646.01c-.052.082-.168.1-.182.222a.5.5 0 0 1-.071-.242h-.1a.547.547 0 0 1-.081.242c-.008-.123-.128-.134-.171-.222a2.817 2.817 0 0 1-.647 0c-.069.021-.1.082-.151.121-.015-.084-.086-.109-.129-.166zm1.1-.121a.428.428 0 0 0 .071.122c.123.025.134-.061.172-.122a.6.6 0 0 0-.25.006zm-.141.172a.384.384 0 0 0 .151.111c.039-.1.012-.26-.1-.273.001.087-.066.089-.058.168zm.434-.162c-.063.045-.142.213-.041.273.038-.05.107-.068.132-.132-.048-.028-.04-.115-.098-.134z" transform="translate(-178.853 -171.592)" style="fill:#eebc31"/>
        <path data-name="Path 4753" d="M197.383 216.573a2.972 2.972 0 0 1-.343.292c.048-1.378.136-2.793.182-4.219a1.4 1.4 0 0 1 .313.262c-.044 1.233-.101 2.363-.152 3.665z" transform="translate(-185.526 -200.22)" style="fill:#eebc31"/>
        <path data-name="Path 4754" d="M267.881 216.7c-.058.011-.114-.083-.172-.132a.869.869 0 0 1-.182-.161c-.064-1.04-.048-2.137-.132-3.129a2.635 2.635 0 0 1-.02-.515c.032-.123.24-.17.3-.282.082 1.265.134 2.854.206 4.219z" transform="translate(-251.744 -200.064)" style="fill:#eebc31"/>
        <path data-name="Path 4755" d="M204.614 218.352a2.051 2.051 0 0 1 .252.2c-.024.811-.075 1.783-.111 2.594a1.663 1.663 0 0 1-.01.414c-.043.117-.207.181-.283.283.044-1.174.113-2.343.152-3.491z" transform="translate(-192.514 -205.593)" style="fill:#eebc31"/>
        <path data-name="Path 4756" d="M262.211 221.974c-.013.014-.041-.021-.061-.041-.06-.059-.143-.15-.2-.212-.051-.987-.09-2.017-.131-3a1.08 1.08 0 0 1 .232-.212c.057 1.064.109 2.326.16 3.465z" transform="translate(-246.518 -205.742)" style="fill:#eebc31"/>
        <path data-name="Path 4757" d="M219.924 220.9a2.587 2.587 0 0 1-1.06 2.21 2.7 2.7 0 0 1-1.1-2.21 1.9 1.9 0 0 0 1.1-.313 1.742 1.742 0 0 0 1.06.313zm-1.423-.071c-.018.413-.01.97-.01 1.424a2.293 2.293 0 0 0 0 .484c.018.065.118.125.172.172a1.154 1.154 0 0 0 .192.151c.1-.077.339-.2.374-.323a2.282 2.282 0 0 0 0-.474v-1.434c-.131-.064-.254-.136-.384-.2-.093.093-.245.123-.345.205z" transform="translate(-205.039 -207.702)" style="fill:#eebc31"/>
        <path data-name="Path 4758" d="M206.542 288.477c.063.021.163.005.172.081-.053.02-.1-.05-.172-.041z" transform="translate(-194.473 -271.62)" style="fill:#eebc31"/>
        <path data-name="Path 4759" d="M263.887 288.609a.677.677 0 0 1-.172.07c-.001-.07.136-.104.172-.07z" transform="translate(-248.305 -271.732)" style="fill:#eebc31"/>
        <path data-name="Path 4760" d="M211.725 290.208a.345.345 0 0 1 .212.07c-.066.003-.199-.013-.212-.07z" transform="translate(-199.353 -273.25)" style="fill:#eebc31"/>
        <path data-name="Path 4761" d="M257.888 290.3a.335.335 0 0 1-.222.06.287.287 0 0 1 .222-.06z" transform="translate(-242.609 -273.329)" style="fill:#eebc31"/>
        <path data-name="Path 4762" d="M248.386 291.835a.5.5 0 0 1-.222 0c.017-.068.2-.062.222 0z" transform="translate(-233.662 -274.736)" style="fill:#eebc31"/>
        <path data-name="Path 4763" d="M221.466 291.88c-.02.075-.162.027-.242.04.006-.091.176-.04.242-.04z" transform="translate(-208.297 -274.811)" style="fill:#eebc31"/>
        <path data-name="Path 4764" d="M227.127 292.244a.384.384 0 0 1-.212.03c.02-.055.154-.049.212-.03z" transform="translate(-213.655 -275.154)" style="fill:#eebc31"/>
        <path data-name="Path 4765" d="M242.68 292.253a2.106 2.106 0 0 1-.212-.03c.038-.037.212-.04.212.03z" transform="translate(-228.299 -275.123)" style="fill:#eebc31"/>
        <path data-name="Path 4766" d="M255.074 294.158c.046 0 .021-.073.07-.071-.007.031.01.037.01.061a.2.2 0 0 1-.181.02c-.079.042-.178.188-.283.081-.073.012-.062.106-.121.132-.081-.064-.15-.032-.273-.021-.036.041-.039.115-.111.121 0-.046.06-.041.061-.09-.011-.033-.069-.019-.091-.041-.019-.083.046-.082.071-.121.046.011.05.064.061.111a.23.23 0 0 0 .091-.021.239.239 0 0 1 .07-.131c0-.056-.036-.132-.03-.162.058.013.03.112.061.151.078-.007.124.018.141.07.078-.03.1-.121.2-.121.044 0 .068.038.111.03.012-.134-.023-.409-.192-.3.008-.053.082-.039.141-.04.107.071.005.351.194.342zm-.354.081c.047.042.163.019.151-.061-.028-.051-.171-.029-.151.06zm-.2.05a.369.369 0 0 0 .07-.02c-.001-.116-.163-.059-.072.019zm-.091.03c.025 0 .031-.016.05-.021 0-.033 0-.071-.03-.07-.02.018-.049.058-.022.091zm-.243.021c.031.014.046 0 .071-.01 0-.024-.017-.03-.01-.061-.047.002-.07.018-.062.07zm.343 0a.044.044 0 0 0 .071-.041c-.032.001-.072.001-.072.04z" transform="translate(-239.3 -276.644)" style="fill:#eebc31"/>
        <path data-name="Path 4767" d="M205.768 294.439v.05c-.014.016-.052.009-.081.01-.009-.036 0-.025-.01-.061a.072.072 0 0 1 .091.001z" transform="translate(-193.659 -277.218)" style="fill:#eebc31"/>
        <path data-name="Path 4768" d="M205.417 296.586c0 .018-.012.021-.01.04-.041 0-.079 0-.081-.04a.1.1 0 0 1 .091 0z" transform="translate(-193.328 -279.244)" style="fill:#eebc31"/>
        <path data-name="Path 4769" d="M242.981 298.155h.04a.079.079 0 0 1 0 .081h-.04a.079.079 0 0 1 0-.081z" transform="translate(-228.771 -280.732)" style="fill:#eebc31"/>
        <path data-name="Path 4770" d="M215.049 298.495c.031.132.054.415-.061.434s-.081-.154-.192-.162a.3.3 0 0 1-.222.021c-.05 0-.042.065-.091.071.065-.067.038-.152.03-.233.054.006.062.059.061.122.029.061.151.02.192 0-.022-.043-.049-.079-.071-.122.062-.016.062-.073.121-.07a.105.105 0 0 1 .02.2c.066.025.074.108.132.141.132-.027.032-.285.081-.402zm-.3.162c0 .038.033.061.07.081.168-.077-.066-.243-.072-.081z" transform="translate(-201.951 -281.053)" style="fill:#eebc31"/>
        <path data-name="Path 4771" d="M225.9 298.495c.033.069-.012.229-.021.323a.839.839 0 0 1 .021-.323z" transform="translate(-212.666 -281.053)" style="fill:#eebc31"/>
        <path data-name="Path 4772" d="M243.949 298.495c.068.067-.012.281.07.333.069-.021.116-.011.132-.07s-.059-.084-.02-.121c.09 0 .03.131.02.182a.691.691 0 0 1-.3.02c.005-.052.06-.055.1-.071.036-.088-.024-.202-.002-.273z" transform="translate(-229.599 -281.053)" style="fill:#eebc31"/>
        <path data-name="Path 4773" d="M243.111 300.219c.006.059-.122.025-.081-.01.015-.009.081-.021.081.01z" transform="translate(-228.821 -282.655)" style="fill:#eebc31"/>
        <path data-name="Path 4774" d="M250.652 301.224a.549.549 0 0 1 .071-.132c-.028-.056-.139-.109-.061-.182.155.024.082.277-.01.314zm.01-.263c.005.039.021.067.061.071.024-.032-.023-.104-.061-.07z" transform="translate(-235.988 -283.327)" style="fill:#eebc31"/>
        <path data-name="Path 4775" d="M268.485 301.31c0 .059-.072.039-.1.02.015-.056.066-.04.1-.02z" transform="translate(-252.701 -283.686)" style="fill:#eebc31"/>
        <path data-name="Path 4776" d="M227.819 301.434a.449.449 0 0 0 .383.05c.03.028.026.088.051.121a.086.086 0 0 1 .061-.01c-.021-.12.146-.149.141-.02-.031.057-.121.054-.212.051-.041.023-.041.086-.081.111a.118.118 0 0 1-.091-.09 1.588 1.588 0 0 0-.323-.02c-.041.048-.08.147-.141.141.03-.052.087-.074.1-.141-.019-.038-.089-.069-.051-.132.1-.016.05.112.131.111.087-.035.022-.116.032-.172zm.03.172c.055 0 .147 0 .222.01.032.026.035.079.081.091.033-.044.09-.127.041-.192-.111.092-.354-.115-.343.091zm.5-.01c.052.009.072-.016.071-.061-.033-.052-.102.008-.066.065z" transform="translate(-214.307 -283.82)" style="fill:#eebc31"/>
        <path data-name="Path 4777" d="M205.726 302.265c.032-.009.031.016.05.021a.164.164 0 0 1-.02.07c-.056-.008-.056-.056-.03-.091z" transform="translate(-193.687 -284.601)" style="fill:#eebc31"/>
        <path data-name="Path 4778" d="M207.493 302.955c.043.07-.06.108-.091.05.004-.042.036-.058.091-.05z" transform="translate(-195.282 -285.25)" style="fill:#eebc31"/>
        <path data-name="Path 4779" d="M210.076 303.454c-.01 0-.008.012-.01.021h-.071a.047.047 0 0 1 .081-.021z" transform="translate(-197.714 -285.668)" style="fill:#eebc31"/>
        <path data-name="Path 4780" d="M245.07 305.406c.054 0 .047.087.01.1-.041-.006-.038-.082-.01-.1z" transform="translate(-230.729 -287.56)" style="fill:#eebc31"/>
        <path data-name="Path 4781" d="M246.689 305.628c-.03-.011-.06-.021-.07-.05.031-.097.154-.01.07.05z" transform="translate(-232.208 -287.681)" style="fill:#eebc31"/>
        <path data-name="Path 4782" d="M205.819 294.7h.03c0 .139-.208.377.03.394.039-.025.017-.11.07-.121.006.053-.021.074-.03.111.046.129.279.056.182-.09.113 0 .024.123.01.172a.232.232 0 0 1-.212-.041c-.112-.009-.211-.031-.222-.141.102-.043.123-.162.142-.284z" transform="translate(-193.659 -277.478)" style="fill:#eebc31"/>
    </g>
</svg>
