<svg style="width:auto; height:24px" viewBox="0 0 10 18" xmlns="http://www.w3.org/2000/svg"><path d="m28.4034653 13.0037452-2.3437214-.0037452c-2.6330906 0-4.3347095 1.7387098-4.3347095 4.4298242v2.0424457h-2.356507c-.2036301 0-.3685274.1644143-.3685274.367217v2.9592709c0 .2028027.1650853.3670298.3685274.3670298h2.356507v7.4671826c0 .2028027.1648973.3670298.3685274.3670298h3.0745715c.2036301 0 .3685273-.1644143.3685273-.3670298v-7.4671826h2.7553063c.2036302 0 .3685274-.1642271.3685274-.3670298l.0011282-2.9592709c0-.0973753-.038921-.1906307-.1079259-.2595425-.0690049-.0689117-.163017-.1076745-.2607896-.1076745h-2.7562464v-1.7314066c0-.8321838.1991176-1.2546425 1.2875896-1.2546425l1.578839-.0005618c.2034422 0 .3683394-.1644144.3683394-.3670297v-2.7478544c0-.2024281-.1647092-.3666552-.3679633-.3670297z" fill="currentColor" fill-rule="evenodd" transform="translate(-19 -13)"/></svg>