<svg height="18" viewBox="0 0 18 18" width="18" xmlns="http://www.w3.org/2000/svg"><circle cx="9" cy="9" fill="#334c8c" r="9"/><path d="m61.361 41.71-.152 1.274a.241.241 0 0 1 -.241.214h-1.324v3.782a.171.171 0 0 1 -.169.172h-1.35a.171.171 0 0 1 -.169-.173l.007-3.78h-1a.241.241 0 0 1 -.241-.241v-1.274a.241.241 0 0 1 .241-.241h1v-1.236a1.988 1.988 0 0 1 2.09-2.207h1.02a.241.241 0 0 1 .241.241v1.073a.241.241 0 0 1 -.241.241h-.625c-.677.011-.8.335-.8.819v1.066h1.482a.241.241 0 0 1 .235.271z" fill="#fff" transform="translate(-50.014 -33.518)"/></svg>