<svg height="32.549" viewBox="0 0 34.026 32.549" width="34.026" xmlns="http://www.w3.org/2000/svg"><g fill="#00b1ff"><path d="m112.178 23.6.433-1.651a6.109 6.109 0 0 0 -5.173-7.975l-1.438-2.864h-6.9l-1.434 2.868a6.109 6.109 0 0 0 -5.173 7.975l.433 1.651a10.927 10.927 0 0 0 1.23 12.154l-.053 7.9h16.897l-.053-7.944c.055-.048.088-.08.1-.09l.047-.046.041-.052a10.929 10.929 0 0 0 1.043-11.926zm-8.629 18.061v-1.547h-1.994v1.551h-5.444l.031-4.629a15.336 15.336 0 0 0 6.41 1.239 14.893 14.893 0 0 0 6.41-1.315l.031 4.706h-5.444zm6.07-7.436a7.011 7.011 0 0 1 -1.575.96 13.042 13.042 0 0 1 -5.492 1.092 13.787 13.787 0 0 1 -5.3-.934 6.447 6.447 0 0 1 -1.585-.9 8.932 8.932 0 0 1 2.861-13.643l-.9-1.779a10.951 10.951 0 0 0 -3.2 2.451l-.013-.051-.019-.063a4.113 4.113 0 0 1 3.9-5.414h.616l1.418-2.836h4.44l1.418 2.836h.616a4.113 4.113 0 0 1 3.9 5.414l-.01.031-.022.083a10.952 10.952 0 0 0 -3.2-2.451l-.9 1.779a8.932 8.932 0 0 1 3.043 13.433z" transform="translate(-85.539 -11.11)"/><path d="m1.41 221.051-1.41 1.41 2.12 2.12-2.12 2.119 1.41 1.41 3.53-3.53z" transform="translate(0 -207.099)"/><path d="m442.6 222.461-1.41-1.41-3.53 3.53 3.53 3.53 1.41-1.41-2.12-2.12z" transform="translate(-408.575 -207.099)"/><path d="m241 293.843v1.994h1.994v-1.994z" transform="translate(-224.981 -275.053)"/></g></svg>