<svg xmlns="http://www.w3.org/2000/svg" width="111.127" height="128.002" viewBox="0 0 111.127 128.002">
    <g data-name="doctor (4)">
        <path data-name="Path 2667" d="M403.25 497H407v3.75h-3.75z" transform="translate(-310.873 -372.748)" style="fill:#acc4cc"/>
        <path data-name="Path 2668" d="M131.04 92.62c-.723-.365-21.1-10.911-21.1-10.911v-5.518a31.625 31.625 0 0 0 11.25-24.167V31.875a31.875 31.875 0 0 0-63.751 0V37.5h3.75v-5.625a28.125 28.125 0 1 1 56.251 0v20.15a27.924 27.924 0 0 1-10.55 21.823l-.7.563v7.73c-4.99 5.575-9.63 7.659-16.876 7.659s-11.885-2.088-16.875-7.663v-7.726l-.7-.563a27.923 27.923 0 0 1-10.55-21.823V41.25h-3.75v10.775a31.626 31.626 0 0 0 11.25 24.167v5.517S48.31 92.255 47.587 92.62c-6.8 3.43-13.837 6.977-13.837 15.558V128h88.626v-3.75H92.169l16.816-38.814s19.631 10.159 20.367 10.53c6.318 3.186 11.775 5.937 11.775 12.209v16.075h-7.5V128h11.25v-19.822c0-8.581-7.034-12.128-13.837-15.558zm-28.1-2.655-13.626 31.446-13.625-31.446c3.9 2.52 8.169 3.59 13.624 3.59s9.725-1.071 13.625-3.59zM57.506 105.5a5.625 5.625 0 1 1-5.625 5.625 5.632 5.632 0 0 1 5.625-5.625zM37.5 108.178c0-6.272 5.457-9.024 11.775-12.209.736-.371 6.356-3.272 6.356-3.272v9.247a9.375 9.375 0 1 0 3.75 0v-11.19l10.26-5.315 16.816 38.813H37.5z" transform="translate(-33.75)" style="fill:#acc4cc"/>
        <path data-name="Path 2669" d="M167.178 82.223c-3.887 4.166-8.426 10.529-8.429 14.756-.014 3.151-.014 6.375 0 9.583a24.374 24.374 0 0 0 48.748 0c.014-3.209.014-6.434 0-9.578 0-4.226-4.541-10.593-8.429-14.76-2.67-2.862-9.569-9.517-15.945-9.517s-13.275 6.655-15.945 9.516zm36.569 24.322a20.624 20.624 0 0 1-41.248 0c-.014-3.145-.014-6.306 0-9.4.371-.734 2.858-2.913 7.557-5.2 4.746-2.313 9.631-3.694 13.067-3.694s8.32 1.381 13.067 3.694c4.7 2.29 7.187 4.468 7.557 5.2.013 3.092.013 6.253 0 9.4zm-7.421-21.764A45.291 45.291 0 0 1 200.54 90c-.708-.4-1.389-.763-1.995-1.071-2.623-1.331-9.377-4.427-15.422-4.427s-12.8 3.1-15.422 4.427c-.606.308-1.287.669-2 1.071a45.271 45.271 0 0 1 4.215-5.218c4.792-5.136 9.85-8.326 13.2-8.326s8.418 3.19 13.21 8.326z" transform="translate(-127.491 -54.529)" style="fill:#acc4cc"/>
        <path data-name="Path 2670" d="M307.072 52.5h3.75v3.75h-3.75z" transform="translate(-238.74 -39.375)" style="fill:#acc4cc"/>
        <path data-name="Path 2671" d="M277.073 37.5h3.75v3.75h-3.75z" transform="translate(-216.241 -28.125)" style="fill:#acc4cc"/>
        <path data-name="Path 2672" d="M323.5 452h20.625v3.75H323.5z" transform="translate(-251.06 -338.998)" style="fill:#acc4cc"/>
    </g>
</svg>
