<svg xmlns="http://www.w3.org/2000/svg" width="28.51" height="38.877" viewBox="0 0 28.51 38.877">
    <path d="M16.9 280.6a9.066 9.066 0 0 0-9.074 9.069v10.16a.648.648 0 1 0 1.3 0v-10.16a7.775 7.775 0 0 1 15.549 0v10.16a.649.649 0 0 0 1.3 0v-10.16A9.061 9.061 0 0 0 16.9 280.6zm-.65 35.7v1.882H8.479v-3.251a.648.648 0 1 0-1.3 0v3.251H3.942v-8.423a7.09 7.09 0 0 1 5.833-7.006v5.184a1.948 1.948 0 1 0 1.3 0v-5.308a.648.648 0 1 0 0-1.3 8.419 8.419 0 0 0-8.423 8.423v9.071a.648.648 0 0 0 .648.648h27.208a.648.648 0 0 0 .648-.648v-9.071a8.419 8.419 0 0 0-8.423-8.423.648.648 0 1 0 0 1.3v4.6a3.247 3.247 0 0 0-2.593 3.173v.652a.649.649 0 1 0 1.3 0v-.654a1.945 1.945 0 0 1 3.889 0v.652a.648.648 0 1 0 1.3 0v-.652a3.251 3.251 0 0 0-2.593-3.171v-4.48a7.09 7.09 0 0 1 5.832 7.006v8.423h-3.247v-3.251a.648.648 0 1 0-1.3 0v3.251h-7.773v-1.859l3.209-14.136a.656.656 0 0 0 .034-.205v-3.438a5.81 5.81 0 0 0 1.941-4.334v-3.889a.648.648 0 0 0-.645-.65h-1.3a2.279 2.279 0 0 1-1.981-1.5.648.648 0 0 0-1.23 0 2.254 2.254 0 0 1-1.974 1.5h-3.885a.648.648 0 0 0-.645.65v3.883a5.809 5.809 0 0 0 1.941 4.336v3.437a.714.714 0 0 0 .015.143zm1.95-26.632a3.145 3.145 0 0 0 2.593 1.292h.645v3.24a4.534 4.534 0 0 1-9.069 0v-3.244H15.6a3.139 3.139 0 0 0 2.6-1.288zm-3.889 9.752a5.782 5.782 0 0 0 5.185 0v2.4a2.637 2.637 0 0 1-2.592 1.454 2.639 2.639 0 0 1-2.593-1.454zM19 304.089l-2.1 9.223-2.094-9.222a4.819 4.819 0 0 0 4.189 0zm-8.58 5.011a.648.648 0 1 1 0 1.3.648.648 0 0 1 0-1.3z" transform="translate(-2.646 -280.596)" style="fill:#acc4cc"/>
</svg>
