<svg height="18" viewBox="0 0 18 18" width="18" xmlns="http://www.w3.org/2000/svg"><g fill="none" fill-rule="evenodd" transform="translate(0 -.000002)"><path d="m0 .00000217h18v18.00000003h-18z"/><path d="m4.507593 5.95935248c.01580604.98313573.00295046 1.9667632.00498769 2.95017992.00091323.42163491.20723475.71183382.57049269.80217412.07804672.01931849.1620646.02009123.24334278.02030198.60884868.00161573 1.21762711-.00119423 1.82640555.00147523.93606885.0041447 1.67284109.61762977 1.83736441 1.53747117.06708786.3752002-.02486817.7456938-.06996807 1.1158362-.10720008.8814853-.22002009 1.7622681-.33677404 2.642489-.09139404.6890028-.14478333 1.3836959-.27924005 2.0658846-.11317125.5743564-.64313023.9423913-1.24790447.8992583-.54077734-.0384964-.99753679-.4988386-1.05078558-1.0518393-.03828574-.397399-.01615729-.7953599-.01798376-1.1929697-.00442569-.9306596-.0042852-1.8614598.00140498-2.7921195.00091324-.148085-.03294682-.2017553-.19353619-.2002098-.86048085.0082191-1.72103195.0082191-2.58144255 0-.16016788-.0014753-.19430892.0514223-.19381718.1999288.00491743 1.3579848.00533893 2.7160398-.0004215 4.0740948-.00063224.1580604.05064958.2023876.20161483.1960652.25128092-.0106077.50333459-.0041447.75496675-.001967.06982758.0006322.14042789.0066034.20906123.0186862.20611077.0365295.33431532.1936767.3246912.3916386-.00948362.1939577-.16016788.3494189-.36360918.3593942-.17520118.0085704-.35110485.0032315-.52665728.0032315-.81952564.0001405-1.63905128.0013347-2.45857692-.001124-.22051183-.0007025-.36065873-.116473-.40301892-.3164018-.03315756-.1567257.05514552-.3340343.207586-.4062504.09139404-.0433436.19149897-.0495256.29125265-.0497363.28092602-.0007025.56199255-.0040042.84284833.0011942.11148527.0020372.15180824-.0321741.15145699-.1498412-.00365295-1.3931093-.00351245-2.7862889-.00014049-4.1794684.00028099-.1108531-.03856674-.1371262-.14190312-.137618-.3322781-.0016157-.66806865.0335089-.99402434-.0614679-.68373419-.1995073-1.10810882-.755318-1.112956-1.4643418-.00456619-.6555644-.00119424-1.31119892-.00119424-1.96683348l.0001405-4.23215518c0-.0644184-.00288021-.12925829.0038637-.19304445.02030198-.19177996.17372595-.3357203.36108022-.34372869.1922717-.00821914.35124534.11513822.38622938.30986864.01636803.09139404.02163671.18587904.02170696.27895906.00119424 1.99022638.00077274 3.98045276.00126449 5.9707494 0 .0935015.00119423.1874948.00941337.2805748.02880212.3243399.30073627.6132744.62535722.6354028.26694646.0181945.53614089.0037232.84945174.0037232-.3506131-.3812417-.57899283-.7825044-.69096984-1.2475532-.05662075-.2349831-.07593925-.4740407-.07657149-.7131686-.0038637-1.29363657-.00217772-2.58734344-.00168598-3.88098005.00021075-.63189038.2302062-1.14189862.80147164-1.45563096.98039601-.53845912 2.19781238.15988688 2.21572589 1.27986779zm6.6456106-5.95934968c2.7198247.00276966 4.9198253 2.20403841 4.9217866 4.92455481.0020737 2.72651126-2.2219064 4.95498748-4.9390795 4.94900468-2.69976495-.00612222-4.93066217-2.23828759-4.93435648-4.93736081-.00391456-2.7179801 2.22433109-4.93907803 4.95164938-4.93619868zm.0093381 2.50055372c-.3554264-.01129802-.6050203.25824039-.6187393.68260774-.008877.26850084-.0017293.53746281-.0019599.80619422 0 .26873141-.0006917.53746281.0003459.80619422.0005764.17558041.0257087.34954681.1394959.48777459.2197349.26677155.4589531.51763364.733103.72826096.2230781.17143011.5423048.14549079.7396742-.0351622.210512-.19252743.2524761-.50841077.0843893-.75639071-.0800084-.11782218-.1789237-.2271132-.2862549-.32084063-.1634754-.1429545-.2336845-.30412417-.2236546-.52674122.0175235-.39277902.007263-.78682619.0039197-1.18041221-.0035738-.42102407-.220196-.68030203-.5703193-.69148476zm-7.6607819-2.49924538c.95292863.02711614 1.79240501.93101091 1.76409463 1.89953483-.03112033 1.06476515-.89876659 1.89742736-1.94505623 1.86658802-1.01095436-.02985585-1.86307557-.92419675-1.82528157-1.91583262.04200894-1.10227814.88752674-1.88204281 2.00624317-1.85029023z" fill="#23bde3" fill-rule="nonzero" transform="translate(.000061)"/></g></svg>