<svg height="18" viewBox="0 0 18 18" width="18" xmlns="http://www.w3.org/2000/svg"><g fill="none" fill-rule="evenodd" transform=""><path d="m0 0h18v18h-18z"/><path d="m9.12963308 3.02231438 1.74537062.72775332.7278672 1.74533195c.0395271.07962101.120747.12997784.2096396.12997784s.1701124-.05035683.2096395-.12997784l.7277983-1.74533195 1.7453706-.72775332c.07941-.03969272.1295743-.12084892.1295743-.20962652 0-.08877759-.0501643-.16993379-.1295743-.20962651l-1.7453706-.72782188-.7277983-1.74526164c-.0395271-.07962101-.1207469-.12997783-.2096395-.12997783s-.1701125.05035682-.2096396.12997783l-.7278672 1.74526164-1.74537062.72782188c-.07941001.03969272-.12957424.12084892-.12957424.20962651 0 .0887776.05016423.1699338.12957424.20962652zm8.76674842 4.68525107-1.3962002-.58212032-.5821565-1.39611369c-.0316365-.0636829-.0966103-.1039548-.1677185-.1039548s-.1360821.0402719-.1677185.1039548l-.5822248 1.39611369-1.3961319.58212032c-.0635069.03177473-.1036182.09669558-.1036182.16770796 0 .07101239.0401113.13593323.1036182.16770796l1.3961319.58218923.5822251 1.3960448c.0316072.0637188.0965912.1040237.1677185.1040237.0711274 0 .1361114-.0403049.1677185-.1040237l.5821566-1.3960448 1.3962002-.58218923c.0635068-.03177473.1036181-.09669557.1036181-.16770796 0-.07101238-.0401113-.13593323-.1036181-.16770796zm-5.0886845 1.68985152-3.68493134-.53776439-1.64909981-3.34688258c-.13528774-.27776902-.41836912-.45286653-.72731809-.44993032-.30746426-.00353919-.58890401.17213514-.72072594.44993032l-1.64909981 3.34688258-3.68492994.53776439c-.66029939.0950291-.92727559.91073883-.44606037 1.37819283l2.66866475 2.6014825-.63283251 3.6770121c-.09118933.524032.32630413.9459271.79433645.9459271.13123711.000317.26045246-.0323621.37574436-.0950605l3.29819961-1.7363361 3.29819994 1.7363361c.2716858.1453713.6025709.1225988.8517796-.058622s.372857-.4889783.3183012-.7922432l-.6295362-3.6770135 2.6686633-2.6014829c.4779204-.4674536.2109442-1.28316333-.4493552-1.37819243zm-4.03650437 3.39247463.48121662 2.7915404-2.50276489-1.3183189-2.50715906 1.3183189.4823149-2.7915404-2.03253424-1.9791266 2.80599596-.4075805 1.25138209-2.53831347 1.25138244 2.53831347 2.80599595.4075805z" fill="#23bde3" fill-rule="nonzero"/></g></svg>