<svg height="18" viewBox="0 0 18 18" width="18" xmlns="http://www.w3.org/2000/svg"><g fill="none" fill-rule="evenodd" transform=""><path d="m0 0h18v18h-18z"/><path d="m10.75 3.9375c0-.415625-.334375-.75-.75-.75s-.75.334375-.75.75c0 .4125.334375.75.75.75s.75-.3375.75-.75zm-.75 7.0625c.15625 0 .3125-.0625.421875-.190625 1.103125-1.25 3.978125-4.690625 3.978125-6.58125 0-2.334375-1.96875-4.228125-4.4-4.228125s-4.4 1.89375-4.4 4.228125c0 1.8875 2.875 5.33125 3.978125 6.58125.109375.128125.265625.190625.421875.190625zm0-9.5c1.6 0 2.9 1.225 2.9 2.728125 0 .66875-.99375 2.471875-2.9 4.76875-1.90625-2.296875-2.9-4.1-2.9-4.76875 0-1.503125 1.3-2.728125 2.9-2.728125zm7.5 3.5c-.0625 0-.125.0125-.1875.0375l-2.296875.85c-.25625.6375-.63125 1.3125-1.06875 1.99375l2.553125-.94375v6.03125l-4 1.390625v-4.475c-.428125.540625-.871875 1.071875-1.328125 1.5875-.053125.059375-.1125.109375-.171875.159375v2.54375l-4-1.4125v-3.53125c-.565625-.753125-1.0875-1.525-1.5-2.275v5.63125l-.01875.00625-3.98125 1.46875v-6.03125l3.8625-1.34375c-.25-.48125-.440625-.946875-.571875-1.390625l-4.1625 1.453125c-.378125.15-.628125.51875-.628125.928125v7.821875c0 .2875.234375.5.5.5.0625 0 .125-.0125.1875-.0375l5.3125-1.9625 5.375 1.896875c.40625.134375.84375.1375 1.25.00625l4.746875-1.653125c.38125-.153125.628125-.51875.628125-.928125v-7.821875c0-.2875-.234375-.5-.5-.5z" fill="#23bde3" fill-rule="nonzero" transform="translate(0 1)"/></g></svg>