<svg height="18" viewBox="0 0 18 18" width="18" xmlns="http://www.w3.org/2000/svg"><g fill="none" fill-rule="evenodd" transform=""><path d="m0 0h18v18h-18z"/><path d="m16.3125 2.25h-3.9375v-.5625c0-.93199219-.7555078-1.6875-1.6875-1.6875h-3.375c-.93199219 0-1.6875.75550781-1.6875 1.6875v.5625h-3.9375c-.93199219 0-1.6875.75550781-1.6875 1.6875v10.125c0 .9319922.75550781 1.6875 1.6875 1.6875h14.625c.9319922 0 1.6875-.7555078 1.6875-1.6875v-10.125c0-.93199219-.7555078-1.6875-1.6875-1.6875zm-9-.5625h3.375v.5625h-3.375zm-5.4140625 12.375c-.11649756 0-.2109375-.0944399-.2109375-.2109375v-9.703125c0-.11649756.09443994-.2109375.2109375-.2109375h14.203125c.1164976 0 .2109375.09443994.2109375.2109375v9.703125c0 .1164976-.0944399.2109375-.2109375.2109375zm10.4765625-5.625v1.125c0 .23298047-.1888945.421875-.421875.421875h-1.96875v1.96875c0 .2329805-.18889453.421875-.421875.421875h-1.125c-.23298047 0-.421875-.1888945-.421875-.421875v-1.96875h-1.96875c-.23298047 0-.421875-.18889453-.421875-.421875v-1.125c0-.23298047.18889453-.421875.421875-.421875h1.96875v-1.96875c0-.23298047.18889453-.421875.421875-.421875h1.125c.23298047 0 .421875.18889453.421875.421875v1.96875h1.96875c.2329805 0 .421875.18889453.421875.421875z" fill="#23bde3" fill-rule="nonzero" transform="translate(0 1)"/></g></svg>