<svg height="18" viewBox="0 0 18 18" width="18" xmlns="http://www.w3.org/2000/svg"><g fill="none" fill-rule="evenodd" transform=""><path d="m0 0h18v18h-18z"/><path d="m8.20728649.43879222c1.66189324.65139534 2.81387061 1.83776015 3.42498361 3.5080046.6376404 1.74196671.4691422 3.43873858-.4367198 5.06034944-.0471598.08400347-.0913722.09382844-.1807794.07466976-.811051-.17783191-1.40693531-.6327279-1.79747776-1.36468797-.05452857-.10267091-.05305482-.18618313-.00835122-.29327528.56051439-1.34651178.38955995-2.60558135-.55412816-3.70794268-.86803587-1.01442789-2.01264457-1.40349659-3.32083897-1.13674873-1.3121244.26822161-2.22093388 1.06600896-2.62867002 2.34964095-.57574309 1.81319773.30752147 3.62492171 2.06717313 4.3347756.00540373.00245624.01031622.00638623.0162112.00638623.38562997.03684363.55265441.3016265.71525762.6184817.37285751.72655636.89603703 1.34159926 1.51255373 1.87706006.03389614.0294749.08056473.049616.09677593.1139696-.52170577.1007059-1.04341154.1257596-1.57002979.0894072-.16063822-.0112987-.35320758-.1188821-.47159843-.01965-.1056184.086951-.12477709.2809941-.17783191.4298424-.1960081.5497069-.39054246 1.1003963-.60128801 1.6948068.1960081-.0918634.35369883-.1704631.51531954-.2397292.6327279-.2701866 1.27921076.0108075 1.4909388.6450091.14835701.4450711-.03193114.9657943-.43082482 1.214366-.14344452.0894072-.29917025.160147-.4519485.2328517-.7972961.3802263-1.59508345.7599613-2.3938533 1.1367488-.65729031.3099777-1.24580586.0982496-1.55971357-.5595319-.43868479-.9186345-.87589584-1.8377602-1.31065064-2.7583596-.05944106-.1252684-.10168842-.2588879-.15179575-.3880862v-.3517339c.10021467-.3129252.24808043-.5870418.55068942-.7575049.48633589-.2736254 1.12888875-.1237946 1.42118153.3517338.11839086.1925693.2112368.4013499.31980269.6101305.05501982-.0501074.06140605-.1139697.08154723-.169972.20141183-.5610056.39791118-1.1244675.60423549-1.6839994.0456861-.1237946.03438739-.1896219-.08695096-.2638004-.98495298-.6017792-1.73214175-1.42560273-2.23665382-2.46164553-.52072327-1.06895645-.72852133-2.19784521-.56149689-3.37929753.29032779-2.05636567 1.35535425-3.59544681 3.19065816-4.55878486 1.58869722-.83413973 3.25157295-.90930073 4.92427364-.25348416zm3.98004521.16795782c1.5292561.18176189 2.8119056.84642094 3.833211 1.99888961.7688037.86705337 1.2610345 1.87902501 1.412339 3.02707245.3158727 2.39630954-.506477 4.33133686-2.4375744 5.7888708-.1085659.0820384-.1341108.1434445-.073196.2682216.1218296.2525016.231378.5118808.3350314.7727337.0417561.1046359.0854772.1095483.1802882.0668097.3419088-.1532694.6843089-.3040827 1.0311303-.4455622.6965902-.2834503 1.4025141.0992321 1.5184487.8179285.0687748.4254211-.1395145.8812996-.5305482 1.0792727-.3753138.1896218-.7658563.3502601-1.1539425.5133545-.1139696.0481424-.1291983.0933372-.0776172.2033768.1316546.2809941.2554491.5654269.36991.8537897.2913103.7344163-.140497 1.4383752-.9245294 1.51501-.3939812.0383173-.8164548-.1960081-1.0050942-.5791819-.1439357-.2942577-.2716603-.5963755-.3949637-.8994757-.053546-.1326371-.1002146-.1797969-.2500454-.1066009-.3207852.1571995-.6504128.2952403-.9805317.4293511-.7221351.2942577-1.4295328-.1075834-1.5302387-.8636147-.0530548-.3979111.1591645-.8400347.532022-1.0291653.3694188-.1881481.7540662-.3478038 1.1362575-.5099158.1178996-.0505986.1626032-.0894072.0953021-.223518-.122812-.2456242-.2299042-.5000909-.3286451-.7565225-.0447036-.1164259-.0977584-.1468833-.2190968-.1198646-.8007348.1788144-1.6029434.1689894-2.4056432.0054037-1.06404401-.2171318-1.99495967-.6995376-2.80011575-1.4197078-.94074062-.8405259-1.5508711-1.88639369-1.82400519-3.11647961-.33699638-1.5204137-.12232084-2.9656664.6612203-4.31905566.20534182-.35468132.21074555-.35566381.5890068-.18569188.61356921.27608158 1.10383508.69757268 1.48013133 1.25612208.07172227.10610965.07761725.18274439.0152287.29769651-.95400433 1.7630904-.17439317 4.01546417 1.66434951 4.82160274 2.0303295.89063332 4.3278981-.25987039 4.8314277-2.4243107.4185436-1.80337276-.7083802-3.73840009-2.5372979-4.14613623-.1513045-.03389614-.2220442-.10512715-.2795203-.2426767-.3708925-.88522956-.9328806-1.61964587-1.7375455-2.15608908-.0230886-.0162112-.0451948-.03438739-.0943196-.07172227.6489391-.15670823 1.2728245-.17439317 1.8991662-.10021466z" fill="#23bde3"/></g></svg>