<svg height="18" viewBox="0 0 18 18" width="18" xmlns="http://www.w3.org/2000/svg"><g fill="none" fill-rule="evenodd" transform=""><path d="m0 0h18v18h-18z"/><path d="m9 0c-4.97177419 0-9 4.02822581-9 9 0 4.9717742 4.02822581 9 9 9 4.9717742 0 9-4.0282258 9-9 0-4.97177419-4.0282258-9-9-9zm0 16.2580645c-4.01008065 0-7.25806452-3.2479839-7.25806452-7.2580645 0-4.01008065 3.24798387-7.25806452 7.25806452-7.25806452 4.0100806 0 7.2580645 3.24798387 7.2580645 7.25806452 0 4.0100806-3.2479839 7.2580645-7.2580645 7.2580645zm2.2427419-3.7887097-3.08104835-2.2391129c-.1125-.0834677-.17782258-.2141129-.17782258-.35201609v-5.95887097c0-.23951613.19596774-.43548387.43548387-.43548387h1.16129032c.23951613 0 .43548384.19596774.43548384.43548387v5.14233871l2.4241936 1.76370965c.1959677.1415323.2358871.4137097.0943548.6096774l-.682258.9399194c-.1415323.1923387-.4137097.2358871-.6096775.0943548z" fill="#23bde3" fill-rule="nonzero"/></g></svg>