<svg height="18" viewBox="0 0 18 18" width="18" xmlns="http://www.w3.org/2000/svg"><g fill="none" fill-rule="evenodd" transform=""><path d="m0 0h18v18h-18z"/><path d="m8.22450254.03747895c.12617591-.05853522.237693-.04392643.35731497.01220734 1.79563029.84265696 3.66865719 1.4598783 5.59576649 1.91680319.7524527.17840734 1.5139108.31058686 2.278821.42325464.2439968.03592161.320793.12877748.3209932.37492557l.0004502 3.56434438c0 .88173047.0030018 1.76346094-.0005503 2.64519141-.0129078 3.26056162-1.432762 5.73264892-4.1861685 7.44117682-1.2574565.7802694-2.62597985 1.2892756-4.07790336 1.5732965-.18020841.0352212-.34710883-.0195618-.51571026-.0575847-1.86447171-.4204029-3.57795258-1.167002-5.04758674-2.4106002-1.65999869-1.4046451-2.62287798-3.1942217-2.87963245-5.3607752-.05013016-.42295445-.07054244-.84680945-.07029456-1.27246553l.0005526-6.04063418c0-.35381286.044877-.41575013.38843369-.46633056 2.72503944-.4015916 5.33651056-1.18366211 7.83551402-2.34280948zm.18796308 3.55769397c-2.97534003-.01221093-5.40520189 2.40359247-5.41503754 5.38373539-.00977615 2.97944249 2.40567704 5.41510789 5.37766506 5.42262979 2.97293856.0074871 5.40049906-2.4150704 5.40581096-5.39471299.0052945-2.97363901-2.4010532-5.39934837-5.36843848-5.41165219zm-.0251051 2.40062569.83277602.00137582c.25790516.00080048.36556993.10731457.36682068.36296837.0021513.43125946.00470283.86261897-.00205123 1.29377837-.00180108.11626995.0319192.14818915.14678831.14638807.4241052-.00660397.8483604-.00370223 1.2725656-.00220133.2785176.00100061.3801787.10466297.380679.38713291.0010507.54377715.0012008 1.0875543-.0001 1.63133145-.0006004.27916793-.1039125.38117933-.3862824.38217993-.405494.0014008-.811138.0073544-1.21638183-.003252-.15034045-.0039523-.20382262.0278168-.19876958.1907648.01270764.4120979.00530319.8248963.00375225 1.2373945-.00105063.2692119-.1057136.3752257-.37342466.3760762-.54893025.001601-1.09791052.0015009-1.64684077 0-.27006248-.0007504-.37477548-.1050632-.37577608-.3728243-.00155093-.4250057-.00500301-.8501114.00240145-1.2750171.00220132-.1241246-.03567146-.1574447-.1568944-.1554435-.41780135.0070042-.83585286.0036522-1.25380431.0023514-.29032467-.0009505-.38868384-.1021614-.38953435-.39758917-.00075046-.26871167-.00015009-.53752339-.00015009-.80628508 0-.27501546-.00125076-.55003091.00040024-.82504637.00160096-.26736085.10581366-.37072303.37692676-.37177367.41169769-.00160096.82349544-.00580349 1.23504303.00255154.13958398.00285172.19366652-.02541529.18926387-.18085881-.01190717-.41845175-.00525316-.83745383-.00360217-1.25620576.0010006-.2563042.10811505-.36541985.36341864-.36632039.55518401-.00205123 1.11036802-.00185111 1.66555204-.00010006z" fill="#23bde3" fill-rule="nonzero" transform="translate(.999998)"/></g></svg>