<svg height="18" viewBox="0 0 18 18" width="18" xmlns="http://www.w3.org/2000/svg"><g fill="none" fill-rule="evenodd" transform=""><path d="m0 0h18v18h-18z"/><path d="m4.5084375 3.031875h-.0140625s-.1209375.5878125-.219375.928125l-.309375 1.0490625h1.0659375l-.3009375-1.0490625c-.10125-.3403125-.2221875-.928125-.2221875-.928125zm12.8165625-3.031875h-16.65c-.3740625 0-.675.3009375-.675.675v7.65c0 .3740625.3009375.675.675.675h16.65c.3740625 0 .675-.3009375.675-.675v-7.65c0-.3740625-.3009375-.675-.675-.675zm-10.76625 7.2h-.635625c-.1494799-.00010288-.28108489-.09852052-.3234375-.241875l-.2615625-.8915625h-1.6846875l-.2559375.88875c-.0421875.1434375-.174375.2446875-.3234375.2446875h-.6328125c-.230625 0-.39375-.2278125-.320625-.4471875l1.6059375-4.725c.0478125-.1378125.174375-.2278125.320625-.2278125h.905625c.1434375 0 .2728125.0928125.320625.2278125l1.6059375 4.725c.073125.219375-.09.4471875-.320625.4471875zm10.31625.675h-7.875v-6.75h7.875zm-6.4125-4.1625h3.11625c-.1771875.36-.4246875.7284375-.7284375 1.0828125-.185625-.219375-.36-.444375-.5146875-.675-.0984375-.1490625-.298125-.1940625-.4528125-.10125l-.3853125.230625c-.1659375.0984375-.21375.3178125-.106875.478125.1828125.2728125.405.5653125.6609375.860625-.253125.2165625-.523125.41625-.8071875.59625-.151875.095625-.1996875.2953125-.1096875.45l.2221875.3909375c.095625.1659375.309375.2221875.4725.118125.3515625-.2221875.691875-.478125 1.0125-.75375.3009375.27.6271875.523125.973125.748125.163125.1040625.3825.0534375.478125-.1153125l.225-.3909375c.0871875-.1546875.0421875-.3515625-.106875-.45-.25875-.16875-.5175-.3684375-.765-.5878125.0421875-.0478125.0815625-.0928125.1209375-.140625.4809375-.579375.8325-1.1728125 1.035-1.74375h.3853125c.185625 0 .3375-.151875.3375-.3375v-.45c0-.185625-.151875-.3375-.3375-.3375h-1.8v-.45c0-.185625-.151875-.3375-.3375-.3375h-.45c-.185625 0-.3375.151875-.3375.3375v.45h-1.8c-.185625 0-.3375.151875-.3375.3375v.45c0 .1884375.151875.3403125.3375.3403125z" fill="#23bde3" transform="translate(0 4)"/></g></svg>