<svg height="18" viewBox="0 0 18 18" width="18" xmlns="http://www.w3.org/2000/svg"><path d="m10.385696 1.01636631c1.102489-.02684107 2.0435669.63981087 2.3523987 1.68811637.1799126.6109647.1088681 1.20543284-.2029258 1.761485-.3396831.6056785-.6909866 1.20479485-1.0406496 1.80477704-.0457529.07847253-.0583759.12518237.0342235.18009491.096883.05755563.069085.1480588.0216916.23022254-.1744442.30240634-.3490251.60472153-.5236971.90703672-.5922807 1.02511008-1.18150828 2.05199741-1.77825495 3.07455551-.31840161.5456621-.78176321.923351-1.38274795 1.1225856-.11798222.0391451-.15366398.0971109-.15311713.2188299.00464819.9949423.0102078 1.9899758.00009114 2.9847815-.01011667.9967651-.41327954 1.811567-1.20652654 2.4151493-.68538144.5215552-1.46705351.7038375-2.31225096.534953-1.08713163-.2172805-1.82150144-.8689398-2.23373286-1.8908143-.02825376-.0701331-.06279625-.1069997-.13789656-.1299673-.96235939-.2944771-1.57077214-.9321461-1.77410804-1.9172908-.25797503-1.2501831.54602662-2.5041486 1.78281202-2.8263782 1.3518511-.3522605 2.71213275.4691035 3.03003308 1.829613.26152953 1.1195779-.32701444 2.3056433-1.38411506 2.7778455-.10071097.0450238-.10508575.0820727-.04497816.1627781.36716212.4930281.85608882.7356914 1.46869405.6749002.63835261-.063343 1.07405288-.4213911 1.32788098-1.0039653.09063987-.2079385.12276713-.4292748.12240256-.6558061l-.00009114-1.4354276c.00013671-.5202336-.00173168-1.0404673.00191397-1.560701.00068355-.0909589-.03062343-.1354813-.11688853-.1635528-.66355314-.2161868-1.14441384-.647011-1.48883624-1.249454-.73450653-1.28481679-1.47794488-2.56452967-2.21714518-3.84665779-.08713093-.15115759-.08485241-.17640369.0500365-.28312998.06799129-.05381885.02123588-.09455894-.00223296-.13557246-.21504754-.37536482-.43433315-.74831441-.64805915-1.12440836-.16856555-.29675558-.35841257-.58193624-.49840537-.8943681-.54794059-1.22293194.09856915-2.68943861 1.37099074-3.11538677.26877525-.09000188.54256326-.14099536.82696922-.13425091.16697058.00396464.33421459.00337222.50123075-.00018228.08015864-.00173168.11916705.02301314.11789108.10950609-.00323551.2126323-.00255196.42535574-.00022786.63798804.00091142.08179919-.0323551.11725309-.11502013.11620497-.18606465-.00227853-.37222045.00255195-.55823954-.00068356-1.09091398-.01891179-1.8463374 1.15416595-1.27634065 2.19194464.33056895.60189616.68401432 1.19121483 1.02652276 1.78654882.03326652.05782905.06001645.0967919.14040294.05286186.10358192-.05659865.16446421-.02816261.23095168.08667523l.89414024 1.54762229 1.37190215 2.37591306c.24033921.41523911.59897964.64031211 1.08179988.63516271.48199996-.0051495.83211869-.2380607 1.07140978-.65412007.74913468-1.30268045 1.50173272-2.60335579 2.25332824-3.90462356.0661229-.11438214.1270963-.14350174.2309516-.08676637.0805232.04406675.1069542.00524062.1401751-.05263401.2134982-.37185589.429366-.74239024.6418616-1.11483854.1578564-.27670453.3368577-.54233541.4661869-.83416937.3562252-.80386494-.1222658-1.76772817-.9739343-1.97935792-.1570817-.03900841-.3143458-.05199602-.4737972-.04894279-.0947413.00182282-.139446-.02939302-.1370763-.13106098.0047393-.20493087.0039646-.41013517.000319-.61515718-.0015494-.08954618.0350893-.11634168.1220835-.1184835zm-7.91665691 11.44176229c-.60504052-.0020442-1.10180536.4864268-1.10335815 1.0849051-.00150044.5973847.49654037 1.098023 1.09424403 1.0999423.59957205.0018631 1.08863546-.4901624 1.09023418-1.0968435.00154565-.6035822-.47781122-1.0859923-1.08112006-1.0880039zm4.09398752-11.78406566c.00341779.25788388.00059241.51585891.00068355.77383393.00009115.25414709.0026431.50833976-.00041013.76248686-.00647102.54333796-.52911994.84920765-1.0035552.58535403-.29151496-.16214011-.57774374-.33362218-.86743589-.4989978-.06625961-.03782357-.09487793-.08708536-.09442223-.16533004.0026431-.4590324.00250638-.91801923-.00009598-1.37705163-.00045086-.0789738.03126626-.12527351.09770815-.1629148.29023899-.16441863.57619435-.33635641.86811945-.49758511.46937692-.25915986.99234484.04561615.99940828.58020456zm2.41528147-.56639667c.27688681.1578109.55035583.32163711.82829076.47739734.07696871.04306419.10554146.09688304.1040832.18251015-.00382793.22771616-.00132155.45556903-.00118484.68333077.00009114.2278073-.00173168.4556146.00104813.68333077.00100255.07687755-.02579295.12705076-.09396653.16564903-.28395025.16072742-.56379915.32865499-.8485241.48787858-.49156979.27501842-1.01790993-.03117028-1.02283155-.59615426-.00437477-.49726611-.00391907-.99466894.00018228-1.49193505.00469377-.56903976.53859863-.87386134 1.03290265-.59200733z" fill="#23bde3" transform="translate(4.999988)"/></svg>