<svg height="14" viewBox="0 0 21 14" width="21" xmlns="http://www.w3.org/2000/svg"><g fill="none" transform=""><path d="m0 0h21v13.999699h-21z" fill="#f0f0f0"/><path d="m0 0h21v4.666553h-21z" fill="#d80027"/><path d="m0 9.333146h21v4.666553h-21z" fill="#000"/><path d="m13.125 6.19143164h-1.96875c0-.36241406-.2938359-.65625-.65625-.65625s-.65625.29383594-.65625.65625h-1.96875c0 .36241406.31569727.65625.67811133.65625h-.02186133c0 .36241406.29383594.65625.65625.65625 0 .36241406.29383594.65625.65625.65625h1.3125c.3624141 0 .65625-.29383594.65625-.65625.3624141 0 .65625-.29383594.65625-.65625h-.0218613c.362414 0 .6781113-.29379492.6781113-.65625z" fill="#ff9811"/></g></svg>