<svg
                                    xmlns="http://www.w3.org/2000/svg"
                                    width="123.8"
                                    height="36.7"
                                    viewBox="0 0 173.869 51.518"
                                >
                                    <path
                                        d="M167.433 51.519H6.443A6.459 6.459 0 0 1 0 45.079V6.441A6.459 6.459 0 0 1 6.443 0h160.99a6.459 6.459 0 0 1 6.44 6.44v38.639a6.459 6.459 0 0 1-6.44 6.44"
                                        style="fill: #100f0d"
                                        transform="translate(-.003 -.001)"
                                    />
                                    <path
                                        d="M139.591 39.412h2.4v-16.1h-2.4zm21.647-10.3-2.755 6.981h-.083l-2.859-6.981h-2.589l4.289 9.756-2.441 5.427h2.5l6.608-15.183zm-13.63 8.472c-.786 0-1.884-.394-1.884-1.367 0-1.243 1.368-1.719 2.548-1.719a4.279 4.279 0 0 1 2.2.538 2.914 2.914 0 0 1-2.859 2.548zm.291-8.824a4.512 4.512 0 0 0-4.288 2.465l2.133.89a2.277 2.277 0 0 1 2.2-1.18 2.313 2.313 0 0 1 2.527 2.071v.166a5.32 5.32 0 0 0-2.506-.621c-2.3 0-4.64 1.263-4.64 3.625a3.72 3.72 0 0 0 4 3.542 3.387 3.387 0 0 0 3.065-1.575h.084v1.244h2.321v-6.175c0-2.859-2.135-4.453-4.889-4.453zm-14.853 2.312h-3.418v-5.52h3.418a2.76 2.76 0 1 1 0 5.519zm-.062-7.76h-5.759v16.1h2.4v-6.1h3.356a5.008 5.008 0 1 0 0-10zm-31.4 14.275a3.332 3.332 0 0 1 0-6.639 3.087 3.087 0 0 1 2.926 3.341 3.061 3.061 0 0 1-2.927 3.297zm2.76-7.574h-.083a3.8 3.8 0 0 0-2.884-1.224 5.483 5.483 0 0 0 0 10.955 3.736 3.736 0 0 0 2.884-1.245h.083v.788c0 2.1-1.12 3.216-2.926 3.216a3.032 3.032 0 0 1-2.76-1.95l-2.1.871a5.219 5.219 0 0 0 4.855 3.237c2.822 0 5.209-1.66 5.209-5.707V29.12h-2.283zm3.943 9.4h2.406V23.31h-2.406zm5.953-5.313a3.005 3.005 0 0 1 2.864-3.2 2.124 2.124 0 0 1 2.034 1.162zm7.47-1.826a5.091 5.091 0 0 0-4.689-3.485 5.206 5.206 0 0 0-5.167 5.478 5.361 5.361 0 0 0 5.436 5.478 5.45 5.45 0 0 0 4.566-2.428l-1.868-1.245a3.129 3.129 0 0 1-2.7 1.515 2.785 2.785 0 0 1-2.655-1.66l7.324-3.029zm-58.354-1.8v2.324h5.561a4.849 4.849 0 0 1-1.266 2.926 5.7 5.7 0 0 1-4.295 1.7 6.184 6.184 0 0 1 0-12.367 5.926 5.926 0 0 1 4.191 1.66l1.64-1.64a8.108 8.108 0 0 0-5.831-2.344 8.508 8.508 0 1 0 0 17.014 7.778 7.778 0 0 0 5.934-2.386 7.679 7.679 0 0 0 2.01-5.44 7.584 7.584 0 0 0-.125-1.452zm14.269 7.117a3.328 3.328 0 1 1 3.091-3.32 3.169 3.169 0 0 1-3.091 3.315zm0-8.8a5.478 5.478 0 1 0 5.5 5.478 5.4 5.4 0 0 0-5.5-5.478zm11.995 8.8a3.328 3.328 0 1 1 3.092-3.32 3.169 3.169 0 0 1-3.092 3.315zm0-8.8a5.478 5.478 0 1 0 5.5 5.478 5.4 5.4 0 0 0-5.5-5.478"
                                        transform="translate(-1.865 -.774)"
                                        style="fill: #fff"
                                    />
                                    <path
                                        d="M27.139 25.9 13.428 40.452v.009a3.707 3.707 0 0 0 5.456 2.234l.044-.026 15.434-8.906L27.14 25.9"
                                        transform="translate(-.46 -.882)"
                                        style="fill: #eb3131"
                                    />
                                    <path
                                        d="m41.483 23.2-.013-.009-6.664-3.863-7.506 6.678 7.533 7.532 6.628-3.825a3.706 3.706 0 0 0 .022-6.516"
                                        transform="translate(-.932 -.658)"
                                        style="fill: #f6b60b"
                                    />
                                    <path
                                        d="M13.422 12.37a3.63 3.63 0 0 0-.126.953V39.04a3.58 3.58 0 0 0 .126.952l14.185-14.181L13.422 12.37"
                                        transform="translate(-.455 -.422)"
                                        style="fill: #5778c5"
                                    />
                                    <path
                                        d="m27.24 26.085 7.1-7.1-15.419-8.934a3.71 3.71 0 0 0-5.493 2.219L27.24 26.085"
                                        transform="translate(-.46 -.325)"
                                        style="fill: #3bad49"
                                    />
                                    <path
                                        d="M62.919 12.909h-3.757v.93h2.815a2.589 2.589 0 0 1-.888 1.787 2.887 2.887 0 0 1-1.928.65 2.923 2.923 0 0 1-2.143-.877 3.073 3.073 0 0 1-.865-2.22 3.073 3.073 0 0 1 .865-2.22 2.921 2.921 0 0 1 2.143-.875 3.069 3.069 0 0 1 1.224.237A2.365 2.365 0 0 1 61.3 11l.714-.714a3.216 3.216 0 0 0-1.244-.855 4.247 4.247 0 0 0-1.614-.3 3.993 3.993 0 0 0-4.027 4.049 3.993 3.993 0 0 0 4.027 4.049 3.717 3.717 0 0 0 2.848-1.147 3.511 3.511 0 0 0 .964-2.588 3.818 3.818 0 0 0-.054-.584zM64.374 9.3v7.752H68.9V16.1h-3.53v-2.456h3.184v-.93h-3.183v-2.457H68.9V9.3zm10.872.954V9.3H69.92v.954h2.165v6.8h1v-6.8zm4.823-.954h-1v7.752h1zm6.575.954V9.3h-5.327v.954h2.165v6.8h1v-6.8zm10.052.054a4.011 4.011 0 0 0-5.673-.012 3.909 3.909 0 0 0-1.147 2.88 3.909 3.909 0 0 0 1.147 2.88 4.025 4.025 0 0 0 5.673 0 3.909 3.909 0 0 0 1.147-2.88 3.9 3.9 0 0 0-1.143-2.865zm-4.959.648a2.854 2.854 0 0 1 2.123-.875 2.815 2.815 0 0 1 2.111.875 3.014 3.014 0 0 1 .855 2.22 3.011 3.011 0 0 1-.855 2.22 2.817 2.817 0 0 1-2.111.877 2.856 2.856 0 0 1-2.123-.877 3.07 3.07 0 0 1-.843-2.22 3.073 3.073 0 0 1 .844-2.217zm8.472 1.268-.042-1.5h.042l3.94 6.323h1.04V9.3h-1v4.536l.042 1.5h-.042L100.427 9.3h-1.213v7.752h1z"
                                        transform="translate(-1.879 -.312)"
                                        style="
                                            stroke: #fff;
                                            stroke-miterlimit: 10;
                                            stroke-width: 0.267px;
                                            fill: #fff;
                                        "
                                    />
                                </svg>