<svg
                                    xmlns="http://www.w3.org/2000/svg"
                                    width="127.1"
                                    height="36.5"
                                    viewBox="0 0 178.524 51.231"
                                >
                                    <path
                                        data-name="Path 5016"
                                        d="M178.524 46.096a5.135 5.135 0 0 1-5.141 5.135H5.148A5.142 5.142 0 0 1 0 46.096V5.142A5.149 5.149 0 0 1 5.148 0h168.234a5.141 5.141 0 0 1 5.141 5.142v40.954z"
                                    />
                                    <g data-name="Group 6109">
                                        <g data-name="Group 6108">
                                            <path
                                                data-name="Path 5017"
                                                d="M36.037 22.311a7.773 7.773 0 0 1 3.7-6.522 7.961 7.961 0 0 0-6.27-3.39c-2.637-.278-5.2 1.578-6.539 1.578-1.37 0-3.439-1.551-5.669-1.506a8.347 8.347 0 0 0-7.026 4.285C11.2 22.017 13.462 29.747 16.373 34c1.456 2.082 3.158 4.407 5.385 4.326 2.179-.09 2.993-1.389 5.622-1.389 2.605 0 3.37 1.389 5.641 1.337 2.338-.038 3.811-2.092 5.216-4.193a17.206 17.206 0 0 0 2.385-4.858 7.514 7.514 0 0 1-4.585-6.912z"
                                                transform="translate(3.167 3.024)"
                                                style="fill: #fff"
                                            />
                                            <path
                                                data-name="Path 5018"
                                                d="M28.231 11.7a7.651 7.651 0 0 0 1.751-5.483 7.793 7.793 0 0 0-5.039 2.607 7.281 7.281 0 0 0-1.8 5.28 6.437 6.437 0 0 0 5.088-2.404z"
                                                transform="translate(6.683 .926)"
                                                style="fill: #fff"
                                            />
                                        </g>
                                    </g>
                                    <g data-name="Group 6110">
                                        <path
                                            data-name="Path 5019"
                                            d="M57.475 36.04h-3.046l-1.668-5.24h-5.8l-1.586 5.24H42.41l5.744-17.84H51.7zm-5.216-7.44-1.509-4.66q-.239-.714-.9-3.362h-.05q-.263 1.138-.847 3.362l-1.485 4.66z"
                                            transform="translate(13.263 5.009)"
                                            style="fill: #fff"
                                        />
                                        <path
                                            data-name="Path 5020"
                                            d="M67.812 28.25a7.312 7.312 0 0 1-1.774 5.188 5.187 5.187 0 0 1-3.945 1.695 3.945 3.945 0 0 1-3.654-1.826h-.054v6.778h-2.858V26.211q0-2.064-.106-4.236h2.514l.16 2.039h.054a5.086 5.086 0 0 1 8.14-.5 7.089 7.089 0 0 1 1.523 4.736zm-2.912.1a5.3 5.3 0 0 0-.847-3.1 2.927 2.927 0 0 0-2.489-1.271 2.973 2.973 0 0 0-1.919.7 3.253 3.253 0 0 0-1.125 1.841 3.743 3.743 0 0 0-.133.872v2.145a3.438 3.438 0 0 0 .861 2.371 2.853 2.853 0 0 0 2.237.967A2.927 2.927 0 0 0 64 31.639a5.476 5.476 0 0 0 .9-3.284z"
                                            transform="translate(17.698 6.208)"
                                            style="fill: #fff"
                                        />
                                        <path
                                            data-name="Path 5021"
                                            d="M78.849 28.25a7.306 7.306 0 0 1-1.775 5.188 5.182 5.182 0 0 1-3.943 1.695 3.941 3.941 0 0 1-3.652-1.826h-.054v6.778h-2.86V26.211q0-2.064-.106-4.236h2.514l.16 2.039h.054a5.088 5.088 0 0 1 8.142-.5 7.109 7.109 0 0 1 1.52 4.736zm-2.912.1a5.3 5.3 0 0 0-.849-3.1 2.923 2.923 0 0 0-2.488-1.264 2.976 2.976 0 0 0-1.92.7 3.251 3.251 0 0 0-1.124 1.841 3.816 3.816 0 0 0-.133.872v2.145a3.448 3.448 0 0 0 .858 2.371 2.859 2.859 0 0 0 2.239.967 2.927 2.927 0 0 0 2.514-1.244 5.476 5.476 0 0 0 .902-3.283z"
                                            transform="translate(21.46 6.208)"
                                            style="fill: #fff"
                                        />
                                        <path
                                            data-name="Path 5022"
                                            d="M90.853 31.1a4.756 4.756 0 0 1-1.585 3.706 7.024 7.024 0 0 1-4.861 1.562 8.508 8.508 0 0 1-4.625-1.112l.662-2.383a7.836 7.836 0 0 0 4.133 1.14 3.907 3.907 0 0 0 2.517-.729 2.382 2.382 0 0 0 .9-1.95 2.485 2.485 0 0 0-.742-1.829 6.893 6.893 0 0 0-2.462-1.38q-4.69-1.744-4.69-5.113a4.528 4.528 0 0 1 1.643-3.606A6.475 6.475 0 0 1 86.116 18a8.661 8.661 0 0 1 4.049.847l-.715 2.33a7.026 7.026 0 0 0-3.415-.821 3.457 3.457 0 0 0-2.355.741 2.119 2.119 0 0 0-.715 1.616 2.181 2.181 0 0 0 .819 1.747 9.259 9.259 0 0 0 2.6 1.377 8.807 8.807 0 0 1 3.388 2.17 4.533 4.533 0 0 1 1.081 3.093z"
                                            transform="translate(26.002 4.943)"
                                            style="fill: #fff"
                                        />
                                        <path
                                            data-name="Path 5023"
                                            d="M97.08 24.868h-3.151v6.247q0 2.383 1.668 2.383a5.084 5.084 0 0 0 1.27-.133l.079 2.171a6.477 6.477 0 0 1-2.223.316 3.43 3.43 0 0 1-2.648-1.032 5.072 5.072 0 0 1-.953-3.469v-6.485h-1.878V22.72h1.877v-2.356l2.808-.847v3.2h3.151v2.148z"
                                            transform="translate(29.227 5.46)"
                                            style="fill: #fff"
                                        />
                                        <path
                                            data-name="Path 5024"
                                            d="M108.895 28.3a7.058 7.058 0 0 1-1.695 4.871 6.051 6.051 0 0 1-4.714 1.959 5.754 5.754 0 0 1-4.512-1.879 6.842 6.842 0 0 1-1.681-4.739 6.989 6.989 0 0 1 1.734-4.9 6 6 0 0 1 4.672-1.907 5.876 5.876 0 0 1 4.554 1.88 6.764 6.764 0 0 1 1.642 4.715zm-2.966.093a5.787 5.787 0 0 0-.767-3.053 2.824 2.824 0 0 0-2.562-1.54 2.867 2.867 0 0 0-2.621 1.539 5.9 5.9 0 0 0-.767 3.107 5.779 5.779 0 0 0 .767 3.052 2.922 2.922 0 0 0 5.162-.027 5.808 5.808 0 0 0 .788-3.076z"
                                            transform="translate(31.629 6.208)"
                                            style="fill: #fff"
                                        />
                                        <path
                                            data-name="Path 5025"
                                            d="M114.371 24.489a4.964 4.964 0 0 0-.9-.079 2.7 2.7 0 0 0-2.33 1.14 4.284 4.284 0 0 0-.715 2.541v6.751h-2.857l.027-8.815q0-2.224-.107-4.051h2.49l.1 2.462h.079a4.4 4.4 0 0 1 1.432-2.038 3.456 3.456 0 0 1 2.066-.689 4.59 4.59 0 0 1 .715.052v2.726z"
                                            transform="translate(35.445 6.208)"
                                            style="fill: #fff"
                                        />
                                        <path
                                            data-name="Path 5026"
                                            d="M125.063 27.806a6.705 6.705 0 0 1-.1 1.3h-8.576a3.733 3.733 0 0 0 1.244 2.914 4.248 4.248 0 0 0 2.805.9 9.485 9.485 0 0 0 3.47-.609l.448 1.984a10.728 10.728 0 0 1-4.314.8 6.249 6.249 0 0 1-4.7-1.761 6.5 6.5 0 0 1-1.707-4.725 7.371 7.371 0 0 1 1.59-4.845 5.479 5.479 0 0 1 4.5-2.064 4.8 4.8 0 0 1 4.212 2.064 6.959 6.959 0 0 1 1.128 4.042zm-2.726-.741a3.884 3.884 0 0 0-.555-2.2 2.5 2.5 0 0 0-2.278-1.192 2.712 2.712 0 0 0-2.275 1.165 4.266 4.266 0 0 0-.846 2.223h5.955z"
                                            transform="translate(37.538 6.201)"
                                            style="fill: #fff"
                                        />
                                    </g>
                                    <g data-name="Group 6112">
                                        <g data-name="Group 6111">
                                            <path
                                                data-name="Path 5027"
                                                d="M50.882 11.087a4.4 4.4 0 0 1-1.419 3.564 5.643 5.643 0 0 1-3.732 1.1 17.3 17.3 0 0 1-2.056-.1V7.028a15.169 15.169 0 0 1 2.42-.182 5.217 5.217 0 0 1 3.473 1 4.048 4.048 0 0 1 1.314 3.241zm-1.482.039a3.2 3.2 0 0 0-.813-2.355 3.2 3.2 0 0 0-2.375-.819 5.947 5.947 0 0 0-1.132.091V14.6a7.419 7.419 0 0 0 .949.039 3.324 3.324 0 0 0 2.49-.9 3.592 3.592 0 0 0 .881-2.613z"
                                                transform="translate(13.694 1.141)"
                                                style="fill: #fff"
                                            />
                                            <path
                                                data-name="Path 5028"
                                                d="M56.483 11.86a3.467 3.467 0 0 1-.833 2.393 2.972 2.972 0 0 1-2.316.963 2.825 2.825 0 0 1-2.218-.924 3.365 3.365 0 0 1-.825-2.328 3.433 3.433 0 0 1 .851-2.405 2.953 2.953 0 0 1 2.3-.936 2.891 2.891 0 0 1 2.238.923 3.337 3.337 0 0 1 .803 2.314zm-1.458.046a2.859 2.859 0 0 0-.377-1.5 1.388 1.388 0 0 0-1.26-.756 1.41 1.41 0 0 0-1.288.75 2.9 2.9 0 0 0-.377 1.526 2.859 2.859 0 0 0 .377 1.5 1.418 1.418 0 0 0 1.275.756 1.4 1.4 0 0 0 1.26-.77 2.841 2.841 0 0 0 .39-1.507z"
                                                transform="translate(15.949 1.747)"
                                                style="fill: #fff"
                                            />
                                            <path
                                                data-name="Path 5029"
                                                d="m65.093 8.719-1.978 6.321h-1.287l-.819-2.74a20.544 20.544 0 0 1-.508-2.042h-.025a14.951 14.951 0 0 1-.508 2.042l-.868 2.74h-1.3l-1.86-6.321h1.444l.715 3q.259 1.066.429 2.029h.025q.157-.792.522-2.015l.9-3.017h1.145l.859 2.953q.312 1.08.507 2.081h.039a19.881 19.881 0 0 1 .429-2.081l.767-2.953h1.38z"
                                                transform="translate(17.873 1.779)"
                                                style="fill: #fff"
                                            />
                                            <path
                                                data-name="Path 5030"
                                                d="M69.606 15.074H68.2v-3.62q0-1.673-1.274-1.673a1.268 1.268 0 0 0-1.015.46 1.632 1.632 0 0 0-.39 1.083v3.749h-1.404v-4.514q0-.833-.051-1.809H65.3l.066.988h.039a2.03 2.03 0 0 1 .728-.763 2.375 2.375 0 0 1 1.274-.355 2.017 2.017 0 0 1 1.471.573 2.782 2.782 0 0 1 .728 2.094z"
                                                transform="translate(20.644 1.746)"
                                                style="fill: #fff"
                                            />
                                            <path
                                                data-name="Path 5031"
                                                d="M71.445 15.777h-1.4V6.556h1.4z"
                                                transform="translate(22.681 1.042)"
                                                style="fill: #fff"
                                            />
                                            <path
                                                data-name="Path 5032"
                                                d="M78.832 11.86A3.467 3.467 0 0 1 78 14.253a2.974 2.974 0 0 1-2.316.963 2.821 2.821 0 0 1-2.218-.924 3.365 3.365 0 0 1-.825-2.328 3.433 3.433 0 0 1 .851-2.405 2.952 2.952 0 0 1 2.294-.936 2.894 2.894 0 0 1 2.239.923 3.337 3.337 0 0 1 .807 2.314zm-1.459.046A2.859 2.859 0 0 0 77 10.4a1.386 1.386 0 0 0-1.259-.756 1.407 1.407 0 0 0-1.289.756 2.9 2.9 0 0 0-.377 1.526 2.859 2.859 0 0 0 .377 1.5 1.418 1.418 0 0 0 1.275.756 1.4 1.4 0 0 0 1.259-.77 2.829 2.829 0 0 0 .387-1.507z"
                                                transform="translate(23.567 1.747)"
                                                style="fill: #fff"
                                            />
                                            <path
                                                data-name="Path 5033"
                                                d="M83.649 15.073h-1.262l-.1-.728h-.039a2.164 2.164 0 0 1-1.846.872 1.905 1.905 0 0 1-1.443-.573 1.8 1.8 0 0 1-.495-1.287 1.964 1.964 0 0 1 .969-1.769 5.031 5.031 0 0 1 2.726-.6v-.118q0-1.249-1.313-1.248a2.94 2.94 0 0 0-1.648.468l-.286-.923a4.053 4.053 0 0 1 2.168-.546q2.478 0 2.481 2.615v2.328a9.872 9.872 0 0 0 .088 1.509zM82.19 12.9v-.975q-2.325-.04-2.325 1.274a.952.952 0 0 0 .27.741.983.983 0 0 0 .687.247 1.419 1.419 0 0 0 .859-.292 1.2 1.2 0 0 0 .51-.995z"
                                                transform="translate(25.55 1.747)"
                                                style="fill: #fff"
                                            />
                                            <path
                                                data-name="Path 5034"
                                                d="M89.819 15.777h-1.247l-.066-1.015h-.039a2.1 2.1 0 0 1-2.03 1.158 2.379 2.379 0 0 1-1.9-.9 3.5 3.5 0 0 1-.754-2.328 3.665 3.665 0 0 1 .819-2.485 2.519 2.519 0 0 1 1.951-.885 1.894 1.894 0 0 1 1.781.858h.027V6.556h1.407v7.518q.001.926.051 1.703zm-1.456-2.666v-1.053a2.068 2.068 0 0 0-.039-.442 1.6 1.6 0 0 0-.508-.851 1.381 1.381 0 0 0-.94-.345 1.442 1.442 0 0 0-1.236.625 2.678 2.678 0 0 0-.451 1.6 2.5 2.5 0 0 0 .432 1.522 1.446 1.446 0 0 0 1.228.623 1.354 1.354 0 0 0 1.11-.52 1.732 1.732 0 0 0 .404-1.159z"
                                                transform="translate(27.365 1.042)"
                                                style="fill: #fff"
                                            />
                                            <path
                                                data-name="Path 5035"
                                                d="M98.822 11.86a3.467 3.467 0 0 1-.833 2.393 2.97 2.97 0 0 1-2.316.963 2.829 2.829 0 0 1-2.218-.924 3.365 3.365 0 0 1-.825-2.328 3.433 3.433 0 0 1 .851-2.405 2.954 2.954 0 0 1 2.3-.936 2.888 2.888 0 0 1 2.237.923 3.337 3.337 0 0 1 .804 2.314zm-1.456.046a2.859 2.859 0 0 0-.377-1.5 1.39 1.39 0 0 0-1.262-.756 1.412 1.412 0 0 0-1.289.756 2.9 2.9 0 0 0-.377 1.526 2.859 2.859 0 0 0 .377 1.5 1.436 1.436 0 0 0 2.537-.013 2.853 2.853 0 0 0 .391-1.514z"
                                                transform="translate(30.381 1.747)"
                                                style="fill: #fff"
                                            />
                                            <path
                                                data-name="Path 5036"
                                                d="M104.291 15.074h-1.4v-3.62q0-1.673-1.275-1.673a1.264 1.264 0 0 0-1.014.46 1.625 1.625 0 0 0-.39 1.083v3.749H98.8v-4.514q0-.833-.05-1.809h1.234l.066.988h.039a2.051 2.051 0 0 1 .728-.763 2.38 2.38 0 0 1 1.275-.355 2.016 2.016 0 0 1 1.47.573 2.777 2.777 0 0 1 .728 2.094z"
                                                transform="translate(32.467 1.746)"
                                                style="fill: #fff"
                                            />
                                            <path
                                                data-name="Path 5037"
                                                d="M110.915 10.172h-1.547v3.071c0 .78.275 1.171.819 1.171a2.475 2.475 0 0 0 .626-.066l.036 1.066a3.157 3.157 0 0 1-1.091.157 1.68 1.68 0 0 1-1.3-.507 2.479 2.479 0 0 1-.469-1.7v-3.192h-.924V9.119h.924V7.961l1.377-.416v1.573h1.547v1.054z"
                                                transform="translate(35.301 1.379)"
                                                style="fill: #fff"
                                            />
                                            <path
                                                data-name="Path 5038"
                                                d="M116.879 15.777h-1.407v-3.593q0-1.7-1.272-1.7a1.341 1.341 0 0 0-1.341.986 1.766 1.766 0 0 0-.066.506v3.8h-1.4v-9.22h1.4v3.809h.027a2.124 2.124 0 0 1 1.9-1.039 1.958 1.958 0 0 1 1.445.573 2.879 2.879 0 0 1 .715 2.12v3.758z"
                                                transform="translate(36.775 1.042)"
                                                style="fill: #fff"
                                            />
                                            <path
                                                data-name="Path 5039"
                                                d="M122.636 11.616a3.393 3.393 0 0 1-.052.637h-4.214a1.843 1.843 0 0 0 .61 1.431 2.093 2.093 0 0 0 1.38.442 4.656 4.656 0 0 0 1.7-.3l.22.976a5.292 5.292 0 0 1-2.121.39 3.064 3.064 0 0 1-2.308-.865 3.186 3.186 0 0 1-.838-2.321 3.617 3.617 0 0 1 .78-2.38 2.687 2.687 0 0 1 2.21-1.014 2.351 2.351 0 0 1 2.066 1.014 3.375 3.375 0 0 1 .567 1.99zm-1.341-.363a1.892 1.892 0 0 0-.272-1.079 1.227 1.227 0 0 0-1.118-.586 1.334 1.334 0 0 0-1.118.573 2.127 2.127 0 0 0-.417 1.093h2.926z"
                                                transform="translate(38.692 1.743)"
                                                style="fill: #fff"
                                            />
                                        </g>
                                    </g>
                                </svg>