<svg width="28.19" height="28.19" xmlns="http://www.w3.org/2000/svg"><g><g><path d="M6.172 19.393h-.88v-1.761h.88a.881.881 0 0 0 0-1.762H4.411a.881.881 0 0 0-.881.88v7.048a.881.881 0 0 0 1.762 0v-2.643h.88a.881.881 0 0 0 0-1.762z" fill="#24bce3" fill-rule="evenodd" style="stroke:none;stroke-width:0;stroke-dasharray:none;stroke-linecap:butt;stroke-dashoffset:0;stroke-linejoin:miter;stroke-miterlimit:4;fill:#24bce3;fill-rule:evenodd;opacity:1"/></g><g><path d="M18.502 19.393h-.88v-1.761h.88a.881.881 0 0 0 0-1.762h-1.761a.881.881 0 0 0-.881.88v7.048c0 .486.394.88.88.88h1.762a.881.881 0 0 0 0-1.761h-.88v-1.762h.88a.881.881 0 0 0 0-1.762z" fill="#24bce3" fill-rule="evenodd" style="stroke:none;stroke-width:0;stroke-dasharray:none;stroke-linecap:butt;stroke-dashoffset:0;stroke-linejoin:miter;stroke-miterlimit:4;fill:#24bce3;fill-rule:evenodd;opacity:1"/></g><g><path d="M23.793 19.393h-.881v-1.761h.88a.881.881 0 0 0 0-1.762h-1.761a.881.881 0 0 0-.881.88v7.048c0 .486.394.88.88.88h1.763a.881.881 0 0 0 0-1.761h-.881v-1.762h.88a.881.881 0 0 0 0-1.762z" fill="#24bce3" fill-rule="evenodd" style="stroke:none;stroke-width:0;stroke-dasharray:none;stroke-linecap:butt;stroke-dashoffset:0;stroke-linejoin:miter;stroke-miterlimit:4;fill:#24bce3;fill-rule:evenodd;opacity:1"/></g><g><path d="M11.463 15.87H9.7a.881.881 0 0 0-.881.88v7.048a.881.881 0 0 0 1.762 0v-2.056l1.938 2.584a.875.875 0 0 0 .738.352.882.882 0 0 0 .67-1.409l-1.685-2.246a2.635 2.635 0 0 0 1.862-2.51 2.646 2.646 0 0 0-2.642-2.643zm0 3.523h-.881v-1.761h.88a.881.881 0 0 1 0 1.761z" fill="#24bce3" fill-rule="evenodd" style="stroke:none;stroke-width:0;stroke-dasharray:none;stroke-linecap:butt;stroke-dashoffset:0;stroke-linejoin:miter;stroke-miterlimit:4;fill:#24bce3;fill-rule:evenodd;opacity:1"/></g><g><path d="M27.336 12.362h-3.118l-7.6-8.853c.088-.264.148-.542.148-.837A2.646 2.646 0 0 0 14.123.03a2.646 2.646 0 0 0-2.642 2.643c.004.285.054.567.148.836l-7.6 8.853H.911a.881.881 0 0 0-.881.88v14.094c0 .486.395.88.88.88h26.426c.486 0 .88-.394.88-.88V13.242a.881.881 0 0 0-.88-.88zm-.881 14.093H1.792V14.123h24.663v12.332zM15.503 4.915l6.393 7.447H6.35l6.393-7.447a2.626 2.626 0 0 0 1.38.4 2.587 2.587 0 0 0 1.379-.4zm-1.38-3.123a.881.881 0 1 1 0 1.762.881.881 0 0 1 0-1.762z" fill="#24bce3" fill-rule="evenodd" style="stroke:none;stroke-width:0;stroke-dasharray:none;stroke-linecap:butt;stroke-dashoffset:0;stroke-linejoin:miter;stroke-miterlimit:4;fill:#24bce3;fill-rule:evenodd;opacity:1"/></g></g></svg>