<svg height="28.19" width="28.19" xmlns="http://www.w3.org/2000/svg"><g fill="#24bce3" fill-rule="evenodd"><path d="m6.172 19.393h-.88v-1.761h.88a.881.881 0 0 0 0-1.762h-1.761a.881.881 0 0 0 -.881.88v7.048a.881.881 0 0 0 1.762 0v-2.643h.88a.881.881 0 0 0 0-1.762z"/><path d="m18.502 19.393h-.88v-1.761h.88a.881.881 0 0 0 0-1.762h-1.761a.881.881 0 0 0 -.881.88v7.048c0 .486.394.88.88.88h1.762a.881.881 0 0 0 0-1.761h-.88v-1.762h.88a.881.881 0 0 0 0-1.762z"/><path d="m23.793 19.393h-.881v-1.761h.88a.881.881 0 0 0 0-1.762h-1.761a.881.881 0 0 0 -.881.88v7.048c0 .486.394.88.88.88h1.763a.881.881 0 0 0 0-1.761h-.881v-1.762h.88a.881.881 0 0 0 0-1.762z"/><path d="m11.463 15.87h-1.763a.881.881 0 0 0 -.881.88v7.048a.881.881 0 0 0 1.762 0v-2.056l1.938 2.584a.875.875 0 0 0 .738.352.882.882 0 0 0 .67-1.409l-1.685-2.246a2.635 2.635 0 0 0 1.862-2.51 2.646 2.646 0 0 0 -2.642-2.643zm0 3.523h-.881v-1.761h.88a.881.881 0 0 1 0 1.761z"/><path d="m27.336 12.362h-3.118l-7.6-8.853c.088-.264.148-.542.148-.837a2.646 2.646 0 0 0 -2.643-2.642 2.646 2.646 0 0 0 -2.642 2.643c.004.285.054.567.148.836l-7.6 8.853h-3.118a.881.881 0 0 0 -.881.88v14.094c0 .486.395.88.88.88h26.426c.486 0 .88-.394.88-.88v-14.094a.881.881 0 0 0 -.88-.88zm-.881 14.093h-24.663v-12.332h24.663zm-10.952-21.54 6.393 7.447h-15.546l6.393-7.447a2.626 2.626 0 0 0 1.38.4 2.587 2.587 0 0 0 1.379-.4zm-1.38-3.123a.881.881 0 1 1 0 1.762.881.881 0 0 1 0-1.762z"/></g></svg>