<svg height="32.68" width="32.63" xmlns="http://www.w3.org/2000/svg"><g fill="#24bce3" fill-rule="evenodd"><path d="m23.907 15.22a8.727 8.727 0 1 0 8.728 8.727 8.737 8.737 0 0 0 -8.728-8.727zm0 15.178a6.45 6.45 0 1 1 6.451-6.45 6.458 6.458 0 0 1 -6.45 6.45z"/><path d="m10.245 14.465h3.07c1.069 0 2.126.22 3.106.648.142.066.296.103.453.107h.03a1.138 1.138 0 0 0 .431-2.192 9.925 9.925 0 0 0 -.89-.336 7.21 7.21 0 0 0 -4.682-12.692h-.001a7.21 7.21 0 0 0 -4.68 12.693 10.26 10.26 0 0 0 -7.082 9.74v3.036c0 .628.51 1.138 1.138 1.138h10.716a1.138 1.138 0 0 0 0-2.277h-9.577v-1.897a7.978 7.978 0 0 1 7.968-7.968zm6.45-7.21a4.933 4.933 0 1 0 -9.865 0 4.933 4.933 0 0 0 9.866 0zm7.971 12.525h-1.518a1.138 1.138 0 0 0 0 2.277h.38v4.933a1.138 1.138 0 0 0 2.277 0v-6.072c0-.628-.51-1.138-1.139-1.138z"/></g></svg>