<svg height="16" viewBox="0 0 16 16" width="16" xmlns="http://www.w3.org/2000/svg"><path d="m0 8a8 8 0 1 1 16 0 8 8 0 0 1 -16 0zm7.5-6.923c-.67.204-1.335.82-1.887 1.855a7.97 7.97 0 0 0 -.468 1.068h2.355zm-3.41 2.923a9.267 9.267 0 0 1 .64-1.539 6.7 6.7 0 0 1 .597-.933 7.025 7.025 0 0 0 -3.072 2.472zm-.582 3.5c.03-.877.138-1.718.312-2.5h-2.146a6.958 6.958 0 0 0 -.656 2.5zm1.339-2.5a12.5 12.5 0 0 0 -.338 2.5h2.991v-2.5zm3.653 0v2.5h2.99a12.495 12.495 0 0 0 -.337-2.5zm-3.99 3.5a12.5 12.5 0 0 0 .337 2.5h2.653v-2.5zm3.99 0v2.5h2.653c.187-.765.306-1.608.338-2.5zm-3.355 3.5c.138.386.295.744.468 1.068.552 1.035 1.218 1.65 1.887 1.855v-2.923zm.182 2.472a6.696 6.696 0 0 1 -.597-.933 9.268 9.268 0 0 1 -.64-1.539h-1.835a7.024 7.024 0 0 0 3.072 2.472zm-1.507-3.472a13.652 13.652 0 0 1 -.312-2.5h-2.49c.062.89.291 1.733.656 2.5zm6.853 3.472a7.024 7.024 0 0 0 3.072-2.472h-1.835a9.27 9.27 0 0 1 -.64 1.539 6.688 6.688 0 0 1 -.597.933zm-2.173-2.472v2.923c.67-.204 1.335-.82 1.887-1.855.173-.324.33-.682.468-1.068zm3.68-1h2.146c.365-.767.594-1.61.656-2.5h-2.49a13.65 13.65 0 0 1 -.312 2.5zm2.802-3.5a6.959 6.959 0 0 0 -.656-2.5h-2.146c.174.782.282 1.623.312 2.5zm-3.712-5.039c.247.464.462.98.64 1.539h1.835a7.024 7.024 0 0 0 -3.072-2.472c.218.284.418.598.597.933zm-.415 1.539a7.966 7.966 0 0 0 -.468-1.068c-.552-1.035-1.217-1.65-1.887-1.855v2.923z"/></svg>