<svg height="40" viewBox="0 0 119 40" width="119" xmlns="http://www.w3.org/2000/svg" xmlns:xlink="http://www.w3.org/1999/xlink"><linearGradient id="a" x1="50%" x2="50%" y1="0%" y2="100%"><stop offset="0" stop-color="#1e79af"/><stop offset="1" stop-color="#63ffd3"/></linearGradient><linearGradient id="b" x1="84.717812%" x2="5.244195%" y1="28.878266%" y2="77.66117%"><stop offset="0" stop-color="#dc4057"/><stop offset="1" stop-color="#9e36bb"/></linearGradient><linearGradient id="c" x1="50%" x2="50%" y1="0%" y2="97.825654%"><stop offset="0" stop-color="#ff9676"/><stop offset="1" stop-color="#ffd074"/></linearGradient><linearGradient id="d" x1="17.443537%" x2="100%" y1="20.297564%" y2="79.702436%"><stop offset="0" stop-color="#51c6ad"/><stop offset="1" stop-color="#d5ffa1"/></linearGradient><g fill="none" transform="translate(.6)"><path d="m0 6.8370272v26.3259456c0 2.3773833.24753496 3.2394799.71235388 4.1086157.46481891.8691358 1.14692177 1.5512387 2.01605758 2.0160576.8691358.464819 1.73123243.7123539 4.10861574.7123539h104.2206818c2.377384 0 3.23948-.2475349 4.108616-.7123539.869136-.4648189 1.551239-1.1469218 2.016058-2.0160576s.712354-1.7312324.712354-4.1086157v-26.3259456c0-2.37738331-.247535-3.23947994-.712354-4.10861574-.464819-.86913581-1.146922-1.55123867-2.016058-2.01605758-.869136-.46481892-1.731232-.71235388-4.108616-.71235388h-104.2206818c-2.37738331 0-3.23947994.24753496-4.10861574.71235388-.86913581.46481891-1.55123867 1.14692177-2.01605758 2.01605758-.46481892.8691358-.71235388 1.73123243-.71235388 4.10861574z" fill="#000" opacity=".9"/><g transform="translate(9.00052 16.284559)"><path d="m.54708645.03469498c-.33214135.10476619-.54708645.44383705-.54708645.95683011l.0020471 16.14534691c0 .5073161.20829203.8412261.53122145.9527014l8.95860455-9.03466448z" fill="url(#a)"/><path d="m.53326855 18.0895734c.23234541.0794778.52354485.0423193.84084475-.1331511l10.9325171-6.0630206-2.8147573-2.83849278z" fill="url(#b)"/><path d="m12.3081657 11.8934017 3.7277621-2.06693884c.7558902-.420613.7558902-1.1049478 0-1.52452867l-3.74158-2.07468015-2.8024747 2.82610662z" fill="url(#c)"/><path d="m12.293836 6.22725404-10.9197227-6.05476314c-.3096233-.17082565-.59519321-.21056455-.82651508-.13779592l8.94427488 9.01866568z" fill="url(#d)"/></g><g fill="#fff"><path d="m68.2480893 21.7789666-1.1064553.6296293h-1.0726785c.3966248.328749 1.2241632 1.0265022 1.2241632 2.3497559 0 1.2897079-.7210894 1.8976615-1.4483202 2.4731013-.2231336.2265634-.4841383.472222-.4841383.852064 0 .3855189.2610047.5945352.4488259.7503942l.6238525.4856404c.7584494.645628 1.4498561 1.2375828 1.4498561 2.4400716 0 1.6380684-1.5721701 3.2900712-4.5430184 3.2900712-2.5025751 0-3.7124089-1.2019727-3.7124089-2.4906484 0-.6270489.3096233-1.5152391 1.3311243-2.1237087 1.0706313-.6600786 2.5209989-.7483299 3.2978719-.7999389-.2425809-.3158468-.5194507-.6466603-.5194507-1.18649 0-.2952032.0880252-.4711898.1729797-.6786578-.1888447.0180631-.3792246.0366424-.5522042.0366424-1.8316393 0-2.8669582-1.3779592-2.8669582-2.735791 0-.800971.362336-1.6896773 1.1064555-2.3337572.9846532-.8174858 2.1586629-.9583783 3.091627-.9583783zm-3.7070496 8.3427369-.0933844-.0001486c-.1566028 0-1.0895669.0340619-1.8121918.2786884-.3822953.1408924-1.4872154.5573768-1.4872154 1.7944435 0 1.2344863 1.1929452 2.1247409 3.0384024 2.1247409 1.658148 0 2.5383995-.8014872 2.5383995-1.8806305 0-.8881902-.5696047-1.3567996-1.8797463-2.2986631-.1134091-.0148634-.1904618-.017836-.304264-.0184306zm38.1443253-8.4000228 2.951912 7.1395834 2.923254-7.1395834h.988235l-4.197059 9.9677544c-.43552 1.0270183-1.120785 1.520916-2.061937 1.520916-.282499 0-.655071-.0505768-.873087-.1181845l.14995-.8128411c.186798.0841226.505633.1357316.707784.1357316.534292 0 .906351-.2203703 1.24054-.9986334l.637158-1.4558888-3.441168-8.2388542zm-15.612691-.2038554c2.1663393 0 3.6254073 1.6571636 3.6254073 4.280447 0 2.6057364-1.459068 4.2974781-3.6254073 4.2974781-1.1402327 0-2.161734-.5929869-2.8168047-1.5224643v4.4357901h-.873598v-11.2873955h.873598v1.2855791c.5690927-.8309042 1.609018-1.4894345 2.8168047-1.4894345zm-50.826839-3.4288993c.8735983 0 1.7139313.1295385 2.4795453.340103 1.2134162.3437157 1.7809736.7674253 2.135633 1.0156643l-1.3449422 1.2881597-.5670456.1279902.4043015-.6497568c-.5475982-.5393137-1.5542577-1.5348505-3.4647103-1.5348505-2.5542642 0-4.4810934 1.958044-4.4810934 4.8166642 0 3.070217 2.2001166 5.9582544 5.7287986 5.9582544 1.0368542 0 1.5706345-.2100484 2.0552845-.4061625v-2.6320569l-2.4447446.132635 1.2958119-.7018818h3.4309332l-.4196548.4071946c-.113102.0970249-.1284552.1300546-.1601852.2601092-.0168886.1486338-.0327536.6213718-.0327536.7875527v1.9905576l-2.3152658.5346688c-.9380818.1491499-1.7804618.2802367-2.672484.2802367-4.4657402 0-6.167389-3.3148435-6.167389-5.9092259 0-3.1682741 2.4109676-6.105856 6.5399605-6.105856zm61.376549 3.4252866c.9524113 0 1.7231433.2312081 2.3040067.6925923.5803523.4567392.8715513 1.1168178.8715513 1.9797196v4.0306598c0 .2895262.013818.5692468.049642.8417421.036848.2730114.095702.5455067.174003.8092285h-1.00666c-.0583417-.2833332-.1023543-.5331206-.1345957-.7416208-.0266126-.207984-.041966-.420613-.041966-.6368545-.2993873.4433209-.723648.812325-1.2656166 1.1028835-.5424807.2926228-1.0578374.4360957-1.7645974.4360957-.85108 0-1.5117806-.2110807-1.983124-.6394351-.4698086-.4278382-.7062486-1.0074068-.7062486-1.7407702 0-.7323311.3423773-1.3268663 1.0250833-1.7815412.6827067-.4567393 1.5650053-.6838188 2.6571313-.6838188h2.037372v-1.0151482c0-.5847295-.1975446-1.0445653-.5921226-1.3779592-.3961127-.33391-.9518994-.5026713-1.6724774-.5026713-.6586533 0-1.1929453.1543108-1.5998053.454675-.403278.3065572-.6064527.6863991-.6064527 1.1441706h-.8940693l-.0184233-.0438676c-.032242-.6172432.2476986-1.1586211.8428913-1.6261983.5926347-.4670611 1.368996-.7018819 2.324478-.7018819zm-21.5190747.0397389c.6212934 0 1.259476.1568912 1.7784147.4877047.8628507.5754399 1.0859847 1.3232537 1.209834 1.7237393l-4.059904 1.6540671-1.3295887.1042501c.430402 2.2140244 1.91557 3.5016679 3.5568294 3.5016679.819862 0 1.4283613-.2699149 1.9867073-.5480871 0 0 .112078-.0588343.0322413.0216757l-.8260033.7860045-.38057.2187072c-.0632513.0350368-.1264273.0680666-.189546.0971396-.5736987.2626896-1.1571213.328749-1.675548.328749-.5516927 0-1.4165907-.0361262-2.2988893-.6796899-1.2256987-.8706432-1.761526-2.367303-1.761526-3.6714614 0-2.7001808 2.1796453-4.0244667 3.9575486-4.0244667zm-29.6721473 0c2.5373757 0 4.1259223 2.004492 4.1259223 4.1091054 0 2.0555848-1.569611 4.2303864-4.3864153 4.2303864-2.7456677 0-4.2119003-2.1557062-4.2119003-4.1075571 0-2.2805999 1.8469924-4.2319347 4.4723933-4.2319347zm9.1894147 0c2.538911 0 4.1289929 2.004492 4.1289929 4.1091054 0 2.0555848-1.5716581 4.2303864-4.3879506 4.2303864-2.7451559 0-4.2139475-2.1557062-4.2139475-4.1075571 0-2.2805999 1.8464808-4.2319347 4.4729052-4.2319347zm37.143536-2.9489359v11.2873955h-.873086v-11.2873955zm-21.2068927-1.2308737c-.5353153.3127503-.6955007.5031874-.7640787 1.1126892l-.004094 9.8774387c0 .6765935.1197554.7818757.6873127.835033.2958053.0350941.5905873.0505768.8822987.0856709l-.638694.3834545h-3.0435207c.399184-.5222827.467762-.5744077.467762-.9222521v-.3886154l-.0066533-10.3548217h-1.3439187l1.2937647-.6285971zm-25.5748839 4.7201554c-.5716516 0-1.139209.224499-1.553746.5909226-.6755417.6095018-.7952968 1.3753788-.7952968 2.1268052 0 1.7206428.846986 4.5586194 2.9365594 4.5586194.6740064 0 1.3623426-.3297812 1.7610145-.8861258.414537-.5573768.5179153-1.2530656.5179153-1.9312073 0-1.5338183-.7267191-4.4590141-2.8664464-4.4590141zm9.1914618 0c-.5696045 0-1.1433032.224499-1.5568166.5909226-.6745182.6095018-.7947851 1.3753788-.7947851 2.1268052 0 1.7206428.8434036 4.5586194 2.9365595 4.5586194.6755417 0 1.3649013-.3297812 1.7625498-.8861258.4176076-.5573768.5189388-1.2530656.5189388-1.9312073 0-1.5338183-.724672-4.4590141-2.8664464-4.4590141zm31.7514848.218822c-1.1253907 0-2.2016514.8918028-2.6694134 1.6695498v3.6131433c.467762.7792953 1.5440227 1.7036118 2.6694134 1.7036118 1.812192 0 2.8342046-1.5209161 2.8342046-3.5011519 0-1.9771392-1.0220126-3.485153-2.8342046-3.485153zm12.9130826 3.5692756h-2.047096c-.7819906 0-1.4293846.1744384-1.9386.5264114-.5102386.350941-.7686846.7756827-.7686846 1.2695804 0 .466029.163768.8386456.489256 1.1209466.326512.2853976.7727786.4268062 1.3418713.4268062.7420727 0 1.2753413-.1672131 1.8203807-.4980265.5414566-.3287491.909934-.7576195 1.1028726-1.2768057zm-36.2387196-3.5274723c-.4478022 0-.932964.2265633-1.2082985.5769881-.2922229.362811-.3797363.8334848-.3797363 1.2860953 0 1.1663625.6745182 3.1006663 2.1581511 3.1006663.4329609 0 .8986752-.2121128 1.1719625-.4877047.3991838-.4020337.4339844-.9573461.4339844-1.2726769 0-1.2525494-.740537-3.2033681-2.1760632-3.2033681zm12.0179896-.2265633c-.6898713 0-1.9851713.541894-1.9851713 2.4235567 0 .2936549.0348007.6064053.0522007.9191555l3.143828-1.3758948c.3295826-.120765.5010273-.2250151.5010273-.4675772 0-.6956888-.780456-1.4992402-1.7118847-1.4992402z"/><path d="m32.5628361 6.41797807c1.0852875 0 1.7945576.51787146 2.2373298 1.15204233l-.7932351.459461c-.3003967-.4177392-.8266125-.74264747-1.4440947-.74264747-1.1014548 0-1.9202444.8344354-1.9202444 2.0115108 0 1.15986517.8187896 2.01151077 1.9202444 2.01151077.5679376 0 1.0685988-.258675 1.3189294-.5006612v-.85998997h-1.6693923v-.85999h2.6378589v2.07878717c-.542383.6096594-1.3272738 1.0185327-2.287396 1.0185327-1.6198477 0-2.9220884-1.1431765-2.9220884-2.88818947 0-1.75283586 1.3022407-2.88036666 2.9220884-2.88036666zm28.4292136 0c1.6605265 0 2.8464678 1.2187972 2.8464678 2.88036666 0 1.66104797-1.1859413 2.87984517-2.8464678 2.87984517-1.6704353 0-2.8469892-1.2187972-2.8469892-2.87984517 0-1.66156946 1.1765539-2.88036666 2.8469892-2.88036666zm-21.1190381.09178789v.86051151h-2.8386449v1.43522886h2.7802344v.85998994h-2.7802344v1.55257143h2.8386449v.8599899h-3.8149343v-5.56829164zm5.3654195 0v.86051151h-1.686081v4.70778013h-.9768109v-4.70778013h-1.686081v-.86051151zm4.3708769 0v5.56829164h-.9762894v-5.56829164zm5.3831513 0v.86051151h-1.686081v4.70778013h-.9768109v-4.70778013h-1.686081v-.86051151zm10.988471 0 2.8464677 3.85717754v-3.85717754h.9768107v5.56829164h-.9434334l-2.9053996-3.98182133v3.98182133h-.9762894v-5.56829164zm-4.9888806.77706797c-1.1275308 0-1.8451452.85946847-1.8451452 2.0115108 0 1.14317647.7176144 2.01151077 1.8451452 2.01151077 1.1181435 0 1.8446238-.8683343 1.8446238-2.01151077 0-1.15204233-.7264803-2.0115108-1.8446238-2.0115108z"/></g></g></svg>