<svg height="40" width="119" xmlns="http://www.w3.org/2000/svg" xmlns:xlink="http://www.w3.org/1999/xlink"><linearGradient id="a" x1="50%" x2="50%" y1="0%" y2="100%"><stop offset="0" stop-color="#1e79af"/><stop offset="1" stop-color="#63ffd3"/></linearGradient><linearGradient id="b" x1="84.718%" x2="5.244%" y1="28.878%" y2="77.661%"><stop offset="0" stop-color="#dc4057"/><stop offset="1" stop-color="#9e36bb"/></linearGradient><linearGradient id="c" x1="50%" x2="50%" y1="0%" y2="97.826%"><stop offset="0" stop-color="#ff9676"/><stop offset="1" stop-color="#ffd074"/></linearGradient><linearGradient id="d" x1="17.444%" x2="100%" y1="20.298%" y2="79.702%"><stop offset="0" stop-color="#51c6ad"/><stop offset="1" stop-color="#d5ffa1"/></linearGradient><g fill="none"><path d="m.6 6.837v26.326c0 2.377.248 3.24.712 4.109a4.846 4.846 0 0 0 2.016 2.016c.87.464 1.732.712 4.109.712h104.22c2.378 0 3.24-.248 4.11-.712a4.846 4.846 0 0 0 2.015-2.016c.465-.87.713-1.732.713-4.109v-26.326c0-2.377-.248-3.24-.713-4.109a4.846 4.846 0 0 0 -2.016-2.016c-.869-.464-1.73-.712-4.108-.712h-104.221c-2.377 0-3.24.248-4.109.712a4.846 4.846 0 0 0 -2.016 2.016c-.464.87-.712 1.732-.712 4.109z" fill="#000" opacity=".9"/><path d="m.547.035c-.332.104-.547.444-.547.957l.002 16.145c0 .507.208.841.531.953l8.959-9.035z" fill="url(#a)" transform="translate(9.6 16.285)"/><path d="m.533 18.09c.233.08.524.042.841-.134l10.933-6.063-2.815-2.838z" fill="url(#b)" transform="translate(9.6 16.285)"/><path d="m12.308 11.893 3.728-2.067c.756-.42.756-1.104 0-1.524l-3.742-2.075-2.802 2.826z" fill="url(#c)" transform="translate(9.6 16.285)"/><path d="m12.294 6.227-10.92-6.055c-.31-.17-.594-.21-.826-.137l8.944 9.018z" fill="url(#d)" transform="translate(9.6 16.285)"/><path d="m68.848 21.779-1.106.63h-1.073c.397.328 1.224 1.026 1.224 2.35 0 1.29-.721 1.897-1.448 2.472-.223.227-.484.473-.484.853 0 .385.26.594.448.75l.624.486c.759.645 1.45 1.237 1.45 2.44 0 1.638-1.572 3.29-4.543 3.29-2.502 0-3.712-1.202-3.712-2.491 0-.627.31-1.515 1.33-2.124 1.072-.66 2.522-.748 3.299-.8-.243-.315-.52-.646-.52-1.186 0-.295.088-.471.173-.679-.189.018-.379.037-.552.037-1.832 0-2.867-1.378-2.867-2.736 0-.8.362-1.69 1.107-2.334.984-.817 2.158-.958 3.091-.958h3.56zm-3.707 8.343h-.093c-.157 0-1.09.034-1.813.278-.382.141-1.487.558-1.487 1.795 0 1.234 1.193 2.124 3.039 2.124 1.658 0 2.538-.801 2.538-1.88 0-.888-.57-1.357-1.88-2.299a2.174 2.174 0 0 0 -.304-.018zm38.144-8.4 2.952 7.14 2.924-7.14h.988l-4.197 9.967c-.436 1.027-1.121 1.521-2.062 1.521-.283 0-.655-.05-.873-.118l.15-.813c.186.084.505.136.707.136.535 0 .907-.22 1.241-.999l.637-1.455-3.441-8.24h.974zm-15.612-.204c2.166 0 3.625 1.657 3.625 4.28 0 2.606-1.459 4.298-3.625 4.298-1.14 0-2.162-.593-2.817-1.523v4.436h-.874v-11.287h.874v1.285c.569-.83 1.609-1.49 2.817-1.49zm-50.827-3.43c.873 0 1.714.13 2.48.341 1.213.344 1.78.767 2.135 1.016l-1.345 1.288-.567.128.404-.65c-.547-.54-1.554-1.535-3.464-1.535-2.555 0-4.481 1.958-4.481 4.817 0 3.07 2.2 5.958 5.728 5.958 1.037 0 1.571-.21 2.056-.406v-2.632l-2.445.133 1.296-.702h3.43l-.419.407c-.113.097-.129.13-.16.26-.017.149-.033.621-.033.788v1.99l-2.315.535c-.938.149-1.78.28-2.673.28-4.465 0-6.167-3.315-6.167-5.91 0-3.167 2.41-6.105 6.54-6.105zm61.376 3.426c.953 0 1.724.231 2.304.693.58.457.872 1.117.872 1.98v4.03a5.384 5.384 0 0 0 .224 1.651h-1.007a15.283 15.283 0 0 1 -.135-.741 5.016 5.016 0 0 1 -.042-.637c-.299.443-.723.812-1.265 1.103-.543.292-1.058.436-1.765.436-.85 0-1.512-.211-1.983-.64-.47-.428-.706-1.007-.706-1.74s.342-1.327 1.025-1.782c.683-.457 1.565-.684 2.657-.684h2.037v-1.015c0-.585-.197-1.045-.592-1.378-.396-.334-.952-.503-1.672-.503-.659 0-1.193.155-1.6.455-.403.307-.606.686-.606 1.144h-.895l-.018-.044c-.032-.617.248-1.158.843-1.626.593-.467 1.369-.702 2.324-.702zm-21.519.04c.622 0 1.26.157 1.779.488.863.575 1.086 1.323 1.21 1.723l-4.06 1.654-1.33.105c.43 2.214 1.916 3.501 3.557 3.501.82 0 1.428-.27 1.987-.548 0 0 .112-.059.032.022l-.826.786-.38.219a2.883 2.883 0 0 1 -.19.097c-.574.263-1.157.329-1.676.329-.552 0-1.416-.037-2.299-.68-1.225-.87-1.761-2.367-1.761-3.672 0-2.7 2.18-4.024 3.957-4.024zm-29.672 0c2.538 0 4.126 2.004 4.126 4.11 0 2.055-1.57 4.23-4.386 4.23-2.746 0-4.212-2.156-4.212-4.108 0-2.28 1.847-4.232 4.472-4.232zm9.19 0c2.538 0 4.129 2.004 4.129 4.11 0 2.055-1.572 4.23-4.388 4.23-2.746 0-4.214-2.156-4.214-4.108 0-2.28 1.846-4.232 4.473-4.232zm37.143-2.949v11.287h-.873v-11.287zm-21.207-1.23c-.535.312-.695.502-.764 1.112l-.004 9.877c0 .677.12.782.687.835.296.035.59.05.883.086l-.639.383h-3.044c.4-.522.468-.574.468-.922v-.388l-.006-10.355h-1.344l1.293-.629h2.47zm-25.575 4.72c-.571 0-1.139.224-1.553.59-.676.61-.796 1.376-.796 2.127 0 1.72.847 4.559 2.937 4.559.674 0 1.362-.33 1.76-.886.415-.558.519-1.254.519-1.932 0-1.534-.727-4.459-2.867-4.459zm9.192 0c-.57 0-1.144.224-1.557.59-.675.61-.795 1.376-.795 2.127 0 1.72.844 4.559 2.937 4.559.675 0 1.365-.33 1.762-.886.418-.558.52-1.254.52-1.932 0-1.534-.725-4.459-2.867-4.459zm31.751.218c-1.125 0-2.201.892-2.67 1.67v3.613c.469.78 1.545 1.703 2.67 1.703 1.812 0 2.834-1.52 2.834-3.5 0-1.978-1.022-3.486-2.834-3.486zm12.913 3.57h-2.047c-.782 0-1.43.174-1.938.526-.51.35-.769.775-.769 1.27 0 .465.164.838.49 1.12.326.286.772.427 1.341.427.742 0 1.275-.167 1.82-.498.542-.329.91-.758 1.103-1.277v-1.569zm-36.238-3.529c-.448 0-.933.226-1.209.577-.292.363-.38.833-.38 1.286 0 1.166.675 3.1 2.159 3.1a1.76 1.76 0 0 0 1.172-.487c.399-.402.434-.957.434-1.273 0-1.252-.74-3.203-2.176-3.203zm12.018-.227c-.69 0-1.986.542-1.986 2.424 0 .294.035.606.053.92l3.143-1.377c.33-.12.502-.225.502-.467 0-.696-.78-1.5-1.712-1.5zm-43.055-15.709c1.085 0 1.794.518 2.237 1.152l-.793.46a1.796 1.796 0 0 0 -1.444-.743c-1.102 0-1.92.834-1.92 2.011 0 1.16.818 2.012 1.92 2.012.568 0 1.068-.259 1.319-.5v-.86h-1.67v-.86h2.638v2.078a3.007 3.007 0 0 1 -2.287 1.019c-1.62 0-2.922-1.144-2.922-2.889 0-1.752 1.302-2.88 2.922-2.88zm28.429 0c1.66 0 2.847 1.219 2.847 2.88s-1.186 2.88-2.847 2.88c-1.67 0-2.847-1.219-2.847-2.88s1.177-2.88 2.847-2.88zm-21.119.092v.86h-2.839v1.436h2.78v.86h-2.78v1.552h2.839v.86h-3.815v-5.568zm5.365 0v.86h-1.686v4.708h-.976v-4.708h-1.687v-.86h4.35zm4.371 0v5.568h-.976v-5.568zm5.383 0v.86h-1.686v4.708h-.976v-4.708h-1.687v-.86h4.35zm10.989 0 2.846 3.857v-3.857h.977v5.568h-.943l-2.906-3.982v3.982h-.976v-5.568zm-4.989.777c-1.127 0-1.845.86-1.845 2.011 0 1.144.718 2.012 1.845 2.012 1.118 0 1.845-.868 1.845-2.012 0-1.152-.727-2.011-1.845-2.011z" fill="#fff"/></g></svg>