<svg width="32.2" height="26.308" xmlns="http://www.w3.org/2000/svg"><path d="M31.257 12.205h-1.27a8.392 8.392 0 0 0 .892-3.783 8.373 8.373 0 0 0-2.468-5.96 8.373 8.373 0 0 0-5.96-2.468 8.373 8.373 0 0 0-5.96 2.469l-.391.391-.392-.391a8.373 8.373 0 0 0-5.96-2.469A8.373 8.373 0 0 0 3.79 2.463a8.373 8.373 0 0 0-2.468 5.96 8.392 8.392 0 0 0 .891 3.782H.943a.943.943 0 1 0 0 1.886h2.57c.09.1.182.196.276.29l11.644 11.645a.94.94 0 0 0 1.334 0l11.644-11.644c.095-.095.187-.192.277-.29h2.569a.943.943 0 1 0 0-1.887zM14.374 3.797l1.059 1.058a.942.942 0 0 0 1.334 0l1.059-1.058A6.499 6.499 0 0 1 22.45 1.88c1.747 0 3.39.68 4.626 1.916a6.499 6.499 0 0 1 1.916 4.625 6.494 6.494 0 0 1-1.203 3.783h-4.945L20.733 8.87a.944.944 0 0 0-1.615.036l-3.093 5.4-3.989-7.873a.943.943 0 0 0-1.711.06l-2.399 5.712H4.41a6.493 6.493 0 0 1-1.203-3.783 6.499 6.499 0 0 1 1.916-4.625A6.498 6.498 0 0 1 9.75 1.88a6.499 6.499 0 0 1 4.625 1.916zM16.1 24.024l-9.933-9.933h2.386c.38 0 .723-.227.87-.578l1.852-4.409 3.858 7.615a.943.943 0 0 0 1.66.042l3.184-5.56 1.552 2.452a.944.944 0 0 0 .797.438h3.707L16.1 24.024z" fill="#24bce3" fill-rule="evenodd"/></svg>