<svg xmlns="http://www.w3.org/2000/svg" width="98" height="89.2" viewBox="0 0 98 89.2">
    <g data-name="023-hospital">
        <g data-name="Group 6044">
            <g data-name="Group 6019">
                <path data-name="Path 4957" d="M10.8 34.2h41.7v60.9H10.8z" style="fill:#fff" transform="translate(-2.5 -6.9)"/>
            </g>
            <g data-name="Group 6020">
                <path data-name="Path 4958" d="M52.4 51.4h39.8v43.7H52.4z" style="fill:#fff" transform="translate(-2.5 -6.9)"/>
            </g>
            <g data-name="Group 6021">
                <path data-name="Path 4959" d="M10.8 34.2h41.7v3.3H10.8z" style="fill:#e9f1fe" transform="translate(-2.5 -6.9)"/>
            </g>
            <g data-name="Group 6022">
                <path data-name="Path 4960" d="M52.4 51.4h39.8v3.1H52.4z" style="fill:#e9f1fe" transform="translate(-2.5 -6.9)"/>
            </g>
            <path data-name="Path 4961" d="M8.3 30.2h46.6v4H8.3z" style="fill:#b5d8fe" transform="translate(-2.5 -6.9)"/>
            <path data-name="Path 4962" d="M52.4 47.4h43.5v4H52.4z" style="fill:#b5d8fe" transform="translate(-2.5 -6.9)"/>
            <g data-name="Group 6030">
                <g data-name="Group 6029">
                    <g data-name="Group 6023">
                        <path data-name="Path 4963" d="M37.5 55v8.9a.945.945 0 0 1-1 1h-6.8a1 1 0 0 1-1-1V55a1 1 0 0 1 1-1h6.8a1 1 0 0 1 1 1z" style="fill:#e9f1fe" transform="translate(-2.5 -6.9)"/>
                    </g>
                    <g data-name="Group 6024">
                        <path data-name="Path 4964" d="M49.7 42.2v8.9a1 1 0 0 1-1 1h-6.8a1 1 0 0 1-1-1v-8.9a1 1 0 0 1 1-1h6.8a1 1 0 0 1 1 1z" style="fill:#e9f1fe" transform="translate(-2.5 -6.9)"/>
                    </g>
                    <g data-name="Group 6025">
                        <path data-name="Path 4965" d="M49.7 55v8.9a1 1 0 0 1-1 1h-6.8a1 1 0 0 1-1-1V55a1 1 0 0 1 1-1h6.8a.945.945 0 0 1 1 1z" style="fill:#e9f1fe" transform="translate(-2.5 -6.9)"/>
                    </g>
                    <g data-name="Group 6026">
                        <path data-name="Path 4966" d="M37.5 42.2v8.9a.945.945 0 0 1-1 1h-6.8a1 1 0 0 1-1-1v-8.9a1 1 0 0 1 1-1h6.8a1.075 1.075 0 0 1 1 1z" style="fill:#e9f1fe" transform="translate(-2.5 -6.9)"/>
                    </g>
                    <g data-name="Group 6027">
                        <path data-name="Path 4967" d="M25.2 42.2v8.9a1 1 0 0 1-1 1h-6.8a1 1 0 0 1-1-1v-8.9a1 1 0 0 1 1-1h6.8a1 1 0 0 1 1 1z" style="fill:#e9f1fe" transform="translate(-2.5 -6.9)"/>
                    </g>
                    <g data-name="Group 6028">
                        <path data-name="Path 4968" d="M25.2 55v8.9a1 1 0 0 1-1 1h-6.8a1 1 0 0 1-1-1V55a1 1 0 0 1 1-1h6.8a.945.945 0 0 1 1 1z" style="fill:#e9f1fe" transform="translate(-2.5 -6.9)"/>
                    </g>
                </g>
            </g>
            <g data-name="Group 6037">
                <g data-name="Group 6036">
                    <g data-name="Group 6035">
                        <g data-name="Group 6031">
                            <path data-name="Path 4969" d="M57.2 65.4v-8.7a1.075 1.075 0 0 1 1-1h6.9a1.075 1.075 0 0 1 1 1v8.7a1.075 1.075 0 0 1-1 1h-6.9a1 1 0 0 1-1-1z" style="fill:#e9f1fe" transform="translate(-2.5 -6.9)"/>
                        </g>
                        <g data-name="Group 6032">
                            <path data-name="Path 4970" d="M69 65.4v-8.7a1.075 1.075 0 0 1 1-1h7a1.075 1.075 0 0 1 1 1v8.7a1.075 1.075 0 0 1-1 1h-7a1 1 0 0 1-1-1z" style="fill:#e9f1fe" transform="translate(-2.5 -6.9)"/>
                        </g>
                        <g data-name="Group 6033">
                            <path data-name="Path 4971" d="M89.8 73.4V85a3.116 3.116 0 0 1-3.1 3.1H60.3a3.116 3.116 0 0 1-3.1-3.1V73.4a3.116 3.116 0 0 1 3.1-3.1h26.4a3.254 3.254 0 0 1 3.1 3.1z" style="fill:#e9f1fe" transform="translate(-2.5 -6.9)"/>
                        </g>
                        <g data-name="Group 6034">
                            <path data-name="Path 4972" d="M89.8 56.7v8.7a1.075 1.075 0 0 1-1 1h-6.9a1.075 1.075 0 0 1-1-1v-8.7a1.075 1.075 0 0 1 1-1h6.9a1.075 1.075 0 0 1 1 1z" style="fill:#e9f1fe" transform="translate(-2.5 -6.9)"/>
                        </g>
                    </g>
                </g>
            </g>
            <g data-name="Group 6041">
                <path data-name="Path 4973" d="M21 69h21.2v26.1H21z" style="fill:#cef5ff" transform="translate(-2.5 -6.9)"/>
                <path data-name="Path 4974" d="M87.2 72.4V84a2.112 2.112 0 0 1-2.1 2.1H58.8a2.112 2.112 0 0 1-2.1-2.1V72.4a2.112 2.112 0 0 1 2.1-2.1h26.4a2.165 2.165 0 0 1 2 2.1z" style="fill:#cef5ff" transform="translate(-2.5 -6.9)"/>
                <g data-name="Group 6038">
                    <path data-name="Path 4975" d="M56.7 55.7h6.9v8.7h-6.9z" style="fill:#cef5ff" transform="translate(-2.5 -6.9)"/>
                    <path data-name="Path 4976" d="M68.5 55.7h6.9v8.7h-6.9z" style="fill:#cef5ff" transform="translate(-2.5 -6.9)"/>
                    <path data-name="Path 4977" d="M80.3 55.7h6.9v8.7h-6.9z" style="fill:#cef5ff" transform="translate(-2.5 -6.9)"/>
                </g>
                <g data-name="Group 6039">
                    <path data-name="Path 4978" d="M16 41.3h6.8v8.9H16z" style="fill:#cef5ff" transform="translate(-2.5 -6.9)"/>
                    <path data-name="Path 4979" d="M28.2 41.3H35v8.9h-6.8z" style="fill:#cef5ff" transform="translate(-2.5 -6.9)"/>
                    <path data-name="Path 4980" d="M40.4 41.3h6.8v8.9h-6.8z" style="fill:#cef5ff" transform="translate(-2.5 -6.9)"/>
                    <path data-name="Path 4981" d="M16 54.1h6.8V63H16z" style="fill:#cef5ff" transform="translate(-2.5 -6.9)"/>
                    <path data-name="Path 4982" d="M28.2 54.1H35V63h-6.8z" style="fill:#cef5ff" transform="translate(-2.5 -6.9)"/>
                    <path data-name="Path 4983" d="M40.4 54.1h6.8V63h-6.8z" style="fill:#cef5ff" transform="translate(-2.5 -6.9)"/>
                </g>
                <g data-name="Group 6040">
                    <path data-name="Path 4984" d="M15.4 25h3.8v5.3h-3.8z" style="fill:#b5d8fe" transform="translate(-2.5 -6.9)"/>
                    <path data-name="Path 4985" d="M44.1 25h3.8v5.3h-3.8z" style="fill:#b5d8fe" transform="translate(-2.5 -6.9)"/>
                </g>
            </g>
            <path data-name="Path 4986" d="M52.1 9.9V23a2.006 2.006 0 0 1-2 2h-37a2.006 2.006 0 0 1-2-2V9.9a2.006 2.006 0 0 1 2-2h37a2.006 2.006 0 0 1 2 2z" style="fill:#fff" transform="translate(-2.5 -6.9)"/>
            <g data-name="Group 6043">
                <g data-name="Group 6042">
                    <path data-name="Path 4988" d="M93.2 94.2v-3a1 1 0 0 0-2 0v2.9H53.4V52.4h37.8v34.9a1 1 0 0 0 2 0V52.4H96a.945.945 0 0 0 1-1v-4a.945.945 0 0 0-1-1H53.4V35.2h1.5a.945.945 0 0 0 1-1v-4a.945.945 0 0 0-1-1h-6.1V26h1.3a3.009 3.009 0 0 0 3-3V9.9a3.009 3.009 0 0 0-3-3h-37a3.009 3.009 0 0 0-3 3V23a3.009 3.009 0 0 0 3 3h1.3v3.3H8.3a.945.945 0 0 0-1 1v4a.945.945 0 0 0 1 1h1.4v5.5a.945.945 0 0 0 1 1 .945.945 0 0 0 1-1v-5.5h39.7v58.9h-8.2V69a.945.945 0 0 0-1-1H21a.945.945 0 0 0-1 1v25.1h-8.2V45.8a.945.945 0 0 0-1-1 .945.945 0 0 0-1 1v48.3h-.5a1 1 0 0 0 0 2h83.6a.945.945 0 0 0 1-1c.1-.4-.3-.8-.7-.9zm-46.4-65H45V26h1.8zm-26.6 0V26H43v3.3zM12.1 23V9.9a1 1 0 0 1 1-1h37a1 1 0 0 1 1 1V23a1 1 0 0 1-1 1h-37a1.075 1.075 0 0 1-1-1zm4.3 3h1.8v3.3h-1.8zm-7.1 7.2v-2h44.6v2H9.3zM95 48.4v2H53.5v-2zM22 70h8.6v24.1H22zm10.6 24.1V70h8.6v24.1z" style="fill:#24bce3" transform="translate(-2.5 -6.9)"/>
                    <path data-name="Path 4989" d="M5.1 94.1H3.5a1 1 0 0 0 0 2h1.6a1 1 0 0 0 0-2z" style="fill:#24bce3" transform="translate(-2.5 -6.9)"/>
                    <path data-name="Path 4990" d="M99.5 94.1h-2.6a1 1 0 0 0 0 2h2.6a.945.945 0 0 0 1-1 1 1 0 0 0-1-1z" style="fill:#24bce3" transform="translate(-2.5 -6.9)"/>
                    <path data-name="Path 4991" d="M55.7 84a3.116 3.116 0 0 0 3.1 3.1h26.4a3.116 3.116 0 0 0 3.1-3.1V72.4a3.116 3.116 0 0 0-3.1-3.1H58.8a3.116 3.116 0 0 0-3.1 3.1zm2-11.6a1.11 1.11 0 0 1 1.1-1.1h26.4a1.11 1.11 0 0 1 1.1 1.1V84a1.11 1.11 0 0 1-1.1 1.1H58.8a1.11 1.11 0 0 1-1.1-1.1z" style="fill:#24bce3" transform="translate(-2.5 -6.9)"/>
                    <path data-name="Path 4992" d="M63.6 65.4a.945.945 0 0 0 1-1v-8.7a.945.945 0 0 0-1-1h-6.9a.945.945 0 0 0-1 1v8.7a.945.945 0 0 0 1 1zm-5.9-8.7h4.9v6.7h-4.9z" style="fill:#24bce3" transform="translate(-2.5 -6.9)"/>
                    <path data-name="Path 4993" d="M75.4 65.4a.945.945 0 0 0 1-1v-8.7a.945.945 0 0 0-1-1h-6.9a.945.945 0 0 0-1 1v8.7a.945.945 0 0 0 1 1zm-5.9-8.7h4.9v6.7h-4.9z" style="fill:#24bce3" transform="translate(-2.5 -6.9)"/>
                    <path data-name="Path 4994" d="M88.2 55.7a.945.945 0 0 0-1-1h-6.9a.945.945 0 0 0-1 1v8.7a.945.945 0 0 0 1 1h6.9a.945.945 0 0 0 1-1zm-2 7.7h-4.9v-6.7h4.9z" style="fill:#24bce3" transform="translate(-2.5 -6.9)"/>
                    <path data-name="Path 4995" d="M16 51.3h6.8a.945.945 0 0 0 1-1v-8.9a.945.945 0 0 0-1-1H16a.945.945 0 0 0-1 1v8.9a1 1 0 0 0 1 1zm1-9h4.8v6.9H17z" style="fill:#24bce3" transform="translate(-2.5 -6.9)"/>
                    <path data-name="Path 4996" d="M28.2 51.3H35a.945.945 0 0 0 1-1v-8.9a.945.945 0 0 0-1-1h-6.8a.945.945 0 0 0-1 1v8.9a1 1 0 0 0 1 1zm1-9H34v6.9h-4.8z" style="fill:#24bce3" transform="translate(-2.5 -6.9)"/>
                    <path data-name="Path 4997" d="M40.4 51.3h6.8a.945.945 0 0 0 1-1v-8.9a.945.945 0 0 0-1-1h-6.8a.945.945 0 0 0-1 1v8.9a1.075 1.075 0 0 0 1 1zm1-9h4.8v6.9h-4.8z" style="fill:#24bce3" transform="translate(-2.5 -6.9)"/>
                    <path data-name="Path 4998" d="M15 63a.945.945 0 0 0 1 1h6.8a.945.945 0 0 0 1-1v-8.9a.945.945 0 0 0-1-1H16a.945.945 0 0 0-1 1zm2-7.9h4.8V62H17z" style="fill:#24bce3" transform="translate(-2.5 -6.9)"/>
                    <path data-name="Path 4999" d="M27.2 63a.945.945 0 0 0 1 1H35a.945.945 0 0 0 1-1v-8.9a.945.945 0 0 0-1-1h-6.8a.945.945 0 0 0-1 1zm2-7.9H34V62h-4.8z" style="fill:#24bce3" transform="translate(-2.5 -6.9)"/>
                    <path data-name="Path 5000" d="M39.4 63a.945.945 0 0 0 1 1h6.8a.945.945 0 0 0 1-1v-8.9a.945.945 0 0 0-1-1h-6.8a.945.945 0 0 0-1 1zm2-7.9h4.8V62h-4.8z" style="fill:#24bce3" transform="translate(-2.5 -6.9)"/>
                </g>
            </g>
        </g>
    </g>
</svg>
