<svg xmlns="http://www.w3.org/2000/svg" width="27.482" height="27.483" viewBox="0 0 27.482 27.483">
    <path data-name="Path 4817" d="M45.748 32a13.741 13.741 0 1 1-.014 0z" transform="translate(-32 -32)" style="fill-rule:evenodd;fill:#fbfbfb"/>
    <path data-name="Path 4818" d="M58.919 343.33a13.747 13.747 0 0 1-12.825-8.93h25.752a13.747 13.747 0 0 1-12.825 8.932z" transform="translate(-45.229 -315.847)" style="fill:#32ab45;fill-rule:evenodd"/>
    <path data-name="Path 4819" d="M58.977 32a13.747 13.747 0 0 1 12.869 8.932H46.094A13.747 13.747 0 0 1 58.963 32z" transform="translate(-45.229 -32)" style="fill:#1d1d1d;fill-rule:evenodd"/>
    <path data-name="Path 4820" d="M34.185 149.633a13.752 13.752 0 0 1 0-14.875L42.8 142.2z" transform="translate(-32 -128.454)" style="fill:#e92b2b;fill-rule:evenodd"/>
    <path data-name="Path 4821" d="M66.59 217.234 66.211 216l-.375 1.22-.976-.761.371 1.237H64l.981.754-.981.75 1.226.009-.379 1.234.981-.754.367 1.222.387-1.231.992.763-.375-1.22 1.213.009-.987-.77.992-.762H67.2l.382-1.217z" transform="translate(-62.037 -204.713)" style="fill-rule:evenodd;fill:#fbfbfb"/>
</svg>
