<svg width="10.34" height="10" xmlns="http://www.w3.org/2000/svg"><g><path d="M0 4.434v4.444a1.111 1.111 0 1 0 2.222 0V4.434c0-.613-.498-1.11-1.11-1.111C.497 3.323 0 3.821 0 4.434zM8.948 3.336H7.313l.011-.047c.159-.681.153-1.362-.008-1.93a2.355 2.355 0 0 0-.345-.736 1.392 1.392 0 0 0-1.138-.62.78.78 0 0 0-.23.031c-.418.129-.418.629-.418 1.008 0 .164-.008.328-.025.491-.094.842-.508 1.9-2.172 2.367a.282.282 0 0 0-.21.27v4.446c0 .765.621 1.386 1.387 1.387H8.24c.67 0 1.244-.48 1.364-1.14l.708-3.892a1.384 1.384 0 0 0-.3-1.137 1.385 1.385 0 0 0-1.065-.498z" fill="#24bce3" fill-rule="evenodd"/></g></svg>