<svg height="18" viewBox="0 0 18 18" width="18" xmlns="http://www.w3.org/2000/svg"><circle cx="9" cy="9" fill="#0b69c7" r="9"/><g fill="#fff"><path d="m40.74 39.249a1.25 1.25 0 1 1 -1.249-1.249 1.25 1.25 0 0 1 1.249 1.249z" transform="translate(-33.815 -33.634)"/><path d="m0 0h1.934v6.133h-1.934z" transform="translate(4.71 7.385)"/><path d="m69.894 65.589v2.67a.284.284 0 0 1 -.284.284h-1.41a.284.284 0 0 1 -.284-.284v-2.586c0-.387.112-1.686-1.009-1.686-.869 0-1.046.894-1.084 1.295v2.984a.284.284 0 0 1 -.282.278h-1.367a.283.283 0 0 1 -.284-.284v-5.56a.284.284 0 0 1 .284-.285h1.366a.285.285 0 0 1 .29.285v.482a1.942 1.942 0 0 1 1.822-.857c2.255-.006 2.242 2.105 2.242 3.264z" transform="translate(-56.376 -55.025)"/></g></svg>