<svg height="18" viewBox="0 0 18 18" width="18" xmlns="http://www.w3.org/2000/svg"><path d="m19.0290973 30.999554h-3.7317766v-12.0173812h3.7317766zm-1.8678972-13.6566629c-1.1933007 0-2.1612001-.9883904-2.1612001-2.1816911 0-1.1935978.9676022-2.1612 2.1612001-2.1612 1.1935978 0 2.1612.9676022 2.1612 2.1612 0 1.1933007-.9683012 2.1816911-2.1612 2.1816911zm15.8347379 13.6566629h-3.7237409v-5.8499856c0-1.394193-.0281249-3.1821351-1.9402184-3.1821351-1.9402185 0-2.2375392 1.5147284-2.2375392 3.0816889v5.9504318h-3.7277587v-12.0173812h3.5790984v1.6392817h.052232c.498213-.9441941 1.715219-1.9406203 3.5308842-1.9406203 3.7767764 0 4.4710604 2.4870475 4.4710604 5.7173967v6.6013231z" fill="#202a4d" fill-rule="evenodd" transform="translate(-15 -13)"/></svg>