<svg width="20.78" height="28.76" xmlns="http://www.w3.org/2000/svg"><g><g><path d="M16.288 3.37V1.685h-3.514A2.532 2.532 0 0 0 10.39 0a2.532 2.532 0 0 0-2.384 1.685H4.493V3.37H0v25.387h20.781V3.37h-4.493zm2.808 23.702H1.685V5.055h2.808V6.74h11.795V5.055h2.808v22.017zM6.178 3.37h3.37v-.843a.843.843 0 0 1 1.685 0v.843h3.37v1.685H6.178V3.37z" fill="#24bce3" fill-rule="evenodd" style="stroke:none;stroke-width:0;stroke-dasharray:none;stroke-linecap:butt;stroke-dashoffset:0;stroke-linejoin:miter;stroke-miterlimit:4;fill:#24bce3;fill-rule:evenodd;opacity:1"/></g><g><path d="M7.827 11.264l-2.212 2.213-1.09-1.09-1.191 1.192 2.28 2.28 3.405-3.404-1.192-1.191z" fill="#24bce3" fill-rule="evenodd" style="stroke:none;stroke-width:0;stroke-dasharray:none;stroke-linecap:butt;stroke-dashoffset:0;stroke-linejoin:miter;stroke-miterlimit:4;fill:#24bce3;fill-rule:evenodd;opacity:1"/></g><g><path d="M10.39 12.38h7v2h-7v-2z" fill="#24bce3" fill-rule="evenodd" style="stroke:none;stroke-width:0;stroke-dasharray:none;stroke-linecap:butt;stroke-dashoffset:0;stroke-linejoin:miter;stroke-miterlimit:4;fill:#24bce3;fill-rule:evenodd;opacity:1"/></g><g><path d="M7.827 16.874l-2.212 2.213-1.09-1.09-1.191 1.192 2.28 2.28 3.405-3.404-1.192-1.191z" fill="#24bce3" fill-rule="evenodd" style="stroke:none;stroke-width:0;stroke-dasharray:none;stroke-linecap:butt;stroke-dashoffset:0;stroke-linejoin:miter;stroke-miterlimit:4;fill:#24bce3;fill-rule:evenodd;opacity:1"/></g><g><path d="M10.39 18.38h7v2h-7v-2z" fill="#24bce3" fill-rule="evenodd" style="stroke:none;stroke-width:0;stroke-dasharray:none;stroke-linecap:butt;stroke-dashoffset:0;stroke-linejoin:miter;stroke-miterlimit:4;fill:#24bce3;fill-rule:evenodd;opacity:1"/></g></g></svg>