<svg height="25" width="25" xmlns="http://www.w3.org/2000/svg"><g fill="#fff"><path d="m1.071 6.429a1.075 1.075 0 0 1 -1.071-1.072v-4.286a1.075 1.075 0 0 1 1.071-1.071 1.075 1.075 0 0 1 1.072 1.071v4.286a1.075 1.075 0 0 1 -1.072 1.072" opacity=".65" transform="translate(11.429)"/><path d="m.535 5.71a1.075 1.075 0 0 1 -.392-1.464l2.143-3.711a1.075 1.075 0 0 1 1.463-.392 1.075 1.075 0 0 1 .392 1.464l-2.141 3.711a1.075 1.075 0 0 1 -1.465.392" opacity=".75" transform="translate(15.001 1.532)"/><path d="m.143 3.749a1.075 1.075 0 0 1 .392-1.463l3.711-2.143a1.075 1.075 0 0 1 1.464.392 1.075 1.075 0 0 1 -.392 1.465l-3.712 2.141a1.075 1.075 0 0 1 -1.463-.392" opacity=".9" transform="translate(17.615 5.715)"/><path d="m0 1.071a1.075 1.075 0 0 1 1.071-1.071h4.286a1.075 1.075 0 0 1 1.072 1.071 1.075 1.075 0 0 1 -1.072 1.072h-4.286a1.075 1.075 0 0 1 -1.071-1.072" transform="translate(18.571 11.429)"/><path d="m.143.535a1.075 1.075 0 0 1 1.463-.392l3.712 2.143a1.075 1.075 0 0 1 .392 1.463 1.075 1.075 0 0 1 -1.464.392l-3.711-2.141a1.075 1.075 0 0 1 -.392-1.465" opacity=".2" transform="translate(17.615 15.001)"/><path d="m.535.143a1.075 1.075 0 0 1 1.465.392l2.141 3.711a1.075 1.075 0 0 1 -.392 1.464 1.075 1.075 0 0 1 -1.464-.392l-2.142-3.712a1.075 1.075 0 0 1 .392-1.463" opacity=".25" transform="translate(15.001 17.615)"/><path d="m1.071 0a1.075 1.075 0 0 1 1.072 1.071v4.286a1.075 1.075 0 0 1 -1.072 1.072 1.075 1.075 0 0 1 -1.071-1.072v-4.286a1.075 1.075 0 0 1 1.071-1.071" opacity=".3" transform="translate(11.429 18.571)"/><path d="m3.749.143a1.075 1.075 0 0 1 .392 1.464l-2.141 3.711a1.075 1.075 0 0 1 -1.465.392 1.075 1.075 0 0 1 -.392-1.464l2.143-3.711a1.075 1.075 0 0 1 1.463-.392" opacity=".35" transform="translate(5.715 17.615)"/><path d="m5.71.535a1.075 1.075 0 0 1 -.392 1.465l-3.712 2.141a1.075 1.075 0 0 1 -1.463-.392 1.075 1.075 0 0 1 .392-1.463l3.711-2.143a1.075 1.075 0 0 1 1.464.392" opacity=".4" transform="translate(1.532 15.001)"/><path d="m6.429 1.071a1.075 1.075 0 0 1 -1.072 1.072h-4.286a1.075 1.075 0 0 1 -1.071-1.072 1.075 1.075 0 0 1 1.071-1.071h4.286a1.075 1.075 0 0 1 1.072 1.071" opacity=".45" transform="translate(0 11.429)"/><path d="m5.71 3.749a1.075 1.075 0 0 1 -1.464.392l-3.711-2.141a1.075 1.075 0 0 1 -.392-1.465 1.075 1.075 0 0 1 1.463-.392l3.712 2.143a1.075 1.075 0 0 1 .392 1.463" opacity=".5" transform="translate(1.532 5.715)"/><path d="m3.749 5.71a1.075 1.075 0 0 1 -1.464-.392l-2.142-3.712a1.075 1.075 0 0 1 .392-1.463 1.075 1.075 0 0 1 1.465.392l2.141 3.711a1.075 1.075 0 0 1 -.392 1.464" opacity=".55" transform="translate(5.715 1.532)"/></g></svg>