<svg height="16" viewBox="0 0 13 16" width="13" xmlns="http://www.w3.org/2000/svg"><path d="m5.38510775.00339176c-1.63082542.05860875-3.15446357.82746521-4.17045367 2.10448934-1.01599011 1.27702414-1.42271358 2.93448891-1.11327049 4.53675964s.00836429.06022291.03763932.17481373c.08639535.38155983.21254906.75301242.3763932 1.10826888 1.0873826 2.33735575 2.71771541 4.38093565 4.75510082 5.96039545.17966998.1491749.44012416.1491749.61979414 0 2.04038874-1.5784519 3.67317176-3.6225138 4.76179223-5.96123188.1655451-.35457526.2917618-.72621351.3763932-1.10826888.0259293-.11208153.0376393-.17481373.0376393-.17481373.3216216-1.67030828-.1351533-3.39616-1.24093635-4.68868233-1.10578306-1.29252234-2.74013133-2.01093248-4.4400917-1.95173022zm.19823375 8.36429356c-1.49809467 0-2.71254036-1.21444582-2.71254036-2.71254049s1.21444569-2.71254036 2.71254036-2.71254036c1.49809468 0 2.71254049 1.21444569 2.71254049 2.71254036.00022183.71947845-.28549158 1.40955268-.79423969 1.91830079-.50874812.50874812-1.19882234.79446153-1.9183008.7942397z" fill="none" stroke="#23bde3" stroke-width="1.1" transform="translate(1 1)"/></svg>