<svg height="51.01" width="179.656" xmlns="http://www.w3.org/2000/svg"><g fill="#fff"><path d="m84.677 28.265-8.575-12.217 4.913-5.337c.68-.742 1.2-1.33 1.594-1.8a12.4 12.4 0 0 0 1.029-1.381 5.723 5.723 0 0 0 .58-1.164 3.8 3.8 0 0 0 .2-1.2 3.641 3.641 0 0 0 -1-2.556 3.752 3.752 0 0 0 -2.833-1.1 5.258 5.258 0 0 0 -2.937 1.04 18.692 18.692 0 0 0 -3.252 3.139l-5.623 6.437c0-.7-.019-1.393-.043-2.075l-.087-2.424c-.03-.83-.075-1.785-.133-2.84a5.144 5.144 0 0 0 -1.4-3.733 4.112 4.112 0 0 0 -2.687-.985 3.5 3.5 0 0 0 -2.995 1.6 7.005 7.005 0 0 0 -.969 2.935 33.076 33.076 0 0 0 -.261 3.858 285.187 285.187 0 0 0 -.044 5.351v5.134c0 1.506.015 2.955.044 4.306.028 1.226.05 2.454.066 3.653.014 1.148.052 2.279.111 3.358a5.456 5.456 0 0 0 1.2 3.7 3.849 3.849 0 0 0 2.845 1.2 5.991 5.991 0 0 0 1.182-.107 3.166 3.166 0 0 0 1.79-1.075 4.25 4.25 0 0 0 .852-1.7 9.735 9.735 0 0 0 .269-2.083c.058-1.221.1-2.412.132-3.528q.032-1.264.066-2.527l1.4-1.531 6.774 10.019a7.137 7.137 0 0 0 1.9 2.042 4.9 4.9 0 0 0 2.853.884 3.984 3.984 0 0 0 3.224-1.3 4.2 4.2 0 0 0 .957-2.745 4.988 4.988 0 0 0 -.332-1.752 6.4 6.4 0 0 0 -.81-1.496z"/><path d="m177.159 25.448a3.734 3.734 0 0 0 -2.647-1 4.564 4.564 0 0 0 -2.362.7c-.41.246-.9.523-1.462.823a10.234 10.234 0 0 1 -1.787.717 8.741 8.741 0 0 1 -2.515.3 5.589 5.589 0 0 1 -2.272-.5 5.8 5.8 0 0 1 -2.036-1.517 8.524 8.524 0 0 1 -1.574-2.819 13.207 13.207 0 0 1 -.641-4.4 12.563 12.563 0 0 1 .554-3.811 10.1 10.1 0 0 1 1.454-2.941 6.21 6.21 0 0 1 1.957-1.772 4.213 4.213 0 0 1 2.121-.577 9.728 9.728 0 0 1 2.172.182 9.02 9.02 0 0 1 1.389.436l1.291.547a5.457 5.457 0 0 0 2.139.408 3.894 3.894 0 0 0 2.815-1.147 4.133 4.133 0 0 0 1.148-3.034 4.362 4.362 0 0 0 -1.431-3.229 8.679 8.679 0 0 0 -2.57-1.633 13.672 13.672 0 0 0 -3.131-.885 20.258 20.258 0 0 0 -3.251-.269 15.039 15.039 0 0 0 -6.126 1.275 14.77 14.77 0 0 0 -5.05 3.694 17.368 17.368 0 0 0 -3.343 5.744 22.086 22.086 0 0 0 -1.2 7.493 19.581 19.581 0 0 0 1.339 7.473 16.558 16.558 0 0 0 3.543 5.457 14.837 14.837 0 0 0 5.046 3.335 15.323 15.323 0 0 0 5.656 1.111 18.431 18.431 0 0 0 4.547-.525 15.036 15.036 0 0 0 3.59-1.383 8.342 8.342 0 0 0 2.626-2.192 5.017 5.017 0 0 0 1.108-3.052 3.971 3.971 0 0 0 -1.097-3.009z"/><path d="m144.672 4.579a13.888 13.888 0 0 0 -4.974-3.4 16.528 16.528 0 0 0 -12.522.243 13.619 13.619 0 0 0 -4.936 3.853 16.558 16.558 0 0 0 -2.914 5.708 24.507 24.507 0 0 0 -.939 6.938 22.468 22.468 0 0 0 1.1 7.241 16.837 16.837 0 0 0 3.085 5.57 13.655 13.655 0 0 0 10.528 4.828 15.98 15.98 0 0 0 7.1-1.507 14.731 14.731 0 0 0 5.071-4.034 16.841 16.841 0 0 0 2.956-5.77 23.549 23.549 0 0 0 .939-6.676 21.863 21.863 0 0 0 -1.177-7.456 15.929 15.929 0 0 0 -3.317-5.538zm-4.134 13.077a14.69 14.69 0 0 1 -.5 3.8 9.106 9.106 0 0 1 -1.411 3.031 6.8 6.8 0 0 1 -2.276 1.989 6.531 6.531 0 0 1 -3.17.721 4.679 4.679 0 0 1 -2.238-.562 5.756 5.756 0 0 1 -1.936-1.69 9.645 9.645 0 0 1 -1.438-2.955 13.8 13.8 0 0 1 -.561-4.07 15.351 15.351 0 0 1 .5-3.971 9.377 9.377 0 0 1 1.363-3.013 6.172 6.172 0 0 1 2.056-1.864 5.564 5.564 0 0 1 2.784-.647 5.828 5.828 0 0 1 2.543.561 6.285 6.285 0 0 1 2.127 1.659 8.792 8.792 0 0 1 1.552 2.87 12.915 12.915 0 0 1 .605 4.141z"/><path d="m113.869 5.908a12.414 12.414 0 0 0 -4.986-4.329 18.1 18.1 0 0 0 -8.16-1.579 17.343 17.343 0 0 0 -5.259.67 8.169 8.169 0 0 0 -3.665 2.243 7.676 7.676 0 0 0 -1.785 3.575 18.511 18.511 0 0 0 -.375 3.854v16.428a14.955 14.955 0 0 0 .365 3.469 6.07 6.07 0 0 0 1.907 3.195 8.222 8.222 0 0 0 3.575 1.718 22.288 22.288 0 0 0 5.107.474 16.6 16.6 0 0 0 7.16-1.451 14.088 14.088 0 0 0 5.057-3.962 16.255 16.255 0 0 0 2.87-5.7 24.163 24.163 0 0 0 .89-6.612 38.419 38.419 0 0 0 -.487-6.106 15.206 15.206 0 0 0 -2.214-5.887zm-15.561 20.511v-16.733c0-.553.148-.664.2-.7a4.923 4.923 0 0 1 2.482-.361 7.742 7.742 0 0 1 3.721.733 5.115 5.115 0 0 1 1.966 1.854 7.874 7.874 0 0 1 .993 2.84 24.035 24.035 0 0 1 .281 3.63 19.1 19.1 0 0 1 -.373 3.773 8.423 8.423 0 0 1 -1.163 2.933 5.673 5.673 0 0 1 -2.067 1.9 7.129 7.129 0 0 1 -3.445.715 5.931 5.931 0 0 1 -2.538-.308.188.188 0 0 1 -.024-.02.779.779 0 0 1 -.034-.256z"/><path d="m53.194 4.579a13.889 13.889 0 0 0 -4.974-3.4 16.529 16.529 0 0 0 -12.522.243 13.621 13.621 0 0 0 -4.936 3.853 16.562 16.562 0 0 0 -2.914 5.708 24.51 24.51 0 0 0 -.939 6.938 22.465 22.465 0 0 0 1.1 7.241 16.833 16.833 0 0 0 3.086 5.57 13.654 13.654 0 0 0 10.528 4.828 15.979 15.979 0 0 0 7.1-1.507 14.729 14.729 0 0 0 5.071-4.034 16.84 16.84 0 0 0 2.956-5.77 23.55 23.55 0 0 0 .939-6.676 21.863 21.863 0 0 0 -1.177-7.456 15.925 15.925 0 0 0 -3.318-5.538zm-4.134 13.077a14.694 14.694 0 0 1 -.5 3.8 9.108 9.108 0 0 1 -1.411 3.031 6.8 6.8 0 0 1 -2.276 1.989 6.531 6.531 0 0 1 -3.17.721 4.679 4.679 0 0 1 -2.238-.562 5.755 5.755 0 0 1 -1.936-1.69 9.642 9.642 0 0 1 -1.438-2.955 13.8 13.8 0 0 1 -.561-4.07 15.353 15.353 0 0 1 .5-3.971 9.373 9.373 0 0 1 1.363-3.013 6.168 6.168 0 0 1 2.056-1.864 5.564 5.564 0 0 1 2.784-.647 5.828 5.828 0 0 1 2.543.561 6.286 6.286 0 0 1 2.127 1.659 8.79 8.79 0 0 1 1.552 2.87 12.914 12.914 0 0 1 .605 4.141z"/><path d="m23.876 18.256a9.421 9.421 0 0 0 -1.572-1.672 7.049 7.049 0 0 0 .876-1.32 10.361 10.361 0 0 0 1.13-4.772 9.374 9.374 0 0 0 -3.762-7.845c-2.336-1.739-5.617-2.583-10.03-2.583a18.4 18.4 0 0 0 -4.679.487 7.733 7.733 0 0 0 -3.3 1.694 6.083 6.083 0 0 0 -1.764 2.869 16.305 16.305 0 0 0 -.506 2.814c-.061.619-.109 1.369-.14 2.225s-.052 1.766-.066 2.688q-.023 1.419-.044 2.884a200.517 200.517 0 0 0 .044 8.082c.045 1.739.112 3.1.2 4.167v.03a16.732 16.732 0 0 0 .48 2.706 5.677 5.677 0 0 0 1.73 2.8 7.626 7.626 0 0 0 3.164 1.582 17.722 17.722 0 0 0 4.476.464 22.606 22.606 0 0 0 7.123-.985 14.516 14.516 0 0 0 4.883-2.633 9.925 9.925 0 0 0 2.814-3.814 10.762 10.762 0 0 0 .808-4 10.317 10.317 0 0 0 -.467-3.054 9.457 9.457 0 0 0 -1.398-2.814zm-8.191-7.458a1.477 1.477 0 0 1 -.269 1.021 2.905 2.905 0 0 1 -1.15.825 8.818 8.818 0 0 1 -2.2.592 19.359 19.359 0 0 1 -2.775.2h-.451v-4.033a2.658 2.658 0 0 1 .06-.59 2.439 2.439 0 0 1 .484-.174 7.175 7.175 0 0 1 1.785-.167c2.365 0 3.356.5 3.737.8a1.788 1.788 0 0 1 .779 1.529zm-6.843 13.566c0-.414.007-.895.022-1.429.012-.5.032-1.042.059-1.665h2.424a20.593 20.593 0 0 1 2.534.159 6.911 6.911 0 0 1 1.935.512 2.483 2.483 0 0 1 1.015.793 2.241 2.241 0 0 1 .3 1.259 2.366 2.366 0 0 1 -1.124 2.232 9 9 0 0 1 -4.788 1.015 8.805 8.805 0 0 1 -1.837-.147 1.222 1.222 0 0 1 -.335-.111.694.694 0 0 1 -.078-.218 7.184 7.184 0 0 1 -.124-1.5z"/></g><path d="m119.686 51.01a3.192 3.192 0 0 1 -3.181-2.933l-.661-8.145a51.661 51.661 0 0 1 -5.471 2.655c-4.969 2.038-9.062 1.874-13.4 1.7-1.238-.049-2.518-.1-3.856-.1a3.191 3.191 0 1 1 0-6.382c1.465 0 2.81.053 4.11.105 3.931.157 7.037.281 10.719-1.229 2.906-1.192 6.585-3.119 8.254-4.738l.1-.1a3.191 3.191 0 0 1 5.443 1.992l.247 3.039 8.535-15.716a3.191 3.191 0 0 1 6 1.506l.064 12.407a4.042 4.042 0 0 0 .7 2.36c.191.162.759.434 2.413.442h36.762a3.191 3.191 0 1 1 0 6.382h-36.775c-5.921-.026-9.013-2.9-9.468-8.8q-.008-.114-.009-.229v-.1l-7.722 14.215a3.192 3.192 0 0 1 -2.804 1.669z" fill="#fdcd08"/></svg>