<svg xmlns="http://www.w3.org/2000/svg" width="16.62" height="22.908" viewBox="0 0 16.62 22.908">
    <path data-name="Path 6" d="M232.08 819.752a6.081 6.081 0 0 0-1.015-1.079 4.545 4.545 0 0 0 .565-.852 6.687 6.687 0 0 0 .729-3.08 6.05 6.05 0 0 0-2.428-5.063c-1.508-1.122-3.625-1.667-6.473-1.667a11.878 11.878 0 0 0-3.02.314 4.992 4.992 0 0 0-2.128 1.093 3.927 3.927 0 0 0-1.138 1.852 10.524 10.524 0 0 0-.326 1.816c-.04.4-.07.884-.09 1.436s-.034 1.14-.043 1.735l-.028 1.861a127.05 127.05 0 0 0 .028 5.217c.029 1.123.072 2 .131 2.69v.019a10.8 10.8 0 0 0 .31 1.746 3.665 3.665 0 0 0 1.117 1.807 4.924 4.924 0 0 0 2.042 1.021 11.444 11.444 0 0 0 2.889.3 14.591 14.591 0 0 0 4.6-.636 9.367 9.367 0 0 0 3.152-1.7 6.4 6.4 0 0 0 1.816-2.462 6.946 6.946 0 0 0 .521-2.583 6.659 6.659 0 0 0-.3-1.971 6.1 6.1 0 0 0-.911-1.814zm-5.286-4.814a.953.953 0 0 1-.174.659 1.874 1.874 0 0 1-.742.532 5.69 5.69 0 0 1-1.418.382 12.505 12.505 0 0 1-1.791.127h-.291v-2.6a1.718 1.718 0 0 1 .039-.381 1.578 1.578 0 0 1 .313-.112 4.634 4.634 0 0 1 1.152-.108 3.968 3.968 0 0 1 2.412.513 1.154 1.154 0 0 1 .5.988zm-4.417 8.756c0-.267 0-.578.014-.922.008-.321.02-.673.038-1.074h1.565a13.307 13.307 0 0 1 1.635.1 4.463 4.463 0 0 1 1.249.33 1.6 1.6 0 0 1 .655.512 1.447 1.447 0 0 1 .192.812 1.527 1.527 0 0 1-.725 1.441 5.81 5.81 0 0 1-3.09.655 5.7 5.7 0 0 1-1.186-.095.8.8 0 0 1-.216-.072.448.448 0 0 1-.05-.141 4.636 4.636 0 0 1-.08-.97z" transform="translate(-216.67 -808.01)" style="fill:#24bce3"/>
</svg>
