<svg height="61.22" width="215.6" xmlns="http://www.w3.org/2000/svg"><g fill-rule="evenodd"><path d="m101.62 33.921-10.292-14.66 5.896-6.405a81.63 81.63 0 0 0 1.555-1.739c.12-.14.24-.28.358-.42.172-.205.341-.414.506-.625.294-.378.534-.719.729-1.032.099-.16.193-.32.284-.485.184-.336.317-.632.412-.912.156-.465.237-.953.238-1.445a4.37 4.37 0 0 0 -1.197-3.067c-.579-.606-1.632-1.32-3.4-1.32a5.146 5.146 0 0 0 -1.798.338 7.65 7.65 0 0 0 -1.284.628 9.715 9.715 0 0 0 -1.409 1.03 24.483 24.483 0 0 0 -1.906 1.872 53.24 53.24 0 0 0 -1.03 1.146l-6.748 7.725a82.658 82.658 0 0 0 -.052-2.49c-.036-.97-.07-1.94-.104-2.91a147.698 147.698 0 0 0 -.132-2.88l-.028-.527c-.066-1.301-.297-3.148-1.508-4.32a4.935 4.935 0 0 0 -3.4-1.343c-1.492 0-2.768.684-3.594 1.926-.568.849-.949 2.002-1.163 3.522a32.696 32.696 0 0 0 -.259 2.97 60.719 60.719 0 0 0 -.054 1.66 254.867 254.867 0 0 0 -.048 4.216c-.003.735-.005 1.47-.005 2.206v6.16a259.014 259.014 0 0 0 .053 5.168c.033 1.471.06 2.946.08 4.384a95.838 95.838 0 0 0 .133 4.03c.097 1.982.485 3.303 1.25 4.225.061.074.125.146.193.216.901.942 2.083 1.44 3.414 1.44.248 0 .496-.01.743-.032.226-.02.451-.052.674-.096a3.78 3.78 0 0 0 2.148-1.29c.279-.327.509-.692.684-1.085.138-.309.251-.629.338-.956.07-.263.126-.53.167-.798.078-.49.13-1.052.156-1.701a212.666 212.666 0 0 0 .16-4.234c.025-1.012.052-2.023.079-3.033l1.68-1.837 8.13 12.024c.314.496.673.962 1.07 1.394a7.52 7.52 0 0 0 1.205 1.056 5.88 5.88 0 0 0 3.424 1.06c.378.002.756-.028 1.129-.09 1.411-.237 2.256-.9 2.74-1.475a4.983 4.983 0 0 0 1.138-2.944 5.79 5.79 0 0 0 -.219-1.94 6.55 6.55 0 0 0 -.17-.513 7.683 7.683 0 0 0 -.966-1.792zm110.98-3.383a4.233 4.233 0 0 0 -.19-.17c-.556-.468-1.424-.953-2.672-1.024a5.22 5.22 0 0 0 -2.445.46c-.242.107-.477.23-.704.367a33.117 33.117 0 0 1 -1.15.658c-.2.111-.402.221-.605.33-.23.122-.463.234-.702.336a14.63 14.63 0 0 1 -1.442.524c-.287.087-.58.155-.876.203-.325.054-.68.094-1.063.12-.36.023-.72.035-1.08.034-.911 0-1.803-.196-2.726-.6a6.685 6.685 0 0 1 -1.95-1.309 8.436 8.436 0 0 1 -.493-.511 8.276 8.276 0 0 1 -.983-1.383 12.34 12.34 0 0 1 -.906-2 11.982 11.982 0 0 1 -.512-1.988 19.365 19.365 0 0 1 -.257-3.289c-.004-.99.083-1.978.26-2.952a13.654 13.654 0 0 1 1.225-3.643 10.72 10.72 0 0 1 .924-1.508c.682-.923 1.45-1.618 2.35-2.127.475-.273.99-.472 1.526-.587a4.94 4.94 0 0 1 1.019-.105c.21 0 .42.003.629.01.948.026 1.548.114 1.908.193l.069.016c.234.056.468.118.7.185a9.898 9.898 0 0 1 .966.338l.771.327c.242.102.47.2.686.29l.092.04a6.26 6.26 0 0 0 1.795.45c.256.026.514.04.772.04 1.309 0 2.477-.477 3.378-1.378a4.32 4.32 0 0 0 .199-.213c.51-.584 1.039-1.503 1.155-2.867a6.97 6.97 0 0 0 .023-.56 5.235 5.235 0 0 0 -1.716-3.874l-.001-.002a9.577 9.577 0 0 0 -1.792-1.317c-.418-.24-.85-.454-1.293-.642a15.266 15.266 0 0 0 -2.265-.754 18.424 18.424 0 0 0 -1.637-.332 24.25 24.25 0 0 0 -3.758-.299c-2.585 0-5.059.515-7.352 1.53-2.3 1.017-4.338 2.508-6.06 4.433a19.879 19.879 0 0 0 -3.108 4.721 23.694 23.694 0 0 0 -.903 2.172 23.783 23.783 0 0 0 -1.18 4.95c-.173 1.34-.26 2.69-.256 4.042a27.08 27.08 0 0 0 .404 4.774c.25 1.437.654 2.843 1.203 4.194a21.487 21.487 0 0 0 2.279 4.194c.589.84 1.25 1.628 1.974 2.355a17.804 17.804 0 0 0 6.055 4.002c1.7.681 3.49 1.11 5.315 1.27.49.042.98.063 1.472.063 1.07.003 2.139-.064 3.2-.2a19.23 19.23 0 0 0 2.257-.43 20.798 20.798 0 0 0 2.31-.732 15.591 15.591 0 0 0 1.997-.928c.598-.33 1.165-.713 1.697-1.14a8.65 8.65 0 0 0 1.455-1.49c.387-.505.704-1.06.94-1.652.255-.64.387-1.322.389-2.01 0-1.56-.443-2.773-1.317-3.605zm-38.984-25.042a16.667 16.667 0 0 0 -5.969-4.08 18.848 18.848 0 0 0 -7.03-1.336c-2.983 0-5.674.548-7.998 1.628a16.344 16.344 0 0 0 -5.923 4.624 19.206 19.206 0 0 0 -2.91 5.121 22.514 22.514 0 0 0 -.587 1.73c-.748 2.53-1.127 5.33-1.127 8.325a30.4 30.4 0 0 0 .373 4.857c.207 1.302.522 2.584.943 3.832a22.015 22.015 0 0 0 1.923 4.2 18.001 18.001 0 0 0 1.78 2.485 16.44 16.44 0 0 0 5.675 4.304 16.606 16.606 0 0 0 6.96 1.49 21.887 21.887 0 0 0 4.546-.455c1.375-.286 2.71-.74 3.972-1.355a17.678 17.678 0 0 0 6.086-4.84 19.922 19.922 0 0 0 3.238-5.959c.11-.32.214-.642.31-.966a28.19 28.19 0 0 0 1.126-8.011 30.763 30.763 0 0 0 -.333-4.627 22.602 22.602 0 0 0 -1.08-4.321 20.777 20.777 0 0 0 -2.064-4.2 17.14 17.14 0 0 0 -1.911-2.446zm-5.556 20.254a17.63 17.63 0 0 0 .594-4.733 18.168 18.168 0 0 0 -.182-2.481 13.07 13.07 0 0 0 -.546-2.314 12.37 12.37 0 0 0 -.777-1.82 9.067 9.067 0 0 0 -1.298-1.866 7.443 7.443 0 0 0 -2.34-1.75 6.994 6.994 0 0 0 -3.052-.673 8.408 8.408 0 0 0 -1.443.117 5.915 5.915 0 0 0 -1.898.66 7.411 7.411 0 0 0 -2.467 2.237c-.332.471-.622.97-.866 1.492a12.57 12.57 0 0 0 -.77 2.123 16.5 16.5 0 0 0 -.312 1.416 19.355 19.355 0 0 0 -.282 3.349 19.31 19.31 0 0 0 .13 2.267 14.752 14.752 0 0 0 .585 2.748c.207.652.447 1.258.717 1.814.27.563.595 1.1.967 1.602.67.892 1.43 1.555 2.324 2.027a5.616 5.616 0 0 0 2.749.674 9.423 9.423 0 0 0 1.822-.178 6.767 6.767 0 0 0 1.92-.686 8.157 8.157 0 0 0 2.732-2.388c.274-.377.521-.773.74-1.184.409-.78.729-1.602.953-2.453zm-60.494-13.336v19.714c0 1.555.147 2.956.438 4.163.37 1.531 1.14 2.82 2.289 3.834.555.483 1.174.89 1.84 1.206.589.286 1.24.528 1.95.726.165.046.332.09.5.13.646.152 1.3.268 1.96.347.601.074 1.246.13 1.94.166.742.038 1.485.057 2.229.055a23.45 23.45 0 0 0 4.34-.384 17.396 17.396 0 0 0 4.252-1.357c2.442-1.16 4.484-2.76 6.069-4.756a19.197 19.197 0 0 0 3.129-5.825 21.9 21.9 0 0 0 .315-1.015 28.61 28.61 0 0 0 1.051-6.9 31.713 31.713 0 0 0 .017-1.258 46.087 46.087 0 0 0 -.584-7.104 18.672 18.672 0 0 0 -1.842-5.66c-.25-.48-.521-.948-.815-1.402a14.313 14.313 0 0 0 -4.322-4.252 17.64 17.64 0 0 0 -1.66-.944c-2.014-1.006-4.433-1.604-7.348-1.812a34.46 34.46 0 0 0 -2.446-.083c-1.824 0-3.397.134-4.761.406-.524.103-1.04.236-1.55.398a11.64 11.64 0 0 0 -2.28.996 8.622 8.622 0 0 0 -2.118 1.696 9.146 9.146 0 0 0 -2.071 3.98 10.59 10.59 0 0 0 -.071.31c-.174.824-.296 1.66-.364 2.5a25.303 25.303 0 0 0 -.087 2.125zm10.403 19.294v-20.081c0-.57.131-.75.205-.816a.413.413 0 0 1 .067-.047c.155-.086.837-.39 2.736-.41l.206-.002c.56-.002 1.12.027 1.678.087 1.138.126 2.072.392 2.787.793.465.257.9.567 1.294.922.418.38.777.819 1.065 1.303a9.219 9.219 0 0 1 1.06 2.713c.052.23.096.463.132.696a28.652 28.652 0 0 1 .337 4.356c0 1.531-.15 3.055-.448 4.528a10.717 10.717 0 0 1 -.778 2.402c-.18.386-.386.76-.618 1.117a6.746 6.746 0 0 1 -2.285 2.167 6.05 6.05 0 0 1 -1.62.665c-.464.12-.972.206-1.522.255-.394.034-.79.051-1.187.05-.197 0-.393-.002-.59-.007-1.89-.052-2.422-.342-2.454-.361a.24.24 0 0 1 -.03-.024c0-.004-.029-.074-.034-.248zm-54.133-26.212a16.667 16.667 0 0 0 -5.969-4.08 18.847 18.847 0 0 0 -7.03-1.336c-2.983 0-5.674.548-7.998 1.628a16.347 16.347 0 0 0 -5.923 4.624 19.208 19.208 0 0 0 -2.91 5.121 22.52 22.52 0 0 0 -.587 1.73 27.535 27.535 0 0 0 -.993 5.309 33.318 33.318 0 0 0 -.134 3.016 30.39 30.39 0 0 0 .373 4.857c.207 1.302.522 2.584.943 3.832a22.014 22.014 0 0 0 1.923 4.2 17.999 17.999 0 0 0 1.78 2.485c1.6 1.866 3.509 3.314 5.675 4.304 2.16.988 4.502 1.49 6.96 1.49a21.886 21.886 0 0 0 4.546-.455 16.972 16.972 0 0 0 3.972-1.355 17.677 17.677 0 0 0 6.086-4.84 19.922 19.922 0 0 0 3.238-5.959c.11-.32.214-.642.31-.966a28.225 28.225 0 0 0 1.126-8.011 30.765 30.765 0 0 0 -.333-4.627 22.6 22.6 0 0 0 -1.08-4.321c-.953-2.624-2.291-4.86-3.975-6.646zm-4.961 15.698c0 1.549-.2 3.082-.595 4.557-.224.85-.544 1.674-.953 2.453a9.823 9.823 0 0 1 -.74 1.184 8.156 8.156 0 0 1 -2.732 2.388 6.766 6.766 0 0 1 -1.92.686 9.475 9.475 0 0 1 -1.885.179 5.616 5.616 0 0 1 -2.686-.675c-.894-.472-1.654-1.135-2.323-2.027-.712-.949-1.293-2.142-1.726-3.547-.26-.854-.442-1.73-.544-2.617a19.18 19.18 0 0 1 -.13-2.267 19.356 19.356 0 0 1 .282-3.349c.084-.476.188-.949.313-1.416.192-.73.45-1.44.769-2.123a9.871 9.871 0 0 1 .867-1.492 7.406 7.406 0 0 1 2.467-2.238 5.916 5.916 0 0 1 1.897-.659c.477-.08.96-.12 1.444-.117a6.98 6.98 0 0 1 3.051.674 7.444 7.444 0 0 1 2.34 1.75c.072.079.143.16.213.241.419.5.783 1.045 1.085 1.624.307.585.567 1.193.777 1.82.252.753.435 1.528.546 2.314.122.83.183 1.718.183 2.657zm-58.551 12.382.001.018.002.018c.063.64.153 1.276.27 1.908.085.45.186.897.306 1.34a6.813 6.813 0 0 0 2.076 3.36c.871.777 2.025 1.38 3.433 1.796.121.036.243.07.365.102 1.028.273 2.237.443 3.665.516.568.028 1.137.042 1.707.041a35.498 35.498 0 0 0 3.836-.196c1.751-.19 3.327-.52 4.712-.986.99-.329 1.956-.73 2.888-1.2a15.298 15.298 0 0 0 2.606-1.657c.124-.098.246-.2.365-.302 1.565-1.348 2.702-2.889 3.378-4.577.11-.276.212-.555.306-.838a12.596 12.596 0 0 0 .66-4.272 12.417 12.417 0 0 0 -.557-3.358 11.299 11.299 0 0 0 -3.577-5.383 8.455 8.455 0 0 0 1.05-1.584 12.433 12.433 0 0 0 1.357-5.727 12.558 12.558 0 0 0 -.883-4.763 10.847 10.847 0 0 0 -3.633-4.652c-2.109-1.569-4.859-2.532-8.346-2.912a34.065 34.065 0 0 0 -3.69-.188 34.167 34.167 0 0 0 -2.028.056c-.696.042-1.34.106-1.936.194-.556.08-1.108.192-1.651.335-1.507.403-2.753 1.013-3.71 1.815-.083.07-.166.143-.246.218a7.3 7.3 0 0 0 -2.117 3.442 17.543 17.543 0 0 0 -.4 1.805 22.291 22.291 0 0 0 -.207 1.572c-.029.3-.054.6-.075.9a51.732 51.732 0 0 0 -.092 1.77 159.526 159.526 0 0 0 -.08 3.226 2212.79 2212.79 0 0 0 -.052 3.462 216.582 216.582 0 0 0 -.027 3.367 245.062 245.062 0 0 0 .08 6.333c.013.494.028.988.046 1.482a78.245 78.245 0 0 0 .198 3.52zm10.566-8.046h2.727a24.594 24.594 0 0 1 3.04.19c.465.057.925.149 1.376.275.323.09.64.204.947.34a2.933 2.933 0 0 1 1.218.951c.257.343.337.878.353 1.323.002.063.003.125.003.188 0 1.267-.403 2.068-1.349 2.678a6.21 6.21 0 0 1 -1.528.692c-1.03.32-2.303.495-3.804.522a23.14 23.14 0 0 1 -1.02-.006c-.797-.026-1.3-.101-1.598-.166a1.401 1.401 0 0 1 -.401-.133.926.926 0 0 1 -.095-.262c-.062-.286-.138-.8-.147-1.636v-1.243a52.238 52.238 0 0 1 .018-1.449 86.174 86.174 0 0 1 .036-1.209c.011-.331.025-.681.042-1.055zm.262-9.406h-.54v-4.84a3.466 3.466 0 0 1 .02-.394c.011-.105.028-.21.052-.313a3.351 3.351 0 0 1 .681-.234c.338-.08.911-.164 1.834-.175a17.286 17.286 0 0 1 1.26.029c1.975.118 2.929.562 3.362.871l.071.053c.18.137.342.295.485.47.309.387.446.822.446 1.372 0 .81-.234 1.115-.318 1.22a4.346 4.346 0 0 1 -1.385.995c-.456.193-.926.35-1.406.469a12.28 12.28 0 0 1 -1.231.242 23.252 23.252 0 0 1 -3.33.235z" fill="#24bce3"/><path d="m139.813 57.706-.794-9.774a62.192 62.192 0 0 1 -6.566 3.187 28.062 28.062 0 0 1 -4.462 1.418c-2.893.656-5.593.772-8.293.73a139.043 139.043 0 0 1 -3.466-.112 142.6 142.6 0 0 0 -3.328-.105 70.07 70.07 0 0 0 -1.154-.01 3.83 3.83 0 0 1 0-7.659c1.759 0 3.373.065 4.933.127 4.157.165 7.545.3 11.315-.91a20.96 20.96 0 0 0 1.55-.565c3.486-1.43 7.901-3.743 9.904-5.686l.125-.124a3.829 3.829 0 0 1 6.532 2.39l.296 3.647 10.242-18.86a3.832 3.832 0 0 1 4.299-1.887 3.83 3.83 0 0 1 2.896 3.694l.077 14.89c.029.335.07.67.127 1.001.158.92.408 1.576.71 1.832.035.03.073.056.112.08.3.184.992.421 2.569.447l.215.003h44.117a3.83 3.83 0 1 1 0 7.659h-44.134a15.885 15.885 0 0 1 -4.375-.57c-4.273-1.246-6.567-4.546-6.988-9.992a4.208 4.208 0 0 1 -.01-.275l-.001-.121-9.266 17.063a3.831 3.831 0 0 1 -4.157 1.92 3.83 3.83 0 0 1 -3.025-3.438z" fill="#fdcd08"/></g></svg>