<svg height="94.36" width="88.01" xmlns="http://www.w3.org/2000/svg"><g fill-rule="evenodd"><path d="m87.077 32.264-1.69-7.135-13.99 13.99-12.736-3.473-3.473-12.736 13.99-13.989-7.136-1.69a4.099 4.099 0 0 0 -3.84 1.088l-12.333 12.331a4.095 4.095 0 0 0 -1.054 3.972l1.598 5.86a8.183 8.183 0 0 1 -2.109 7.943l-28.995 28.995a13.23 13.23 0 0 0 -1.395-.074 13.043 13.043 0 0 0 -8.906 3.483c-.53.493-1.02 1.027-1.465 1.599-1.813 2.322-2.717 5.165-2.717 8.006a13.036 13.036 0 0 0 2.812 8.137 13.137 13.137 0 0 0 5.49 4.065c4.427 1.733 9.608.965 13.367-2.305a13.039 13.039 0 0 0 4.505-9.887c0-.493-.027-.985-.082-1.475l28.962-28.963a8.184 8.184 0 0 1 7.942-2.11l5.86 1.599a4.099 4.099 0 0 0 3.973-1.055l12.333-12.334a4.094 4.094 0 0 0 1.09-3.842zm-68.536 52.806a6.55 6.55 0 1 1 -9.262-9.263 6.55 6.55 0 0 1 9.262 9.263z" fill="#24bce3"/><g fill="#263238"><path d="m15.01 66.571 28.722-28.722a7.387 7.387 0 0 0 1.898-7.151l-1.598-5.86a4.874 4.874 0 0 1 -.173-1.287c0-1.304.517-2.555 1.438-3.477l12.335-12.335a4.939 4.939 0 0 1 4.606-1.306l7.135 1.693a.824.824 0 0 1 .629.738.817.817 0 0 1 -.238.637l-13.654 13.654 3.226 11.827 11.826 3.226 13.655-13.655a.81.81 0 0 1 .802-.208c.286.08.505.31.573.6l1.692 7.135a5.025 5.025 0 0 1 .134 1.147 4.876 4.876 0 0 1 -1.44 3.46l-12.334 12.334a4.932 4.932 0 0 1 -4.766 1.266l-5.86-1.598a7.352 7.352 0 0 0 -1.932-.258 7.381 7.381 0 0 0 -5.217 2.156l-28.691 28.686c.033.396.05.792.05 1.189a13.835 13.835 0 0 1 -4.07 9.82 13.937 13.937 0 0 1 -10.622 4.054 13.806 13.806 0 0 1 -10.13-5.253c-1.994-2.498-2.993-5.573-2.993-8.648a13.823 13.823 0 0 1 2.892-8.51 13.873 13.873 0 0 1 12.104-5.354zm11.338 11.819 28.962-28.962a9.037 9.037 0 0 1 6.984-2.615c.593.04 1.18.139 1.753.295l5.86 1.598a3.28 3.28 0 0 0 3.178-.843l12.335-12.336a3.25 3.25 0 0 0 .871-3.07l-1.354-5.708-12.953 12.953a.818.818 0 0 1 -.794.212l-12.736-3.474a.815.815 0 0 1 -.575-.575l-3.473-12.735a.825.825 0 0 1 .21-.795l12.954-12.951-5.707-1.355a3.289 3.289 0 0 0 -3.072.87l-12.334 12.336a3.283 3.283 0 0 0 -.844 3.177l1.598 5.862a9.03 9.03 0 0 1 -2.32 8.737l-28.994 28.989a.824.824 0 0 1 -.666.236 12.263 12.263 0 0 0 -11.035 4.696c-3.433 4.402-3.393 10.764.09 15.13a12.18 12.18 0 0 0 9.615 4.656c3.262 0 6.39-1.293 8.701-3.596a12.201 12.201 0 0 0 3.59-8.662c0-.468-.027-.936-.08-1.401a.812.812 0 0 1 .237-.67zm-12.45 9.414h.02a7.343 7.343 0 0 0 5.533-2.498 7.372 7.372 0 0 0 1.713-6.187 7.325 7.325 0 0 0 -2.38-4.212 7.371 7.371 0 0 0 -6.197-1.71 7.329 7.329 0 0 0 -4.202 2.379 7.37 7.37 0 0 0 -1.713 6.186 7.324 7.324 0 0 0 2.38 4.211 7.345 7.345 0 0 0 4.846 1.831zm.02-13.092a5.715 5.715 0 0 0 -5.633 4.683 5.727 5.727 0 0 0 4.605 6.68 5.734 5.734 0 0 0 5.08-1.584 5.698 5.698 0 0 0 1.582-3.008 5.73 5.73 0 0 0 -1.581-5.096 5.714 5.714 0 0 0 -4.053-1.675zm4.63 10.359h.017-.016z"/><path d="m28.377 67.105-1.158-1.158a2.457 2.457 0 0 1 0-3.474l15.05-15.05a2.457 2.457 0 0 1 3.473 0l1.158 1.159c.464.462.719 1.08.719 1.737 0 .655-.255 1.272-.719 1.737l-15.05 15.05a2.444 2.444 0 0 1 -1.736.716 2.453 2.453 0 0 1 -1.737-.717zm15.052-18.525-15.05 15.05a.823.823 0 0 0 0 1.16l1.157 1.157a.82.82 0 0 0 1.158 0l15.05-15.05a.817.817 0 0 0 0-1.158l-1.158-1.159a.813.813 0 0 0 -.578-.24c-.21 0-.419.08-.58.24zm31.237-12.147-12.736-3.473a.818.818 0 0 1 -.574-.575l-3.476-12.735a.825.825 0 0 1 .211-.795l9.36-9.357a.822.822 0 0 1 .794-.21l12.735 3.472c.28.075.5.294.575.575l3.472 12.735a.821.821 0 0 1 -.21.794l-9.36 9.36a.81.81 0 0 1 -.792.21zm-11.853-4.93 11.824 3.226 8.688-8.688-3.225-11.827-11.826-3.224-8.688 8.686 3.227 11.828z"/><path d="m66.544 26.628 8.682-8.684a.819.819 0 0 1 1.158 1.157l-8.682 8.685a.819.819 0 1 1 -1.158-1.158z"/><path d="m75.224 27.786-8.684-8.686a.817.817 0 1 1 1.158-1.157l8.682 8.684a.818.818 0 0 1 -1.158 1.158zm-43.096 18.185-17.34-17.34a.838.838 0 0 0 -.379-.213l-3.606-.903a2.45 2.45 0 0 1 -1.403-.955l-7.527-10.54a2.448 2.448 0 0 1 .262-3.164l4.406-4.405a2.448 2.448 0 0 1 3.166-.261l10.538 7.526c.474.338.813.836.954 1.402l.902 3.607a.813.813 0 0 0 .217.38l17.285 17.285a.819.819 0 0 1 -1.158 1.158l-17.287-17.284a2.452 2.452 0 0 1 -.646-1.141l-.903-3.607a.825.825 0 0 0 -.317-.467l-10.538-7.529a.814.814 0 0 0 -1.055.086l-4.406 4.408a.815.815 0 0 0 -.089 1.054l7.527 10.54a.815.815 0 0 0 .469.318l3.605.902c.432.108.827.33 1.142.645l17.339 17.34a.818.818 0 0 1 -1.158 1.158z"/></g><path d="m58.465 52.051-12.735 12.736c-.64.64-.64 1.677 0 2.315l1.158 1.157a1.635 1.635 0 0 0 2.315 0l.58-.58 23.733 23.736a4.094 4.094 0 0 0 5.79 0l5.79-5.79a4.094 4.094 0 0 0 0-5.79l-23.739-23.73.58-.58a1.632 1.632 0 0 0 0-2.315l-1.157-1.16a1.634 1.634 0 0 0 -2.315 0z" fill="#24bce3"/><path d="m72.94 91.998-23.159-23.155a2.446 2.446 0 0 1 -1.736.696 2.456 2.456 0 0 1 -1.739-.696l-1.157-1.157a2.462 2.462 0 0 1 0-3.473l12.736-12.736a2.45 2.45 0 0 1 1.738-.695 2.456 2.456 0 0 1 1.737.695l1.158 1.158a2.464 2.464 0 0 1 0 3.474l23.155 23.156a4.882 4.882 0 0 1 1.357 2.592 4.915 4.915 0 0 1 -1.357 4.356l-5.789 5.787a4.88 4.88 0 0 1 -3.473 1.438 4.875 4.875 0 0 1 -3.472-1.44zm-22.579-24.892 23.735 23.735a3.275 3.275 0 0 0 4.631 0l5.79-5.788a3.279 3.279 0 0 0 0-4.632l-23.736-23.735a.82.82 0 0 1 0-1.16l.58-.579a.82.82 0 0 0 0-1.158l-1.158-1.157a.815.815 0 0 0 -.577-.231.823.823 0 0 0 -.58.23l-12.736 12.738a.822.822 0 0 0 0 1.158l1.157 1.156a.809.809 0 0 0 .578.233.818.818 0 0 0 .58-.233l.58-.58a.82.82 0 0 1 1.156.004zm9.264-14.705h-.005" fill="#263238"/><path d="m74.1 85.044-17.366-17.367a3.255 3.255 0 0 1 -.96-2.316 3.247 3.247 0 0 1 .96-2.315 3.268 3.268 0 0 1 2.313-.928c.85 0 1.699.31 2.317.928l17.368 17.366a3.279 3.279 0 0 1 0 4.632 3.27 3.27 0 0 1 -2.316.956 3.27 3.27 0 0 1 -2.314-.956zm-16.21-18.527 17.366 17.368a1.641 1.641 0 0 0 2.317 0 1.64 1.64 0 0 0 0-2.317l-17.367-17.366c-.31-.31-.72-.48-1.158-.48-.437 0-.848.17-1.158.48-.308.306-.48.723-.48 1.158 0 .434.173.85.48 1.157zm20.263 17.947h.016zm-23.443-83.064 1.158-1.16a.819.819 0 0 1 1.158 1.157l-1.158 1.159a.815.815 0 0 1 -1.111.043.819.819 0 0 1 -.046-1.2zm-16.212 16.208 13.893-13.893a.82.82 0 0 1 1.382.42.817.817 0 0 1 -.224.738l-13.893 13.893a.808.808 0 0 1 -.578.24.824.824 0 0 1 -.58-.24.818.818 0 0 1 0-1.158zm-10.996 73.519 1.158-1.159a.819.819 0 0 1 1.156 1.158l-1.156 1.159a.823.823 0 0 1 -1.158 0 .817.817 0 0 1 0-1.158zm3.468-3.479 13.893-13.893a.818.818 0 1 1 1.157 1.157l-13.893 13.893a.815.815 0 0 1 -.578.24.821.821 0 0 1 -.58-.24.82.82 0 0 1 0-1.157z" fill="#263238"/></g></svg>