<svg xmlns="http://www.w3.org/2000/svg" width="98" height="95.7" viewBox="0 0 98 95.7">
    <g data-name="007-case">
        <g data-name="Group 6018">
            <path data-name="Path 4940" d="M11.6 85V19.5a4.225 4.225 0 0 1 4.2-4.2h59.7a4.225 4.225 0 0 1 4.2 4.2v74.6a4.225 4.225 0 0 1-4.2 4.2H15.8a4.225 4.225 0 0 1-4.2-4.2v-3.6" style="fill:#cef5ff" transform="translate(-2.5 -3.7)"/>
            <g data-name="Group 5999">
                <g data-name="Group 5998">
                    <path data-name="Path 4941" d="M75.9 26.3v65a3.372 3.372 0 0 1-3.4 3.4H23.1a3.372 3.372 0 0 1-3.4-3.4v-65a3.372 3.372 0 0 1 3.4-3.4h49.4a3.372 3.372 0 0 1 3.4 3.4z" style="fill:#b9e9f5" transform="translate(-2.5 -3.7)"/>
                </g>
            </g>
            <g data-name="Group 6000">
                <path data-name="Path 4942" d="M72.6 24.3v65a2.326 2.326 0 0 1-2.3 2.3H21a2.263 2.263 0 0 1-2.3-2.3v-65A2.326 2.326 0 0 1 21 22h49.4a2.242 2.242 0 0 1 2.2 2.3z" style="fill:#fff" transform="translate(-2.5 -3.7)"/>
            </g>
            <g data-name="Group 6004">
                <g data-name="Group 6003">
                    <g data-name="Group 6002">
                        <g data-name="Group 6001">
                            <path data-name="Path 4943" d="M67.1 28.2a1.231 1.231 0 0 1-1 .5H25.2a1.231 1.231 0 0 1-1-.5 1.376 1.376 0 0 1-.1-1.1 23.651 23.651 0 0 1 3.2-5h36.6a23.651 23.651 0 0 1 3.2 5 1.079 1.079 0 0 1 0 1.1z" style="fill:#c8f4ff" transform="translate(-2.5 -3.7)"/>
                        </g>
                    </g>
                </g>
            </g>
            <g data-name="Group 6007">
                <g data-name="Group 6006">
                    <g data-name="Group 6005">
                        <path data-name="Path 4944" d="M72.6 51.7v25l-.1.2-.1.1c0 .1-.1.1-.1.2a.1.1 0 0 1-.1.1.1.1 0 0 0-.1.1L61.5 84a1.929 1.929 0 0 1-1 .3 2.279 2.279 0 0 1-1.1-.3 1.819 1.819 0 0 1-.8-1.9l2.1-12.4c0-.2.1-.3.2-.5z" style="fill:#e9f1fe" transform="translate(-2.5 -3.7)"/>
                    </g>
                </g>
            </g>
            <g data-name="Group 6010">
                <g data-name="Group 6008">
                    <path data-name="Path 4945" d="M58.4 47.8h36.4v11.8H58.4z" transform="rotate(-56.421 71.94 54.206)" style="fill:#d2f6ff"/>
                </g>
                <path data-name="Path 4946" d="M61.7 65.6 59.6 78a.911.911 0 0 0 1.4.9l10.6-6.8z" style="fill:#b5d8fe" transform="translate(-2.5 -3.7)"/>
                <g data-name="Group 6009">
                    <path data-name="Path 4947" d="M85.7 30.8h4.7v11.8h-4.7z" transform="rotate(-56.421 83.37 37.166)" style="fill:#fff"/>
                </g>
                <path data-name="Path 4948" d="m88 26-3.6 5.5 9.9 6.5 3.6-5.5a2.352 2.352 0 0 0-.7-3.4l-5.7-3.8a2.465 2.465 0 0 0-3.5.7z" style="fill:#d2f6ff" transform="translate(-2.5 -3.7)"/>
            </g>
            <g data-name="Group 6017">
                <g data-name="Group 6013">
                    <g data-name="Group 6011">
                        <path data-name="Path 4949" d="M66.1 24.3H25.2a22.516 22.516 0 0 1 13.8-12v-1a6.647 6.647 0 0 1 11.3-4.7 6.484 6.484 0 0 1 1.9 4.7v1a22.736 22.736 0 0 1 13.9 12z" style="fill:#cef5ff" transform="translate(-2.5 -3.7)"/>
                    </g>
                    <g data-name="Group 6012">
                        <path data-name="Path 4950" d="M5.1 97.3H3.5a1 1 0 0 0 0 2h1.6a1 1 0 0 0 0-2z" style="fill:#24bce3" transform="translate(-2.5 -3.7)"/>
                        <path data-name="Path 4951" d="M99.5 97.3h-2.6a1 1 0 0 0 0 2h2.6a.945.945 0 0 0 1-1 1 1 0 0 0-1-1z" style="fill:#24bce3" transform="translate(-2.5 -3.7)"/>
                        <path data-name="Path 4952" d="M29.4 51.6a.945.945 0 0 0 1-1 6.9 6.9 0 1 1 13.8 0 1 1 0 1 0 2 0 8.9 8.9 0 0 0-5.4-8.2 5.787 5.787 0 0 0 2.2-4.5 5.7 5.7 0 0 0-5.7-5.7 5.763 5.763 0 0 0-5.7 5.7 5.637 5.637 0 0 0 2.2 4.5 8.9 8.9 0 0 0-5.4 8.2 1 1 0 0 0 1 1zm4.2-13.7a3.7 3.7 0 1 1 3.7 3.7 3.691 3.691 0 0 1-3.7-3.7z" style="fill:#24bce3" transform="translate(-2.5 -3.7)"/>
                        <path data-name="Path 4953" d="M28.1 61h29.6a1 1 0 0 0 0-2H28.1a.945.945 0 0 0-1 1 1 1 0 0 0 1 1z" style="fill:#24bce3" transform="translate(-2.5 -3.7)"/>
                        <path data-name="Path 4954" d="M28.1 70.5h25.4a1 1 0 0 0 0-2H28.1a.945.945 0 0 0-1 1 1 1 0 0 0 1 1z" style="fill:#24bce3" transform="translate(-2.5 -3.7)"/>
                        <path data-name="Path 4955" d="M97.8 28.3 92 24.4a3.457 3.457 0 0 0-4.8 1c-.1.1-6.5 9.9-6.5 9.8V19.5a5.164 5.164 0 0 0-5.2-5.2H58.8a21.644 21.644 0 0 0-5.5-2.7v-.3a7.553 7.553 0 0 0-2.2-5.4 7.727 7.727 0 0 0-5.4-2.2 7.6 7.6 0 0 0-7.6 7.6v.3a25.56 25.56 0 0 0-5.5 2.7H15.8a5.164 5.164 0 0 0-5.2 5.2V85a1 1 0 0 0 2 0V19.5a3.159 3.159 0 0 1 3.2-3.2H30a27.312 27.312 0 0 0-4.1 4.8H21a3.329 3.329 0 0 0-3.3 3.3v65a3.329 3.329 0 0 0 3.3 3.3h49.4a3.329 3.329 0 0 0 3.3-3.3V71l5.1-7.7v30.9a3.159 3.159 0 0 1-3.2 3.2H15.8a3.159 3.159 0 0 1-3.2-3.2v-3.6a1 1 0 0 0-2 0v3.6a5.167 5.167 0 0 0 1.1 3.2H9.3a1 1 0 0 0 0 2H93a1 1 0 0 0 0-2H79.6a5.167 5.167 0 0 0 1.1-3.2v-34c10.8-16.3 5.7-8.5 18-27.1a3.41 3.41 0 0 0-.9-4.8zM39.3 13.2a.993.993 0 0 0 .7-1v-1a5.587 5.587 0 0 1 9.6-3.9 5.2 5.2 0 0 1 1.6 4v1a1.2 1.2 0 0 0 .7 1 21.9 21.9 0 0 1 11 7.8 13.735 13.735 0 0 1 1.3 2c.1.1.1.2.2.3H26.8c0-.1.1-.2.2-.3a21.764 21.764 0 0 1 12.3-9.9zm32.3 76.1a1.324 1.324 0 0 1-1.3 1.3H20.9a1.324 1.324 0 0 1-1.3-1.3v-65a1.324 1.324 0 0 1 1.3-1.3h3.8a3.552 3.552 0 0 0-.4.9 1.183 1.183 0 0 0 .1 1 1.02 1.02 0 0 0 .8.5h40.9a.891.891 0 0 0 .8-.5 1.183 1.183 0 0 0 .1-1 5.938 5.938 0 0 0-.4-.8h3.8a1.324 1.324 0 0 1 1.3 1.3V29a1 1 0 1 0 2 0v-4.7a3.329 3.329 0 0 0-3.3-3.3h-4.9a20.876 20.876 0 0 0-4.1-4.8h14.2a3.159 3.159 0 0 1 3.2 3.2v18.7l-5.1 7.7V33.2a1 1 0 0 0-2 0v15.7L60.9 65c-.1.1-.1.1-.1.2-.1.1.1-.7-2.2 12.6v.2H28.1a1 1 0 0 0 0 2H64a.945.945 0 0 0 1-1 1.077 1.077 0 0 0-.8-1l7.5-4.8zM60.6 78l1.8-10.7 7.3 4.8zm11-7.6-.3.4-8.2-5.4c4.8-7.2 10.2-15.3 19-28.6l8.2 5.5c-.1 0-14 21-18.7 28.1zm19.8-29.9c-.1-.1-8.7-5.8-8.2-5.4l1.5-2.2 8.2 5.4zm5.7-8.5L94 36.6l-8.2-5.5 3.1-4.6a1.381 1.381 0 0 1 2-.4l5.7 3.8a1.488 1.488 0 0 1 .5 2.1z" style="fill:#24bce3" transform="translate(-2.5 -3.7)"/>
                    </g>
                </g>
                <g data-name="Group 6016">
                    <g data-name="Group 6014" transform="translate(-2.5 -3.7)">
                        <circle data-name="Ellipse 1422" cx="2.5" cy="2.5" r="2.5" transform="translate(43.1 12)" style="fill:#fff"/>
                    </g>
                    <g data-name="Group 6015">
                        <path data-name="Path 4956" d="M45.6 18a3.5 3.5 0 1 1 3.5-3.5 3.417 3.417 0 0 1-3.5 3.5zm0-5.1a1.5 1.5 0 1 0 1.5 1.5 1.415 1.415 0 0 0-1.5-1.5z" style="fill:#24bce3" transform="translate(-2.5 -3.7)"/>
                    </g>
                </g>
            </g>
        </g>
    </g>
</svg>
