<svg xmlns="http://www.w3.org/2000/svg" width="97.9" height="84.171" viewBox="0 0 97.9 84.171">
    <g data-name="001-ask for help">
        <g data-name="Group 5997" transform="translate(-1.3 -15.629)">
            <g data-name="Group 5993">
                <g data-name="Group 5984">
                    <path data-name="Path 4924" d="M35.8 41.9v10h-2.3a2.8 2.8 0 0 1-2.8-2.8v-4.4a2.8 2.8 0 0 1 2.8-2.8z" style="fill:#cef5ff"/>
                </g>
                <g data-name="Group 5985">
                    <path data-name="Path 4925" d="M70 44.7v4.4a2.8 2.8 0 0 1-2.8 2.8h-2.7v-10h2.7a2.862 2.862 0 0 1 2.8 2.8z" style="fill:#cef5ff"/>
                </g>
                <g data-name="Group 5986">
                    <path data-name="Path 4926" d="M86.9 93.6v4.9H13.4V82.1c0-9.5 7.7-15 17.1-15h11.1c-1.9 22.6 18.5 22.4 17.9 0h10.3c9.4 0 17.1 5.5 17.1 15v5.7" style="fill:#cef5ff"/>
                </g>
                <g data-name="Group 5987">
                    <path data-name="Path 4927" d="M60.8 52.7c-2.8 6.1-2 13.2 0 22.2-7.2 4.4-14 4.2-20.4 0 2.1-8.1 2.5-14.9 0-22.2z" style="fill:#fff"/>
                </g>
                <g data-name="Group 5988">
                    <path data-name="Path 4928" d="M65.3 45c0 11.6-6.7 19.9-14.9 19.9S35.5 56.6 35.5 45s.5-22.2 14.9-23.1c8.2-.5 14.9 11.5 14.9 23.1z" style="fill:#fff"/>
                </g>
                <g data-name="Group 5989">
                    <path data-name="Path 4929" d="M65.1 41.9c6.3-12.2-.8-19.4-.8-19.4-9.2-10-18.5-4.7-21.3-2.7a6.632 6.632 0 0 1-1.9.9c-16 3.7-5.4 21.6-5.4 21.6s-.3-12.7 6.7-14.6c0 0 3.1 4.5 11.5 4.8 0 0 7.1-.8 8.9 3.9z" style="fill:#7addf6"/>
                </g>
                <g data-name="Group 5990">
                    <path data-name="Path 4930" d="M38.5 73.4a32.542 32.542 0 0 0 23.2 0l-7.4 25.1h-7.7z" style="fill:#cef5ff"/>
                </g>
                <g data-name="Group 5991">
                    <path data-name="Path 4931" d="M32.2 67.1h9l5.9 31.4-14.2-21.4 2.9-3.2z" style="fill:#fff"/>
                </g>
                <g data-name="Group 5992">
                    <path data-name="Path 4932" d="M68.7 67.1h-9l-5.9 31.4 14.1-21.4-2.9-3.2z" style="fill:#fff"/>
                </g>
            </g>
            <circle data-name="Ellipse 1420" cx="4.6" cy="4.6" r="4.6" transform="translate(71.6 80.6)" style="fill:#fff"/>
            <g data-name="Group 5995">
                <circle data-name="Ellipse 1421" cx="1.8" cy="1.8" r="1.8" transform="translate(74.4 83.4)" style="fill:#e9f1fe"/>
            </g>
            <g data-name="Group 5996">
                <path data-name="Path 4934" d="M91.7 97.7h-3.8v-4.1a1 1 0 0 0-2 0v3.9H55.6l13.2-19.9a.91.91 0 0 0-.1-1.2l-2.4-2.6 2.6-5 2 2.3a8.361 8.361 0 0 1 1.9 3.6l1.3 5.5a5.3 5.3 0 0 0-2.5 2.2 5.692 5.692 0 0 0-.7 4.2 5.521 5.521 0 0 0 2.5 3.5 5.1 5.1 0 0 0 2.9.8 6.151 6.151 0 0 0 1.3-.1 5.521 5.521 0 0 0 3.5-2.5 5.692 5.692 0 0 0 .7-4.2 5.521 5.521 0 0 0-2.5-3.5 5.287 5.287 0 0 0-3.2-.8l-1.3-5.5a10.722 10.722 0 0 0-2.3-4.5L71 68.2c7.6.4 15 4.7 15 14v5.7a1 1 0 0 0 2 0v-5.7c0-9.4-7.4-16-18.1-16h-9.6a30.245 30.245 0 0 1-.2-4.2 20.411 20.411 0 0 0 5.2-9h2.1a3.8 3.8 0 0 0 3.8-3.8v-4.4a3.8 3.8 0 0 0-3.8-3.8h-.5c5.3-11.8-1.6-19.1-1.6-19.1-10-10.7-20-4.9-22.9-2.9a3.4 3.4 0 0 1-1.5.7c-4.4 1-7.4 3.2-8.8 6.4-2.2 5.2.3 11.7 1.8 14.8h-.4a3.8 3.8 0 0 0-3.8 3.8v4.4a3.8 3.8 0 0 0 3.8 3.8h2.1a20.105 20.105 0 0 0 5.5 9.3c0 1.3 0 2.6-.1 3.9H30.5c-10.7 0-18.1 6.6-18.1 16v15.7H8.1a1 1 0 0 0 0 2h83.6a.945.945 0 0 0 1-1 1.028 1.028 0 0 0-1-1.1zM78.1 82.2a3.558 3.558 0 0 1 1.6 2.2 3.273 3.273 0 0 1-.5 2.7 3.558 3.558 0 0 1-2.2 1.6 3.273 3.273 0 0 1-2.7-.5 3.558 3.558 0 0 1-1.6-2.2 3.273 3.273 0 0 1 .5-2.7 3.558 3.558 0 0 1 2.2-1.6 2.2 2.2 0 0 1 .8-.1 3.881 3.881 0 0 1 1.9.6zM47.9 97.5l-4.1-21.6a34.486 34.486 0 0 0 13.2-.1l-4.1 21.8h-5zM67 68.1l-2.9 5.4a1.073 1.073 0 0 0 .1 1.1l2.4 2.6-11 16.7 4.9-25.8zm2-23.4v4.4a1.793 1.793 0 0 1-1.8 1.8h-1.6a28.1 28.1 0 0 0 .6-5.9 14.769 14.769 0 0 0-.1-2.1h1a1.817 1.817 0 0 1 1.9 1.8zM34 26.9c1.1-2.6 3.6-4.4 7.4-5.3a7.663 7.663 0 0 0 2.3-1c3.2-2.3 11.5-6.6 20 2.6.3.3 5.8 6.1 1.5 16.3L63.7 36c-1.6-4.1-6.3-4.6-8.6-4.6a3.451 3.451 0 0 0-1.2.1c-7.7-.3-10.6-4.2-10.7-4.3a1.11 1.11 0 0 0-1.1-.4c-5 1.3-6.7 7.5-7.2 11.6-1.2-3.2-2.5-7.8-.9-11.5zm.8 24h-1.3a1.793 1.793 0 0 1-1.8-1.8v-4.4a1.793 1.793 0 0 1 1.8-1.8h1V45a23.163 23.163 0 0 0 .4 4.6v1.3zm1.7-5.9v-2.1a1.421 1.421 0 0 0 .2-.6c0-.1-.2-11.2 5.3-13.4 1.2 1.3 4.8 4.4 11.8 4.6h.1c.1 0 6.3-.7 7.8 3.3l2.2 5.4a26.353 26.353 0 0 1 .2 2.8c0 10.8-6 18.9-13.9 18.9-7.8 0-13.7-8.1-13.7-18.9zm13.9 20.9a14.013 14.013 0 0 0 7.7-2.4 37.977 37.977 0 0 0 .5 4.6v.1l-1 5.5a31.514 31.514 0 0 1-14 .2l-.9-4.7a52.369 52.369 0 0 0 .5-5.3 14.089 14.089 0 0 0 7.2 2zm-10 2.2 4.9 25.8-11-16.7 2.4-2.6a.909.909 0 0 0 .1-1.1l-2.9-5.4zm-26 14c0-9.2 7.3-13.5 14.8-14a10.476 10.476 0 0 0-3.6 7A5.83 5.83 0 0 0 20 79l-3.3 9.4a3.65 3.65 0 0 0 .2 2.9 3.159 3.159 0 0 0 1.4 1.4 1.927 1.927 0 0 0 1.5 1.9 2 2 0 0 0 .9-3.9 2.2 2.2 0 0 0-1.4.2 1.167 1.167 0 0 1-.6-.6 1.5 1.5 0 0 1-.1-1.3l3.3-9.4a3.937 3.937 0 0 1 4.5-2.5 3.86 3.86 0 0 1 3 4.2l-1 9.9a1.23 1.23 0 0 1-.7 1.1 1.136 1.136 0 0 1-.8.3 2.151 2.151 0 0 0-1.2-.9 1.933 1.933 0 0 0-2.3 1.5 1.886 1.886 0 0 0 1.5 2.3 1.813 1.813 0 0 0 2-.9 3.655 3.655 0 0 0 3.5-3.2l1-9.9a5.87 5.87 0 0 0-3.8-6.1 8.893 8.893 0 0 1 4.3-6.9l2.8 5.2-2.4 2.6a1.048 1.048 0 0 0-.1 1.2l13.2 19.9h-31V82.1z" style="fill:#24bce3"/>
                <path data-name="Path 4935" d="M3.9 97.7H2.3a1 1 0 0 0 0 2h1.6a1 1 0 0 0 0-2z" style="fill:#24bce3"/>
                <path data-name="Path 4936" d="M98.2 97.7h-2.6a1 1 0 0 0 0 2h2.6a1 1 0 0 0 0-2z" style="fill:#24bce3"/>
            </g>
        </g>
    </g>
</svg>
