<svg height="14" viewBox="0 0 14 14" width="14" xmlns="http://www.w3.org/2000/svg"><path d="m1.20816491 2.61513425c.34742813-.34178414.7839404-.34178414 1.13359563-.00221938.21602904.21084087.42760386.42612049.64140579.63918073l.62136185.62142571c.36524496.36619729.36524496.79231778.0022271 1.1562957-.2605711.26188655-.51891509.52377309-.7839404.77900151-.0690402.0688007-.07572151.12428514-.04008786.20862149.17594117.41724298.42760386.78787902.71044599 1.13410192.57013847.69688454 1.21377136 1.31609088 1.98212204 1.7976958.16480565.10209137.34742813.1775502.51891509.27076406.08685704.04882631.14698883.03329066.21825614-.0399488.2605711-.2663253.52559641-.52821185.79062171-.7900984.34742813-.34400352.7839404-.34400352 1.13359564 0 .42537675.42168173.8507535.84336347 1.27390315 1.26726457.35410945.35510044.35188234.79009844-.0044542 1.14963754-.24052717.2419122-.49664407.4727274-.72380861.7257365-.33183841.370636-.74607965.4904824-1.22267978.4638499-.69262916-.0377294-1.32958074-.2663253-1.94426128-.5637219-1.36521439-.6613745-2.53221658-1.57797743-3.50991498-2.73649251-.72380861-.85667973-1.32067233-1.79103767-1.71264253-2.84302262-.19153089-.50823745-.3273842-1.02979117-.28506923-1.58241618.02672524-.33956476.15367013-.63030322.40533282-.86777662.27170661-.25744779.52782351-.52599247.79507592-.78787902zm5.54397037-.48453182c.79730302.11096888 1.52111163.47050804 2.09347721 1.04088807.48105434.48135832.81605469 1.07319233.97528189 1.72718109l.05141279.24806491-.82180116.13982079c-.10021966-.58147692-.37415338-1.10968877-.79284882-1.52693175-.39394985-.39258322-.88116309-.65540136-1.41784308-.76974954l-.20348821-.0358845zm.10912807-2.13060243c1.32512653.18420834 2.52553527.78122089 3.47428135 1.72667572.8305382.82970576 1.3973031 1.85797357 1.649496 2.99228662l.0564652.285734-.8218012.13982078c-.1848496-1.0763981-.6948562-2.05514359-1.47211532-2.82970635-.7565299-.75185682-1.69902953-1.25031063-2.73991502-1.44823021l-.26222039-.04319149z" fill="none" stroke="#23bde3" stroke-width="1.1" transform="translate(1 1)"/></svg>