<svg height="71.001" viewBox="0 0 72.013 71.001" width="72.013" xmlns="http://www.w3.org/2000/svg"><path d="m69.739 70.675-2.015-10.919a1.127 1.127 0 0 0 -.887-.9l-15.852-3.17a1.128 1.128 0 0 0 -1.018.308l-6.98 6.98c-11.8-5.138-18.138-11.479-23.758-23.779l6.97-6.969a1.127 1.127 0 0 0 .308-1.018l-3.17-15.851a1.127 1.127 0 0 0 -.9-.887l-10.919-2.017a1.128 1.128 0 0 0 -.454.009 14.537 14.537 0 0 0 -7.064 3.903c-3.366 3.363-4.643 8.321-3.7 14.335 1.659 10.546 6.814 25.211 16.31 34.744l.065.067.052.051.017.016c9.531 9.494 24.2 14.649 34.742 16.308a23.934 23.934 0 0 0 3.716.3 14.068 14.068 0 0 0 14.528-11.057 1.132 1.132 0 0 0 .009-.454z" fill="#ffd791" transform="translate(0 -11.191)"/><path d="m19.229 39.366-8.166-26.733a14.537 14.537 0 0 0 -7.063 3.903c-3.366 3.364-4.643 8.321-3.7 14.337 1.659 10.546 6.814 25.211 16.31 34.744l.065.067.052.051.017.016c9.531 9.494 24.2 14.649 34.742 16.308a23.934 23.934 0 0 0 3.716.3 14.068 14.068 0 0 0 14.528-11.059l-26.743-8.155c-11.804-5.138-18.139-11.479-23.758-23.779z" fill="#ffc44f" transform="translate(0 -11.361)"/><path d="m57.488 98.174a23.914 23.914 0 0 1 -3.716-.3c-10.546-1.659-25.211-6.815-34.742-16.308l-.017-.016-.052-.051-.065-.067c-9.496-9.532-14.651-24.201-16.31-34.747-.816-5.19.023-9.591 2.428-12.862-.351.291-.691.6-1.016.922-3.364 3.363-4.641 8.321-3.698 14.338 1.659 10.546 6.814 25.211 16.31 34.744l.065.067.052.051.017.016c9.531 9.494 24.2 14.649 34.742 16.308a23.932 23.932 0 0 0 3.716.3 13.864 13.864 0 0 0 11.978-5.553 14.882 14.882 0 0 1 -9.692 3.158z" fill="#ffb357" transform="translate(0 -29.572)"/><path d="m243.8 3.594c-11.186 0-20.287 7.584-20.287 16.906 0 5.037 2.607 9.7 7.189 12.916l-3.702 8.026a1.127 1.127 0 0 0 1.571 1.458l10.663-5.924a24.343 24.343 0 0 0 4.569.43c11.186 0 20.287-7.584 20.287-16.906s-9.1-16.906-20.29-16.906z" fill="#b0db51" transform="translate(-192.078 -3.594)"/><path d="m230.594 45.851a1.137 1.137 0 0 1 -.211-1.253l3.7-8.026c-4.582-3.22-7.189-7.879-7.189-12.916 0-6.576 4.529-12.287 11.125-15.081-8.379 2.08-14.506 8.557-14.506 16.206 0 5.037 2.607 9.7 7.189 12.916l-3.702 8.025a1.127 1.127 0 0 0 1.571 1.457l2.166-1.2a1.081 1.081 0 0 1 -.143-.128z" fill="#9cc445" transform="translate(-192.079 -7.873)"/><g fill="#f3f1f1"><path d="m349.353 99.756h-4.508a1.127 1.127 0 0 0 -1.127 1.127v12.4a1.127 1.127 0 0 0 1.127 1.127h4.508a1.127 1.127 0 0 0 1.127-1.127v-12.4a1.127 1.127 0 0 0 -1.127-1.127z" transform="translate(-295.375 -86.23)"/><path d="m347.1 43.662a3.381 3.381 0 1 0 3.381 3.381 3.385 3.385 0 0 0 -3.381-3.381z" transform="translate(-295.375 -38.026)"/></g></svg>