<svg height="21" viewBox="0 0 22 21" width="22" xmlns="http://www.w3.org/2000/svg"><path d="m15.1142886 18.5764849c.6079992-.5981222 1.3718957-.5981222 1.9837924-.0038839.3780508.3689715.7483067.7457109 1.1224601 1.1185663.3624611.3650876.7249221.7224074 1.0873832 1.087495.6391787.6408453.6391787 1.3865561.0038974 2.0235175-.4559994.4583014-.9081014.9166029-1.3718957 1.3632526-.1208203.1204012-.1325126.217499-.0701537.3650876.307897.7301752.7483067 1.3787883 1.2432805 1.9846784.9977423 1.2195479 2.1240998 2.303159 3.4687135 3.1459676.2884099.1786599.6079993.3107129.9081015.4738371.1519998.0854461.2572304.0582587.3819482-.0699104.4559994-.4660692.9197937-.9243707 1.383588-1.3826722.6079992-.6020061 1.3718957-.6020061 1.9837924 0 .7444093.7379431 1.4888186 1.4758861 2.2293305 2.217713.6196915.6214257.6157941 1.3826722-.0077949 2.0118658-.4209225.4233462-.8691271.8272729-1.2666651 1.2700388-.5807172.6486131-1.3056393.8583442-2.1396896.8117373-1.212101-.0660265-2.3267663-.4660693-3.4024572-.9865133-2.3891252-1.1574054-4.431379-2.7614605-6.1423512-4.7888619-1.2666651-1.4991895-2.3111766-3.1343159-2.9971244-4.9752896-.3351791-.8894155-.5729224-1.8021345-.4988712-2.7692283.0467692-.5942383.2689227-1.1030306.7093324-1.5186091.4754866-.4505336.9236912-.9204868 1.3913829-1.3787883zm9.7019481-.8479306c1.3952803.1941955 2.6619454.823389 3.6635852 1.8215541.8742237.8747762 1.4728138 1.9580425 1.7375268 3.1551002l.0591888.3015803-1.438152.2446864c-.1753844-1.0175846-.6547684-1.9419554-1.3874854-2.6721306-.7109564-.70849-1.5954838-1.1754764-2.5695257-1.3650597l-.2678041-.0447999zm.1909742-3.7285543c2.3189714.3223646 4.4196867 1.3671366 6.0799923 3.0216825 1.4819408 1.4804554 2.4839986 3.3221548 2.9119434 5.3534819l.0734887.3830542-1.438152.2446864c-.3234868-1.8836967-1.2159985-3.5965013-2.5762019-4.9519862-1.3498867-1.3415484-3.0381081-2.2220807-4.9021987-2.5541697l-.3515382-.0558182z" fill="#202a4d" fill-rule="evenodd" transform="translate(-13 -14)"/></svg>