<svg height="9" transform="rotate(45deg)" viewBox="0 0 9 9" width="9" xmlns="http://www.w3.org/2000/svg"><g fill="#0e0849" opacity=".25" transform=""><path d="m.23545491 7.05862478c-.31393988.31409738-.31393988.82318282 0 1.1372802l.56864011.56864011c.31409738.31393988.82318282.31393988 1.1372802 0l2.55862478-2.55862478-1.70592031-1.70592031zm8.52909018-6.25452976-.56864011-.56864011c-.31409738-.31393988-.82318282-.31393988-1.1372802 0l-2.55862478 2.55862478 1.70592031 1.70592031 2.55862478-2.55862478c.31393988-.31409738.31393988-.82318282 0-1.1372802z"/><path d="m8.76454509 7.05862478c.31393988.31409738.31393988.82318282 0 1.1372802l-.56864011.56864011c-.31409738.31393988-.82318282.31393988-1.1372802 0l-6.82316987-6.82316987c-.31393988-.31409738-.31393988-.82318282 0-1.1372802l.56864011-.56864011c.31409738-.31393988.82318282-.31393988 1.1372802 0z"/></g></svg>