<svg xmlns="http://www.w3.org/2000/svg" width="128.775" height="131.988" viewBox="0 0 128.775 131.988">
    <g data-name="Group 5804">
        <g data-name="Group 5797">
            <g data-name="Group 5794">
                <path data-name="Path 4784" d="M40.134 212.1a2.064 2.064 0 0 1-2.065-2.065v-65.76a2.065 2.065 0 0 1 4.131 0v65.76a2.061 2.061 0 0 1-2.065 2.065z" transform="translate(-23.115 -80.347)" style="fill:#acc4cc"/>
            </g>
            <g data-name="Group 5795">
                <path data-name="Path 4785" d="M257.932 212.1a2.064 2.064 0 0 1-2.065-2.065v-65.76a2.065 2.065 0 1 1 4.131 0v65.76a2.067 2.067 0 0 1-2.065 2.065z" transform="translate(-146.168 -80.347)" style="fill:#acc4cc"/>
            </g>
            <g data-name="Group 5796">
                <path data-name="Path 4786" d="M122.1 72.327a2.055 2.055 0 0 1-1.427-.572L68.088 21.576 15.5 71.755a2.066 2.066 0 0 1-2.921-.066l-8.312-8.716a2.065 2.065 0 0 1 .066-2.921l14.31-13.657V14.686a2.064 2.064 0 0 1 2.065-2.065h17.029a2.064 2.064 0 0 1 2.063 2.065V26.2L66.651.573a2.064 2.064 0 0 1 2.855 0l62.323 59.478a2.064 2.064 0 0 1 .066 2.921l-8.317 8.717a2.067 2.067 0 0 1-1.448.638zM68.088 16.656a2.074 2.074 0 0 1 1.427.572l52.513 50.114 5.462-5.725-59.4-56.69L39.174 32.52a2.07 2.07 0 0 1-3.5-1.493V16.752h-12.89v30.529a2.072 2.072 0 0 1-.638 1.493L8.691 61.616l5.462 5.725 52.514-50.113a2.01 2.01 0 0 1 1.422-.572z" transform="translate(-3.694)" style="fill:#acc4cc"/>
            </g>
        </g>
        <g data-name="Group 5801">
            <g data-name="Group 5798">
                <path data-name="Path 4787" d="M83.707 165.944a2.053 2.053 0 0 1-1.483-.628 18.164 18.164 0 1 1 29.152-21.007 2.066 2.066 0 1 1-3.67 1.9 14.029 14.029 0 1 0-22.52 16.218 2.064 2.064 0 0 1-.04 2.921 2.011 2.011 0 0 1-1.439.6z" transform="translate(-45.154 -75.981)" style="fill:#acc4cc"/>
            </g>
            <g data-name="Group 5799">
                <path data-name="Path 4788" d="M174.836 165.957a2.068 2.068 0 0 1-1.483-3.508 14.03 14.03 0 1 0-22.52-16.223 2.066 2.066 0 1 1-3.67-1.9 18.163 18.163 0 1 1 29.152 21.007 2.044 2.044 0 0 1-1.479.624z" transform="translate(-84.621 -75.994)" style="fill:#acc4cc"/>
            </g>
            <g data-name="Group 5800">
                <path data-name="Path 4789" d="M115.464 224.157a2.066 2.066 0 0 1-1.367-.516l-25.831-22.733a2.066 2.066 0 1 1 2.728-3.1l24.47 21.534 24.465-21.528a2.066 2.066 0 0 1 2.728 3.1l-25.831 22.733a2.066 2.066 0 0 1-1.362.511z" transform="translate(-51.08 -111.465)" style="fill:#acc4cc"/>
            </g>
        </g>
        <g data-name="Group 5802">
            <path data-name="Path 4790" d="M43.838 272.979a26.372 26.372 0 0 1-4.07-.263 2.066 2.066 0 0 1 .688-4.075c.208.035 20.982 3.143 45.664-18.577a2.066 2.066 0 0 1 2.728 3.1c-19.949 17.56-37.378 19.812-45.011 19.812z" transform="translate(-23.103 -140.992)" style="fill:#acc4cc"/>
        </g>
        <g data-name="Group 5803">
            <path data-name="Path 4791" d="M192.674 272.978c-7.628 0-25.062-2.253-45.016-19.813a2.066 2.066 0 0 1 2.728-3.1c24.8 21.827 45.452 18.613 45.659 18.577a2.067 2.067 0 1 1 .693 4.075 25.354 25.354 0 0 1-4.064.261z" transform="translate(-84.635 -140.991)" style="fill:#acc4cc"/>
        </g>
    </g>
</svg>
