<svg height="14" viewBox="0 0 14 14" width="14" xmlns="http://www.w3.org/2000/svg"><path d="m11.5737577.425.426 5.54-5.34499999 5.344c-.888.888-2.307.92-3.233.096l-.101-.096-2.63-2.63c-.888-.888-.92-2.307-.095-3.233l.095-.1 5.345-5.346zm-.627.627-4.65399999-.357-5.126 5.125c-.603.603-.653 1.549-.151 2.209l.075.092.076.08 2.63 2.631c.63.63 1.632.657 2.294.082l.088-.082 5.12599999-5.127-.358-4.654zm-1.60499999 1.606c.565.564.565 1.48 0 2.044-.564.564-1.48.564-2.044 0-.565-.565-.565-1.48 0-2.044.564-.565 1.48-.565 2.044 0zm-.476.476c-.302-.302-.79-.302-1.092 0s-.302.79 0 1.092c.302.301.79.301 1.092 0 .301-.302.301-.79 0-1.092z" fill="#fff" fill-rule="evenodd" stroke="#fff" stroke-width=".3" transform="translate(.999758 .999897)"/></svg>