<svg height="50" viewBox="0 0 52 50" width="52" xmlns="http://www.w3.org/2000/svg" xmlns:xlink="http://www.w3.org/1999/xlink"><defs><linearGradient id="a" x1="-23.930989%" x2="50%" y1="2.252604%" y2="33.34465%"><stop offset="0" stop-color="#f7b222"/><stop offset="1" stop-color="#23bde3"/></linearGradient><path id="b" d="m50.8130569 0c.2875938 0 .3528269.07937135.3528269.35796782-.008357 5.23767781-.0065575 10.47535558-.0045652 15.71303338 0 .1653585-.0189587.3028251-.1498702.4327725-1.4740227 1.4645113-2.9413617 2.9358348-4.4117855 4.403945-.041452.0413878-.0717217.1080967-.1872733.0959503v-12.21891325c-.1586747.01773763-.2089956.12313514-.2812957.19344299-2.9034443 2.82298236-5.8044465 5.64840676-8.7074409 8.47190326-.9042978.8794908-1.8102665 1.7573749-2.7228547 2.6283182-.1517339.144793-.1678006.2311033-.0327761.412914 1.8249836 2.4565975 2.9691892 5.2006602 3.3693785 8.2358514.4022457 3.0515149.2125944 6.062349-.8047486 8.9882224-.8884239 2.5549899-2.340853 4.7553557-4.2589591 6.6574594-1.1898351 1.1798737-2.4896948 2.2128336-3.9367898 3.0607694-2.0896341 1.2244748-4.3394854 1.9807662-6.7313661 2.3328196-1.797606.2645863-3.6030525.3049459-5.4061211.1182509-3.4293393-.3549454-6.5549538-1.5192023-9.33751236-3.5812017-1.88905755-1.3999874-3.53370856-3.0331989-4.8166019-5.0072172-1.56097568-2.4020349-2.42144351-5.0473196-2.66302232-7.9005073-.17332749-2.046961-.08155453-4.0765057.35886567-6.0844568.62930025-2.8693829 1.90139677-5.4284216 3.77612284-7.6850851 2.12902968-2.5627662 4.65728457-4.6042645 7.77512287-5.8539319 1.8324385-.7345692 3.7399406-1.1220979 5.7145372-1.1686913 2.392652-.0565548 4.7569624.1652299 7.0756433.7735149 2.016113.5288513 3.8813276 1.3704247 5.4630614 2.7610291.1538547.1352173.2244839.1134952.3581587-.0161952 1.988414-1.9287102 3.9824835-3.8514435 5.9750748-5.7757835 1.7699712-1.70943193 3.5394283-3.41937798 5.310235-5.12797443.1530835-.14781358.3143931-.28714395.4719109-.43045886l-.0228789-.07377825h-12.2293245c.4739032-.48964855.8985138-.9348245 1.3301937-1.37299536 1.029361-1.04510628 2.06502-2.08397868 3.0901393-3.13319803.1481349-.15173385.2994832-.20488248.5065507-.20468968 5.259143.00462721 10.5182216.00616961 15.7773645-.00308669zm-34.7917821 18.8556806c-3.3761907.7591191-5.9620929 2.6973407-7.91297504 5.4958374-1.49805851 2.1489524-2.13706304 4.5829279-2.12665144 7.4748042.00391989.2956914.02487086.8719716.09562858 1.4453598.21208035 1.7186863.74433777 3.3273479 1.66341691 4.8003424 1.09504156 1.7550613 2.56038829 3.1376967 4.31275039 4.2174428 1.4907964.9186935 3.1190593 1.4711949 4.8478356 1.7380949.214651.0330973.2802031-.0249998.2753188-.2431855-.0129176-.5780154-.01446-1.1567377.0005784-1.7346245.0061054-.234638-.0566833-.3151643-.3033391-.3131077-1.1667633.0097042-2.2571777-.3251899-3.2749063-.8587969-.9408656-.4933761-1.6483785-1.2070586-1.7731846-2.3423311-.032519-.2960128-.1106674-.5885552-.1254487-.8847607-.0485214-.9709424.1967206-1.8446492.8551979-2.5931001.6689529-.7603402 1.5843688-.8914444 2.4936794-.9667651 1.2906054-.1069399 2.4992706.2769256 3.6042735.9071255.8331544.4751243 1.7066042.7652245 2.6393721.9132952.6488374.1030839 1.1981898-.0878527 1.6266563-.5962672.168379-.1998054.1182509-.3463336-.13541-.4038524-.2647149-.0600251-.5105996.0144601-.7488365.1138165-.9174082.38303-1.8443921.273198-2.6454132-.2029545-1.2281381-.729942-1.5126471-1.8594306-1.0316103-3.12163.3241616-.8505065.968436-.9064186 1.5479295-.2044969.226926.2749333.5143913.5028875.8878455.5952389 1.0264047.2540465 2.0593003.1992913 3.0799852.0197942.8062267-.1418368 1.6109109-.1729419 2.4200296-.142608.3823873.0143957.7512143.1354101 1.0785893.3575803.9517909.6460096 1.1701051 1.5994715 1.0433068 2.648241-.1672864 1.384242-.8586041 2.5428434-1.7888014 3.5386571-1.2803227 1.3705532-2.817134 2.4007496-4.530422 3.1643674-.126734.0564905-.2124659.1121455-.2099595.2757687.0091259.5888765.0059768 1.1779457.001928 1.7668864-.0010283.1537904.0320691.2014121.2043683.1622736.8982567-.2039184 1.7712566-.4807154 2.6116089-.8582827 1.2463898-.560085 2.3726008-1.3058366 3.3960492-2.2087848 1.5416956-1.3600777 2.7216978-2.9713743 3.4211131-4.9179506.58682-1.633083.7783349-3.3185434.7044924-5.0452631-.0740353-1.7317967-.4700472-3.3816534-1.2260815-4.939737-.7803272-1.6080832-1.8873866-2.9649476-3.2274131-4.1419293-1.3323788-1.1701695-2.8201546-2.071511-4.5100494-2.6148223-2.3832691-.7661884-4.8057408-.8474216-7.2414516-.2996759zm-2.4626899 7.418725c.2401007.0214008.3566806.2459489.4543661.4509599.2724911.5719743.2802031 1.197997.3641998 1.80821.1131738.8231288.2817455 1.6408593.2397793 2.4668801.0377889.6859836-.0499995 1.3487668-.1834173 2.0070514-.0800764.3953692-.2597663.5503806-.6662537.5337355-.4963323-.020244-.9157372-.1805896-1.2582149-.5863058-.9720992-1.1515963-1.311235-2.5233063-1.5071201-3.9691802-.0908732-.6710736-.0083547-1.2693973.3983897-1.8064747.2799461-.3697268.7428597-.4848286 1.1050029-.7419599.3250614-.230782.6963948-.1947926 1.0532682-.1629163zm5.2425235-2.2254234c.2379156.7600188.1048834 1.5179812.027699 2.2811491-.1388162 1.3721599-.461564 2.7030605-.867987 4.0156451-.1787902.5777583-.4951755 1.0531396-1.08116 1.3018521-.1075183.0456294-.1836744.03374-.2922853-.0138174-.5881052-.2573242-.927241-.7114975-1.1397069-1.3030731-.367606-1.0238983-.4995457-2.0864208-.5792365-3.160897-.0181232-.244278-.045308-.4878491-.0688939-.7378469.0130461-.4553943.1624664-.8753777.3974899-1.2634847.6355342-1.049605 1.6456151-1.528778 2.787957-1.7825033.3453696-.076606.6838627.2402935.8161237.6629761zm6.9807084.9897597c.5446609.542283 1.0526255 1.1135504 1.2530093 1.8920138.0575831.2237769.0547553.4433765.0601537.666575.0330974.9733846-.3704979 1.8253692-.7561628 2.6790247-.1771835.3921559-.2618229.8379745-.6341846 1.1266609-.3021823.2343166-.9628448.2641364-1.2494746.0188301-.4942757-.4231324-.744402-.9663795-.784633-1.6183659-.042159-.683927.2032758-1.3230601.2805887-1.9878998.0813617-.6999295.2622084-1.3808359.4267957-2.0643131.0425446-.1767336.1092535-.3441486.1924147-.5075147.3156784-.6201101.7141324-.7002508 1.2114929-.205011zm-4.6235445-1.8850087c.6087349.1931216 1.2258887.3735827 1.7303186.7868823.5654834.4633635.7616898 1.0796176.6863049 1.7952924-.0748708.7100835-.1282765 1.4242802-.2961413 2.1198395-.2118875.8777556-.4081583 1.7600099-.9419581 2.5242703-.5560361.7962011-1.324731.9760838-2.1137342.4231325-.3967188-.2780181-.593825-.7141324-.7240937-1.1692054-.0670945-.2343167-.0755135-.4850856-.1370811-.7215874-.0635598-.2445993-.01446-.4899056-.0497424-.8169592.1269911-1.3985735.0994207-2.9005523.6179893-4.3287528.2045611-.5634911.6551355-.794723 1.228138-.6129122z"/></defs><g fill="none" fill-rule="evenodd" transform="translate(-.000012 -.000021)"><use fill="#23bde3" xlink:href="#b"/><use fill="url(#a)" xlink:href="#b"/></g></svg>