<svg height="31" viewBox="0 0 40 31" width="40" xmlns="http://www.w3.org/2000/svg" xmlns:xlink="http://www.w3.org/1999/xlink"><defs><linearGradient id="a" x1="-23.930989%" x2="50%" y1="20.93964%" y2="39.863102%"><stop offset="0" stop-color="#f7b222"/><stop offset="1" stop-color="#23bde3"/></linearGradient><path id="b" d="m87.0258749 96.0803342c.289962-.0104303.3383585.1081621.3372112.3634956-.0083442 2.0662401.0088658 4.1326892-.0159583 6.1985112-.0050066.413666.1245376.482297.4995065.479064 2.0400601-.01794 4.080433.00073 6.1204931-.017315.3530653-.003129.4434959.100757.4253472.437134-.0277446.518385-.0237811 1.040004-.0009387 1.558806.0131421.30227-.0738465.396768-.387068.394716-2.0791737-.013906-4.1584517-.005562-6.2376253-.007856-.9222461-.001043-1.8445965-.010118-2.7668426-.015541v-9.3690069c.6753612-.0053194 1.3512438.0021904 2.0258749-.0220079zm36.0607191-.0019296c.505139.030978 1.014658.0260757 1.520423.001043.310927-.0154368.391553.08678.389989.3920746-.011891 2.3922909-.006572 4.7847908-.006467 7.1771858 0 .481045-.0218.963446.007301 1.442822.020652.338254-.105867.406468-.419193.402922-1.443135-.015646-2.886478-.006884-4.329717-.006884-1.430306 0-2.860611-.007302-4.290812.006154-.284851.002607-.38832-.067276-.375699-.366729.023364-.558125.021278-1.11844.00073-1.676774-.010535-.284329.097419-.343469.359219-.342322 2.067283.009075 4.134879-.008448 6.201954.016272.4121.004902.483444-.122243.480002-.498881-.018149-2.028274.00292-4.0568607-.018566-6.0849259-.004068-.3908229.115359-.4843826.480836-.4619575zm-15.975979-18.5997594c5.433242.6791161 9.580429 3.5113566 12.798694 7.830226 1.069 1.4345819 1.92783 2.9929712 2.632292 4.6367847.072699.1694921.12266.320627.037758.5171337-1.896122 4.3858319-4.738585 7.9609175-8.916019 10.3812654-2.65962 1.540867-5.591991 2.301339-9.774745 2.301026-4.0551918-.054237-8.3630052-2.042772-11.9296423-5.7071405-1.9454573-1.9987561-3.4180054-4.3149059-4.5193396-6.8724126-.07854-.18253-.128814-.3451382-.038592-.5538483 1.8179992-4.2047621 4.5161062-7.6790911 8.4578164-10.0925555 3.4585793-2.1175572 7.2290245-2.9432188 11.2517775-2.4404789zm-2.107648 4.5872233c-4.505154-.0092655-8.2039433 3.6880631-8.1967569 8.1935304.0071031 4.4891961 3.6954619 8.1703577 8.1842409 8.1682726 4.489613-.0021913 8.173382-3.6849175 8.177453-8.1752609.004169-4.4896132-3.673655-8.1772417-8.164937-8.1865421zm.037622 2.3095194c3.21837.0107783 5.823543 2.65058 5.818128 5.8953383-.005537 3.2440283-2.642001 5.8545208-5.905847 5.8476504-3.238396-.0068975-5.8464892-2.6500369-5.8373347-5.9159688.0092028-3.2352668 2.6556797-5.8380409 5.9250537-5.8270199zm-.066128 2.3762353c-1.914375.0077465-3.496024 1.6052494-3.482465 3.5172256.013455 1.898834 1.590411 3.4688009 3.488306 3.473086 1.912185.0042678 3.503534-1.5858297 3.501554-3.4983273-.002088-1.9144794-1.594167-3.4996746-3.507395-3.4919843zm.024563 2.3088454c.656378.005528 1.179875.5398717 1.174138 1.1981272-.005841.656691-.539768 1.1798742-1.19844 1.1743462-.655857-.0056324-1.17904-.5398718-1.173825-1.1986488.00532-.6556479.539872-1.179457 1.198127-1.1738246zm-10.9555469-14.0603728c.2774457-.003442.3562987.0853198.34712.3544212-.0184616.5451912-.0274316 1.0925727.0025033 1.6367208.0191917.3477458-.1217215.3976026-.425973.3957252-2.0400601-.0120992-4.080433.0031291-6.1204931-.0147067-.3749689-.0033377-.5046174.0652936-.4995065.4789588.0250327 2.0399558.0012516 4.0804331.0205476 6.1204932.0035463.3705881-.1137944.4585154-.4588283.4425571-.6353089-.0293091-1.2723909-.0177315-1.9088471-.0230509v-9.3690065c1.8579472-.0054237 3.7157902-.0119948 5.5737374-.0157497 1.1566147-.002399 2.3133337.007927 3.4697397-.0063625zm30.6368549.0004636c.276507-.000933.315099.1131744.313847.3467085-.007614 1.4562769-.003859 2.9125537-.003755 4.3688306 0 1.443239-.00824 2.8865823.006754 4.329717.003051.2964287-.087067.3793495-.374735.3676676-.532257-.0213821-1.066914-.0246155-1.598754.0008344-.320523.0154369-.417942-.076454-.415543-.4066769.015124-2.0543496-.00219-4.1088035.016584-6.1630487.003442-.3703796-.081043-.4776029-.46519-.4737437-2.054141.0209649-4.108595.0030248-6.162945.0170013-.319062.0020861-.431605-.0755152-.414917-.407407.027432-.5446697.016689-1.0919469.003234-1.6377639-.005946-.2401052.049335-.3427393.318958-.3420091 2.925487.0087614 5.850974.00897 8.776462-.0001101z"/></defs><g fill="none" fill-rule="evenodd" transform="translate(-85 -75)"><use fill="#23bde3" xlink:href="#b"/><use fill="url(#a)" xlink:href="#b"/></g></svg>