<svg height="40" viewBox="0 0 30 40" width="30" xmlns="http://www.w3.org/2000/svg" xmlns:xlink="http://www.w3.org/1999/xlink"><defs><linearGradient id="a" x1="9.96809%" x2="50%" y1="0%" y2="32.558892%"><stop offset="0" stop-color="#f7b222"/><stop offset="1" stop-color="#23bde3"/></linearGradient><path id="b" d="m119.416765 101.163572v1.377696c-.000311 2.253068-.008712 4.50598.005663 6.759047.002893.468099-.09698.702849-.640218.699768-3.366456-.019943-6.732912-.014342-10.099524-.004386-.39716.001244-.618998-.098318-.688381-.532348-.08525-.534215-.246572-1.05614-.373981-1.583666-.253418-1.047739-.25404-1.055206.852192-1.182926 1.207662-.139232 2.430569-.188858 3.62283-.408051 2.925892-.537793 5.191871-2.097035 6.792805-4.613165.106096-.167078.151988-.391249.528614-.511969zm-19.130773-31.0614834c6.064288-.0161789 12.128731.0031113 18.193019-.0255129.743452-.003578.962645.1957025.954917.9486437-.01916 1.8139037-.023489 3.627963-.023029 5.4420807l.005711 5.4424307c.000155 3.524667-.004201 7.0491784.004667 10.5736898.0014.5500827-.070939 1.0746524-.235683 1.6014001-.494235 1.5797764-.903841 3.188177-1.449257 4.749441-1.129723 3.2342243-3.480019 4.9953913-6.852231 5.3774623-4.243384.481011-8.493456.904618-12.7383957 1.373184-1.6350025.180457-2.8771998-.909596-2.6950316-2.479261.20877-1.798969.5004569-3.5882935.7118716-5.3867961.058493-.4975012.281264-.6750025.732562-.6998931.753719-.0416918 1.4977929-.0393583 2.2253768.2185708 1.2299079.436208 2.4918619.4164511 3.7586389.2030141.403228-.067827.754497-.1616335.542304-.7415849-.166145-.4536315-.03998-1.0670296-.377248-1.3909188-.35158-.337579-.878795.062071-1.338804.0603598-.680136-.0023335-1.336315-.0690715-1.9879828-.2781527-1.0480506-.3363345-2.1219251-.4948566-3.2138454-.2363053-.4878561.1154302-.7023821-.0952066-.9820904-.4867671-.7664755-1.0741857-.4752553-2.2320661-.4145844-3.3792125.018668-.3495576.2772193-.3098882.5161692-.2731745.5659504.0872727 1.1364122.1443656 1.6992513.0141565 2.2910258-.5295478 3.1839765-3.2199125 1.6740496-5.0226154-.9632669-1.1499465-.934176-1.1185221-2.0246961-.110141-.5315703.4914341-.5334371.8137676.0166456 1.2467088.3767817.296665.6720466.6840253.4366747 1.2121731-.2389499.5362372-.7204278.5197472-1.1995722.467788-1.363228-.1479436-2.726456-.2974429-4.0890617-.4516091-.4442975-.0500924-.849859-.22386-1.2356636-.4397861-.9864463-.5524162-1.1609917-1.2244628-.5315702-2.1796403 2.3089159-3.5041322 4.6041419-7.017754 6.9612834-10.4892173.5832183-.8588819.893262-1.7025182.822946-2.7384346-.0448031-.6620904-.2954205-1.515683.124142-1.958736.454876-.4803889 1.3241808-.1616335 2.008517-.1633447zm10.364547 22.334491c-1.044006-1.0656296-1.017871-1.0359164-2.126592-.0267574-.535304.4872338-.61511.7865435-.041537 1.3227807 1.122412 1.048984 1.091298 1.0866311 2.185085-.0042003.198348-.1977248.44632-.3596694.552105-.691648-.180457-.1907243-.371492-.3987166-.569061-.600175zm-2.663359-2.8007078c-.465299-1.4033641-.750296-1.5441517-2.185863-1.083053-.14701.0471366-.293087.0984735-.442119.1389207-.303199.0824502-.43403.2475061-.307555.5670394.247973.6258435.549149 1.2224405.948644 1.7656782.073583.1000292.143899.2204375.298998.2121925.147011.0007778 1.715897-1.2414195 1.730676-1.3834516.007467-.070316-.019446-.1473214-.042781-.2173262zm-.636313-4.9724453c.019446-.2615071-1.600933-1.3190472-1.923733-1.1197667-.777521.4799222-.821857 1.4324551-.772854 2.1810404.037421.5702214.369255.5716562.721888.5195738l.176783-.0281154c.234644-.0370722.458264-.0597618.589788.0846038.83508.0348469 1.114477-.3851823 1.208128-1.6373359zm.52877-5.2542227c-.350646.1981916-.494078.6051532-.721361.9366651-.668157.9743121-.660223.9797569.329956 1.6395138 1.033428.6885367 1.040273.6928926 1.74281-.3850267.193525-.2968206.49019-.5479047.51106-.9340204.007287-.135965-1.665984-1.2700438-1.862465-1.2571318zm4.215382-2.8891162c-1.483948-1.2356636-1.695518-1.2015945-2.689742.4444531l-.115408.1734623-.040159.0914672c-.024113.0877394-.033446.2420613.015868.2779971.558483.4096062 1.129256.8019446 1.715586 1.2118619.107496-.0630043.218259-.091473.267574-.1625668.351736-.5074575.692737-1.0225377 1.033583-1.5376179.164278-.2479728-.024735-.3637141-.187302-.4990569z"/></defs><g fill="none" fill-rule="evenodd" transform="translate(-90 -70)"><use fill="#23bde3" xlink:href="#b"/><use fill="url(#a)" xlink:href="#b"/></g></svg>