<svg height="62" viewBox="0 0 65 62" width="65" xmlns="http://www.w3.org/2000/svg" xmlns:xlink="http://www.w3.org/1999/xlink"><defs><linearGradient id="a" x1="-23.930989%" x2="50%" y1=".080238%" y2="32.58688%"><stop offset="0" stop-color="#f7b222"/><stop offset="1" stop-color="#23bde3"/></linearGradient><path id="b" d="m30.6992011 33.2377924c.0625781-.0236844.2380079-.0352859.2994141-.1249344.1226954-.1794141-.0972656-.2596875-.1903125-.3591797-.3431251-.3666798-.6946877-.7259767-1.0558596-1.074844-.1108594-.1072266-.2036719-.3445313-.4122657-.2046094-.1476563.0991406-.1714454.3059766-.1673438.4769532.008086.340547 1.1001565 1.2905862 1.5263675 1.2866143zm1.2033987-.9342314c.2108203-.0323438.4216407-.0649219.632461-.0972656.1301954-.0199219.3029298.0268359.3679689-.1156641.084375-.1849219-.1098048-.2689454-.205547-.375586-.5317969-.5919142-1.0694533-1.1786721-1.6094534-1.7632035-.2184375-.2366016-.3802735-.7032423-.6904689-.6323439-.3909376.0896485-.2357813.5990626-.3101954.9180471-.1321875.5675391 1.230469 2.0780863 1.8152348 2.066016zm-11.9871117 9.2022674c.0382031.0411328.0764062.0825.1146094.1236329 2.724727-1.1647268 7.0458998-5.6076574 7.3485951-7.3931265-2.4099614 2.3473833-4.9365244 4.8084385-7.4632045 7.2694936zm-.9382034 1.5297659c-.3319922 0-.6651563.0167579-.9956251-.0055078-.2400001-.0161718-.5985939.1267969-.6902346-.1248047-.0860156-.2363672.2585157-.3966797.4310158-.5683595 3.153399-3.1407428 6.3087902-6.2796106 9.4750799-9.4074627.4406251-.4353517.6989064-.9101955.7241017-1.5396097.015-.3741798-.0096093-.7357033-.0555469-1.1037893-.058125-.4662892.2207813-.7898439.6412502-.6319923.7630079.2862891.7939454-.2025.7730861-.6665626-.0464063-1.0310159.4573829-1.7784379 1.1198439-2.4793365 2.7520318-2.9116412 5.707384-5.6074229 8.723322-8.2391031 2.6756256-2.3347271 5.3587511-4.6607822 8.0316813-6.9983217.9086721-.7945314.9101955-.8187892-.0573047-1.61847689-5.7840246-4.78054781-12.4407446-6.78105601-19.883207-6.08156369-3.5115241.32988288-6.8357826 1.38867215-9.9345723 3.10921936-4.8716025 2.70468803-8.60718914 6.53144662-11.06660368 11.51812722-2.69332084 5.460587-3.4450788 11.220471-2.19304731 17.205355 1.39675809 6.6762903 4.8782822 12.0568382 10.35902549 16.0598468 5.7554308 4.2037509 12.2623852 5.8426184 19.3226991 4.8420713 7.4363686-1.0538674 13.4194948-4.6835165 17.8459019-10.7626193 3.9578914-5.4358604 5.5482433-11.5620726 4.9123838-18.235902-.4282033-4.4942587-1.9742582-8.6151579-4.5297666-12.3474633-.3837891-.560508-.4026563-.556758-.8701173-.0348047-2.3166802 2.5867973-4.6334775 5.1735947-6.9557826 7.755353-2.7918756 3.103946-5.6012121 6.1921888-8.3756267 9.3117206-.6406641.7204689-1.3379299 1.177969-2.3294535 1.0837502-.1331251-.012539-.2714063.0233203-.4067579.0405469-.289336.0367969-.4269142.1386328-.3976173.4928907.0486328.5896876-.176836.7737892-.7638283.744258-.1164844-.0058594-.2320313-.0297656-.3482813-.0441797-.948633-.1182422-1.491094.1826953-1.8847269 1.0412111-.3666798.7999221-.7914845 1.5677347-1.2566018 2.314688-2.1596489 3.468985-5.1644542 5.461876-9.3646894 5.3708213zm9.1727362 16.9644174c-1.0976955-.1605469-2.2054692-.2242969-3.30211-.4142579-3.7603132-.6510939-7.2684389-1.9652347-10.5050411-3.9741804-6.26367312-3.8879305-10.5608224-9.3517987-12.89238535-16.3391048-.7551564-2.2626567-1.16718773-4.6005478-1.35585964-6.9912904-.30046881-3.8084773.11601565-7.5241421 1.22976586-11.1602366 1.14527366-3.7391023 2.98699277-7.1197279 5.46504013-10.1462129 2.81308649-3.43535223 6.2264075-6.12539182 10.2248457-8.0462125 3.337032-1.60300813 6.8506655-2.60296926 10.5629318-2.83875056.1531641-.00972656.3037501-.05894532.4556251-.08976564h3.9843758c1.3516409.17296878 2.7127739.28546881 4.047657.57128917 5.4267198 1.16179711 10.2017598 3.58207102 14.2960575 7.35082175 3.741446 3.44402408 6.4275012 7.57148588 8.0889859 12.36199458.8405861 2.4236724 1.3042972 4.9259775 1.5039847 7.4943765.4354688 5.5981651-.6391407 10.8871896-3.1791803 15.8622687-2.8007818 5.4860167-6.9379701 9.7153144-12.335979 12.7013697-3.5152741 1.9447269-7.2871889 3.0664459-11.2635959 3.5430475-.3467579.0414844-.7066408-.0367968-1.0407424.1148438z"/></defs><g fill="none" fill-rule="evenodd"><g transform="translate(-.000031 -.000012)"><use fill="#23bde3" xlink:href="#b"/><use fill="url(#a)" xlink:href="#b"/></g><circle cx="49.999969" cy="46.999988" fill="#23bde3" r="15"/><path d="m12 0c6.627417 0 12 5.372583 12 12s-5.372583 12-12 12-12-5.372583-12-12 5.372583-12 12-12zm0 2.76440569c-5.10067789 0-9.23559431 4.13491642-9.23559431 9.23559431 0 5.1006779 4.13491642 9.2355943 9.23559431 9.2355943 5.1006779 0 9.2355943-4.1349164 9.2355943-9.2355943 0-5.10067789-4.1349164-9.23559431-9.2355943-9.23559431zm1.3945993 4.27701907v3.56397594h3.5639759v2.7891986h-3.5639759v3.5639759h-2.7891986v-3.5639759h-3.56397594v-2.7891986h3.56397594v-3.56397594z" fill="#fff" fill-rule="nonzero" transform="translate(37.885 34.885)"/></g></svg>