<svg height="57" viewBox="0 0 39 57" width="39" xmlns="http://www.w3.org/2000/svg" xmlns:xlink="http://www.w3.org/1999/xlink"><defs><linearGradient id="a" x1="30.102926%" x2="59.931506%" y1="16.349693%" y2="28.192543%"><stop offset="0" stop-color="#f7b222"/><stop offset="1" stop-color="#23bde3"/></linearGradient><path id="b" d="m37.4838976 35.6977121.2934586.0045819c.7616178.0375953 1.0919863.3762661 1.1148568 1.1344376.0437045 1.4488282-.2957496 1.9356871-1.6845819 2.4175333-1.0861904.3767361-2.2146754.486389-3.352246.4896786-3.6019413.0104953-7.2040393.0057959-10.8059806.0040728-1.0380997-.0006266-1.3427781.2890137-1.3429348 1.3054961-.0006266 4.7960615-.0083023 9.5922796.0104954 14.388341.0023497.6041875-.0911686 1.1143868-.5969818 1.4881466h-4.2294692c-.501897-.3460332-.6272146-.8319523-.6076337-1.4207884.0333658-.9973715.0072057-1.9964661.0083023-2.9949341.0001566-.1959654.0206774-.3768927-.2288613-.4719774-.4633619-.1763846-.6301909-.5763044-.6359869-1.0304241-.015508-1.1936502-.0148814-2.387927-.0007832-3.5815772.0045428-.3826886.1143523-.785898.4934381-.9361225.3930273-.1557071.3801823-.4212238.3789291-.7407837-.0061092-1.5661568-.0015665-3.1321569-.0036029-4.6983137-.0012532-.9849964-.3125108-1.3040863-1.2954707-1.3048696-3.2496422-.0032895-6.49928441.0050127-9.74892659-.0031329-1.25615235-.0031329-2.50400242-.101194-3.69185668-.5596998-1.33384927-.514742-1.76400196-1.3199076-1.46997552-2.7192354.10792979-.5134889.48811207-.7631842 1.21902701-.7658472 1.70322292-.0065792 3.40628919-.002663 5.10935546-.002663 10.25802932.0001567 20.51574532.00047 30.77361802.0007832.1958087 0 .3919308-.0078323.5872696.0018798zm-8.6991135-8.6614799c.5128623.0058633.9063596.3719474.9174815.9419858.0256901 1.3288366.0180144 2.6587697.0198942 3.9880762.0012532.7580149.0280398.7899709.7915373.7904408l2.4048449-.000235 2.4048449.0030546c.2324641.0006266.4702543.016448.6961393.067045.4583491.1030737.7114907.4227902.7146586.879103.0034112.4788699-.2473806.804539-.7350228.9256271-.3673372.0911686-.7389039.056393-1.1090608.0587427-.8797296.0051693-1.7596158.0015664-2.6393454.0015664-1.0558008.0040729-2.1116017.0112786-3.1674025.0018798-.9337728-.0084589-1.2650812-.3477563-1.2671177-1.2845055-.0039161-1.7008732-.0012531-3.4020597-.0007832-5.1029329 0-.1173286-.0042295-.2355971.0089289-.3516725.0637553-.5554703.45177-.9239041.9604028-.9181755zm-2.9357216 1.4655001c.9630658.0001567 1.1334978.1732516 1.1310184 1.1190862-.0033166 1.1939635.0002863 2.387927 0 3.5817339-.0006536 1.0169524-.1442989 1.166237-1.136501 1.1665503l-17.26187372.0000783-5.75395789-.0005483c-.92985664-.0003133-1.07553836-.1506944-1.08008112-1.0982522-.00187977-.4306226 0-.8610886-.00399503-1.2917112-.01965867-2.1986974 1.22161222-3.460959 3.43832403-3.4698879 2.60300333-.0108086 5.20585003-.0067358 7.80885333-.0072057zm8.0314801-3.5055128c1.6167538.0026664 2.9938376 1.3891491 2.9808359 3.0015167-.0130017 1.6050053-1.3551533 2.9502898-2.9556157 2.9628215-1.6288156.0128451-2.9939943-1.3327527-3.0101289-2.9667376-.0158214-1.6134642 1.365022-3.0001035 2.9849087-2.9976006zm-16.6142508-14.4842027c1.3777105.0308594 2.6548535.4628919 3.8798331 1.0395095 2.7234649 1.2819991 5.1281531 2.9957174 7.0420663 5.349652.472604.581317.8426042 1.2194969 1.1054579 1.9225287.4605422 1.2310889-.1063633 2.1131682-1.4196918 2.186009-1.0567407.058586-2.0680538-.1893862-3.0329994-.571135-3.2386769-1.2810592-6.0500207-3.1741383-8.2476216-5.9134245-.4050892-.5048733-.7332647-1.0553309-.9694883-1.6643745-.5763044-1.4857969.0321126-2.3645866 1.6424438-2.3487652zm7.6423376 6.6170829c-.520538-.0062659-.6328539.1759146-.4755803.5553136.2948097.7114907 1.8017539 1.721394 2.5464538 1.697427.3690603-.0119052.4935947-.1685522.3454066-.5297802-.3013888-.7345178-1.748024-1.7290696-2.4162801-1.7229604zm3.91511-17.1290997c.6284678.30671484.7913807.83821814.7848015 1.49629222-.0195809 1.95636448-.0183277 3.91304226-.0078323 5.86956339.0028196.51630854-.1527309.94426816-.4752671 1.34512786-.8584256 1.06629618-1.6758096 2.16642813-2.5527196 3.21690293-.3248859.3891112-.2606606.5673755.1146656.8499667 1.112977.8380615 2.1045526 1.8103695 2.9861619 2.8910772.1850001.2268248.3587217.464615.517875.7102375.8139379 1.2552125.781042 1.6603016-.2470323 2.8716529-.2558046-1.4164022-1.1643572-2.4100142-2.1032994-3.353969-2.4830117-2.4963268-5.3228653-4.4699224-8.6520842-5.6856598-.7747761-.28306118-1.5681932-.4760503-2.4190997-.2374769.682511-1.36408215 1.2124478-1.61957342 2.6368391-1.24346395 1.6609282.43861162 3.1706921 1.22059348 4.6029157 2.14590735.4068122.262697.5841367.1499112.8314823-.1759146.7445432-.98155013 1.5033413-1.95276158 2.2817203-2.90768174.2398266-.29433973.3298986-.59196905.3275489-.96149934-.0112786-1.78044989.0062659-3.56105643-.0109653-5.34134967-.0062659-.65964055.1560204-1.19349356.7968633-1.48971305zm-8.3432076 15.7950938c-.4263932-.0856859-.5808471.1416089-.4271764.5448183.2688063.7055381 1.7672915 1.7115252 2.5303191 1.6985235.4127649-.0070491.5432518-.2327775.2968461-.6264314-.5556269-.8878753-1.3830364-1.412956-2.3999888-1.6169104zm1.9106235-2.2942521c-.3078113-.0003133-.5044033-.0609357-.6055973.1391025-.0886622.1754447-.018171.3413339.0828663.493908.5661223.8568592 1.3675284 1.3717579 2.3578507 1.5976429.1615031.0369687.356372.061249.4813763-.1177986.1239078-.177481.0390051-.3488529-.0504403-.4928115-.5576634-.8964908-1.4043405-1.3722277-2.2660557-1.6200433zm-4.6074584-1.4153072c-.4179342.0007847-.5327565.134248-.4104152.476835.2573711.7205762 1.803947 1.7838961 2.5652514 1.7665083.3607581-.0083023.5054999-.1528875.3682772-.5213213-.2653601-.7121173-1.7378419-1.7234304-2.5231134-1.722022z"/></defs><g fill="none" fill-rule="evenodd" transform="translate(-.000047)"><use fill="#23bde3" xlink:href="#b"/><use fill="url(#a)" xlink:href="#b"/></g></svg>