<svg height="40" viewBox="0 0 40 40" width="40" xmlns="http://www.w3.org/2000/svg" xmlns:xlink="http://www.w3.org/1999/xlink"><defs><linearGradient id="a" x1="-23.894605%" x2="50%" y1="0%" y2="32.558892%"><stop offset="0" stop-color="#f7b222"/><stop offset="1" stop-color="#23bde3"/></linearGradient><path id="b" d="m20.0753519.00064227c.7407634.0172899 3.8146757.38592023 5.4652731 5.23998273.5830859 1.71477163 1.3721247 5.2019299 2.1179804 8.8192922l.1934277.9455336c.8645421 4.2584743 1.6397202 8.4995928 1.9224982 10.0667367.553125.2722656 1.3917968.7494531 2.2264062 1.4694531 1.904375 1.6430469 2.9110156 3.7716407 2.9110156 6.155625 0 4.9246875-3.3763281 6.6792969-6.5360156 6.6792969-2.2976562 0-3.2557031.2896875-3.9605469.6234375.4013282-.7433594.6134375-1.5464844.7915625-2.2214844.4802344-1.8195312.7134375-2.2449218 1.9038282-2.2449218.9541406 0 1.5939062 1.1171875 1.6002343 1.1285156l-.0050156-.0081094 2.0607188-1.1161094c-.4527377-.8355468-1.6671039-2.2255077-3.423821-2.3398871l-.2321947-.0075347c-1.3728906 0-2.4263281.4817187-3.1310156 1.4318749-.5639062.7602344-.8050781 1.6742969-1.0384375 2.5582813-.5025 1.9040625-.8376562 2.819375-2.9461719 2.819375-2.1085937 0-2.4436718-.9153125-2.9461718-2.8192969-.2332813-.8840625-.4745313-1.798125-1.0383594-2.5583594-.7046875-.9500781-1.758125-1.4317968-3.1310156-1.4317968-1.8817969 0-3.18351567 1.4755469-3.65601567 2.3473437l2.06007817 1.1164844c.0060937-.0111719.6498437-1.1207031 1.5959375-1.1207031 1.1903906 0 1.4235937.4253906 1.90375 2.2449218.178125.675.3902343 1.4780469.7915625 2.2214063-.7047657-.3336719-1.6628907-.6233594-3.9604688-.6233594-3.1596875 0-6.53601562-1.7546094-6.53601562-6.6792969 0-2.3839843 1.0065625-4.5125781 2.9109375-6.155625.83523437-.7207031 1.67460937-1.1980468 2.22765622-1.4701562.5492969-3.0128125 2.9404688-15.93929687 4.2299219-19.82289062 1.6594531-4.99828126 4.8934375-5.24867188 5.5229688-5.24867188zm-17.73207065 6.91826398v1.53601562c0 2.48000003 1.99117187 4.50234373 4.45867188 4.55570313l-.99460938-1.2864063 1.85375-1.4332031 3.00062505 3.8811719-3.0273438 3.9042187-1.85171875-1.4357812.99695312-1.2857813c-3.74945312-.0653906-6.77960937-3.1352343-6.77960937-6.89992183v-1.53601562zm37.64687505 0v1.53601562c0 3.76468753-3.0301563 6.83460933-6.7796094 6.89992183l.9969531 1.2857813-1.8516406 1.4357812-3.0274219-3.9042187 3.000625-3.8811719 1.85375 1.4332031-.9946094 1.2864844c2.4675-.0533594 4.45875-2.0757812 4.45875-4.55578123v-1.53601562z"/></defs><g fill="none" fill-rule="evenodd" transform=""><use fill="#23bde3" xlink:href="#b"/><use fill="url(#a)" xlink:href="#b"/></g></svg>