<svg height="40" viewBox="0 0 40 40" width="40" xmlns="http://www.w3.org/2000/svg" xmlns:xlink="http://www.w3.org/1999/xlink"><defs><linearGradient id="a" x1="-23.881625%" x2="50%" y1="0%" y2="32.558892%"><stop offset="0" stop-color="#f7b222"/><stop offset="1" stop-color="#23bde3"/></linearGradient><path id="b" d="m86.7309753 90.6766183c3.2896036.0282849 6.5797286.0114986 9.8695408.0122284.4587574.0001043.4587574.0025023.2781738.4047492-2.421718 5.3933193.7203535 11.4891631 6.5445921 12.5320021 5.205333.932008 9.649233-2.694366 10.365729-7.3865161.274003-1.7941586.049108-3.5234657-.726818-5.1684239-.149409-.3165426-.093628-.3878586.246061-.3870245 3.380938.0082368 6.761772.0016683 10.142606.0072985.996129.0016682 1.527662.5537411 1.52787 1.5588369.00073 5.3834144-.006568 10.7669331.007936 16.1502431.002178.793338-.316242 1.313193-1.042329 1.600021h-37.9297532c-.4935813-.182982-.8352513-.517562-1.0145838-1.014584v-17.3260175c.3478216-.7321352.9238749-.9895607 1.7309753-.9828132zm34.7740227 14.5458727c-.352826.004275-.646535.288704-.653312.632564-.006777.350115.314457.673018.666866.670307.364191-.002815.647161-.307159.635796-.683861-.011051-.365755-.281301-.623389-.64935-.61901zm-8.23407.000521c-.374826-.012511-.688762.284013-.685113.647474.003441.343338.307576.648829.651748.654876.351367.006256.642052-.28005.650602-.640696.008966-.372741-.249085-.649246-.617237-.661654zm-12.427323-.000107c-.367944.00115-.639549.27213-.641224.639761-.001557.362106.275991.654251.62986.662696.359812.008654.680003-.311016.672288-.671245-.007611-.354495-.298609-.632356-.660924-.631212zm-4.125793-.000101c-.3808729-.003024-.6564402.278278-.6476821.660923.0082368.35731.2915195.641322.6401752.641844.3556413.000417.6711413-.320401.6621747-.673435-.0088624-.348969-.2975668-.626621-.6546678-.629332zm20.654303-.000104c-.354495.003753-.64664.28568-.653938.631417-.007403.350845.312268.67333.665615.671255.366381-.002095.648099-.303728.637048-.682411-.010531-.36586-.280572-.624015-.648725-.620261zm-8.228545.000417c-.373991-.01564-.682819.267122-.690013.631521-.006985.356163.306951.673435.663739.670828.349073-.002502.631208-.28714.638611-.644449.007507-.368779-.247416-.642886-.612337-.6579zm-4.196066-.000522c-.356684.015327-.632877.306325-.624119.657692.008654.347613.303405.6408.648829.645284.358248.004692.668743-.309244.662383-.66989-.006464-.369926-.309765-.649351-.687093-.633086zm-16.4767954-.000104c-.3822284-.013658-.6654068.258364-.6667673.640592-.0013504.360229.2678568.647682.6190148.661549.3504281.013763.6794824-.300173.6838614-.652478.0042748-.341878-.2847424-.637151-.6361089-.649663zm4.143101.001147c-.3830624-.018559-.6707242.249397-.6764587.630374-.0054216.361897.2573213.65081.6100432.670516.3499068.019706.6821931-.2886.6929322-.64299.0105306-.343338-.2727521-.640697-.6265167-.6579zm-2.0915169-2.772563c-.3577265-.007403-.6682219.302884-.665094.664885.0032322.373679.2955858.646953.6794823.635275.368987-.011365.6231803-.278174.6191141-.649976-.003962-.358456-.280989-.642886-.6335024-.650184zm4.1182865-.000522c-.3603331.002399-.6595681.31696-.6477864.68063.0117817.361063.2870362.622033.6546677.620683.3853563-.001256.6545635-.280369.6427818-.666038-.0107391-.353347-.3015288-.637568-.6496631-.635275zm20.6660848.000313c-.34949.004484-.632564.290894-.638507.646118-.006256.371281.247312.640801.615152.654043.386294.013762.676876-.254715.682819-.630896.005838-.363774-.299652-.673748-.659464-.669265zm4.149461-.000208c-.349907-.004901-.639967.275463-.652583.630583-.013762.387963.251274.667075.636735.670411.366797.003337.646327-.257113.661028-.615882.014805-.360437-.286307-.680108-.64518-.685112zm2.060759-2.7409749c-.368987-.0011437-.675833.3033049-.665407.6600929.009905.343025.309349.634336.655398.637568.374617.003545.654042-.283908.647578-.666241-.00636-.3706548-.268582-.6303741-.637569-.6314199zm-4.127879.0000032c-.370133-.0040663-.677605.2954817-.671454.6541467.005943.342295.303406.637151.649872.643511.359916.006777.638298-.258572.652687-.622346.015535-.3894224-.247729-.6711412-.631105-.6753117zm-28.9118321.000417c-.3868159-.0159522-.6680134.2488759-.6733308.6341277-.0051089.367006.2539848.647787.6120241.6628.3618971.015327.6831316-.282344.6913684-.640279.0079239-.342296-.2799464-.6423646-.6300617-.6566487zm4.1297554-.0003128c-.3867117-.0136584-.6670751.2533593-.6699944.6378815-.0028151.365755.259615.646327.6165074.659464.3621056.013241.6821932-.286828.6875106-.644346.0051089-.343442-.283387-.6405922-.6340236-.6529995zm17.7478767-27.3387845c.345423.2045641.43707.5636461.238762 1.0278252-.439365 1.0276167-.837024 2.07056-1.187973 3.1315409-.892492 2.6981193-1.50462 5.460569-1.732644 8.291728-.197265 2.4482008.421432 4.7200928 1.796661 6.7640657.641531.9533814 1.026366 1.984543 1.054517 3.1310196.069439 2.8336613-2.126341 5.3253396-4.859076 5.6314566-2.942512.329784-5.611646-1.6339068-6.1418235-4.538884-.0580745-.3182109-.0703776-.644867-.0958177-.8893639.0435819-1.4825164.4557338-2.7644307 1.4461282-3.7686924 1.674674-1.6984452 2.504712-3.749091 2.941053-6.0633138.812939-4.3114858 2.338933-8.3469874 5.052275-11.8621121.158896-.205711.323736-.4073557.493685-.6039958.311017-.3601246.664781-.4464545.994253-.251274zm-19.8215646 24.5872825c-.3820199-.0104263-.6756246.2670177-.6760421.6387155-.0004166.345632.2869323.6482034.6299578.6634258.357101.0159523.6655111-.2868277.6681177-.6562317.0027108-.3712807-.2520038-.6357961-.6220334-.6459096zm28.9463436.0004171c-.389735-.0161608-.671663.2463736-.676042.6298531-.00417.3577265.262952.6497673.613693.6709327.349489.0210612.676146-.2875575.684382-.6466394.008341-.3568925-.260032-.6390283-.622033-.6541464zm-2.105175-2.7780892c-.335102.0033365-.646223.3085144-.656649.6438244-.011156.3588734.291728.6594638.663843.6587353.373262-.0006269.632772-.255133.639237-.6271436.006568-.3755555-.284013-.6791695-.646431-.6754161zm4.129651 0c-.351158.0060473-.667701.3397933-.651853.6871978.015952.3492813.306638.6175501.666658.6153606.387859-.0023981.649142-.2775483.635483-.6695774-.012407-.3558498-.303301-.6391325-.650288-.632981zm-33.0585831.0002072c-.347613-.0007285-.633398.2850566-.6418433.6416362-.0088624.3756598.2386581.6454926.6059768.6605065.3792048.0154309.686468-.259615.6968943-.6240144.0100093-.3493855-.3098698-.6776056-.6610278-.6781283zm4.100249.0002099c-.3503239.0211654-.614318.3140403-.6080622.6746862.0067771.386816.2845339.6439287.6773971.6268295.35512-.0155352.6361089-.3107039.6255783-.6573786-.0105305-.3512622-.3489684-.6649897-.6949132-.6441371zm3.0748113-23.5296068c1.7777894 2.3684396 3.2864758 4.893795 4.2545583 7.7117126.1944505.566357.3328075 1.1482491.2980885 1.6767585-.043791 3.1106883-2.3984678 5.6430294-5.3693393 5.8528066-3.1141289.2198908-5.8416505-1.9549323-6.2978014-5.0003519-.1912184-1.2765968.1586884-2.4488263.6401752-3.594156.9866413-2.3464401 2.2709536-4.5254337 3.7958008-6.5608571.7021074-.9371163 1.9941352-.9975889 2.6785179-.0859127zm19.7387588 12.4747722c.16265-.0080282.327177.0651645.462406.1947634.233862.2244784.470644.4472885.686677.6883447.282553.3153958.2666.7451681-.016057 1.013854-.269832.2565914-.68407.2624301-.984139-.0106349-.258572-.2353217-.508074-.4832592-.737765-.7463149-.19737-.225938-.205085-.5008797-.073297-.7653951.12668-.2544019.345424-.3771195.662175-.3746172zm-2.493681.071316c.255653.1208409.3742.3441723.396096.5477981.007298.2355302-.039516.3902566-.145864.5040076-.26462.2829699-.528093.5712573-.824096.8189863-.272647.2284403-.677918.1751619-.919912-.0689179-.257009-.259198-.288392-.658734-.036388-.9496279.236468-.2727522.499733-.5242347.768418-.7661249.223853-.2016448.496188-.2117583.761746-.0861213zm-21.6973188-4.9690834c-.2717095.6272465-.4191375 1.2832697-.4141328 1.9685907.0112604 1.5665524 1.2720092 2.9971458 2.6789349 3.044794.2874533.0096965.5016096-.0961305.6179671-.323424.1141681-.2228101.1126041-.4510419-.0174119-.6689517-.123656-.2069622-.3327034-.2716053-.551343-.3294713-.9061502-.2399093-1.3739786-.8417156-1.3956653-1.7720549-.0113647-.4902449.1007181-.9505662.2923536-1.3991059.1939293-.4537528.0680838-.8124177-.3209217-.9749638-.3670059-.1532667-.6974156.0105305-.8897809.4545869zm24.8069018 1.4316777c.288288.0180375.504529.121675.637152.3549114.138878.2443926.153058.5099506-.013971.7351588-.262535.3539731-.570111.6760417-.936387.9231451-.261387.1763089-.549883.1366889-.794693-.0612024-.245539-.1985168-.359395-.4833635-.217805-.7626842.249188-.4911833.654459-.8558955 1.12479-1.1411592.06287-.038056.149617-.0367006.200914-.0481695zm-3.855637.068897c.468871.251691.837337.6398624 1.103312 1.1096717.036075.0637048.033572.1493047.045563.2084219-.026587.2958985-.149826.5112017-.401622.6406965-.238971.1229261-.48941.1203195-.698458-.0395157-.328846-.2513783-.627246-.5444617-.875914-.8749756-.199768-.265558-.174328-.5637504.02909-.8274316.207587-.2689987.521628-.3653378.798029-.2168672zm7.617782-4.1189433c.427062.2468949.764978.6148393 1.038356 1.0298062.053383.0810124.056719.1948677.068709.2400136-.006985.3450064-.139191.5567647-.392654.6822974-.237095.1174002-.489307.1213622-.70044-.0421223-.328637-.2542975-.634023-.5424806-.878312-.8778949-.204668-.2811974-.176413-.5926312.05307-.860483.221768-.2589894.536746-.3304096.811271-.171617zm-2.720776.0032009c.252213.1277222.373471.3480301.384105.5120359.006986.3094527-.069022.4749182-.196744.6090005-.232194.2439755-.464805.4898278-.717955.711074-.308306.2692072-.717122.2529422-.983409-.0104263-.277549-.2747331-.300904-.6665537-.023981-.9798642.239701-.2711882.501193-.5261114.773632-.764561.224583-.1964316.498377-.212071.764352-.0772589zm3.439691-3.4487508c.250023.1298075.38202.34167.387233.6759374.01053.1309544-.0489.291728-.168072.4158011-.260137.2707711-.5185.5467554-.805432.7873946-.282658.2370941-.665407.197787-.918871-.0487951-.2617-.2542976-.302571-.6605065-.053591-.9502535.24408-.2843254.516936-.5466512.796987-.7963613.222393-.1983083.493581-.2230186.761746-.0837232zm-4.429032-.0722751c.143466.0141797.30205.0417052.418095.1528496.270771.2595107.550091.5139126.791565.7994891.252733.299235.208109.6875106-.063914.9461872-.260866.2480418-.634336.2839083-.918349.0425394-.285159-.2423074-.550821-.5117231-.798029-.7928163-.195285-.2220803-.215616-.4958751-.074235-.7624757.13231-.2493973.350949-.3723234.644867-.3857733z"/></defs><g fill="none" fill-rule="evenodd" transform="translate(-85 -70)"><use fill="#23bde3" xlink:href="#b"/><use fill="url(#a)" xlink:href="#b"/></g></svg>