<svg height="40" viewBox="0 0 35 40" width="35" xmlns="http://www.w3.org/2000/svg" xmlns:xlink="http://www.w3.org/1999/xlink"><defs><linearGradient id="a" x1="-6.062848%" x2="64.227584%" y1="0%" y2="70.082806%"><stop offset="0" stop-color="#f7b222"/><stop offset="1" stop-color="#23bde3"/></linearGradient><path id="b" d="m103.349987 70.0009614c.26551-.0015227.336864.0948484.35492.3529621.097785 1.393031.538091 2.6748979 1.301011 3.8461446.104964.1613075.183823.2623558.415723.1595671 1.898272-.8414529 3.893025-1.0172269 5.934766-.8084952 2.20653.2254824 4.274594.8583124 6.102274 2.1554072 2.578636 1.8301818 4.06782 4.3806456 4.835744 7.3941477 1.613401 6.3315632-.486098 13.9010498-5.160534 18.4612761-2.912019 2.840774-6.431959 4.253601-10.503369 4.051831-3.778162-.187086-7.0667464-1.642987-9.8511767-4.215096-.1693565-.156522-.328271-.325008-.5035012-.474459-.5918233-.504589-1.2584811-.632504-1.9673421-.302493-.6891734.320875-1.0415916.887572-1.0424618 1.654626-.0025017 2.401773-.0122911 4.803656.0087017 7.205321.0035894.41768-.1136658.52482-.5207958.518076-1.4380622-.023821-2.8767769-.0186-4.3149479-.002393-.3319692.003698-.4434595-.085059-.4388625-.429319.0190063-1.316021.0078029-2.632368.0078029-3.948607l.0166419-.000109c0-1.221064-.0407891-2.443977.0075052-3.663083.1497778-3.7751167 3.3415557-6.7202019 7.117978-6.6225255 1.0473565.027084 2.0299942.3252255 3.0108916.6367458 1.212906.3853759 2.4311417.6273915 3.7180127.4565121 2.042394-.271275 3.523747-1.8327923 3.676244-3.8925898.144121-1.9443914-.426057-3.7225806-1.208664-5.4566088-.529389-1.1730959-1.212036-2.2726625-1.67279-3.4793686-.59041-1.5458542-1.030606-3.1159644-.796096-4.7978913.020776-.1482549-.028606-.254633-.135964-.3586181-1.8346409-1.7772103-2.684578-4.0295326-3.1169429-6.4815585-.0919116-.5211222-.1473848-1.0459425-.1790372-1.5748962-.0165332-.276496.0481856-.3875512.3450218-.3854375 1.5196403.0109388 3.0394983.0098511 4.5592473.0009318zm11.526469 18.8889642c-.40354.1133394-.805232.2406016-1.195176.3933161-1.215408.4756559-2.406016.4440035-3.584985-.1213885-.317286-.1521707-.647188-.2757346-1.004066-.3105413-.782282-.0766836-1.194415.3513305-1.050946 1.1218646.114753.6158618.147167 1.2372708.181104 1.9421073.043726 2.4147174-.903126 4.41034-2.865139 5.9530399-1.00363.789134-1.388462 2.0268399-.994058 3.1975423.394295 1.170595 1.492556 1.95168 2.771486 1.941999 2.191737-.016642 4.230759-.58856 6.088895-1.756109 2.861767-1.7978766 4.701412-4.3959821 5.842964-7.5317429.35753-.9823114.604441-1.993991.790548-3.0212248.105073-.5800761-.066677-.9485924-.537764-1.1281734-.518294-.1975283-1.038981-.3894004-1.56391-.56822-.946853-.3223974-1.909476-.3847233-2.878953-.1124693zm3.023237 1.9359399c.144231.0525364.16642.1466234.137596.2872644-.904214 4.3980489-3.919565 8.8430869-8.77826 9.9572291-.728657.167181-1.470367.23897-2.217515.246366-.479463.004786-.835688-.20623-1.034739-.647732-.203076-.450638-.159459-.8748451.19296-1.238358.169247-.1746863.349807-.342085.542767-.4895785 1.943848-1.4857039 3.276184-4.2834042 3.198739-6.9951754 0-.336864-.133244-.8151303.034916-.9736098.195462-.1843669.601069.1335709.926185.1974195 1.078792.2116685 2.128541.1260657 3.157951-.2490857.34339-.1250867.683191-.2602892 1.029409-.3765654.977525-.327836 1.896967-.0510136 2.809991.2818258zm-8.180127 7.0313962c-.488708-.004786-.820569.3210921-.819702.8051233.000873.4831611.363951.85233.837758.8514629.479789-.000982.864077-.398649.858421-.8887713-.004895-.4322562-.38233-.7628115-.876477-.7678149zm3.510586-1.7470807c-.481095-.0084842-.853309.3530708-.85679.8322073-.003589.4756558.371453.8573335.841018.8563583.453032-.0010915.821004-.3623201.835906-.8203551.015554-.480768-.34252-.8598352-.820134-.8682105zm-1.753933-2.6038807c-.471305-.0016212-.857551.3810354-.854288.8463579.003263.4441123.380263.8285092.82579.8417792.467824.013814.856898-.3617725.863533-.8338389.006744-.4808768-.356552-.8525475-.835035-.8542982zm3.481761-.8883229c-.443895.003807-.823941.3791759-.836776.8266601-.013378.466519.363078.8555931.833622.8612492.47522.0057648.852982-.3650357.853419-.8377547.000542-.4676068-.38603-.8540703-.850265-.8501546z"/></defs><g fill="none" fill-rule="evenodd" transform="translate(-88 -70)"><use fill="#23bde3" xlink:href="#b"/><use fill="url(#a)" xlink:href="#b"/></g></svg>