<svg height="50" viewBox="0 0 68 50" width="68" xmlns="http://www.w3.org/2000/svg" xmlns:xlink="http://www.w3.org/1999/xlink"><defs><linearGradient id="a" x1="-23.930989%" x2="50%" y1="22.467823%" y2="40.396166%"><stop offset="0" stop-color="#f7b222"/><stop offset="1" stop-color="#23bde3"/></linearGradient><path id="b" d="m5.87349515.59383907c.97587655 3.91817521.79490703 7.64194717-1.67890913 11.04639753-.91457544 1.2589116-1.5417923 2.673315-1.72523238 4.2445997-.03968359.3403215-.15070499.7008709.24304267.9721707 2.85922564 1.9707456 5.86684009 3.6087359 9.32626069 4.2677614 3.3553477.6392609 6.6002916.1848298 9.7806918-.9585826 1.683359-.6051782 3.2398816-1.4560253 4.782364-2.3351458l1.1559918-.6612448.579326-.3282293c.3177354-.178513.3360197-.427108.3113601-.6918282l-.0199868-.1782769c-.1652196-1.4346312-.7104443-2.7287485-1.4804912-3.9360869-.7056576-1.1061993-1.3790433-2.22583231-1.8689889-3.45216325-.9605899-2.40464011-.7356133-4.84201531-.259719-7.29266985.0392203-.20181497.1046905-.40069614.1215213-.60390082.0455512-.54877614.3376965-.53117331.79151-.46523987.5436806.07890394.447637.36332872.367961.70287817-.2470573 1.05308197-.4220048 2.11789916-.5425997 3.19306188-.2913732 2.60089629.5856804 4.87768421 2.0201571 6.95728944 1.5278953 2.2150236 2.3541478 4.5504877 1.716431 7.2648759-.1536388.6533123.1351095 1.2694116.3451082 1.873158.5158867 1.4837338.9928618 2.9741073 1.1675004 4.5461641.2751602 2.4742794.0101912 4.90239-.859914 7.2168542-1.739747 4.6278474-2.5734111 9.4084072-2.6946236 14.3331867-.0132794.5385851-.1216758 1.0745451-.1431389 1.6132846-.0193013.4879382-.3295127.4142843-.6428123.4081078-.340476-.0067941-.4342033-.1595064-.3999241-.4876294.3642552-3.4740897.3258069-6.9887893 1.1580813-10.4162469.450262-1.853239 1.0215822-3.6620076 1.6549755-5.456416 1.270338-3.5983904 1.3459993-7.1949278-.0077206-10.796252-.233778-.6224301-.4071814-1.2715733-.5560334-1.9204077-.0963524-.4201519-.2427339-.4598355-.6304595-.3083584-3.0970184 1.2095001-5.7153631 3.0997977-7.9923054 5.501504-1.3543375 1.4284547-2.4094269 3.0647465-3.418965 4.737788-.1230654.2041311-.1683078.4204607-.1724769.6602608-.0552791 3.1997015.1761828 6.3709915.933568 9.4897817.2021238.8321201.2791748 1.6779827.2654322 2.5261615-.0392203 2.4505001.1337198 4.8844783.5021441 7.3053315.0667055.43899.0273307.7246501-.5087837.8058702-.4529739.0683654-.5136628-.1492905-.5199518-.3845765l-.0000662-.1284731c.0006336-.0634976.000744-.1246768-.006523-.1780933-.3288951-2.423015-.6040552-4.8534417-.4945779-7.3047139.0795215-1.7757248-.5764157-3.4425898-.7113708-5.1861971-.0463233-.5995773-.0234705-1.2227795-.1734034-1.6188433-1.148199 4.5197599-.873811 9.331665-1.440962 14.0655928-.0348969.2910644.182668.7928997-.4579826.7623263-.6367903-.0301101-.6279889-.4121225-.5708569-.8988255.2767043-2.351214.5256145-4.7064426.4275637-7.0794285-.0745805-1.8059892.5960258-3.4889131.8271789-5.2454908.3058878-2.3246553.4694089-4.6503915.3900418-6.992804-.0234705-.697937-.3951374-1.2653969-.7207899-1.8450552-1.2646248-2.2513102-3.1072094-3.9450427-5.21769687-5.3773577-1.81494509-1.2317353-3.77812458-2.1923252-5.74763492-3.1411799-.23563095-.1134919-.41335784-.2637337-.55510699.1598153-.85080377 2.5426834-1.66068865 5.0821241-1.48188089 7.8253872.13680801 2.1019949.63231241 4.1141226 1.38769027 6.065258 1.27605123 3.2955907 1.87362121 6.7253644 2.09782575 10.2343509.08523479 1.334573.17093281 2.6694547.27099104 4.0029468.02470573.3282775.08955829.6055993-.39837998.6338565-.41119609.0236249-.57317306-.0694849-.63092272-.5141881-.23563095-1.8150995-.21277815-3.6461033-.38340213-5.4645998-.27994687-2.9849161-.86361986-5.9012738-1.96951034-8.6970365-1.75719543-4.4417824-1.94094434-8.9016309-.18884447-13.3905086.31345402-.802782.4456297-1.6009316.27577777-2.480147-.45813698-2.3695888.27315279-4.4640176 1.61251247-6.3989399 1.45130754-2.09659044 2.49342634-4.33662858 2.20143543-6.97597317-.12708013-1.14835346-.32102015-2.29192019-.54754086-3.42498697-.10592584-.52993803.02532338-.73515004.55016584-.81482604.38340213-.0583673.47218837.07890394.55587905.41490195zm56.84625085-.52797701c.2943071.12569043.6852753.11905076.5098646.64543734-.2677484.80401727-.4681737 1.63057853-.7329883 2.43583109-.5492394 1.66949007-.3872624 3.28678927.2498368 4.8988385.492725 1.24655876 1.0268321 2.47613231 1.7150412 3.62047111 1.8677536 3.1058198 2.5465437 6.5193803 2.8286523 10.0742268.3441818 4.3377095-.3483508 8.5681035-1.1616328 12.7901592-.8319656 4.3193346-1.6735047 8.6341913-1.6517328 13.060687l.0019027.1504341c.0027859.3240176-.0281628.6198907-.5812522.5825542-.6574814-.0444703-.4711075-.4731148-.4704898-.8219289.0083381-4.6060756.9026858-9.0957253 1.7607468-13.5937133.6310772-3.3084068 1.2541249-6.6248429 1.1532946-10.0192565-.0724186-2.4464855-.2716086-4.8787651-.9088622-7.2554569-.0951171-.3539096-.1113302-.6948488-.6824959-.4629237-4.5402965 1.8435111-8.0727535 4.7893612-10.1596161 9.2924447-.9374282 2.0226277-1.1607063 4.2058427-1.1021846 6.406506.0759702 2.8593801.6564005 5.6701207.9022226 8.5140597.262344 3.0355628-.0137426 6.0671109-.094345 9.1002032-.0148235.5529452-.4240122.4042476-.7172384.4497988-.3367344.0522621-.3630025-.1343101-.3531173-.3315792l.0080751-.1178201c.0013374-.0192422.0024877-.0381352.0031766-.0564507.049257-1.310948.080448-2.6234402.1701607-3.9319177.2160208-3.1522975-.1276977-6.2666098-.5578864-9.3796869-.1564181-1.1330668-.2382559-2.2764791-.3542184-3.4152591-.1014308.9825334-.2274758 1.9624132-.3579621 2.9413373l-.1965387 1.4678816c-.3896529 2.9351786-.728499 5.8693964-.4718681 8.8484964.09697 1.125655.0690216 2.2625821.0722643 3.3944136.0006176.2237413.1930135.6372535-.3309025.5835186-.361939-.0370586-.6797165-.0662423-.6877459-.6018935-.00805-.5380497-.019943-1.076116-.0329641-1.6141606l-.0397324-1.614031c-.0690918-2.9587985-.0901761-5.9157922.3884667-8.8646482.2634249-1.6223948.4931882-3.2651718.5435262-4.9047061.1215213-3.968822-.6232022-7.6790058-3.5622583-10.6534219-1.8339376-1.8560184-3.9933733-3.2233264-6.3035139-4.3840328-.229609-.1153449-.4616885-.2263663-.6933047-.3376965-1.1512873-.5535629-1.0058323-.7252677-1.28686.6452829-.9477738 4.6219799-.8470979 9.24782.0399924 13.8739689.6386433 3.3317229 1.3012202 6.6625192 1.7917835 10.0175581.300329 2.0541275.2878218 4.1536517.4343577 6.2315585.0314998.4473282-.1451462.5673055-.5645261.5960259-.4229313.0290163-.4967107-.1661718-.5027401-.4680561l-.000176-.0848892c.0491026-3.9618735-.621761-7.825473-1.3501113-11.6808831l-.3137382-1.6520798c-.2611625-1.3767531-.5175861-2.7541031-.7390921-4.1361537-.8134363-5.0754845-.6733857-10.0963076.7119884-15.0575281.2767042-.9908544.8265613-1.879952 1.3021467-2.7911304.8444729-1.6179169 1.7026884-3.22579701 2.2976334-4.96261021.4658575-1.36066837.5501658-2.70759418.1250727-4.08725509-.2722263-.88369327-.4962764-1.78298204-.7847159-2.66127093-.1618225-.4925706.1304772-.53549681.4680193-.6648931.3934388-.1508594.5345704-.05589673.6459006.33800534.4057917 1.43555764.8007746 2.87250497.9971852 4.35454027.1490065 1.12519183-.0887862 2.19865603-.4684825 3.25235565-.7177016 1.99128227-1.7091736 3.85471237-2.727822 5.69853227-.3971447.7189369-.2157119 1.0374865.4150564 1.4340135 7.2183982 4.5367451 14.4760168 4.529179 21.7875247.2455133 1.5763804-.9236857 1.5820936-.9269283.7428706-2.5270879-.8003114-1.5260424-1.5853361-3.0574892-2.2026707-4.67061931-.527313-1.3781168-.7073561-2.77275556-.4073358-4.2354895.248447-1.2101178.5501658-2.40371364.8853918-3.59128746.10222-.36224784.2564764-.46014432.600967-.31283637zm-10.7703109 26.61826814c-.1737122.0626908-.0691761.2702189-.0367498.4107328.230381.9942514.3736742 2.002091.5532541 2.995416.166146-1.0013543.3330641-2.0028631.4975117-3.0045262l.0127829-.0543355.0358294-.1162635c.0270249-.0973376.0327429-.1895257-.0895312-.2294795-.3136084-.1025288-.6611872-.113492-.9730971-.0015441zm-34.9734295-17.41802215c-.5619011.00524997-.981281.12831542-1.2653969.70287818-.1825136.36935077-.6272169.34603467-.9097887.03674977-.2143223-.23470448-.4531959-.28442477-.7405544-.34819645.919671-.59046708 1.8861284-.71646633 2.91574-.3914315zm37.0390914-.82246937c-.5997317-.01513226-1.0493761.02099988-1.3039995.59880526-.1633667.37120368-.5955627.42324013-.9090167.10623467-.2285281-.23130745-.4527326-.37213014-.7952159-.32426278 1.0833465-.70828255 2.1160463-.83335534 3.0082321-.38077715z"/></defs><g fill="none" fill-rule="evenodd" transform="translate(0 -.000005)"><use fill="#23bde3" xlink:href="#b"/><use fill="url(#a)" xlink:href="#b"/><path d="m12.0009653 40.0289795c.2263663.0089559.358542.1681534.3834022.4110417-.0305734.2555499-.1781902.4306518-.4425415.4139755-.2147855-.0137426-.3775345-.1601241-.3738287-.4048653.0043235-.2760866.169852-.4308062.432968-.4201519zm7.1009071-.0008956c.2663587-.0138969.4019314.1649108.4426959.3854095-.0410733.3041894-.2007341.4635414-.4599899.4391445-.2188002-.0205367-.3613214-.1848298-.3563803-.4212328.0049412-.2360942.1503962-.3917403.3736743-.4033212zm-8.1271524-1.4046445c.2478294-.0040147.3383141.1846753.3976079.3539096-.0242425.273616-.1456094.4267916-.3798507.4518062-.2472118.0262498-.3949829-.123992-.4149019-.3520568-.0231617-.2654322.1153449-.4490267.3971447-.453659zm9.1193347-.0094963c.2658955.0276395.4107329.1630578.4252475.3908138.014669.2286825-.1036097.4033212-.34727.414902-.2679028.0128161-.4447033-.1343375-.4360563-.4099608.0071029-.2259031.1588888-.3602405.3580788-.395755zm-7.334438-.1152523c.2286825.022544.3568435.1775725.3633287.4133579-.0358233.2334692-.1612049.3985344-.3969903.3897329-.2686748-.0097278-.4249386-.1882268-.3942109-.4584458.0260955-.2300721.1965651-.3673434.4278725-.344645zm5.6483796.0060066c.210462.039838.3707405.1666093.3687331.4213872-.0460144.2198811-.1797342.3776889-.4090343.370586-.2726895-.0083381-.4176813-.1945576-.3841742-.4607619.0284116-.224359.1825136-.3772257.4244754-.3312113zm-.4457841-1.7021171c.2308442.0166764.369042.1550285.3631743.3918948-.006794.2682116-.1652196.4019314-.4298798.4207695-.2706822-.048485-.3821668-.2268295-.3542184-.4819162.0257866-.2365575.1922415-.3471156.4209239-.3307481zm-4.7968347-.0020845c.233006-.0024706.3874168.1340286.3881914.3830933.0006151.2325427-.1116415.3875712-.3458828.4283357-.2524617.0037058-.4053285-.1272346-.4340489-.3557626-.0342792-.2737704.1122567-.4524238.3917403-.4556664zm-2.6110102-.038927c.2839616-.0091102.4088799.1730946.4016226.4320416-.0064852.2282192-.1510138.3590052-.3730566.39313-.2430426-.0588306-.4431591-.1621314-.4212328-.4467106.0176029-.2282192.161977-.3710493.3926668-.378461zm10.379142.3712963c.0078749.2870498-.1704696.4280269-.4147476.440843-.225903.012044-.3795418-.1520947-.3894241-.3779978-.0095735-.213859.083073-.4039387.3271966-.4360562.2756233-.0364409.4155195.125536.4769751.373211zm-3.5912103-2.0440753c.227756-.0092647.3806227.1473079.3912771.389733.0106543.2413441-.1207493.3803139-.3548361.4308062-.2351678-.0084926-.3982256-.1256904-.4298798-.3573067-.0386027-.2814909.1321757-.452887.3934388-.4632325zm-3.5528237.0091257c.2238957.0291836.3708948.1656828.3588508.418299-.0189925.24505-.1689255.3877256-.3956006.3861815-.2768586-.001853-.4207696-.1888445-.3892697-.4601443.0268674-.2316163.1857562-.375836.4260195-.3443362zm6.9175441-.2856292c.2666676.0050955.4064094.1857562.3855639.4536591-.0183749.2385647-.1760283.3457258-.4115049.3588508-.2581749-.0393748-.4091887-.1828225-.3880344-.4558209.0189925-.2444323.2021238-.3603949.4139754-.356689zm-10.2839167.0056514c.2214251.0230072.3781521.15333.3664169.4102696-.0217719.2399545-.1613593.389733-.3926668.3872624-.2725351-.0032426-.42061513-.1707784-.3932844-.4533502.0239337-.2479838.1900797-.3682699.4195343-.3441818zm6.6672132-1.4645869c.2723808.0256322.4050197.2058297.3744463.4626149-.0260954.2189546-.1760283.3548362-.4209239.3573067-.2198811-.0785951-.4271004-.1832856-.3712037-.4721883.0415365-.2155576.1730946-.3707405.4176813-.3477333zm-3.0333701.0020228c.2455132.0419998.3963726.201815.3673434.4652399-.025169.2280648-.2049032.3579243-.4257107.3471156-.2689837-.0132793-.4210784-.2083002-.3832478-.4601443.0296469-.1968739.1693887-.369814.4416151-.3522112zm-3.7293308-.4491966c.2339324-.003397.381086.1471536.4034755.3685787.027794.2737705-.1537932.401777-.3959094.4544311-.231153-.0281027-.39282117-.1403594-.40239464-.3764536-.01065435-.2592558.11580814-.4426959.39482854-.4465562zm10.4517614.0015596c.2436603-.0043235.3466523.1629034.39313.3770713 0 .2373294-.1284698.3923579-.3488141.4213872-.2597191.0341248-.4437768-.1049994-.4586002-.3739831-.0146691-.2685205.1471535-.4198431.4142843-.4244754zm-3.8898718-1.2681145c.2359398.0256322.3451083.1831312.3568435.4073358-.0321174.2472117-.1839033.367189-.4108873.3667271-.2347044-.0004646-.3789242-.1312506-.3755271-.3781535.0040146-.2768587.1479256-.4263284.4295709-.3959094zm-2.6392365-.0151941c.2635793.0151323.3790787.1693887.3968359.3922036.0197646.2456676-.1264625.3824757-.3602405.39313-.2716087.0123529-.435593-.1337198-.4224681-.412277.011272-.2381015.1757196-.3474244.3858727-.3730566zm14.0758303-.5043984c.2359398.0205366.3682699.1675357.3464979.4956588-.023316.1513226-.1337198.3176231-.3837109.3085129-.2878218-.0103456-.4050197-.1971827-.387108-.4670929.0171396-.2577117.1967194-.356689.424321-.3370788zm-25.51247034-.0009574c.21880017.0054044.39776234.1139552.3786154.3886521-.01389698.2226605-.10499938.3986888-.35468172.4147476-.2918365.0185293-.41737251-.1605873-.4183041-.4278725-.00107575-.2518441.169085-.3809316.39437042-.3755272zm7.32057194-.105231c.2294545-.0047867.3824756.1117935.4365194.3295128-.0043235.2564764-.1429844.4008505-.3642552.4362106-.28612326.04586-.43528413-.1327933-.45582078-.3922035-.01976459-.2496824.15008735-.3685787.38355658-.3735199zm10.7671918-.0059911c.2834983.0291836.4609164.1314036.4488723.3781522-.0106543.2184913-.1383521.3996152-.3812403.3971446-.2566309-.0027793-.4456297-.1378888-.434821-.4199975.0097279-.2526161.2137046-.3140716.367189-.3552993zm-3.8112611-1.1188764c.2242045.0054043.3855638.1298595.407799.353292.0248601.2519985-.0960435.4477914-.3775345.4587546-.2771675.0106543-.4204608-.1704696-.4271004-.4226225-.0061765-.2340868.1612049-.3529832.3968359-.3894241zm-3.0107799.054507c.2314618.0018529.3353803.1607417.3264245.3443362-.0100367.2011973-.0914112.4062549-.1432933.4051783-.4766663-.0172983-.5937097-.1764959-.5932478-.4045607.000619-.253697.1721695-.3466523.4101166-.3449538zm13.7687688-.557732c.2419618.023316.3528288.184521.3577699.413049-.0260954.2557044-.182668.3889609-.4084166.3918947-.2930718.0038603-.4098064-.2087634-.3847919-.4655487.0228528-.233778.1970283-.3624022.4354386-.339395zm-24.56377007-.0027954c.23269714-.0003083.38108597.1310954.39714469.3969909-.01961017.2061384-.09619795.401777-.35066703.4085711-.26697635.0074117-.4413062-.1352639-.4371371-.4206152.00355145-.2452044.15564613-.3846374.39065944-.3849468zm18.08126307-.2634398c.2280648.0336616.3603949.1764916.3502038.4233946-.0308822.2353221-.1684623.378461-.4019315.3747551-.2864321-.0047867-.4121225-.202587-.3772257-.4616884.0296469-.2200355.1846754-.3725934.4289534-.3364613zm-11.58584729-.0057749c.23810149 0 .35607139.163521.38139479.3994608-.0287204.215712-.1121023.4027035-.36425519.4034798-.27037339.0009222-.42740922-.1514813-.4172181-.4312737.00895582-.2478294.17541072-.3715125.4000785-.3716669zm3.57034939-.853506c.2535426-.0176028.3605493.1528667.4213872.3679611-.0152867.2306898-.1215214.4062549-.3593141.4284901-.2742336.0254777-.4417694-.1276978-.447637-.4056373-.0050956-.2453589.1510138-.3742919.3855639-.3908139zm4.3255419.0724187c.2323883.0020073.385255.1088596.3928212.3020276.0083382.2116973-.1065435.3946741-.3509759.407027-.2030502.0101911-.3384686-.1246096-.3682698-.3092849-.0406101-.2509177.1451461-.3444906.3264245-.3997697zm-14.10223453-.7186126c.23501331-.0055588.36672576.1366536.39652706.370586-.00370586.2343957-.11410962.3881889-.35097586.4124314-.23501331.0239336-.39328442-.0918745-.42046073-.3309025-.03057335-.2689837.09419061-.4457841.37490953-.4521149zm23.97268533.0000926c.2496824.0071029.3449539.1721681.3631743.4178358-.0125072.2163295-.1351094.3613213-.3730566.3673434-.2325427.0058676-.3872624-.116117-.3948285-.3590053-.0081838-.2671307.1199772-.4343577.4047108-.4261739zm-5.6955521-.3477332c.2459765.0242425.3569979.1732489.3634831.4121225-.0271763.2385648-.1639843.3787698-.3999241.3840198-.2994026.0066397-.4090343-.2010429-.3881888-.4559752.0193013-.2311531.1746386-.3647184.4246298-.3401671zm-12.51804101.0020073c.24752059.0217719.34032151.1923959.35885081.3968359-.05605114.2427338-.15904317.4149019-.41258578.3977623-.28210862-.0189925-.41150491-.1951753-.3815492-.4670928.02748513-.2478294.20166056-.3481964.43528417-.3275054zm3.08827871-.4835993c.2686749-.0075661.420924.1778813.401005.4391444-.0168308.2194178-.1658373.3583876-.4111961.3762993-.2388736-.0481762-.4105785-.1641388-.3928212-.4488724.0157499-.2507632.1970282-.3607037.4030123-.3665713zm6.220549.0859605c.2011973.0027794.3478877.0759701.3380054.3072776-.0100367.2396456-.1780357.339395-.3454171.4115049-.2816454-.0492571-.3620934-.2325427-.3617855-.4439312.0003097-.2300721.1771101-.2776307.3691972-.2748513zm-15.00263502-1.0644059c.26867487-.0010753.435593.1542621.41196814.4345177-.019919.2359398-.18066069.3529832-.40764464.3662626-.23856475-.0375219-.40023291-.1608961-.3872624-.4017771.01188964-.2209619.14283003-.3979167.3829389-.3990032zm23.78231222.0020284c.2334692.0276395.4091888.1439109.4184534.3744463.0104999.2652778-.1524035.4386812-.427718.423549-.2333148-.0128161-.3719758-.1789622-.3727496-.4082623-.0006159-.2376383.1601258-.355917.3820142-.389733zm-16.1425422-.3287599c.2452044-.0009227.3494317.1689292.3979167.3553031-.025941.2646602-.1422124.4147476-.3869535.4206152-.2286825.0055588-.4107329-.0892495-.4233946-.3395495-.0135881-.2705278.1346463-.4354386.4124314-.4363688zm8.5491109-.0033778c.2439691-.0162132.3657993.1453006.4124314.370586.0013897.2430427-.1148817.390505-.3593141.4065638-.2252854.0148234-.4176813-.0605291-.4445488-.3146893-.0291836-.2745425.1199772-.4443945.3914315-.4624605zm2.6332608-.014808c.2699102.0030882.4201519.1633666.4003873.4325048-.0171396.231153-.1607417.3580787-.2833439.3517479-.353292-.0094191-.5060043-.110867-.5180484-.3569979-.0134337-.2748513.1278522-.4306519.401005-.4272548zm-13.77516144.0018683c.22698394.0322719.35715228.1856019.34989497.4406886-.03258068.2353221-.17896217.3404759-.4199975.3361524-.25307937-.0047867-.39451971-.1596608-.38803445-.3827845.00772054-.2607999.17726365-.4342033.45813698-.3940565zm1.31967234-1.1950627c.2672851.0203822.415674.1837489.380005.4545855-.0302645.2297634-.1991899.3346083-.42648271.3539097-.23624859-.067632-.42910774-.1947121-.38417419-.4684825.03520568-.2154032.1978003-.3579244.4306519-.3400127zm11.0352027-.0163367c.3112923-.0117352.3980712.1832857.4213872.3804684.0257866.2169472-.0958891.4147475-.321329.4321959-.236403.0182205-.34727-.1856018-.3684242-.3935932-.0219264-.2154032.0617643-.3917404.268366-.4190711zm6.5518838-.2361559c.2362486.0151322.3582332.186065.3481965.4207695-.0101911.239028-.1605873.3599317-.3922036.3911227-.2242045-.0386027-.3867991-.159352-.3892697-.3948285-.0030882-.2714543.1622858-.4343577.4332768-.4170637zm-24.0158586-.0061919c.21741047.0310366.36039491.1868371.37413748.4326592-.05744084.2115429-.17479308.3855639-.41505636.3755272-.27639541-.0118897-.42231366-.195793-.39282119-.4653943.02578661-.2362486.20243262-.3759904.43374007-.3427921zm19.0681028-.6756092c.2595646.0279484.416446.1971826.4033211.4616884-.0100367.2062929-.1641387.2983218-.3647184.3078952-.247675-.0095734-.3824757-.1673813-.3932844-.3840197-.0105-.2132414.0872421-.4145932.3546817-.3855639zm-14.18055173-.0187918c.24458678.0220807.32982157.2015061.34464501.4136666-.03597772.2479839-.17000634.3761449-.41135049.3667258-.24211621-.0092646-.38124038-.1534844-.37907863-.3864903.00247057-.2756234.17309456-.4184534.44578411-.3939021zm19.40760593-1.0847516c.2384103.0352056.359314.1768004.3586987.4139754-.00062.2453589-.140825.3966815-.376456.3823213-.253697-.0152867-.4349753-.1616682-.4036299-.44949.0260954-.2404177.1820504-.3502038.4213872-.3468067zm-24.6329925.0053426c.28643212-.0067941.42185044.1761827.39699029.4409973-.02161752.2320795-.19085181.355145-.42524747.3488141-.25091763-.006794-.34989498-.1715504-.37043162-.4005417.03813948-.2272928.16151374-.3834021.3986888-.3892697zm-.43344668-1.7249854c.22821923.042463.3787698.1789622.36950515.4099608-.01111758.2765499-.19162386.4023947-.46493105.3716669-.24875588-.0276395-.35452731-.1944032-.32503484-.4241666.02933806-.228528.18205039-.3529831.42046074-.3574611zm25.54058858.0021309c.2478294.0091102.3463435.1817416.3772257.4045564-.0233161.2376383-.1426757.3779978-.3918948.3762993-.2368662-.0016986-.4016226-.113492-.4094975-.3580788-.0088015-.2733072.1432932-.4332768.4241666-.4227769zm-11.5864495-.6082706c.2354765.0214631.3438729.1780357.3475788.4102696-.0288748.2381015-.1763372.3607037-.4020858.3597825-.2336237-.0009317-.3800051-.1446882-.3792361-.3772309.0010839-.2692926.1605903-.4178358.4337431-.3928212zm1.769888-.0832584c.2160208.0072573.3752183.1468447.3969903.3789242-.0151323.2470574-.1377345.4116594-.3695052.4278725-.2771675.0193014-.4300342-.1510138-.4229313-.4246298.006022-.2405721.1701608-.389733.3954462-.3821669zm-3.9657183-.02293c.2374838.0322719.3786154.154102.3864903.4000785.0075661.2421162-.1091685.4108873-.3492773.4227769-.2709911.0132794-.437446-.1502417-.4312695-.4254019.0054044-.2393368.1737122-.3556081.3940565-.3974535zm-1.7858387-.0431269c.246903.0327351.3861815.1936312.3835566.4116593-.0030883.2767042-.2118517.4170637-.4684825.3843286-.2177193-.0276396-.3715125-.1902342-.3336819-.434821.0353601-.2272927.1834401-.3568434.4186078-.3611669zm7.4841084-.2218267c.2956968.031191.4655488.1886901.448718.4473283-.0132794.2069105-.1485433.3846374-.4022403.3712036-.2691381-.0143602-.4258651-.1542564-.4152108-.4357474.0094191-.2473661.1717049-.3474244.3687331-.3827845zm-9.2517574-.0587533c.2393368.0055588.3353803.1814328.3696595.3969903-.0166763.2717631-.1727857.4224681-.4297253.4210784-.235631-.0015441-.3588509-.1743299-.3593151-.3980712-.0004622-.2637337.1511692-.4261739.4193809-.4199975zm10.8688868-.7224883c.2594102-.0132794.4376003.1290874.4409974.4094975.0030882.2444324-.1639843.3514391-.3783066.4071814-.2725351-.0125072-.4312695-.1696975-.4450121-.4244754-.0128161-.2370206.1624403-.3810859.3823213-.3922035zm-12.49185291-.0635181c.23609418-.0013808.36147579.1607506.40471083.3868081-.03999241.2246677-.14792559.3829389-.39451971.3959094-.24319709.0126617-.40501965-.116117-.42679158-.3468068-.02609544-.2771675.14931529-.4343577.41660046-.4359107zm13.78766871-1.2243147c.2282193-.007875.3617846.1558005.3948286.3437185.0018529.2872042-.1249184.4280269-.3608582.4539679-.2444324.0268675-.3937476-.1080876-.4241666-.3401671-.0369042-.2807189.1289331-.4481002.3901962-.4575193zm-15.1346254-.0433586c.32210102.011272.46292371.1522491.46168843.3838654-.00108088.225131-.12692572.3861815-.37753452.3918947-.28504243.0064853-.42910775-.160124-.42385778-.424321.00494115-.2465941.19116063-.3342995.33970387-.3514391zm15.8932922-1.567162c.2336236.0125073.3705861.142058.3929756.3787698-.0270219.2297634-.1364991.397608-.3744463.4098064-.279638.0145146-.4260195-.1520947-.4145931-.4249386.0098823-.2367119.1494697-.3769169.3960638-.3636376zm2.8822792-.0283189c.2252854.003397.3586964.1564182.3909683.3963726-.0376763.2470574-.1751019.4101152-.4430047.4073358-.2399545-.0024705-.3695052-.1655284-.3766081-.3874168-.008647-.2740792.1723225-.4201519.4286445-.4162916zm-22.10513248.3261157c-.0256322.2966232-.16244021.4633869-.42478424.4734236-.23532213.0089559-.37429189-.1562637-.40239467-.3702772-.03057335-.2317707.12183016-.3952917.33460831-.4314239.25879257-.0440071.40625493.1298595.4925706.3282775zm2.6040926-.3776272c.27407925-.0203822.39189472.1727858.45041643.407027-.0356689.2309986-.16398431.3948285-.38602711.3994609-.24921911.0050955-.44331354-.1371169-.44161502-.4090344.00123529-.2249766.15363879-.3809315.3772257-.3974535zm16.55835518-1.6928833c.266822-.0177572.4186078.1590432.4255563.420924.0064853.242425-.174021.339395-.3500494.4019314-.2611087-.0106543-.4278724-.1383521-.4538135-.3542185-.0305733-.2529249.1150361-.4511885.3783066-.4686369zm-16.51030253-.0607336c.28025569.0009303.43744593.1558044.41721811.431891-.01760284.2379471-.18436655.3515934-.37907863.3569978-.29446148-.0155955-.42509306-.1786533-.4244776-.3999241.00061983-.2221972.13387639-.3898874.38633812-.3889647zm19.11537333.3908022c.0010755.2347045-.1604383.3625567-.4005471.3858727-.2357854-.0101911-.3877257-.136808-.4048653-.3710492-.017294-.2371751.1236831-.3956006.3563803-.4172181.2745424-.0256322.447637.131558.4490321.4023946zm-21.47988206-.4024257c.22574866.0001546.37552718.1293965.39899763.3713583-.0128161.2280648-.10731554.4000785-.35360084.4094975-.26404255.0100367-.44022532-.1198228-.43404889-.4036299.00524997-.2402633.1595064-.3773801.3886521-.3772259zm18.48509376-1.6621245c.2218884.0318086.3421744.1982635.3611669.4138211-.0616099.2427338-.2056752.3725933-.4372915.3647184-.2354765-.0077206-.3974535-.1491609-.3823212-.384483.0168308-.2572485.1825136-.4338945.4584458-.3940565zm-15.63385116-.0721716c.23084422.0395292.40208585.148852.39189473.3971447-.01127199.270991-.17263133.4326592-.45072526.4050196-.24026328-.0237792-.36024051-.2049032-.34356413-.4301886.01683078-.2272928.15873435-.3708948.40239466-.3719757zm17.69295066-.1453624c.2373295-.0071029.378461.144683.3847918.381858.0063309.2354766-.1276977.3733655-.3528288.4158284-.2410353-.0069485-.4098063-.1224478-.4348209-.3509758-.0298013-.2725352.1348007-.4386812.4028579-.4467106zm-19.96522979-.0178036c.20691053.0608379.37861539.1656829.36811546.4073358-.01173523.2682117-.18143275.4220049-.44084297.3988433-.25832935-.0231617-.40378436-.2027415-.35977727-.468637.03752183-.2266751.20799141-.3278142.43250478-.3375421zm17.50656129-1.5424408c.2365574.0268675.3594685.1693887.3622479.3980712.0032426.2689837-.1364992.4278724-.4158284.4108872-.2322339-.0140514-.3651817-.1508594-.3705861-.3888065-.0064852-.2844248.1670726-.3951373.4241666-.4201519zm-14.85043224-.0653334c.23254274-.0006155.36904193.1324867.37938745.3746029.00540438.2751601-.13788888.4343577-.40378436.4326592-.22374132-.0012353-.37552718-.1337198-.3815492-.3772257-.00663967-.2729984.13634478-.4292622.40594611-.4300364zm16.94075364-.3132665c.2373295.0064852.3710493.1571902.381858.3858727.013125.2788659-.1798886.38788-.4030123.4426959-.2447412-.039066-.3925123-.167227-.3932891-.4008506-.0009218-.261572.1334157-.435593.4144434-.427718zm-19.23733704.0051418c.24875588-.003397.35946845.1584256.38386537.3903507.00324263.2469029-.12167575.3996152-.36193903.4056372-.22065309.0055588-.40671816-.0957347-.42385777-.3481964-.01883812-.2751601.11997723-.44424.40193143-.4477915zm16.96357554-1.40083061c.2387192.00957348.3512847.16568284.3696596.395755-.0209999.23980005-.1613593.36703459-.3917403.37398307-.2350133.00725731-.3864904-.11920517-.3966815-.35900521-.0118896-.27871158.1477712-.42185044.4187622-.41073286zm-14.0907463.28899534c-.01451462.21617519-.10438173.40795346-.34217443.43358566-.26543225.02856601-.4511885-.12028605-.46338695-.39328442-.01065435-.23825594.15626377-.38417419.38000509-.40409319.23408684-.02099987.38062274.1181243.42555629.36379195zm14.07197-2.10835657c.2322339-.00802937.3716669.1395874.399152.32704217.007875.29708647-.1320212.44655617-.355917.47172513-.2240501.02516897-.4030123-.09172004-.4294165-.33538035-.0294925-.27392485.1108669-.4541223.3861815-.46338695zm-14.47493598-.05112847c.23424125.00062068.35962286.15132566.36240225.39189776-.0171396.22976334-.12414632.38587271-.36904192.38618223-.22543984.00030812-.38911533-.10144863-.40115938-.3515942-.01358815-.28071892.14607266-.42725481.40779905-.42648579zm14.14364748-1.69701849c.2421162.01760284.3952918.16491078.3855639.39035062-.0111176.26203521-.1923959.4257107-.4652399.38633594-.2228148-.03196305-.3708948-.18730036-.3383141-.42910774.0304189-.22682954.1638299-.36965957.4179901-.34757882zm-13.81804133-.09108696c.22466778.02748513.40347554.14313886.42262248.37197573.02285281.27145427-.14144033.44331354-.4186078.43914445-.23794711-.00370586-.37815216-.16027846-.38834328-.39637264-.01080876-.25138086.16753577-.3529832.3843286-.41474754zm12.95551783-1.43955688c.2558587.04477915.2859689.25215291.3213289.41629164-.0798304.27670424-.2502999.38896093-.4726516.35638024-.2195722-.03227187-.3793874-.17896217-.3423288-.42617394.04061-.27222632.2200354-.3943653.4936515-.34649794zm-11.6083758.25601319c.0423085.26049109-.12430078.40903433-.33615246.48160743-.2918365-.02254399-.45782816-.15765348-.46647516-.42154161-.00772055-.23964564.16491078-.36394637.37707128-.39359325.23655742-.03304392.39081384.12028605.42555634.33352743zm10.1058965-1.41104111c.2641969-.00092256.4047108.16275294.4368283.42061906-.0574409.25678523-.207837.41119608-.4735781.38556388-.2407265-.02316163-.3369245-.21138845-.3409392-.42694599-.0044779-.23856476.147308-.37830658.377689-.37923695zm-8.7100379.32662917c.0121984.23192509-.1539476.35915963-.3804684.39467413-.2404176-.00108088-.3943653-.12738895-.4227769-.35344643-.029338-.23455008.1167346-.39760793.3390863-.42617394.2654322-.03412479.4504164.12074929.464159.38494624zm7.0588764-.93052608c.2655866.0100367.4107328.18760918.3860271.45149731-.0219264.23269715-.1971827.32827746-.3676522.35452731-.3248805-.03227187-.4596811-.20521202-.4397621-.45906345.018066-.22991775.2036679-.35499053.4213872-.34696117zm-5.3547983.31353122c-.0163676.22991775-.1398963.39035062-.3620935.42339454-.2737704.04076447-.4371371-.12723453-.4629237-.38355654-.0228528-.22868246.1199772-.39467412.3440274-.42679158.2748513-.03952917.4062549.14823441.4809898.38695358zm3.5511406-.39419545c.2402633.00633085.35252.17000635.3736743.40023292-.0151323.23547654-.1286243.38834328-.3747552.38679917-.2252854-.00123529-.3979167-.09897735-.4059461-.35390966-.0083382-.27299838.1283154-.44068856.407027-.43312243zm-2.0976559-.0544607c.2430427.02794836.3264245.19980763.3219466.4271004-.0290292.22868246-.1530211.38278449-.3888065.36780664-.2533882-.01621314-.4207695-.15966082-.3996153-.4397621.0214631-.28581447.2090723-.38432859.4664752-.35514494z" fill="#f00"/></g></svg>