<?xml version="1.0" encoding="UTF-8"?>
<svg width="37px" height="40px" viewBox="0 0 37 40" version="1.1" xmlns="http://www.w3.org/2000/svg" xmlns:xlink="http://www.w3.org/1999/xlink">
    <title>Group 3@2x</title>
    <defs>
        <polygon id="path-1" points="-2.23584063e-16 0 36.8664661 0 36.8664661 40 -2.23584063e-16 40"></polygon>
        <linearGradient x1="-12.8014035%" y1="0%" x2="50%" y2="32.5588915%" id="linearGradient-3">
            <stop stop-color="#F7B222" offset="0%"></stop>
            <stop stop-color="#23BDE3" offset="100%"></stop>
        </linearGradient>
        <path d="M23.4781612,4.85400698 C22.5022711,4.85400698 21.5261845,4.86658136 20.5506874,4.84683565 C20.22896,4.84035198 20.125909,4.93190922 20.1294455,5.25923616 C20.144967,6.66422711 20.1288561,8.069611 20.1406446,9.47479843 C20.143297,9.77923606 20.0459437,9.87491926 19.738559,9.87177567 C18.3204042,9.8571383 16.902053,9.87069505 15.4838982,9.86096955 C15.2049041,9.85910304 15.0917346,9.93612115 15.0933064,10.2357451 C15.1039161,12.21346 15.1048002,14.1911748 15.0923961,16.1688897 C15.0905558,16.4681207 15.1882037,16.5395393 15.4730921,16.5368869 C16.8911487,16.5237231 18.3095981,16.5409146 19.7276547,16.5236249 C20.0603846,16.5194989 20.1447705,16.6300159 20.141627,16.9464385 C20.1278737,18.3515277 20.1421181,19.7569116 20.1314103,21.162099 C20.129249,21.4439421 20.2049901,21.5455195 20.5045158,21.543653 C22.4691651,21.5311769 24.4340109,21.5293103 26.3986601,21.5450722 C26.72471,21.5476807 26.781393,21.4303853 26.7788388,21.1412727 C26.7665591,19.7492491 26.7834559,18.3567343 26.7660679,16.9647107 C26.7618437,16.6326683 26.8349323,16.5164535 27.1925164,16.5220531 C28.5844417,16.54396 29.9768583,16.5218566 31.3688819,16.537771 C31.6844204,16.5413076 31.7951339,16.4645842 31.7927178,16.1309701 C31.7780406,14.1793864 31.7788265,12.2276062 31.7921868,10.2759242 C31.794348,9.95036557 31.69503,9.85507531 31.3718291,9.85871009 C29.9797072,9.87442807 28.5871924,9.8532088 27.195267,9.87374041 C26.8416125,9.87894699 26.7614508,9.76734933 26.7657732,9.43147575 C26.7837506,8.02638656 26.7648891,6.62090442 26.7799194,5.21591347 C26.7832595,4.91992426 26.6941582,4.84241497 26.405635,4.84752331 C25.4300396,4.86451838 24.4540513,4.85400698 23.4781612,4.85400698 M10.8590791,0 L13.2011563,0 C13.2365218,0.0157179801 13.2708066,0.0422420716 13.3072527,0.0455821424 C15.0116712,0.204824929 16.6518424,0.630389241 18.2448597,1.24496226 C18.4275812,1.3154967 18.5705166,1.25999258 18.726714,1.20055897 C19.6495559,0.849458589 20.5955819,0.581467028 21.5587011,0.360334695 C22.2550076,0.200404247 22.9649691,0.141461821 23.6623563,0 L26.0044335,0 C26.1053233,0.0206298489 26.2052307,0.0501992991 26.3071029,0.0605142235 C27.3873211,0.170540085 28.438854,0.411909317 29.4258449,0.861738261 C32.5067655,2.26604155 34.6402848,4.59132024 35.9247385,7.69974728 C36.7381439,9.66822782 36.9852109,11.7226661 36.8161444,13.8501929 C36.6448184,16.0073875 36.1727878,18.0812767 35.3684202,20.0850244 C34.6711313,21.8225489 33.6816845,23.3895333 32.597635,24.9065149 C31.5423691,26.3833173 30.8608965,28.028204 30.4427982,29.7952979 C30.1472019,31.0448773 30.2125298,32.3294292 29.9972917,33.5839205 C29.7060179,35.2828377 29.1555939,36.8772303 28.1107411,38.2743623 C26.1969788,40.8334459 23.4786524,40.1665124 22.1017573,38.7164304 C21.3622263,37.9376045 20.8927499,36.9975711 20.5403725,35.9975146 C19.8076199,33.918517 19.4657538,31.7465869 19.048245,29.5934201 C18.898433,28.8206849 18.6916433,28.0657306 18.4603925,27.2838594 C18.3259055,27.4127468 18.3218778,27.545269 18.2868071,27.6639398 C17.7223351,29.5736743 17.4991398,31.5567923 17.0342805,33.4879426 C16.6505653,35.081844 16.2354142,36.6623852 15.3053027,38.0521493 C13.8703494,40.1963765 10.715849,40.9814896 8.70581403,38.212178 C7.69730913,36.8228068 7.16103129,35.2545453 6.86347028,33.5845099 C6.6987262,32.6600962 6.7442101,31.7177051 6.60265005,30.792309 C6.25881923,28.5428696 5.43706358,26.4878419 4.08767499,24.6505083 C1.71484941,21.4193827 0.342178555,17.8278243 0.0439298822,13.8113892 C-0.185061441,10.727325 0.473718402,7.88983661 2.1958196,5.32888645 C3.72488436,3.05498592 5.74484128,1.37473384 8.38575666,0.507494284 C9.19169609,0.242842793 10.0281873,0.137532326 10.8590791,0" id="path-4"></path>
    </defs>
    <g id="Page-3" stroke="none" stroke-width="1" fill="none" fill-rule="evenodd">
        <g id="Questions-Page" transform="translate(-1182.000000, -332.000000)">
            <g id="Group" transform="translate(135.000000, 262.000000)">
                <g id="Group-10" transform="translate(960.000000, 0.000000)">
                    <g id="Group-3" transform="translate(87.000000, 70.000000)">
                        <mask id="mask-2" fill="white">
                            <use xlink:href="#path-1"></use>
                        </mask>
                        <g id="Clip-2"></g>
                        <g id="Fill-1" mask="url(#mask-2)">
                            <use fill="#23BDE3" xlink:href="#path-4"></use>
                            <use fill="url(#linearGradient-3)" xlink:href="#path-4"></use>
                        </g>
                    </g>
                </g>
            </g>
        </g>
    </g>
</svg>