<svg height="57" viewBox="0 0 41 57" width="41" xmlns="http://www.w3.org/2000/svg" xmlns:xlink="http://www.w3.org/1999/xlink"><defs><linearGradient id="a" x1="13.239878%" x2="50%" y1="0%" y2="32.558892%"><stop offset="0" stop-color="#f7b222"/><stop offset="1" stop-color="#23bde3"/></linearGradient><path id="b" d="m28.1504246 45.9565482c.2929782 3.5547895.7103483 6.9225149 1.2827797 10.2679526.0944846.5530012-.0297169.6360561-.5185219.6648205-2.1321879.1245824-2.1552375.0897222-2.3916393-2.0146537-.1929694-1.7176752-.4535638-3.4281117-.7034906-5.1387387-.1186771-.813024-.0861028-1.5115618.6299603-2.1215203.5598588-.4769944.9743716-1.1265755 1.7009118-1.6578604zm6.2333494-2.6220216c.3834624 1.5711861.326505 3.053031.4476585 4.5099213.2242103 2.6985236.2672617 5.4119056.4249899 8.1167154.040194.6893941-.1335356.9722762-.8709339.9332251-1.0406632-.0550524-2.0866602-.0278119-3.1297997-.0070482-.4914719.0099056-.7446371-.0927701-.7381603-.6752976.0306694-2.7131915.0495282-5.4273355-.1895405-8.1348123-.0276215-.3133609-.0525761-.6312937.2045894-.8880782l1.5209204-1.5205089c.7638524-.7646526 1.5359205-1.5386179 2.3302762-2.3341166zm-17.1999351-42.07123201c1.6647182-1.53537343 1.0663798-1.7805379 2.8532039-.12629685 5.7107891 5.28637071 10.7539003 11.13869606 15.1289525 17.58212116 1.9801746 2.916257 3.0073127 6.0633916 3.0873198 9.5629381.120963 5.304277.5901472 10.5883618 1.0006596 15.8747325.2390687 3.0781761.5794797 6.1487325.8802681 9.2223367.0747395.7630321-.310343.7777011-.7113455.7530189l-.1502552-.0097156c-.1243896-.0073255-.2449151-.009839-.3480298.0140968-.894936.1504895-1.3334508-.1009613-1.4006948-1.1056212-.1558233-2.3263003-.4583262-4.6425045-.666916-6.9659474-.2653567-2.9530221-.5185219-5.9073778-.7356839-8.8644003-.1689672-2.2984883-.486138-4.6127876-.3646035-6.9004178.2506887-4.7185111-1.4300308-8.6457144-4.1954174-12.3361349-3.3820124-4.5137312-6.9587086-8.84249367-10.9863017-12.79236563-1.0833336-1.06256984-2.2009559-2.09256539-3.3425803-3.09227255-.3621272-.31717082-.3827004-.50804478-.0485758-.81607193zm-16.87575406 16.84003671c1.22620331-1.2397284 1.21744064-1.289828 2.65852003-.3575554 3.74052017 2.4202134 7.61305193 4.6080252 11.59797463 6.594867 2.8810159 1.4365076 4.1725583 3.8245276 4.2775199 6.93604.0403845 1.1976293-.0539095 2.3983066-.1021042 3.5970789-.1066761 2.6516623.1986841 5.2888471.5949095 7.912507.429295 2.843222 1.1335095 5.6234137 1.8758347 8.3932426l.5601896 2.0762516c.2230673.827692-.0373366.9280818-.7229209.9000793-.1840682-.0075331-.3472545-.010592-.4922854-.0114738l-.2666621.0004587c-1.1389951.009335-.8547705.0749226-1.3639063-1.6708474-1.0507592-3.6010793-1.8475914-7.2581636-2.3821147-10.9685859-.3028838-2.1001851-.3183138-4.2226579-.2752623-6.4460919-.1163913-1.5346115.1638239-3.1698032-.1036282-4.8202344-.2682141-1.656146-1.1425769-2.7488137-2.5739412-3.501261-2.76672-1.4540329-5.55153692-2.8762535-8.222439-4.5032541-1.64547837-1.002374-3.25990638-2.0556097-4.89909848-3.0686514-.50385394-.311456-.66691593-.5507152-.16058558-1.0625698zm23.08818736 15.5987082c1.8957862-1.5528988 4.0281646-2.3527788 6.5289565-2.1954316 2.1222823.1335356 3.4208729 1.5233723 3.7770948 3.568505.2857394 1.641859.4067025 3.3130539.5842419 4.9728193.0356222.3348866.0906747.6813933-.2040179.9770385-1.3153541 1.3185924-2.6169926 2.6509003-4.0380702 4.0944561-.5670976-2.4405961-.6370086-4.817758-2.1860975-6.7562146 0 1.4294594-.0813405 2.7945321.0308599 4.1434129.0657201.7886409-.1438222 1.3304029-.6943469 1.8279706-.3979399.3600317-.7598765.7598765-1.1448629 1.1349572-.1285827.1249634-.2470693.3474592-.4556592.258499-.1906834-.0809596-.1777299-.3087892-.1887785-.5021395-.0641961-1.1343857-.1398219-2.2682-.203256-3.4023952-.0689585-1.2288702-.1459176-2.4577404-.1843972-3.6877536-.01543-.4931863-.2579275-.6352941-.6970138-.7025381-.8878878-.135631-1.6717664-.516998-1.9243601-1.4426033-.2668807-.978372.2845965-1.7026263.9997071-2.2885827zm-14.56654102-31.7198244c.34555427-.35679336.60024338-.3175518.95189343.00933415 3.82624199 3.55707543 7.44160829 7.32102624 10.99906469 11.14250595 2.2828679 2.4522161 4.58669 4.8891928 6.6657304 7.517615 2.2577228 2.8539658 2.1801922 6.3931349-.0927701 8.8764014-.9035082.9871346-2.0098914 1.4888931-3.3568673 1.4631766-1.58814-.0114296-2.7364317-.8600758-3.6848962-2.0178922-.4086075-.4989011-.3108846-1.1429579-.1863021-1.7338671.0638151-.3021219.1741105-.6242455.3569838-.867124 1.708722-2.2687714 1.1602927-4.3382872-.3324103-6.5015255-2.656996-3.8498631-5.847563-7.2002536-9.2499581-10.37386671-1.47917801-1.37974066-2.99588312-2.71604892-4.58783296-3.96511139-.42251343-.3312673-.434324-.61795923-.03733662-.99780223.86960045-.83188285 1.71729422-1.68738683 2.55470136-2.55184397zm20.48193862 19.3799939c.6703448-.4364194 1.8474009-.1365835 2.3720186.5650022.6568198.8781726.989992 1.8883569 1.099335 2.9720714.080388.7953082-.0451468 1.5793774-.2263057 2.3470641-.1828732.7758779-.6156733 1.3418325-1.5151811 1.2404903-.8873163-.0998184-.9595132-.7722586-.9425593-1.4768921.0030479-.1264874.000381-.2533557.0005715-.379843.0748637-1.2315371-.2845965-2.3577317-.8015945-3.4563047-.2788817-.5926236-.8486462-1.2498244.0137155-1.8115882z"/></defs><g fill="none" fill-rule="evenodd" transform="translate(0 -.000001)"><use fill="#23bde3" xlink:href="#b"/><use fill="url(#a)" xlink:href="#b"/></g></svg>