<svg height="50" viewBox="0 0 57 50" width="57" xmlns="http://www.w3.org/2000/svg" xmlns:xlink="http://www.w3.org/1999/xlink"><defs><linearGradient id="a" x1="-23.930989%" x2="50%" y1="11.425376%" y2="36.544316%"><stop offset="0" stop-color="#f7b222"/><stop offset="1" stop-color="#23bde3"/></linearGradient><path id="b" d="m54.0594012 34.2124775c.5673674.0063535 1.6153768-.4793714 1.6093669.6115241-.0047911.9187158-.9717934.7783035-1.6392283.7792565-7.4612298.0098479-14.9224597.0225549-22.3836895.0054005-3.6059275-.0085772-4.4858869 1.2246366-3.3066778 4.7228724.8583575 2.5458464.5238459 4.9290434-1.1544305 7.0374515-2.4000337 3.0150523-6.2766202 3.4794929-9.3189925 1.1823859-2.9340451-2.2160999-3.6659681-6.6654543-1.585833-9.6808242.2096655-.3040148.4558635-.5838864.6922136-.8688408.4685704-.5660966.7379587-1.2497329.4634876-1.9152618-.3090976-.7490774-1.1061439-.46317-1.7011489-.4657114-4.4976409-.0212842-8.99559952-.0114363-13.4935581-.0130247-.42314293-.0003176-.84692122-.0022237-1.26911113-.0279553-.53115239-.0324029-.9685907-.2792363-.97178358-.8418385-.00347829-.6232781.56134764-.5343291.95462914-.5352821 5.71497103-.010801 11.42994207-.0019061 17.14491307-.0142954.8879013-.0019061 1.2935721.3408651 1.1026495 1.2510037-.297979 1.4228657-.3812098 2.8320715-1.4559039 4.0811691-1.7557891 2.0404257-1.5324636 5.1885838.2093477 7.158168 1.6560391 1.8723757 4.4455422 2.2955187 6.6622775 1.0105238 2.3520648-1.3634606 3.4045217-4.0738626 2.2821763-6.7264479-.9015613-2.1303277-.0895843-4.0573435.2083948-6.0529771.1385062-.9276106 1.0588103-.7100033 1.7103615-.7128624 4.2330177-.0171544 8.4663531-.0085772 12.6996885-.0085772 4.1806014 0 8.3612028-.0206489 12.5408511.0241433zm-24.046495-27.60718573c.180757-.40027034.2960729-1.12456906.8726528-.92316319.7052383.24588035.2922609.91395062.1305644 1.36409592-3.6164108 10.0563159-5.3369379 20.5386338-6.992024 31.0355648-.1963231 1.2462385-.2515985 2.3708076.4876309 3.6167284 1.1321933 1.9085907-.466029 4.3098951-2.7821966 4.2546197-1.1131327-.0959379-2.0191415-.7538425-2.5010543-1.9251098-.492396-1.1973166-.297026-2.39781.6912606-3.1859613 1.0820006-.8631227 1.2570395-1.9495708 1.4501858-3.1786549 1.6782764-10.6853121 4.1628116-21.1517463 8.6429804-31.05811963zm-13.4928275 20.62040333c.1540724-.0886313.4228253-.1007029.5832511-.0276377.2353971.1073741.2007705.3847042.051781.5397296-1.4902128 1.549618-2.992815 3.0868468-4.4982762 4.6221694-.0660764.0673471-.1890166.0787834-.3052856.1242109-.6502805-.0965731-.8828185-.6725177-1.1992227-1.1318756-.2786008-.4044001-.2109361-.84025.2131599-1.096296 1.7068671-1.0292666 3.4277119-2.0353429 5.1545925-3.0303006zm39.5691997-17.83741507.1014036.01032693c.6426563.12611693.6201014.88535984.7344643 1.51721524-.2550929.916492-.515904 1.8866711-.7948225 2.8514497-1.533099 5.2956402-2.6052517 10.6916656-3.5334977 16.1194586-.0892666.5197161-.1709091 1.0565866-.3685028 1.5391347-.4101183 1.0025819-1.3348699.6941196-2.0709226.6378912-.9272929-.0705238-.6420209-.8091179-.5257519-1.3447178 1.4889422-6.8852852 3.1560999-13.7213309 5.7791414-20.2829055.1661439-.4155187.2430213-1.1429942.7798918-1.03752614zm-16.8895325-2.89595345c.2045826-.44220342.3592903-1.18937473 1.0527746-.92348086.7033321.27034132.3129097.91998644.1439067 1.37743826-2.8393781 7.68296692-4.4287055 15.67376072-5.882068 23.69949882-.2436567 1.3450354-.3999527 1.4727407-1.6951132 1.4689286-.956519.1067388-1.3269279-.3291111-1.1010611-1.4038052 1.7443527-8.305292 3.8975531-16.483514 7.481561-24.21857962zm9.2539645-.62527946c.1775802-.28654274.4676174-.44474482.8145184-.28368366.3532544.16392024.3935991.49811421.2944846.81197698-.255093.80657652-.5432241 1.60266976-.8275431 2.39971602-2.462298 6.90752254-3.8263939 14.07807984-5.1234604 21.26674464-.0128658.0713634-.0246733.1441628-.0360924.2177332l-.0337627.2223595c-.1357519.8933703-.3120809 1.8020112-1.686887 1.5768251-1.6093409.16805-1.3062791-.890125-1.123616-1.7586481 1.0349847-4.9207839 2.2767758-9.7916928 3.8314767-14.574288.9485772-2.9168908 1.9451233-5.82234518 3.2285298-8.61661339.1982291-.43140248.4126596-.85899287.6623521-1.26212229zm-36.6905906 10.10377648c.6041118-.4389207.9329053-.1052739 1.2222468.2824954l.1141916.1562912.056566.0771174c2.8072929 3.7768367 5.6053732 7.5606621 8.4044065 11.3438522.2865427.3875634.529564.7957756.4707942 1.3107266-.0600406.3577019-.010801.8142007-.4142481.9625548-.4491922.1645556-.6337613-.2868604-.84025-.5632375-3.0058397-4.024623-6.0015138-8.0565526-8.9990939-12.0872114-.3640554-.489537-.708415-.9781209-.0146131-1.4825887zm-1.81125505 9.149926c-.08132476-.8348496.31386275-1.2649814 1.31072655-1.0670699 1.2446502.247151 2.4943831.4685704 3.7390333.7154038.3014735.0597229.671247.1149983.64488.543224-.0196958.319581-.3243461.4085299-.5743562.4542751-1.3513889.2468334-2.7027778.4987496-4.0621086.6944373-.9047381.1302467-1.03371408-.5143156-1.05817505-1.3402703zm-5.45431879-24.51538323c.80752954-.96541395 1.15347748-.6928489 1.66175728.23126731 1.70813781 3.1055896 3.49664737 6.16702239 5.20573816 9.27197662.5651436 1.0267252 1.2529098 1.6967015 2.4489557 2.0305778 2.1354105.5956404 3.4445487 2.5757079 3.436328 4.9109359-.1115428.4838189.1603869 1.4682933-.5931379 1.4927543-.8485096.0276377-.955566-.9320581-1.0746941-1.6839945-.2903548-1.8339371-1.2913484-2.9953564-2.7860087-3.234248-1.5267454-.2439743-2.7056369.3056033-3.45503192 1.673829-1.04991547 1.9168502-.13691787 4.2635145 1.95687722 4.8769447.8599459.2515985 2.0023048.5896046 1.712903 1.4536802-.3611964 1.0791416-1.5597837.4450625-2.3495234.1902873-2.01151735-.6480568-3.30636015-2.4756403-3.29714758-4.7400269.00476512-1.1026495-.35929028-1.8768231-1.12361604-2.6443256-1.82853659-1.8361608-3.55128744-3.7771543-5.35472772-5.63841143-.63058463-.65059815-.84692122-1.23353155-.38406893-2.09983094 1.15061841-2.15351799 2.42163559-4.21014514 3.99539693-6.09141576zm14.95635554 16.32947343c.1582021-.8907603.7941872-.8332612 1.4530449-.6388441.7036499.2077593 1.1175802.5778506.749395 1.3802973-.5247988 1.1417235-1.0229131 2.2958363-1.5664548 3.4286649-.167097.3475364-.3151334.8987023-.8589928.7023792-.4323555-.1559784-.2515985-.6258195-.2211017-.9774856.0314498-.3646908.0841838-.7277932.1273876-1.0915309-.0270024-.0034944-.0543224-.0076242-.0816425-.0111186.1299291-.9314227.2338087-1.8672929.3983643-2.7923622z"/></defs><g fill="none" fill-rule="evenodd" transform="translate(-.000301 -.000616)"><use fill="#23bde3" xlink:href="#b"/><use fill="url(#a)" xlink:href="#b"/></g></svg>