<svg height="40" viewBox="0 0 40 40" width="40" xmlns="http://www.w3.org/2000/svg" xmlns:xlink="http://www.w3.org/1999/xlink"><defs><linearGradient id="a" x1="-23.34187%" x2="50%" y1="0%" y2="32.558892%"><stop offset="0" stop-color="#f7b222"/><stop offset="1" stop-color="#23bde3"/></linearGradient><path id="b" d="m110.837937 74.837258c.26764.221828.257651.4057661.152363.6921217-1.287222 3.502173-2.603379 6.9944716-3.829978 10.5178858-1.025323 2.9450769-1.179867 5.9846488-.731619 9.0664738.446756 3.0720654.352491 6.1349457-.243643 9.1825547-.170964.873993-.142259 1.766931-.220795 2.649995-.079798.897875-.128251 1.798851-.172801 2.699252-.01217.24594-.072679.365235-.344223.353065-1.368169-.061772-1.135319.315749-1.233029-1.14749-.142948-2.139974-.245021-4.280752-.632072-6.398911-.208394-1.140141-.225043-2.306001-.228028-2.9609218-.000689-2.0403126.147196-3.5631412.351802-5.0822957.415066-3.0810212.060968-6.0766179-1.008216-8.9916125-1.206046-3.2881526-2.405433-6.5788311-3.6265201-9.8613575-.1350258-.3629391-.0611979-.5561775.2266503-.7900614 3.3389018-2.7134894 8.2190038-2.6826034 11.5401088.0713019zm.455321-2.688241c.770658.5973971 1.520188.722893 2.43299.3708616 1.854193-.7148557 3.729971-1.3743693 5.600468-2.0462831 1.808496-.6496392 3.566242-.250188 4.58479 1.1169477 1.351521 1.8142362 1.509395 4.8355522-1.448082 6.4300271-.402781.2171205-.809236.432978-1.231995.6057788-.399107.1630413-.534477.4383744-.499457.8412701.023652.2714293.023652.5395289-.071187.8053322-.246399.6918921-.734605 1.0338196-1.385851.9534471-.782025-.0966766-1.2762-.5543404-1.300312-1.294456-.031231-.958614-.028245-1.919639.000115-2.8784826.019289-.6567579.419085-1.1191292 1.017974-1.2867632.580864-.1624672 1.097544.0346749 1.493206.5744335.084391.1151623.155923.2397396.235032.3589205.181986.2746442.436652.3527203.747694.2723478.946213-.2445619 1.946162-1.4932056 1.989218-2.4828204.081521-1.8744008-1.620423-3.2524441-3.412155-2.6747957-1.795177.5787966-3.56096 1.2527771-5.322725 1.929054-.921872.3538685-1.388721 1.4158185-1.162071 2.4708794.480742 2.2368806.493832 4.4583756-.201161 6.6579405-.5672 1.7952913-1.516398 3.3549765-2.877678 4.662981-1.608139 1.5451033-1.963959 3.379892-1.004427 5.3950594.605205 1.2713776 1.015564 2.5799562 1.025553 3.9964636.010104 1.4626641-.354672 2.8303739-1.06482 4.1070327-.257422.462716-.531033.916706-.778235 1.384818-.472246.894086-.359151 1.937551.312534 2.67824.257192.2836.331823.563871.26431.93634-.213905 1.181934-.407947 2.367658-.592345 3.55453-.038119.24571-.12274.328838-.377406.334579-1.195942.026867-1.189857.035478-1.115455-1.164483.07268-1.17183.127218-2.344694.197716-3.51664.074058-1.229928.379243-2.427707.498769-3.654076.219072-2.2503148.205294-4.4933956-.1418-6.7239612-.491306-3.1572603-.130548-6.2295553.917165-9.2159666 1.230732-3.507799 2.540688-6.9879269 3.829518-10.4751735.125496-.3396311.054079-.5786818-.190712-.8033803-2.32242-2.1314778-5.034302-3.1620825-8.202585-2.8989201-2.369954.1969125-4.4113003 1.1368112-6.1594015 2.7343862-.5402178.4938314-.5699556.6296609-.3204565 1.3129417 1.2849262 3.5193956 2.576282 7.0364948 3.852023 10.5591053.979051 2.7037299 1.20042 5.4843877.854818 8.3320991-.405421 3.3408539-.433666 6.6737854.188416 10.0062574.221943 1.188824.205065 2.422426.29359 3.635936.035363.48545.050749.972507.095298 1.456808.025031.271315-.080372.336072-.33676.342846-1.1313.029279-1.131759.036972-1.312253-1.065854-.152478-.931516-.288537-1.866019-.461453-2.793632-.070268-.376947.029968-.666862.2619-.947706.782598-.948051.850226-1.727549.255699-2.803851-.531836-.962862-1.142208-1.886112-1.4478527-2.9610365-.5813226-2.0455942-.3472091-4.0240199.4927977-5.9475627.327231-.7495307.668699-1.4915982.70613-2.3244867.064872-1.4422265-.514958-2.6039531-1.5482035-3.5805934-1.6172089-1.5284548-2.6457469-3.399411-3.1407265-5.5620045-.4327483-1.8910494-.3444534-3.7800321.0791095-5.6615516.2978374-1.3230456-.1483446-2.1720085-1.4098479-2.6381689-1.5960824-.5899339-3.1931982-1.1775714-4.7972031-1.74569-1.7875985-.6332202-3.1952649.109651-3.7116006 1.9349098-.3523759 1.245314.9018939 3.0147713 2.1915276 3.0896325.2940484.0171079.4698345-.1275626.5959045-.3931362.4109329-.8649225 1.2627663-1.1201625 2.0671799-.6340239.38441.2322764.5959044.5682333.5971674 1.0241749.0013778.4727049.0003445.9454098.0003445 1.4181148 0 .4440005.006889.8881158-.0013779 1.3321162-.0158448.8508-.6443575 1.54407-1.3721876 1.5240917-.8653819-.0236525-1.443834-.6429798-1.3907882-1.5603741.0327231-.5666259-.1666007-.9010902-.6908588-1.1348593-.8346107-.3720097-1.6635953-.7658348-2.3165642-1.4448673-1.0791726-1.1221145-1.4332707-2.450901-.9841035-3.9170097.4422783-1.4441784 1.4279892-2.4297746 2.9187837-2.8254367.8762895-.2325061 1.7309933-.0585571 2.5659485.2454805 1.8675117.6801807 3.7376642 1.3528982 5.6033389 2.0380161.875371.3214899 1.6478652.2288319 2.4103703-.3621354 3.701841-2.868723 8.905155-2.8713638 12.604699-.0040186z"/></defs><g fill="none" fill-rule="evenodd" transform="translate(-85 -70)"><use fill="#23bde3" xlink:href="#b"/><use fill="url(#a)" xlink:href="#b"/></g></svg>