<svg xmlns="http://www.w3.org/2000/svg" width="27.969" height="27.969" viewBox="0 0 27.969 27.969">
    <path data-name="Path 4783" d="M34.029 20.044a13.985 13.985 0 1 0 13.984 13.985 14 14 0 0 0-13.984-13.985z" transform="translate(-20.044 -20.044)" style="fill:#128807"/>
    <g data-name="Group 5766">
        <path data-name="Path 4784" d="M61.3 36.418c.3.366.6.756.909 1.163.064.83.082 1.591.147 2.422-.009.356-.119.828-.222.873 0 0-.158.091-.264-.01a3.163 3.163 0 0 1-.385-.513.234.234 0 0 0-.374 0 5.172 5.172 0 0 0-.659 1.242c-.054.086-.207.159-.376-.007a1.7 1.7 0 0 1-.227-1.231v.02a1.338 1.338 0 0 0-.127 1.3 1.019 1.019 0 0 0 .475.54.333.333 0 0 0 .495-.054c.225-.233.228-.831.334-.95a.2.2 0 0 1 .351-.084.859.859 0 0 0 .321.277.539.539 0 0 0 .709.05.821.821 0 0 0 .373-.456 16.2 16.2 0 0 0 .03-2.6c.159.224.316.452.472.683a16.921 16.921 0 0 1 .077 2.129c-.016.136.476-.408.473-.665v-.62c.239.381.47.769.689 1.161.135-.072.089-.838 0-.944-.229-.384-.522-.8-.749-1.12a20.883 20.883 0 0 0-.134-1.029c-.043-.228-.087-.571-.152-.842a2.874 2.874 0 0 1-.055-.476c.027-.076.127 0 .177-.085a3.038 3.038 0 0 0-.426-1.187c-.061-.11-.17-.072-.306.107-.126.118-.08.387-.032.642.125.651.236 1.314.324 1.976a68.822 68.822 0 0 0-.558-.819l-.025-.129c0-.002-.027-.533-.05-.657 0-.05-.016-.065.037-.058a.31.31 0 0 0 .1.065c.056.01.106-.085.072-.174l-.525-.97a.147.147 0 0 0-.072-.047c-.027 0-.057.009-.09.058a.379.379 0 0 0-.13.288c.015.229.056.464.072.694l.017.092a1.605 1.605 0 0 0-.058-.069c-.447-.47.205-.077-.085-.44a3.519 3.519 0 0 0-.528-.518c-.106-.068-.169-.2-.2.023a4.417 4.417 0 0 0-.015.585.768.768 0 0 0 .174.365z" transform="translate(-41.136 -28.198)" style="fill:#fff"/>
        <path data-name="Path 4785" d="M39.638 44.85c-.005.085.234.188.249.384.034.081-.051.34.02.364s.156-.179.19-.371c.019-.105-.082-.472-.254-.538a.3.3 0 0 0-.082-.007c-.083.006-.157.05-.124.168z" transform="translate(-30.486 -33.179)" style="fill:#fff"/>
        <path data-name="Path 4786" d="M63.495 42a.038.038 0 0 0-.019 0s-1.02.725-1.045.751c-.1.09-.05.406 0 .369a4.06 4.06 0 0 0 1.08-.749c.045 0 .067-.358-.016-.373z" transform="translate(-42.612 -31.748)" style="fill:#fff"/>
        <path data-name="Path 4787" d="M68.484 37.6c.036.11-.055.465.02.5s.165-.246.2-.507c.02-.143-.086-.644-.266-.734a.2.2 0 0 0-.043-.007.166.166 0 0 0-.17.227c-.026.084.219.366.259.521z" transform="translate(-45.727 -29.005)" style="fill:#fff"/>
        <path data-name="Path 4788" d="M62.659 40.51c0-.207.024-.482.035-.654 0-.064.02-.136.082-.152s.169.062.17-.005a.889.889 0 0 0-.112-.418.209.209 0 0 0-.165-.09.247.247 0 0 0-.253.212c0 .087.039.135.032.214-.011.045-.058.075-.169.022.017-.016-.072-.142-.072-.142-.086-.053-.2 0-.277.052a.423.423 0 0 0-.025.336c.124.229.55.621.754.625z" transform="translate(-42.35 -30.252)" style="fill:#fff"/>
        <path data-name="Path 4789" d="M45.034 42.68a.047.047 0 0 0 0-.017l-.1-.057-1.91-.008a.2.2 0 0 1-.052-.027v-.015a.142.142 0 0 1 .06-.035c.456-.062 1.267-.2 1.32-.974a.64.64 0 1 0-1.257.027c-.017.105.035.311-.072.334-.7.064-1.469.5-1.494.819H41.493a.183.183 0 0 1-.1-.194 3.767 3.767 0 0 0-.481-1.634c-.1-.1-.142-.139-.17-.144h-.014l-.008.005h-.005a1.017 1.017 0 0 1-.1.093c-.1.109-.113.185-.107.4.006.023.182.513.331.858a2.661 2.661 0 0 1 .126 1.155 2.85 2.85 0 0 1-1.167 1.22.608.608 0 0 1-.488 0 .3.3 0 0 1-.129-.277 2.752 2.752 0 0 0 1.172-1.212 1.241 1.241 0 0 0 .032-.873.832.832 0 0 0-.2-.4c.066-.031.236.094.262.015a1.267 1.267 0 0 0-.336-.62.284.284 0 0 0-.413-.025c-.142.079-.172.362-.1.61.076.187.281.219.426.6 0 .023.05.281-.023.384a4.616 4.616 0 0 1-.879.826h-.005v-.115c-.005-.113.042-.369.038-.413v-.006c-.253.163-.337.664-.383.812a11.973 11.973 0 0 0-1.787 1.22c-.218.341 1.5-.391 1.7-.48l.005.005c.038.042.041.188.155.319a.91.91 0 0 0 .929.3 2.949 2.949 0 0 0 1.342-1.117c.052-.076.134-.135.209-.077a2.1 2.1 0 0 0 1.9 1c.216-.262.113-.391.025-.446-.027-.018-.464-.188-.532-.358-.042-.158.061-.3.269-.4a9.329 9.329 0 0 0 1.757-.336 1.547 1.547 0 0 1 .194-.6.283.283 0 0 1 .1-.1zm-1.576-1.2a.074.074 0 0 1 .007-.017.028.028 0 0 1 0-.007l.008-.008a.1.1 0 0 1 .049-.018.264.264 0 0 1 .149.04c.076.044.123.111.117.159a.019.019 0 0 1 0 .005v.01a.059.059 0 0 1-.01.012.186.186 0 0 1-.2-.017.2.2 0 0 1-.117-.159.013.013 0 0 0 0-.005zm-.764 1.914c-.2.07-.4.125-.4.421a.412.412 0 0 1 0 .259l-.007.008-.01.005h-.01c-.049.007-.12-.039-.172-.067a1.084 1.084 0 0 1-.532-.782.2.2 0 0 1 .2-.207h.021a5.9 5.9 0 0 0 .8.092c.222.013.332.187.124.26z" transform="translate(-29.061 -31.072)" style="fill:#fff"/>
        <path data-name="Path 4790" d="M47.72 41.875c.22.105.744.043.617-.3 0-.031-.008-.137-.012-.165a.1.1 0 0 0-.1-.065.121.121 0 0 0-.092.093c-.009.035.017.094-.015.112s-.09.008-.087-.09a.17.17 0 0 0-.037-.085.067.067 0 0 0-.047-.012c-.031 0-.032.009-.049.035a.31.31 0 0 0-.017.082c0 .035-.016.047-.042.052s-.022 0-.045-.012-.032-.021-.032-.047a.267.267 0 0 0-.014-.087.1.1 0 0 0-.055-.028c-.12 0-.127.137-.12.189-.011.014-.017.26.147.328z" transform="translate(-34.718 -31.402)" style="fill:#fff"/>
        <path data-name="Path 4791" d="M48.69 61.408c-.131.02-.5.057-.5.057-.426-.051-.739-.056-1.218-.074.044-.056.122-.284.027-.366a.155.155 0 0 0-.115-.025h-.01l-.008-.008c-.024-.035-.037-.122-.054-.144H46.8a.3.3 0 0 0-.1.555c-3.348 0-8.486-.057-9.587-.057-.616 0-2.567-.074-2.6-.074a1.976 1.976 0 0 0 1.817.749c1.487 0 8.377-.018 10.338-.018a.687.687 0 0 0 .122.719l.008.005.014.005H46.8c.13.031.187-.063.231-.132a13.407 13.407 0 0 0 1.5 0c.073.108.146.21.286.192.244-.052.437-.079.443-.575 0 0-.025-.844-.579-.791zm-.239.906H48.43l-.409-.012a.076.076 0 0 0 0-.023c-.038-.112-.31-.1-.374-.017v.012a.063.063 0 0 0 0 .008.1.1 0 0 0 0 .012.134.134 0 0 0 0 .014 3.844 3.844 0 0 1-.622-.015c-.063-.078-.056-.22.018-.254.488.024.947 0 1.436.028a.176.176 0 0 1-.012.244z" transform="translate(-27.751 -41.79)" style="fill:#fff"/>
        <path data-name="Path 4792" d="M51.741 48.615a.149.149 0 0 0 .187.023 3.555 3.555 0 0 1 .645-.225c.078 0 .074-.211-.05-.219a.731.731 0 0 0-.473.144c-.1.023-.117-.038-.139-.092-.025-.135.057-.23.04-.331a.236.236 0 0 0-.12-.049.144.144 0 0 0-.074.015 1.334 1.334 0 0 0-.3.253c-.043.033-.038.062-.025.119.034.077.093.053.161.017.09-.012.133.046.126.154a.2.2 0 0 0 .022.191z" transform="translate(-36.776 -34.877)" style="fill:#fff"/>
        <path data-name="Path 4793" d="M67.054 48.855c-.042-.048-.136-.019-.2-.027-.03 0-.129-.014-.082-.1a.592.592 0 0 0 .08-.154c.03-.065 0-.11-.1-.145a.592.592 0 0 0-.132-.012c-.04 0-.082.007-.142.012s-.088.042-.1.122c0 .12.078.114.154.162a.13.13 0 0 1 0 .2c-.071.065-.122.1-.194.167-.034.057-.055.146.049.174.19.054.632-.233.632-.239a.14.14 0 0 0 .042-.155z" transform="translate(-44.709 -35.171)" style="fill:#fff"/>
        <path data-name="Path 4794" d="M59.9 41.363c.153 0 .331-.351.406-.7a5.9 5.9 0 0 0-.04-1.053c-.013-.282-.319-2.568-.381-2.781-.075-.4.3-.053.257-.288-.129-.3-.451-.726-.551-.983-.038-.069-.042-.133-.074-.127s-.046.032-.1.1a2.207 2.207 0 0 0-.122 1 21.8 21.8 0 0 1 .6 4.829z" transform="translate(-40.963 -28.248)" style="fill:#fff"/>
        <path data-name="Path 4795" d="M69.116 36.87a2.015 2.015 0 0 1-.043-.383c.029-.075.176.007.229-.078.077-.078-.381-.665-.542-.916-.032-.063-.052-.115-.08-.112s-.049.038-.09.125a1.16 1.16 0 0 0-.094.711 38.951 38.951 0 0 1 .453 4.611 1.505 1.505 0 0 1-.09.38 3.04 3.04 0 0 1-.443.516c-.147.109-.458.213-.56.294-.323.187-.325.4-.063.409a1.611 1.611 0 0 0 1.351-.643 2.154 2.154 0 0 0 .219-.834 19.441 19.441 0 0 0-.247-4.08z" transform="translate(-45.401 -28.22)" style="fill:#fff"/>
        <path data-name="Path 4796" d="M64.23 44.806c.069.037.249-.185.242-.463.02-.143-.051-.669-.231-.759a.18.18 0 0 0-.065-.005.177.177 0 0 0-.142.242c-.026.084.127.375.167.53.036.111-.046.422.028.455z" transform="translate(-43.492 -32.591)" style="fill:#fff"/>
        <path data-name="Path 4797" d="M33.9 36.027c.22.105.633.061.615-.294 0-.031-.007-.137-.01-.165a.094.094 0 0 0-.1-.065.121.121 0 0 0-.092.093c-.009.035.015.094-.017.112s-.088.006-.085-.092a.162.162 0 0 0-.037-.084.075.075 0 0 0-.049-.012c-.031 0-.03.009-.047.035a.289.289 0 0 0-.017.082c0 .035-.018.047-.043.052s-.022 0-.045-.012-.03-.021-.03-.047a.278.278 0 0 0-.015-.087.093.093 0 0 0-.054-.03c-.12 0-.129.139-.122.19-.008.009-.013.254.151.322z" transform="translate(-27.351 -28.285)" style="fill:#fff"/>
        <path data-name="Path 4798" d="M40.843 39.086a.177.177 0 0 0-.1.032.453.453 0 0 0-.149.6.293.293 0 0 0 .316.1c.19.024.3-.358.3-.358s.006-.107-.221.1c-.1.018-.108-.016-.132-.07a.476.476 0 0 1 .03-.3c.022-.061.001-.099-.044-.104z" transform="translate(-30.967 -30.196)" style="fill:#fff"/>
        <path data-name="Path 4799" d="M56.514 41.064A4.192 4.192 0 0 1 55.1 42.1c-.06.067.148.353.418.352a1.584 1.584 0 0 0 1.213-.971 1.735 1.735 0 0 0 .269-.747 16.259 16.259 0 0 0-.3-3.777.621.621 0 0 1 .014-.264c.029-.035.128 0 .181-.085.077-.078-.205-.73-.366-.981-.032-.063-.052-.113-.08-.11s-.049.036-.09.124a1.41 1.41 0 0 0-.159.711c.215 1.488.281 2.789.421 4.277a.589.589 0 0 1-.107.435z" transform="translate(-38.727 -28.292)" style="fill:#fff"/>
        <path data-name="Path 4800" d="M30.4 42.622a1.7 1.7 0 0 0-1.322 1.071c.557-.267 1.105-.525 1.671-.8-.091-.136-.006-.259-.349-.269z" transform="translate(-24.86 -32.081)" style="fill:#fff"/>
        <path data-name="Path 4801" d="M29.126 47.471c-.139.282-.2.089-.209-.069a3.6 3.6 0 0 1 .04-.792c.017-.112.017-.151 0-.15s-.04.04-.075.085a1.659 1.659 0 0 0-.169 1.471.366.366 0 0 0 .356.119.652.652 0 0 0 .237-.632c-.062-.103-.114-.12-.18-.032z" transform="translate(-24.611 -34.127)" style="fill:#fff"/>
        <path data-name="Path 4802" d="M29.319 38.429c.642.062.288-1.085.52-1.294.044-.1.125-.1.132.025v.974a.468.468 0 0 0 .365.476c.169-.013.28-.008.346.155l.08 1.687s.389.112.408-.948a9.951 9.951 0 0 1-.04-1.265c0-.119.155-.125.26-.067.168.119.242.264.5.205.4-.109.636-.3.642-.607a2.66 2.66 0 0 0-.182-.869c.018-.053-.076-.19-.058-.242.071.112.179.1.2 0a.868.868 0 0 0-.343-.528c-.141-.124-.346-.1-.421.161a1.4 1.4 0 0 0 .324.938.916.916 0 0 1 .082.468.25.25 0 0 1-.326-.063s-.316-.237-.316-.289a1.128 1.128 0 0 0-.028-.747 1.009 1.009 0 0 0-.209-.411c-.079-.084-.186-.084-.237 0a1.416 1.416 0 0 0 .027.994c.073.214.185.348.132.348-.043.121-.134.093-.2-.047a3.481 3.481 0 0 1-.112-.913c-.028-.24-.059-.754-.217-.884a.15.15 0 0 0-.141-.072.2.2 0 0 0-.149.126 4.351 4.351 0 0 0 .015.7 7.659 7.659 0 0 1 .2 1.12c.014.529-.305.229-.291-.034a2.384 2.384 0 0 0-.012-1.013c-.052-.136-.113-.169-.239-.147-.1-.006-.36.277-.433.746a4.326 4.326 0 0 0-.087.455c-.035.242-.2.413-.308-.034-.1-.325-.156-1.125-.317-.938-.047.624-.1 1.724.429 1.837z" transform="translate(-24.745 -28.345)" style="fill:#fff"/>
        <path data-name="Path 4803" d="M30.032 35.946c.034.084-.034.354.037.38s.154-.187.187-.386c.019-.109 0-.482-.249-.558a.225.225 0 0 0-.04-.005c-.1 0-.2.057-.162.174-.024.063.19.277.227.395z" transform="translate(-25.243 -28.218)" style="fill:#fff"/>
        <path data-name="Path 4804" d="M34.242 40.939a4.918 4.918 0 0 0 .072-1.408h.01c.282.3.679.039.766-.067a.127.127 0 0 1 .2-.018.457.457 0 0 0 .687-.2 6.168 6.168 0 0 0 .1-.846.857.857 0 0 0-.306.127.084.084 0 0 0-.022.04l-.037.242a.061.061 0 0 1-.007.018.081.081 0 0 1-.027.025c-.051.028-.139.012-.144-.062-.068-.31-.349-.351-.52.13-.115.093-.324.111-.346-.028.028-.323-.1-.366-.363-.214l-.251-1.889c.109 0 .208.076.308-.049a3.575 3.575 0 0 0-.463-1.078.134.134 0 0 0-.018-.018l-.008-.007-.008-.005-.017-.007a.089.089 0 0 0-.035 0c-.032 0-.067.022-.109.032a.319.319 0 0 0-.224.391c.162.98.267 1.729.428 2.71.025.115-.071.266-.2.251-.211-.143-.263-.432-.623-.42a.7.7 0 0 0-.6.56 1.361 1.361 0 0 0 0 .642.521.521 0 0 0 .6.147c.158-.065.289-.221.344-.184.035.06 0 .57-.746.964-.456.2-.819.254-1.014-.119-.121-.233.009-1.119-.289-.914-.881 2.271 2.064 2.589 2.393.093.021-.07.086-.141.132-.124.02.008.038.036.045.087-.068 2.259-2.279 2.414-2.654 1.7a2.194 2.194 0 0 1-.13-.764.38.38 0 0 0-.09-.244c-.09-.067-.21.108-.236.413a2.73 2.73 0 0 0-.027.548c.118 1.785 2.962 1.019 3.425-.455zm-1.1-1.544c-.022.028-.1.017-.155.017a.151.151 0 0 1-.141-.069c-.019-.061.039-.12.065-.165l.012-.014a.176.176 0 0 1 .092-.04h.022a.143.143 0 0 1 .135.1.172.172 0 0 1-.029.171z" transform="translate(-25.787 -28.347)" style="fill:#fff"/>
        <path data-name="Path 4805" d="M55.775 39.454c.22.105.634.059.617-.3 0-.031-.008-.137-.012-.165a.1.1 0 0 0-.1-.065.123.123 0 0 0-.092.1c-.009.035.017.092-.015.11s-.09.008-.087-.09a.17.17 0 0 0-.037-.085.075.075 0 0 0-.049-.013c-.031 0-.03.009-.047.035a.31.31 0 0 0-.017.082c0 .035-.016.047-.042.052s-.023 0-.047-.012-.03-.021-.03-.047a.278.278 0 0 0-.015-.087.091.091 0 0 0-.054-.028c-.12 0-.127.137-.12.189-.011.01-.017.257.147.324z" transform="translate(-39.013 -30.111)" style="fill:#fff"/>
        <path data-name="Path 4806" d="M55.928 36.323c.078.22-.06.429.022.46s.18-.227.219-.468a.728.728 0 0 0-.291-.677.22.22 0 0 0-.047-.005c-.113 0-.238.068-.189.209-.028.077.242.338.286.481z" transform="translate(-39.018 -28.355)" style="fill:#fff"/>
        <path data-name="Path 4807" d="M38.7 37.313a2.344 2.344 0 0 0 .613 0 8.669 8.669 0 0 0 1.016-1.025c-.043-.037-.084-.065-.127-.1s-.042-.08 0-.12a.333.333 0 0 0 .034-.508.54.54 0 0 0-.236-.05.491.491 0 0 0-.2.055.38.38 0 0 0-.065.5c.112.053.223.165.149.227-.316.338-1.139.9-1.18 1v.012zm1.245-1.5h.01a.166.166 0 0 1 .144.109c.032.071.016.139-.037.152s-.121-.034-.154-.106-.016-.146.037-.159z" transform="translate(-29.99 -28.289)" style="fill:#fff"/>
        <path data-name="Path 4808" d="M51.55 36.175c.369.5.724.994 1.066 1.509.054.383.093.757.119 1.13a22.807 22.807 0 0 1 .022 2.7c.153.006.4-.247.485-.619a17.977 17.977 0 0 0-.025-1.864c0-.126-.011-.276-.02-.433.4.651.785 1.342 1.165 2.1.138-.066.108-.845.027-.954-.3-.654-.724-1.3-.858-1.548-.048-.09-.213-.34-.408-.628a9.761 9.761 0 0 0-.1-.866c-.063-.435.179.049.146-.2a2.787 2.787 0 0 0-.6-1.128c-.092-.129-.09-.156-.231.032a.828.828 0 0 0-.058.5 3.132 3.132 0 0 0-.149-.2c-.245-.21-.26-.221-.463-.393a.5.5 0 0 0-.279-.107c-.056.005-.1.038-.117.12a1.264 1.264 0 0 0 .022.461 1.648 1.648 0 0 0 .26.393zm.781-.029c.009.042.019.084.025.127.021.092.039.184.058.276a4.847 4.847 0 0 0-.177-.234c-.184-.215.004-.144.093-.17z" transform="translate(-36.685 -28.124)" style="fill:#fff"/>
        <path data-name="Path 4809" d="M43.119 37.615c.257.106.42-.382.525-.918.072-.15.127-.168.164-.09-.009.711.051.871.234 1.086a.591.591 0 0 0 .772.014l.317-.317a.192.192 0 0 1 .264-.014c.1.088.084.24.293.346a.644.644 0 0 0 .635-.134c.117-.2.145-.268.2-.345.083-.111.225-.062.225-.027-.013.062-.1.123-.04.234.1.074.122.027.181.01.207-.1.363-.548.363-.548.009-.168-.086-.155-.147-.12-.079.049-.084.065-.164.113-.1.015-.3.082-.394-.069a5.948 5.948 0 0 1-.176-.615c0-.013-.133-.287-.01-.3.062.012.195.046.216-.065.065-.108-.14-.415-.279-.57a.3.3 0 0 0-.45-.014c-.113.1-.1.22-.119.331a.517.517 0 0 0 .106.451 1.373 1.373 0 0 1 .251.913.366.366 0 0 1-.329.167c-.087-.019-.23-.057-.306-.617-.057-.424.014-1.017-.165-1.3-.041-.105-.076-.207-.134-.2-.035 0-.077.049-.137.157a.664.664 0 0 0-.093.635 1.888 1.888 0 0 1 .1.99 1.876 1.876 0 0 1-.19.269.312.312 0 0 1-.4.055.432.432 0 0 1-.241-.339 4.635 4.635 0 0 0-.037-1.093.2.2 0 0 0-.331-.067 2.492 2.492 0 0 0-.6 1.232c-.092.3-.191.212-.26.092-.169-.158-.181-1.395-.385-1.192-.327.934.186 1.956.542 1.856z" transform="translate(-32.002 -28.028)" style="fill:#fff"/>
        <path data-name="Path 4810" d="M46.671 35.909a1.769 1.769 0 0 0 .135-.632c-.02-.11-.068-.163-.122-.159s-.115.068-.164.19a3.061 3.061 0 0 0-.085.58c-.035.146.151.212.236.021z" transform="translate(-34.113 -28.081)" style="fill:#fff"/>
        <path data-name="Path 4811" d="M43.759 35.767a.265.265 0 0 0 .12-.176c.03-.149-.157.07-.181-.1-.042-.154.077-.217.19-.366 0-.07 0-.127-.042-.129a.2.2 0 0 0-.1.037.707.707 0 0 0-.3.5c-.006.131-.031.131.055.214.071.094.133.085.258.02z" transform="translate(-32.522 -28.018)" style="fill:#fff"/>
    </g>
</svg>
