<svg width="27.86" height="26.93" xmlns="http://www.w3.org/2000/svg"><g><path d="M23.221 25.075H4.641a2.786 2.786 0 0 1-2.786-2.787V11.135h22.29V9.28H1.854V7.426A2.786 2.786 0 0 1 4.64 4.64h.931v2.786h1.855V4.64h13.008v2.786h1.855V4.64h.931a2.786 2.786 0 0 1 2.787 2.786v14.862a2.786 2.786 0 0 1-2.787 2.787zm0-22.29h-.931V-.01h-1.855v2.786H7.427V-.01H5.572v2.786h-.931A4.65 4.65 0 0 0 0 7.426V22.28a4.64 4.64 0 0 0 4.64 4.64h18.581a4.64 4.64 0 0 0 4.641-4.64V7.426v-.017a4.606 4.606 0 0 0-1.358-3.266 4.615 4.615 0 0 0-3.283-1.358z" fill="#24bce3" fill-rule="evenodd"/><path d="M14.86 22.289h-1.862V19.04H9.75v-1.855h3.248V13.93h1.863v3.256h3.248v1.855H14.86v3.248z" fill="#24bce3" fill-rule="evenodd"/></g></svg>