<svg height="161" viewBox="0 0 129 161" width="129" xmlns="http://www.w3.org/2000/svg"><g fill="none" transform=""><g fill="#25bce3"><path d="m99.6503687 118.80775 7.0182573 12.66398-8.0649407 4.52827-7.0178456-12.663566c1.3519146-.721405 2.7054769-1.458565 4.0578034-2.218943 1.3531504-.759549 2.6869406-1.529048 4.0067256-2.309741z"/><path d="m33.0844329 8.23331013c31.1035102-17.4621552 70.3860631-6.23849778 87.7356331 25.06759167 17.349159 31.3056749 6.197717 70.8428332-24.9057928 88.3049882-31.1039221 17.462156-70.384003 6.238913-87.73357387-25.0671766-17.34957086-31.3060895-6.20018853-70.8440773 24.90373357-88.30540327z"/></g><path d="m36.9822945 16.1653461c27.245977-15.19695948 61.65477-5.4296174 76.8517625 21.8163008 15.197821 27.2459182 5.430458 61.6546368-21.8151045 76.8524251-27.2468061 15.197789-61.6551845 5.430447-76.8534204-21.8150569-15.1974069-27.2459181-5.4296292-61.6558804 21.8167624-76.853669z" fill="#fdcd2a"/><path d="m124.066667 151.702337-8.364962-15.029164c-.863204-1.551184-2.814292-2.127204-4.318195-1.286782l-10.863614 6.073626c-1.5024537.840058-2.0344367 2.813269-1.175219 4.357916l8.449398 15.182067c5.755418-2.556131 11.204258-5.67557 16.272592-9.297663z" fill="#25bce3"/><path d="m117 137.493298-3.04796-5.569441c-.975445-1.78137-3.173269-2.447766-4.878865-1.478424l-12.2770164 6.977762c-1.7035487.968925-2.3030668 3.226829-1.3288499 5.006947l3.0487788 5.569858z" fill="#fefefe"/><path d="m117 137.493019-3.047965-5.569613c-.933268-1.706441-2.987768-2.388349-4.659378-1.592511l4.819086 8.803879zm-20.4147731.061764c-1.5405676 1.029123-2.0508141 3.169998-1.1179558 4.874769l3.0487841 5.570448 2.8874378-1.641338z" fill="#ecf0f1"/><g fill="#fefefe" transform="translate(9 10)"><path d="m78.3553282 105.842493c-25.4694108 12.233137-56.7525992 2.061083-71.13067898-23.7016245-14.37931911-25.7631205-6.6036549-57.7099018 17.19346348-72.9413523-2.2399135 2.0821394-4.2753347 4.3356228-6.1029587 6.7294845-14.79202169 16.8148342-17.98251445 42.2290735-6.1384866 63.4505455 11.8440279 21.2214718 35.1573878 31.8609028 57.2437939 28.1169328 2.9979808-.296033 5.9860469-.843508 8.9348669-1.653986z"/><path d="m89.9977557 94.2336269c21.0193283-13.5456731 27.3635463-42.7740714 13.9847933-66.745305-13.3779263-23.97082085-41.5949698-33.9310689-64.1717443-23.1735551.5754702-.15070016 1.1538322-.28983975 1.731368-.41824454 21.8315137-7.93095692 47.6359614 2.21136994 60.2504503 24.81391594 12.613662 22.6008945 7.691802 49.8730809-10.529907 64.2717581-.4139419.4240248-.83532.8422694-1.2649603 1.2514306z"/></g><path d="m56.1370333 60h16.7710591l.0919076 1.1826113-8.1959185 12.8173887-8.8040815-12.9442343z" fill="#b3b3b3"/><path d="m57.0266413 56.3671215-.1447896 7.0633351-11.8818517 6.551868v24.0176754h20.0008274 19.9991726v-24.0176754l-11.0420717-6.9219098-.6060481-7.0604148z" fill="#f0ba7d"/><path d="m51.2719654 36.7113594s-.6792001-1.5047319-2.5038798-.7581853c-1.8242671.7448838.08294 8.1775112.7794708 9.2141966.6965308 1.0362698 1.8184902.3778457 2.2270005.3375255.5805799 4.4306457.6321595 7.4845863 2.3937058 9.3521997 1.6674651 1.7695148 5.4860056 5.3746363 7.4971971 6.6320435 1.3625265.2893075 2.3784382.4601486 3.3341049.5108606.9556667-.050712 1.9728163-.2215531 3.3345175-.5108606 2.0111915-1.2574072 5.829732-4.8625287 7.4971971-6.6320435 1.760721-1.8676134 1.8127132-4.921554 2.3932931-9.3521997.4085104.0403202 1.5304697.6987443 2.2270005-.3375255.6981814-1.0366854 2.6049758-8.4693128.7794709-9.2141966-1.8246797-.7461309-2.5042925.7581853-2.5042925.7581853s1.8032226-5.8356163-1.4021396-11.5810318c-2.1968781-3.9384902-7.2079387-5.9806858-12.3254597-6.1303276-5.1175209.1496418-10.1281689 2.192253-12.3254596 6.1303276-3.2049496 5.7458312-1.401727 11.5810318-1.401727 11.5810318z" fill="#fed298"/><path d="m50.6477475 66.2078782 2.8405917-1.1274185 2.288828-2.0729685 8.0831725 6.1781204h2.0129462l8.0856504-6.1856116 5.1285937 3.2082944 8.91247 15.2657214-6.9763412 38.1412062c-9.7661343 2.959005-19.9510472 3.110077-29.5110961.754941l-12.5125627-37.6771701z" fill="#25bce3"/><g fill="#fff" transform="translate(53 60)"><path d="m23 4.04578607-3.2262074-4.04578607-7.2761186 8.94375373 6.2453658 7.05624627z"/><path d="m0 3.97435565 3.23069957-3.97435565 7.27652703 8.94375373-6.49325288 6.98356997z"/></g><g fill="#fff" transform="translate(24 64)"><path d="m29.3484395 0-21.66180555 6.99032209c-.88104883.28361885-1.4344964 1.02693828-1.61318799 1.92869025l-6.07344596 30.54094746c4.23317074 4.4570435 9.11533941 8.1223348 14.4144551 10.9281502l2.9719887-9.6233393c.0359865-.1165669.1489096-.1904474.2725874-.1760818.1220232.0151866.2163326.1120521.2233645.2347757l.4343198 11.4420298c7.1257409 3.1021581 14.857875 4.7271176 22.6834913 4.7345056v-3.7428658z"/><path d="m52.6445286.07059688 21.6684238 6.91972521c.883117.28156661 1.4332555 1.02693828 1.6127744 1.92869025l6.0742732 30.54341016c-3.8526238 4.0478279-8.3815457 7.5895746-13.5416791 10.4454646-.2912011.1608952-.5840567.3152232-.8773261.4711931l-2.9686795-9.6143095c-.0368138-.1169774-.1501506-.1912683-.273001-.1764922-.1228505.0151865-.215919.1124625-.2233645.2355966l-.4334926 11.4407984c-7.3321462 3.2088743-15.0514576 4.7406623-22.6830777 4.7345241v-3.7428843z"/></g><path d="m67.5 117c-.8280713 0-1.5.671473-1.5 1.49906 0 .829937.6719287 1.50094 1.5 1.50094s1.5-.671003 1.5-1.50094c0-.827116-.6723976-1.49906-1.5-1.49906z" fill="#d9dada"/><path d="m77.654078 37.8463736 1.2930256-.0433721.4156154-1.4251988 1.2191384-1.1742892c.8043627-5.8511789 1.0419771-14.958102-4.972691-14.6954374 0 0-.5428189-6.6411994-11.392899-5.3388206-10.8509198 1.3027841-15.7547614 8.0651822-15.1695413 13.7088236.5848002 5.6420199.3480254 6.3258397.3480254 6.3258397l1.2187186 1.1742893.1834585 1.6217919 1.0650669-.0644501s.3333319-2.1710367.6666638-3.1260334c.3350112-.9545913.2304776-2.8864734.2304776-2.8864734s12.8160668.7883992 16.2791085-3.4653085c2.1393696-2.6258356 7.0511877-7.1782838 7.2997173-.8743327.0734673 1.868648-.646093 4.670404.7304755 6.7101084 1.3790873 2.0388936.5860596 3.5528633.5856398 3.5528633z" fill="#000"/><path d="m64.4700599 118 3.5299401-15.800976-2.3977759-31.1476677 1.3062447-.54248-1.3969205-1.5088763h-2.0846877l-1.4332763 1.4739313 1.3447391.577425-2.3383234 31.3997707z" fill="#0f7986"/><path d="m67.0005147 118c-.5525999 0-1.0005147.447427-1.0005147.999484 0 .552745.4475716 1.000516 1.0005147 1.000516.551227 0 .9994853-.447771.9994853-1.000516.000343-.551713-.4482583-.999484-.9994853-.999484z" fill="#fff"/><path d="m85.7345317 97.9338352c-2.448786-.4222238-4.0915277-2.7509301-3.6679982-5.1992234.422666-2.4478615 2.7501352-4.090994 5.199353-3.6683385 2.448786.4226554 4.091096 2.7517935 3.6675665 5.2000868-.4222343 2.4469981-2.750567 4.0896988-5.1989213 3.6674751z" fill="#fefefe"/><path d="m86.3198153 96.9409164c-2.1771667-.3749003-3.6371683-2.4437794-3.2606566-4.620646.3756968-2.1772742 2.4448812-3.6373478 4.6212329-3.261225 2.1771667.3757153 3.6363533 2.4450019 3.2606566 4.6218685-.3756968 2.1772742-2.4452887 3.6361253-4.6212329 3.2600025z" fill="#0f7986"/><path d="m86.6595113 94.9704637c-1.0884624-.1877938-1.8181558-1.2232371-1.629931-2.3113363.1874881-1.0880992 1.2225403-1.8171809 2.3102661-1.6297554 1.0891991.1885302 1.8185242 1.2221324 1.6306677 2.3109681-.1867514 1.087731-1.2218036 1.8182856-2.3110028 1.6301236z" fill="#ebecec"/><path d="m86 90.8428098 1.3015267.1571902.6984733-2.8424273-1.2998909-.1575727z" fill="#fefefe"/><path d="m53.833555 98.3528972 1.8367218-.3633401c.7805348-.1544298 1.4271464-.6132132 1.8391866-1.2276553.4116295-.6140325.5903309-1.3849525.4350455-2.1632458l-2.1604384-10.8526858c-.8150427-4.0954614-4.0279707-6.1841549-7.6993602-6.6474442-1.406606-.1769593-2.8818169-.1126477-4.3110173.169586-1.4300221.2818241-2.8164985.7832088-4.0476895 1.4832632-3.2075875 1.8212064-5.3696691 4.9708365-4.5525723 9.0732616l2.1604383 10.8530954c.1544638.778703.6153901 1.4222288 1.2307803 1.8330858h.0016432c.6170333.410857 1.3885304.588635 2.1694761.433796l1.8346678-.362521-.1495341-.7549444-1.836311.3633404c-.5722553.113467-1.1395809-.016795-1.5906479-.3178717-.4518886-.3031248-.7895726-.774197-.9037772-1.3448089l-2.1604383-10.8535051c-.7406865-3.7218806 1.239818-6.5900963 4.1754507-8.2560536 1.1588889-.6595012 2.4677226-1.1330312 3.8184587-1.3996991 1.3507362-.2666679 2.7409098-.3268832 4.0661759-.1601646 3.3599972.4239651 6.2989164 2.3221815 7.0383704 6.0370984l2.1608492 10.8530955c.1129722.5689734-.0180755 1.1346697-.3196085 1.584851-.3031762.4510004-.776016.7877147-1.3486821.9011817l-1.8367218.3629305z" fill="#fff"/><path d="m56 84.7510053-.3356145-1.6843575c-.8547094-4.2923008-4.2183775-6.4809245-8.0580915-6.9643705-1.4590663-.1832181-2.9870945-.1174261-4.4683121.1744736-1.4807997.2927326-2.9185505.8124058-4.1958082 1.5369502-3.3565629 1.9046356-5.6164229 5.2013125-4.7600417 9.5006922l.3351966 1.6856067 1.2835269-.2544233-.3364504-1.6856067c-.7272344-3.6543687 1.2266856-6.4755113 4.1193231-8.1169791 1.1568879-.6558375 2.4608944-1.1267914 3.8083678-1.3928741 1.3466375-.2660826 2.7338162-.3260449 4.0549587-.1598994 3.3118422.4172376 6.2082413 2.2823148 6.9346398 5.9291881l.3351965 1.6856067z" fill="#4d4d4d"/><g fill="#076673" transform="translate(41 97)"><path d="m.21684942 3.83595795 1.00371502-.19102374c.25166278.27145479.64132063.41019834 1.03852838.33459316.59727964-.11340778.98484031-.66999062.86613937-1.24306183-.11786207-.57065827-.69752532-.94305402-1.29606328-.82964624-.3967883.07600734-.70213913.34746212-.82629276.69050053l-1.00287615.19062158z"/><path d="m14 1.21269937-1.0016178.19102373c-.1249925.34223411-.4295045.6144932-.8271317.68969623-.5968602.11300562-1.176104-.25898797-1.2943855-.83165702-.1182815-.57106043.2688597-1.12724112.8653005-1.24145321.3976272-.07560518.7881239.06514915 1.0385284.33459316l1.0028761-.19062159z"/></g><path d="m44 76.7156186-.4022051-1.7156186-.7991179.1343534-.798677.133607.4066152 1.7320396c.3047409-.0753872.613451-.1388319.9243661-.1910804.2209481-.0369472.4445424-.0682963.6690187-.093301z" fill="#0096a7"/><g fill="#0f7986" transform="translate(42 97)"><path d="m.37612481 2.9930529c.17118124-.04100384.28173578-.24125519.24726178-.44579763-.03368149-.20549602-.19852268-.33947371-.36970391-.29894665-.17038872.04243421-.28133952.24125519-.24765803.44627442.034474.20454245.19971144.33804334.37010016.29846986z"/><path d="m9.74710843.74976106c.16959622-.04005027.28054697-.23934804.24686552-.44389049-.03407774-.20597281-.19931518-.3394737-.37049641-.29846986-.17078498.04052706-.28173578.24030162-.24765803.44579764.034474.20501923.19971143.33756655.37128892.29656271z"/></g><path d="m86.6599604 94.9706114c-1.0883841-.1876755-1.8185166-1.2233955-1.6304345-2.3109014.1876928-1.0882847 1.2219497-1.8179611 2.3103339-1.6302856 1.0883841.1876756 1.8181272 1.2222275 1.6308239 2.3101228-.1884716 1.0878953-1.2235074 1.8187398-2.3107233 1.6310642z" fill="#fefefe"/><g fill="#4d4d4d" transform="translate(42 63)"><path d="m11.1838442 1.10272828c-.0338229.00082725-11.82006057.09720223-9.82826741 10.31129532l-1.09736528.2076405c-2.24400345-11.51536209 10.87510719-11.62083685 10.91268819-11.6216641z"/><path d="m34.7037062.05211694c1.9224771.05170331 5.640491.57121821 8.5008229 4.01838156 2.8002023 3.37395146 4.7631833 9.5700766 3.2954364 20.9295015l-1.1057166-.1377376c1.4205619-10.9954336-.4142262-16.91566986-3.0503248-20.09025333-2.5738811-3.10261247-5.9311174-3.57042405-7.6669422-3.61675022z"/></g></g></svg>