<svg style="width:auto; height:24px" fill="currentColor" viewBox="0 0 20 20" xmlns="http://www.w3.org/2000/svg"><g transform="translate(0 0)"><rect height="2" opacity="1" rx="1" transform="matrix(.70710678 .70710678 -.70710678 .70710678 15.85924 -6.861998)" width="8.15546" x="12.135054" y="14.712797"/><path d="m8 16c-4.44444 0-8-3.5556-8-8 0-4.44444 3.55556-8 8-8 4.4444 0 8 3.55556 8 8 0 4.4444-3.5556 8-8 8zm0-14c-3.46667 0-6 2.53333-6 6 0 3.4667 2.53333 6 6 6 3.4667 0 6-2.5333 6-6 0-3.46667-2.5333-6-6-6z"/></g></svg>