<svg
                        xmlns="http://www.w3.org/2000/svg"
                        width="258.711"
                        height="219.449"
                        viewBox="0 0 258.711 219.449"
                    >
                        <g data-name="Group 6136">
                            <path
                                data-name="Path 5046"
                                d="M8.619 30.8 60.5 1.841A6.623 6.623 0 0 1 69.513 4.4l5.009 8.972a3.258 3.258 0 0 1-.682 4.07A13.256 13.256 0 0 0 69.592 30.8l-.331 4.967H8z"
                                transform="translate(166.27 -1)"
                                style="fill: #f7c331"
                            />
                            <path
                                data-name="Path 5047"
                                d="M83.786 52.114a13.254 13.254 0 0 0 10.662 13 3.25 3.25 0 0 1 2.584 3.212v10.28a6.623 6.623 0 0 1-6.623 6.623H7.623A6.623 6.623 0 0 1 1 78.606V25.623A6.623 6.623 0 0 1 7.623 19h82.785a6.623 6.623 0 0 1 6.623 6.623V35.9a3.25 3.25 0 0 1-2.583 3.212 13.254 13.254 0 0 0-10.663 13z"
                                transform="translate(161.68 10.803)"
                                style="fill: #e5354b"
                            />
                            <g data-name="Group 6165">
                                <path
                                    data-name="Path 5048"
                                    d="M45.311 56.656v4.967H42v-4.967a1.656 1.656 0 0 1 3.311 0z"
                                    transform="translate(188.564 34.409)"
                                    style="fill: #c12748"
                                />
                                <path
                                    data-name="Path 5049"
                                    d="M43.656 49A1.656 1.656 0 0 0 42 50.656v3.311a1.656 1.656 0 0 0 3.311 0v-3.311A1.656 1.656 0 0 0 43.656 49z"
                                    transform="translate(188.564 30.474)"
                                    style="fill: #c12748"
                                />
                                <path
                                    data-name="Path 5050"
                                    d="M43.656 43A1.656 1.656 0 0 0 42 44.656v3.311a1.656 1.656 0 0 0 3.311 0v-3.311A1.656 1.656 0 0 0 43.656 43z"
                                    transform="translate(188.564 26.54)"
                                    style="fill: #c12748"
                                />
                                <path
                                    data-name="Path 5051"
                                    d="M43.656 37A1.656 1.656 0 0 0 42 38.656v3.311a1.656 1.656 0 1 0 3.311 0v-3.311A1.656 1.656 0 0 0 43.656 37z"
                                    transform="translate(188.564 22.606)"
                                    style="fill: #c12748"
                                />
                                <path
                                    data-name="Path 5052"
                                    d="M43.656 31A1.656 1.656 0 0 0 42 32.656v3.311a1.656 1.656 0 0 0 3.311 0v-3.311A1.656 1.656 0 0 0 43.656 31z"
                                    transform="translate(188.564 18.672)"
                                    style="fill: #c12748"
                                />
                                <path
                                    data-name="Path 5053"
                                    d="M43.656 25A1.656 1.656 0 0 0 42 26.656v3.311a1.656 1.656 0 1 0 3.311 0v-3.311A1.656 1.656 0 0 0 43.656 25z"
                                    transform="translate(188.564 14.737)"
                                    style="fill: #c12748"
                                />
                                <path
                                    data-name="Path 5054"
                                    d="M45.311 19v4.967a1.656 1.656 0 1 1-3.311 0V19z"
                                    transform="translate(188.564 10.803)"
                                    style="fill: #c12748"
                                />
                            </g>
                            <path
                                data-name="Path 5055"
                                d="M12.656 67.737a1.656 1.656 0 0 1-1.171-2.826l36.426-36.426a1.656 1.656 0 1 1 2.341 2.341L13.826 67.252a1.656 1.656 0 0 1-1.171.485z"
                                transform="translate(168.237 16.704)"
                                style="fill: #fff"
                            />
                            <path
                                data-name="Path 5056"
                                d="M19.279 44.557a8.279 8.279 0 1 1 8.279-8.279 8.279 8.279 0 0 1-8.279 8.279zm0-13.246a4.967 4.967 0 1 0 4.967 4.967 4.967 4.967 0 0 0-4.967-4.967z"
                                transform="translate(168.237 16.704)"
                                style="fill: #fff"
                            />
                            <path
                                data-name="Path 5057"
                                d="M33.279 58.557a8.279 8.279 0 1 1 8.279-8.279 8.279 8.279 0 0 1-8.279 8.279zm0-13.246a4.967 4.967 0 1 0 4.967 4.967 4.967 4.967 0 0 0-4.967-4.967z"
                                transform="translate(177.417 25.884)"
                                style="fill: #fff"
                            />
                            <g data-name="Group 5895">
                                <g data-name="Group 5869">
                                    <path
                                        data-name="Path 4874"
                                        d="M304.843 1080.936c.129-1.135-.289-2.669-.128-4.509 1.248-14.34 3.943-46.733 3.943-46.733s3.048-25.658 3.285-41.9a62.268 62.268 0 0 1-9.68-1.656c-6.915-1.763-11.549-4.585-18.138-7.776-3.6 13.25-10.258 37.575-10.258 37.575s.013 5.185-6.881 5.185c-6.05 0-31.192 21.042-36.168 24.17.642 1.52 2.27 3.022 3.007 4.523 7.991-6.533 49.152-21.561 49.152-21.561l11.168-28.313s3.354 34.706.649 37.421 4.8 41.595 4.8 43.574c.001.245 3.164-.048 5.249 0z"
                                        transform="translate(-224.732 -868.321)"
                                        style="
                                            fill-rule: evenodd;
                                            fill: #ffb17d;
                                        "
                                    />
                                </g>
                                <g data-name="Group 5870">
                                    <path
                                        data-name="Path 4875"
                                        d="M355.891 992.008s2.407 38.373 1.2 40.628-2.1 6.013-1.2 15.491 3.609 26.043 3.609 26.043l8.878.288 3.611-45.289 3.087-41.994.076-.889-12.04-9.032z"
                                        transform="translate(-287.304 -867.765)"
                                        style="
                                            fill: #24bce3;
                                            fill-rule: evenodd;
                                        "
                                    />
                                </g>
                                <g data-name="Group 5871">
                                    <path
                                        data-name="Path 4876"
                                        d="m241.494 1032.917 3.911 7.069s35.447-11.67 42.885-17.145c2.861-2.1 14.75-30.842 14.75-30.842l9.379-11.135.1-6.181-20.139-8.851s-7.315 8.237-8.75 11.565c-3.583 8.3-6.018 35.658-6.018 35.658s.3-1.057-6.47.752-29.648 19.11-29.648 19.11z"
                                        transform="translate(-230.089 -862.034)"
                                        style="
                                            fill: #24bce3;
                                            fill-rule: evenodd;
                                        "
                                    />
                                </g>
                                <g data-name="Group 5872">
                                    <path
                                        data-name="Path 4877"
                                        d="M231.416 1111.266s-2.37-1.535-2.649-2.41.393-3.1-.59-3.6-7.24 1.548-8.175 2.255a3.121 3.121 0 0 0-1.316 3.146c.288.89 8.618 15.979 10.383 17.9s3.951-2.315 2.645-4.954.211-8.197-.298-12.337z"
                                        transform="translate(-218.603 -931.947)"
                                        style="
                                            fill: #24bce3;
                                            fill-rule: evenodd;
                                        "
                                    />
                                </g>
                                <g data-name="Group 5873">
                                    <path
                                        data-name="Path 4878"
                                        d="M371.212 1175.653s-2.5 1.289-3.4 1.1-2.5-1.87-3.421-1.273-2.225 7.069-2.076 8.22a3.1 3.1 0 0 0 2.08 2.7c.921.2 18.158.414 20.692-.169s-.062-4.584-3-4.755-7.015-4.229-10.875-5.823z"
                                        transform="translate(-290.704 -967.163)"
                                        style="
                                            fill: #24bce3;
                                            fill-rule: evenodd;
                                        "
                                    />
                                </g>
                                <g data-name="Group 5874">
                                    <path
                                        data-name="Path 4879"
                                        d="M395.173 891.11c-12.3 12.328-18.8 19.635-29.695 23.3a15.713 15.713 0 0 1-4.72-8.976q-4.044 9.1-8.5 17.95-9.236 3-27.153-1.705l-1.423-5.531c-.872-.626-3.535-.566-5.318.567-5.675-10.673-8.276-20.54-8.484-29.252q11.933-22.288 22.843-33.33 4.158-2.629 14.839-2.114 11.992 13.249 14.566 7.168a98.882 98.882 0 0 1 9.308 10.445q3.939 7.371-1.13 29.646c7.143-4.666 14.428-9.1 22.5-12.293a8.04 8.04 0 0 1 2.366 4.123zm-71.594 19.971q10.9-12.285 11.379-37.437-7.047 9.281-14.314 18.071 2.427 2.899 2.935 19.367z"
                                        transform="translate(-264.404 -804.886)"
                                        style="
                                            fill: #aae9f9;
                                            fill-rule: evenodd;
                                        "
                                    />
                                </g>
                                <g data-name="Group 5875">
                                    <path
                                        data-name="Path 4880"
                                        d="M411.992 935.737a157.478 157.478 0 0 0 8.091-23.411q-4.1 20.589-2.739 28.567c1.771.745 4.272.536 7.876-.251a36.912 36.912 0 0 1-8.51 4.07 15.694 15.694 0 0 1-4.718-8.975z"
                                        transform="translate(-315.637 -835.187)"
                                        style="
                                            fill: #24bce3;
                                            fill-rule: evenodd;
                                        "
                                    />
                                </g>
                                <g data-name="Group 5876">
                                    <path
                                        data-name="Path 4881"
                                        d="M337.476 938.012a40.078 40.078 0 0 0-.108-5.069q10.9-12.287 11.379-37.437 4.619 24.994-10.952 43.744z"
                                        transform="translate(-278.194 -826.747)"
                                        style="
                                            fill: #10a8cf;
                                            fill-rule: evenodd;
                                        "
                                    />
                                </g>
                                <g data-name="Group 5877">
                                    <path
                                        data-name="Path 4882"
                                        d="M382.639 892.651a99.309 99.309 0 0 0-24.156-7.55 62.83 62.83 0 0 0-.979-8.144q23.02 5.632 31.564 12.333l-6.43 3.361zm-26.427 10.764q1.826.461 3.79 1.069l-.412.216-4.768 2.492q.775-1.865 1.39-3.777zm9.53 12.89 8.058-4.205a34.043 34.043 0 0 1 6.335 3.623q-1.417 3.031-2.878 6.037a63.756 63.756 0 0 0-11.51-5.454zm4.092-16.96 7.481-3.909a96.766 96.766 0 0 0-18.8-5.117 50.586 50.586 0 0 1-.984 8.074q5.014 1.265 9.18 2.583l3.122-1.632zm19.378-28.72q-8.779-5.868-21.873-8.984a24.675 24.675 0 0 1 5.822-3.1q8.674 8.616 11.193 4.6a36.681 36.681 0 0 1 4.858 7.491zm-26.02-5.266a35.122 35.122 0 0 0-4.178 7.209c16.574 4.128 25.039 7.122 32.251 13.325a32.8 32.8 0 0 0 .205-8.9c-7.922-5.611-17.729-9.17-28.279-11.635z"
                                        transform="translate(-286.951 -808.197)"
                                        style="
                                            fill: #24bce3;
                                            fill-rule: evenodd;
                                        "
                                    />
                                </g>
                                <g data-name="Group 5878">
                                    <path
                                        data-name="Path 4883"
                                        d="M389.038 863.947a33.476 33.476 0 0 1-4-12.16 8.257 8.257 0 0 1 3.446-2.371c2.726 4.979 4.542 7.841 6.492 9.811.01.01.022.02.033.033.059-.1.118-.193.177-.292a58.278 58.278 0 0 0 3.745-6.416c.881 1.067.957 2.346 1.234 3.685a22.385 22.385 0 0 1-1.5 9.582 28.88 28.88 0 0 0-1.43-3.244 16.467 16.467 0 0 0-2.23-3.314 16.017 16.017 0 0 0-3.2 2.064 26.622 26.622 0 0 0-2.767 2.622z"
                                        transform="translate(-302.11 -803.622)"
                                        style="
                                            fill: #10a8cf;
                                            fill-rule: evenodd;
                                        "
                                    />
                                </g>
                                <g data-name="Group 5879">
                                    <path
                                        data-name="Path 4884"
                                        d="M391.81 831.247a9.62 9.62 0 0 0 2.275-2.523q-.058-1.06 0-2.643-5.031-6.1.13-6.812.769.783 1.353 3.846c.734.181.561-1.907 1.142-2.513.012-3.246 1-3.963 1.28-5.907 2.962-2.461 8.374-1.876 14.521.819-1.047 6.052-2.978 20.478-10 18.1l-.261.764a58.889 58.889 0 0 1-3.743 6.414l-.212.26c-1.943-1.965-3.759-4.827-6.485-9.805z"
                                        transform="translate(-305.408 -785.417)"
                                        style="
                                            fill-rule: evenodd;
                                            fill: #ffb17d;
                                        "
                                    />
                                </g>
                                <g data-name="Group 5880">
                                    <path
                                        data-name="Path 4885"
                                        d="M409.94 807.81c-6.147-2.7-11.1-3.67-14.061-1.208-.284 1.945-1.119 2.954-1.129 6.2-.582.6-.559 2.4-1.293 2.218q-.585-3.059-1.353-3.846-5.163.71-.13 6.812-.062 1.581 0 2.643c-6.136-6.247-6.533-17.481 1.421-20.558 3.664-8.239 13.9 2.984 21.35.676 1.472 4.153-2.851 7.553-4.805 7.063z"
                                        transform="translate(-303.292 -777.324)"
                                        style="
                                            fill: #284190;
                                            fill-rule: evenodd;
                                        "
                                    />
                                </g>
                                <g data-name="Group 5881">
                                    <path
                                        data-name="Path 4886"
                                        d="M404.106 850.417a21.333 21.333 0 0 0 4.684 1.907l-.261.764c-.2.447-.42.89-.652 1.326l-.038-.024a10.043 10.043 0 0 1-3.733-3.973z"
                                        transform="translate(-311.68 -804.124)"
                                        style="
                                            fill: #ef8161;
                                            fill-rule: evenodd;
                                        "
                                    />
                                </g>
                                <g data-name="Group 5882">
                                    <path
                                        data-name="Path 4887"
                                        d="M393.363 805.974a1.817 1.817 0 0 0 .75-2.233 3.616 3.616 0 0 0-3.814.086q1.101.018 3.064 2.147z"
                                        transform="translate(-304.752 -780.454)"
                                        style="
                                            fill: #284190;
                                            fill-rule: evenodd;
                                        "
                                    />
                                </g>
                                <g data-name="Group 5883">
                                    <path
                                        data-name="Path 4888"
                                        d="M399.134 800.933q-1.167.763-1.766 0a4.048 4.048 0 0 1 1.441-3.179 5.186 5.186 0 0 0 .325 3.179z"
                                        transform="translate(-308.299 -777.7)"
                                        style="
                                            fill: #284190;
                                            fill-rule: evenodd;
                                        "
                                    />
                                </g>
                                <g data-name="Group 5884">
                                    <path
                                        data-name="Path 4889"
                                        d="M423.84 812.553q.831-2.771 3.076-2.759a6.337 6.337 0 0 1 2.511 6.2q-.792-1.76-5.587-3.441z"
                                        transform="translate(-321.582 -783.741)"
                                        style="
                                            fill: #284190;
                                            fill-rule: evenodd;
                                        "
                                    />
                                </g>
                                <g data-name="Group 5885">
                                    <path
                                        data-name="Path 4890"
                                        d="M418.654 799.863c.071.868-.579 1.8.477 2.347-.179 3.612 3.754-.266 4.043-1.555q-.861.345-4.52-.792z"
                                        transform="translate(-318.912 -778.758)"
                                        style="
                                            fill: #284190;
                                            fill-rule: evenodd;
                                        "
                                    />
                                </g>
                                <g data-name="Group 5891">
                                    <g data-name="Group 5886">
                                        <path
                                            data-name="Path 4891"
                                            d="M602.746 779.562a41.076 41.076 0 0 0-75.357 32.057l-.279.144a2.342 2.342 0 0 0-.988 3.15l3.857 7.379a2.34 2.34 0 0 0 3.148.987l.279-.146a41.075 41.075 0 0 0 69.338-43.571zm-5.082 2.657a35.34 35.34 0 1 1-47.689-14.95 35.338 35.338 0 0 1 47.688 14.949z"
                                            transform="translate(-372.472 -757.505)"
                                            style="
                                                fill: #fdcd08;
                                                fill-rule: evenodd;
                                            "
                                        />
                                    </g>
                                    <g data-name="Group 5887">
                                        <path
                                            data-name="Rectangle 3396"
                                            transform="rotate(-27.591 204.208 -241.499)"
                                            style="fill: #fabea7"
                                            d="M0 0h20.96v8.328H0z"
                                        />
                                    </g>
                                    <g data-name="Group 5888">
                                        <path
                                            data-name="Path 4892"
                                            d="m405.594 889.21-3.858-7.382a2.341 2.341 0 0 0-3.148-.986L381.65 889.7l-.026.012-36.586 19.123h-.006l-10.134 5.3-36.591 19.125a2.339 2.339 0 0 0-.988 3.147l3.858 7.381a2.339 2.339 0 0 0 3.148.987l16.941-8.854.023-.013 36.592-19.124 10.134-5.3 36.589-19.124a2.338 2.338 0 0 0 .99-3.15z"
                                            transform="translate(-257.967 -819.257)"
                                            style="
                                                fill: #fdcd08;
                                                fill-rule: evenodd;
                                            "
                                        />
                                    </g>
                                    <g
                                        data-name="Group 5889"
                                        style="opacity: 0.35"
                                    >
                                        <path
                                            data-name="Path 4893"
                                            d="M555.748 773.043a35.34 35.34 0 1 0 47.689 14.95 35.34 35.34 0 0 0-47.689-14.95z"
                                            transform="translate(-378.245 -763.28)"
                                            style="
                                                fill: #deecf9;
                                                fill-rule: evenodd;
                                            "
                                        />
                                    </g>
                                    <g
                                        data-name="Group 5890"
                                        style="opacity: 0.35"
                                    >
                                        <path
                                            data-name="Path 4894"
                                            d="m585.844 839.364 24.1-55.143q-.909-1.312-1.917-2.52l-25.329 57.966a35.72 35.72 0 0 0 3.15-.3zm-17.944-2.138a35.248 35.248 0 0 1-13.63-9.615l25.6-58.579a35.478 35.478 0 0 1 16.313 3.467L567.9 837.226zm12.118 2.472a35.464 35.464 0 0 1-6.282-.725l27.7-63.38a35.069 35.069 0 0 1 4.8 4.118z"
                                            transform="translate(-387.025 -763.28)"
                                            style="
                                                fill: #fdfdfd;
                                                fill-rule: evenodd;
                                            "
                                        />
                                    </g>
                                </g>
                                <g data-name="Group 5892">
                                    <path
                                        data-name="Path 4895"
                                        d="M326.851 981.465a19.388 19.388 0 0 0-1.239-6.35c1.136-1.784 3.522-2.964 4.577-2.768l2.82 3.421a35.314 35.314 0 0 1 6.969 4.847q-2.788.745-4.323-.649 1.572 2.741 1.382 3.436-5.986 4.755-8.177 3.456-2.166-3.504-2.009-5.393z"
                                        transform="translate(-272.295 -865.291)"
                                        style="
                                            fill-rule: evenodd;
                                            fill: #ffb17d;
                                        "
                                    />
                                </g>
                                <g data-name="Group 5893">
                                    <path
                                        data-name="Path 4896"
                                        d="M311.176 937.064a71.976 71.976 0 0 0 7.84 22.325c1.358-.927 4.711-3.119 5.745-2.57-.635-1.477-.39-1.257-.536-3.065q-.369-11.972-1.753-16.772a100.273 100.273 0 0 1-11.296.082z"
                                        transform="translate(-265.052 -847.558)"
                                        style="
                                            fill: #24bce3;
                                            fill-rule: evenodd;
                                        "
                                    />
                                </g>
                                <g data-name="Group 5894">
                                    <path
                                        data-name="Path 4897"
                                        d="M478.745 918.351c.4-.377 1.911-1.907 3.47-3.376 2.248-.1 5.374-2.167 5.9-3.951.319-2.411 1.252-3.312-.6-4.8-.714-.061-2.316.857-3.922 2.738.1 1.7-1.715 2.241-2.868 2.849-1.476.989-.431.227-2.111 1.318-.745.622-1.776.981-2.163 1.328a7.522 7.522 0 0 1 2.294 3.894z"
                                        transform="translate(-347.979 -832.124)"
                                        style="
                                            fill-rule: evenodd;
                                            fill: #ffb17d;
                                        "
                                    />
                                </g>
                            </g>
                        </g>
                    </svg>