<svg height="20" viewBox="0 0 20 20" width="20" xmlns="http://www.w3.org/2000/svg"><path d="m19.9403766 9.71247402c-.0091602-.02416026-.0191602-.04666036-.0300001-.07000031-.0375002-.07750034-.0841605-.15000066-.1433405-.21250094-.0066602-.00666018-.0108399-.01500006-.0175001-.02166025-.0550002-.05416039-.1166606-.1016606-.1866609-.14000062l-16.61341337-9.02087974c-.75166348-.40666196-1.64916745-.3058412-2.28834996.25666129-.61750273.54584226-.8241638 1.39000615-.51750229 2.17666978l3.11585362 7.31919253-3.12585367 7.34337234c-.29666146.7625034-.09000039 1.6075071.52750234 2.1525095.37834151.3333413.84750375.5041624 1.32334569.5041624.3283413 0 .65916308-.0816605.96584412-.2475011l16.61341332-9.0200399c.0700003-.0375002.1316608-.0858402.186661-.1400006.0066602-.0066602.0108399-.0150001.0175001-.0216603.0591604-.0633401.1058403-.1350006.1433405-.2125009.0108398-.02334.0208399-.0458401.0300001-.0700003.03334-.0925004.0575002-.1875008.0575002-.28834114 0-.10084029-.0241602-.19584071-.0583401-.28750127zm-18.25424087-7.66087373c-.04334003-.11334034-.01750008-.21334079.07750034-.29750131.03666032-.03250015.11584036-.08750039.22250099-.08750039.05084007 0 .10750047.01250005.16834059.04584005l13.72922085 7.45419313h-11.16754936zm.46916223 16.23591171c-.19250085.1041606-.33750149.005-.39166189-.0425002-.09500042-.0841606-.12166069-.184161-.08666053-.2733411l3.0391736-7.1383714h11.16838926z" fill="#fff" transform="matrix(-1 0 0 1 19.998716 0)"/></svg>