<svg height="62" viewBox="0 0 57 62" width="57" xmlns="http://www.w3.org/2000/svg"><path d="m28.0297857 40.8028527c.4507492 0 .8641732.250428 1.0729336.6499201l2.8835746 5.4970768 6.1233925 1.0393059c.4486261.0782647.8145228.3940581.9538058.822723.1392829.4286648.0288876.8992163-.2865063 1.2212101l-4.3411248 4.4388554.9016425 6.1412573c.0655466.4455583-.1216557.8906742-.4859494 1.1554546-.3642938.2647804-.8454574.3054545-1.2490294.1055838l-5.5695865-2.755369-5.5695865 2.755369c-.4035719.1998707-.8847356.1591966-1.2490293-.1055838-.3642938-.2647804-.5514961-.7098963-.4859494-1.1554546l.9016425-6.1412573-4.3442775-4.4388554c-.3153938-.3219938-.4257892-.7925453-.2865062-1.2212101.139283-.4286649.5051796-.7444583.9496023-.8195704l6.1265451-1.0393059 2.8814729-5.5002294c.2087603-.3994921.6221843-.6499201 1.0729335-.6499201zm.0031526 3.820381-2.0870186 3.9838306c-.175762.3344329-.4975804.5676347-.8701166.6305192l-4.4367536.7524196 3.1452401 3.2135464c.2648117.2704241.3880429.6490586.3331243 1.0235428l-.6536382 4.4483132 4.0321704-1.9966442c.3384051-.1674876.7355794-.1674876 1.0739844 0l4.0321705 1.9966442-.6536383-4.4483132c-.0548495-.3739691.0679595-.7521122.3320735-1.022492l3.1441892-3.2145972-4.4346519-.7524196c-.3725361-.0628845-.6943546-.2960863-.8701165-.6305192zm-19.70057322-10.796591.13390844.007403c.39736965.0441149.75102225.2826582.93902511.6420319l1.99874597 3.8230482 4.2549539.7229954c.4387179.0715894.8040121.3873912.9431931.8157422.1391809.428351.029278.8985551-.2853514 1.2208349l-3.0149327 3.0821881.6305192 4.2633609c.0655466.4455583-.1216557.8906742-.4859494 1.1554546-.3642938.2647805-.8454574.3054545-1.2490294.1055838l-3.86613369-1.9136258-3.86613372 1.9136258c-.40357196.1998707-.8847356.1591967-1.24902935-.1055838-.36429374-.2647804-.55149605-.7098963-.48594939-1.1554546l.63051923-4.2633609-3.01493277-3.0821881c-.31539384-.3219939-.42578918-.7925453-.28650621-1.2212102.13928297-.4286648.50517963-.7444582.94960226-.8195704l4.25180132-.7229953 2.00189854-3.8188448c.20854427-.3981347.62033662-.6481226 1.06978096-.6494349zm39.40167192.0005191c.4503419 0 .8634628.2499801 1.0724081.6489158l2.0050512 3.8230482 4.2518013.7229954c.4428902.0766518.8069563.3921758.9457788.819675.1355865.4286151.0227209.8970678-.2931914 1.2169021l-3.0149328 3.0821881.6305192 4.2633609c.0655467.4455583-.1216556.8906742-.4859494 1.1554546-.3642937.2647805-.8454574.3054545-1.2490293.1055838l-3.8661337-1.9136258-3.8661338 1.9136258c-.4035719.1998707-.8847356.1591967-1.2490293-.1055838-.3642937-.2647804-.5514961-.7098963-.4859494-1.1554546l.6305192-4.2633609-3.0149327-3.0821881c-.3153939-.3219939-.4257892-.7925453-.2865062-1.2212102.1392829-.4286648.5051796-.7444582.9496022-.8195704l4.2518013-.7229953 2.0018986-3.8188448c.2089453-.3989357.6220662-.6489158 1.0724081-.6489158zm-39.40377365 3.8256818-1.20744432 2.302446c-.17567158.3340606-.49698399.5671773-.86906567.6305193l-2.56411152.4361091 1.81484451 1.8610826c.26443092.2706184.38726514.6492276.33207346 1.0235429l-.37831154 2.5704167 2.33187027-1.1559519c.33873137-.1676721.73630392-.1676721 1.07503529 0l2.33187027 1.1559519-.3783115-2.5704167c-.0553583-.3743292.0674994-.7530111.3320734-1.0235429l1.8211497-1.8621335-2.5662132-.4361091c-.3725362-.0628846-.69435458-.2960863-.87011656-.6305192zm39.40429905.0010509-1.2084952 2.3034969c-.1755458.3341694-.4969195.5673305-.8690656.6305192l-2.5641115.4361091 1.8179971 1.8589809c.2641139.2703798.386923.6485229.3320734 1.022492l-.3783115 2.5704167 2.3318703-1.1559519c.3386933-.1678345.7363419-.1678345 1.0750352 0l2.3318703 1.1559519-.3783115-2.5704167c-.0550158-.3739832.0678167-.7521986.3320734-1.022492l1.819048-1.8589809-2.5641115-.4361091c-.3721462-.0631887-.6935199-.2963498-.8690657-.6305192zm-22.5021803-37.45494383c4.0233199-.57922721 8.1270685.11373275 11.7371154 1.9819321.592855.30934091.8226886 1.0407152.5133477 1.63357022s-1.0407152.82268864-1.6335702.51334775c-7.3975934-3.86561039-16.5093649-1.75130273-21.4487342 4.97699294-4.9393692 6.72829572-4.2266324 16.05496092 1.677753 21.95458492l.0451872.0441364c.6739568-3.2343151 2.6279898-6.0582814 5.417211-7.8289471-2.7860655-3.4139327-2.4498844-8.4028971.7690096-11.4121859 3.2188941-3.00928882 8.2191725-3.00928882 11.4380665 0 3.218894 3.0092888 3.5550751 7.9982532.7690096 11.4121859 2.7901867 1.770076 4.7450738 4.5941808 5.4193128 7.8289471l.0451872-.0441364c5.2411644-5.2009844 6.4772565-13.2121403 3.0475096-19.7510147-.3093409-.5931452-.079272-1.3247547.5138732-1.63409562.5931452-.30934089 1.3247547-.07927207 1.6340956.51387312 3.1183008 5.9901397 2.8816071 13.1739243-.6242327 18.9458096-3.5058398 5.7718854-9.771652 9.2935869-16.5248394 9.2877976-10.123905.0019568-18.53105938-7.8142661-19.26564363-17.9114857-.73458425-10.0972195 6.45275443-19.04795957 16.47034173-20.51131223zm-1.8064376 24.97591743c-2.9620276 1.5989892-4.8936647 4.6087862-5.1135109 7.9676613 5.8334828 4.0813635 13.5959671 4.0813635 19.4294499 0-.2202068-3.3568213-2.1504774-6.3647567-5.1103583-7.9634578-2.7926562 1.8464855-6.4181788 1.8464855-9.210835 0zm4.6017395-12.9340511c-3.2865345.0011591-5.9508328 2.6645168-5.9531525 5.9510507-.0005789 3.2843858 2.661062 5.9475929 5.9454476 5.9489466 3.2843856.0013526 5.94822-2.6596604 5.9503485-5.9440456.0021261-3.2843852-2.658259-5.9488468-5.9426436-5.9517482zm12.4472382-6.8754697c.5662968-.18390044 1.1822467.07129121 1.4525581.60180343.1873744.38268328.1672753.82822822-.0531322 1.18515989-.2204074.35693168-.6097602.57446025-1.0292591.57503962l.000911-.00035024-.1238712-.00623696c-.4980782-.05204332-.91399-.40755773-1.0429162-.89146726l-.0261342-.12355096c-.0929517-.5881084.2555469-1.15649707.8218438-1.34039752z" fill="#f4b838" transform=""/></svg>