<svg height="62" viewBox="0 0 62 62" width="62" xmlns="http://www.w3.org/2000/svg"><path d="m31 0c17.1128145.01932892 30.9806711 13.8871855 31 31 0 17.1208272-13.8791728 31-31 31s-31-13.8791728-31-31 13.8791728-31 31-31zm.0014172 2.69750069c-15.6316594 0-28.30391651 12.67225711-28.30391651 28.30391651 0 15.6316593 12.67084001 28.3041596 28.30249931 28.3053336 15.62683-.0158181 28.2909327-12.6799208 28.3067508-28.3067508-.001174-15.6316593-12.6736743-28.30249931-28.3053336-28.30249931zm14.6552153 42.20238621c.5121101-.5385152 1.363336-.5613286 1.9035554-.0510166.2596619.245899.4108487.5849848.4202197.94248s-.1238434.704036-.370266.9632011c-4.3167333 4.5698632-10.3254145 7.1595746-16.6117359 7.1595746-6.2863213 0-12.2950025-2.5897114-16.6117358-7.1595746-.3313039-.3491507-.4511717-.8485277-.3144503-1.3100206.1367213-.461493.5092606-.81499.9772859-.9273323s.9604324.0335377 1.2917363.3826884c3.8084909 4.0331491 9.1105434 6.3188251 14.6576954 6.3188251 5.5471519 0 10.8492044-2.285676 14.6576953-6.3188251zm-28.140947-20.639387c.7443073 0 1.3476875.6033802 1.3476875 1.3476874 0 .7443073-.6033802 1.3476875-1.3476875 1.3476875h-4.0388109l-.0008746 2.6961252 1.348562.0003125c.7005245 0 1.2762139.5344822 1.3415181 1.2178962l.0061694.1297913c0 .7443072-.6033803 1.3476875-1.3476875 1.3476875l-1.348562-.0006875.0008746 4.0437498c0 .7005245-.5344822 1.2762139-1.2178962 1.3415181l-.1297913.0061694c-.7443072 0-1.3476875-.6033803-1.3476875-1.3476875v-10.7825625c.0005861-.7440643.6036232-1.3471013 1.3476875-1.3476874zm8.0925018 0c2.1579699-.0406738 3.9665589 1.6225408 4.1064318 3.776357.139873 2.1538161-1.4384073 4.0369805-3.583512 4.2757567l3.1322042 3.1215757c.5255609.5265201.5255609 1.379161 0 1.9056811-.2525289.2554629-.5973554.3983743-.9565605.3964412-.3583268.0006471-.7023006-.1407643-.9565605-.3932527l-3.0896904-3.0918161v2.139507c0 .7443072-.6033802 1.3476875-1.3476875 1.3476875-.7443072 0-1.3476874-.6033803-1.3476874-1.3476875v-10.7825625c.0005861-.7440643.6036231-1.3471013 1.3476874-1.3476874zm13.4800631 0c.7443072 0 1.3476875.6033802 1.3476875 1.3476874 0 .7443073-.6033803 1.3476875-1.3476875 1.3476875h-4.038811l-.0004394 2.6961252 1.3385613.0003125c.7005244 0 1.2762139.5344822 1.3415181 1.2178962l.0061693.1297913c0 .7443072-.6033802 1.3476875-1.3476874 1.3476875l-1.3385613-.0006875.0004394 2.6960624h4.0398739c.7443072 0 1.3476874.6033802 1.3476874 1.3476874s-.6033802 1.3476875-1.3476874 1.3476875h-5.3918127c-.7440643-.0005861-1.3471013-.6036232-1.3476875-1.3476875l-.0008131-5.2837498-.0045011-.107c0-.0363159.0014364-.0722964.0042556-.1078876l.0010586-5.2839251c.0005851-.7436499.6029754-1.3465156 1.3466247-1.3476874zm10.7814997 0c.7443072 0 1.3476874.6033802 1.3476874 1.3476874 0 .7443073-.6033802 1.3476875-1.3476874 1.3476875h-4.038811l-.0009391 2.6961252 1.3422495.0003125c.7005244 0 1.2762139.5344822 1.3415181 1.2178962l.0061693.1297913c0 .7443072-.6033802 1.3476875-1.3476874 1.3476875l-1.3422495-.0006875.0009391 2.6960624h4.0377481c.7443072 0 1.3476875.6033802 1.3476875 1.3476874s-.6033803 1.3476875-1.3476875 1.3476875h-5.3918126c-.7440644-.0005861-1.3471014-.6036232-1.3476875-1.3476875v-10.7825625c.0005861-.7440643.6036231-1.3471013 1.3476875-1.3476874zm-24.2615628 2.6996263h-1.3476874v2.6953749h1.3476874c.7443073 0 1.3476875-.6033802 1.3476875-1.3476875 0-.7443072-.6033802-1.3476874-1.3476875-1.3476874zm5.3918127-18.87319066c6.9524618 0 13.5277516 3.16122206 17.8696129 8.59122816.4660725.5805361.3732813 1.4289801-.2072548 1.8950525-.5805361.4660725-1.4289801.3732814-1.8950526-.2072547-3.8304771-4.7928492-9.632901-7.5833668-15.7683683-7.5833668-6.1354674 0-11.9378912 2.7905176-15.7683684 7.5833668-.3014961.3751614-.7802361.5609785-1.2558833.4874559-.4756473-.0735225-.8759397-.395215-1.0500909-.8438989s-.0957036-.9561935.2057925-1.3313548c4.3418613-5.4300061 10.9171511-8.59122816 17.8696129-8.59122816z" fill="#f7b222" transform=""/></svg>