<svg xmlns="http://www.w3.org/2000/svg" width="63.51" height="63.755" viewBox="0 0 63.51 63.755">
    <path data-name="Path 5072" d="m11.335 38.647 2.91 4.893 5.561 1.26a.745.745 0 0 1 .382 1.233L16.44 50.3l.523 5.681a.748.748 0 0 1-1.035.751l-5.24-2.251-5.24 2.251a.745.745 0 0 1-1.03-.811l.516-5.621-3.762-4.29a.746.746 0 0 1 .4-1.217L7.13 43.54l2.915-4.9a.747.747 0 0 1 1.29.009zm44.11 0 2.91 4.893 5.561 1.26a.745.745 0 0 1 .384 1.23l-3.748 4.27.522 5.681a.747.747 0 0 1-1.035.751L54.8 54.485l-5.24 2.251a.746.746 0 0 1-1.031-.811l.517-5.622-3.762-4.29a.746.746 0 0 1 .4-1.217l5.561-1.258 2.915-4.9a.746.746 0 0 1 1.285.009zm1.791 5.927-2.437-4.1-2.438 4.1a.746.746 0 0 1-.478.347l-4.653 1.052 3.147 3.589a.736.736 0 0 1 .181.557l-.436 4.752 4.378-1.884a.739.739 0 0 1 .589 0l4.384 1.884-.436-4.732a.74.74 0 0 1 .179-.577l3.147-3.589-4.613-1.044a.743.743 0 0 1-.515-.355zM33.389 45.6l2.911 4.9 5.56 1.258a.745.745 0 0 1 .384 1.233l-3.744 4.27.523 5.681a.748.748 0 0 1-1.036.751l-5.24-2.251-5.247 2.253a.746.746 0 0 1-1.031-.811l.518-5.623-3.763-4.289a.747.747 0 0 1 .4-1.217l5.561-1.255 2.915-4.9a.746.746 0 0 1 1.289 0zm1.791 5.929-2.437-4.1-2.438 4.1a.742.742 0 0 1-.478.347l-4.653 1.053 3.146 3.591a.745.745 0 0 1 .182.558l-.437 4.751 4.383-1.883a.744.744 0 0 1 .589 0l4.384 1.884-.436-4.73a.74.74 0 0 1 .179-.577l3.148-3.588-4.619-1.045a.743.743 0 0 1-.513-.357zM16.562 34.546c7.814-12.662 24.547-12.662 32.361 0 10.409-13.385.86-33.052-16.181-33.052s-26.59 19.667-16.18 33.052zm31.346 1.207c-7.179-12.282-23.153-12.282-30.331 0a20.489 20.489 0 0 0 30.332 0zM32.743 6.148a8.164 8.164 0 1 1-8.164 8.164 8.173 8.173 0 0 1 8.164-8.164zM37.459 9.6a6.669 6.669 0 1 0 0 9.431 6.677 6.677 0 0 0 0-9.431zM32.743 0a21.98 21.98 0 1 1-21.981 21.981A21.981 21.981 0 0 1 32.743 0zM13.126 44.574l-2.438-4.1-2.437 4.1a.743.743 0 0 1-.478.347l-4.655 1.053 3.148 3.589a.742.742 0 0 1 .182.557l-.437 4.752 4.383-1.884a.742.742 0 0 1 .59 0l4.383 1.884-.435-4.732a.74.74 0 0 1 .179-.577l3.147-3.589-4.619-1.045a.741.741 0 0 1-.513-.355z" transform="translate(-.988)" style="fill:#5b7988"/>
</svg>
