<svg xmlns="http://www.w3.org/2000/svg" width="56.999" height="47.287" viewBox="0 0 56.999 47.287">
    <g data-name="14 percent, discount, discount, label, online discount">
        <path data-name="Path 5073" d="m59.92 26.838-2.277-14.946v-.081a.566.566 0 0 0 0-.121 1.012 1.012 0 0 0-.121-.233V11.4a.86.86 0 0 0-.283-.223h-.051a.627.627 0 0 0-.243-.081L41.453 8.351a5.06 5.06 0 0 0-4.422 1.437l-3.39 3.582a1.016 1.016 0 0 0 1.477 1.4l3.36-3.572a3.036 3.036 0 0 1 2.641-.85l13.155 2.317-4.392 3.663a1.012 1.012 0 0 0-.273.385 4.159 4.159 0 0 0-4.979.567 4.048 4.048 0 1 0 6.3.749 1.174 1.174 0 0 0 .243-.142l4.7-3.916L57.9 27.122a3.036 3.036 0 0 1-.84 2.651L34.217 52.652a3.036 3.036 0 0 1-4.29 0L22.773 45.5a1.016 1.016 0 1 0-1.437 1.437l7.154 7.154a5.06 5.06 0 0 0 7.154 0L58.5 31.27a5.06 5.06 0 0 0 1.417-4.432zm-10.969-5.272a2.024 2.024 0 1 1 .444-2.207 2.024 2.024 0 0 1-.444 2.207zm-18.316-5.788a16.191 16.191 0 1 0 0 22.889 16.191 16.191 0 0 0 0-22.889zM9.173 37.241a14.167 14.167 0 1 1 20.036 0 14.167 14.167 0 0 1-20.036 0zm15.755-13.317-10.119 9.107a1.01 1.01 0 0 1-1.356-1.5l10.119-9.107a1.012 1.012 0 0 1 1.356 1.5zm-6.749-1.761a3.036 3.036 0 1 0-3.036 3.037 3.036 3.036 0 0 0 3.036-3.037zm-4.048 0a1.012 1.012 0 1 1 1.012 1.012 1.012 1.012 0 0 1-1.012-1.012zm9.107 7.083a3.036 3.036 0 1 0 3.036 3.036 3.036 3.036 0 0 0-3.036-3.036zm0 4.048a1.012 1.012 0 1 1 1.012-1.012 1.012 1.012 0 0 1-1.012 1.012z" style="fill:#5b7988" transform="translate(-2.993 -8.284)"/>
    </g>
</svg>
