<svg height="62" viewBox="0 0 62 62" width="62" xmlns="http://www.w3.org/2000/svg"><path d="m30.5405286 0c1.4557837 0 2.4609677 1.14803144 3.4556482 2.2855594.5892458.6732737 1.1732398 1.34129565 1.5314088 1.40641729.6970546-.11871266 1.3581618-.39378499 1.9336925-.80456732 1.2929796-.71843871 2.5786068-1.43267602 3.8946941-.94531409 1.3160872.48736193 1.8297079 1.89062817 2.326523 3.28234058.1558876.65950924.4517718 1.27778547.8675882 1.81290235.6701491.09865423 1.3536886.05172358 2.0040659-.13759571 1.4452802-.25313411 2.8895101-.50521787 3.960866.39808226 1.071356.90330013 1.0566511 2.36538592 1.0566511 3.83587454-.0774527.6678221-.008638 1.3445002.201667 1.9830588.5920873.3159962 1.2457954.4994932 1.9158366.5377787 1.4505319.2447313 2.9042149.4894627 3.6153012 1.7026157.7110862 1.2131531.2195229 2.591211-.2709901 3.9766213-.3006326.6192163-.461626 1.2968943-.4716067 1.9851596.1186895.3151047.8759911.7594023 1.6353934 1.2015992 1.2887782.7488989 2.5849089 1.5030494 2.841194 2.9178695.2531341 1.3906621-.6669716 2.5470963-1.5933794 3.7150844-.5189855.5201794-.9101732 1.1537022-1.1427797 1.8507149.2340152.6967107.6266594 1.3295437 1.1469811 1.8486142.9274582 1.1669377 1.8465135 2.323372 1.5933794 3.714034-.2573355 1.4148201-1.5534661 2.1689707-2.841194 2.9178695-.7604526.4421969-1.5167039.8822932-1.6353934 1.2015993.0099807.6882653.1709741 1.3659433.4716067 1.9851595.490513 1.3854104.9799756 2.7666193.2709901 3.9766213-.7089856 1.210002-2.1658196 1.4578844-3.6195026 1.7036661-.6709595.0379735-1.3256874.2210966-1.9189876.5367283-.210206.6385797-.2790186 1.315236-.201667 1.9830589.0063021 1.4704886.0136545 2.9409771-1.050349 3.8369248s-2.5208376.6512164-3.9608661.3980823c-.6503772-.1893193-1.3339168-.2362499-2.0040658-.1375957-.4151436.5335701-.7109956 1.1499881-.8675883 1.8076506-.4968151 1.390662-.9957308 2.7865759-2.326523 3.2823406s-2.6027648-.2237244-3.894694-.9453141c-.5754773-.4108785-1.2366074-.6859604-1.9336925-.8045673-.3571187.0651216-.9453141.7352443-1.5314088 1.4053669-.9957309 1.137528-1.9956631 2.2855594-3.4556482 2.2855594s-2.4599173-1.1480314-3.4556482-2.2855594c-.5892458-.6732737-1.1732398-1.3412957-1.5314088-1.4064173-.6970342.118783-1.3581262.393849-1.9336925.8045673-1.2929796.7184387-2.5786067 1.4326761-3.894694.9453141-1.3160873-.4873619-1.829708-1.8906282-2.326523-3.2823406-.1565927-.6576624-.4524447-1.2740805-.8675883-1.8076506-.6701439-.0987866-1.3537118-.051854-2.0040659.1375957-1.4452802.2531342-2.88951.5052179-3.960866-.3991326-1.07135596-.9043504-1.05980212-2.3685369-1.05034898-3.8369248.0778252-.6678195.00900231-1.3445779-.201667-1.9830589-.59309974-.3161322-1.2479399-.4992868-1.9189876-.5367283-1.45683405-.243681-2.9094667-.487362-3.61740191-1.700515-.70793522-1.2131531-.21952294-2.591211.27204039-3.9766213.30036677-.6192647.46100583-1.2969607.47055634-1.9851596-.11868943-.3151047-.8749407-.7594023-1.63539337-1.2015992-1.29192926-.7499492-2.58911025-1.5030494-2.84539541-2.9178695-.2531341-1.3906621.66592126-2.5481467 1.59337942-3.7150844.51930454-.5203369.910529-1.1542788 1.14277969-1.8517653-.2325018-.6970617-.62370355-1.3306071-1.14277969-1.8507149-.92745816-1.167988-1.84651352-2.3233719-1.59337942-3.7150843.25628516-1.4148201 1.55346615-2.1689707 2.83594227-2.9178695.76045266-.4421969 1.51670394-.8822932 1.63539337-1.2015993-.00955051-.6881988-.17018958-1.3658949-.47055635-1.9851595-.49051297-1.3854104-.98102595-2.7666193-.27204038-3.9766213.70898556-1.210002 2.170021-1.4578844 3.62055295-1.6994647.67097045-.0379072 1.32571233-.2210342 1.9189876-.5367283.21059006-.6388601.27940946-1.3159427.20166701-1.9841092-.00630209-1.47048862-.01365454-2.9409772 1.05034897-3.83692489 1.0640035-.89594768 2.5208376-.65226672 3.960866-.39913261.6503831.18928671 1.3339156.23621687 2.0040659.13759571.4153671-.53343169.7112433-1.14990033.8675883-1.8076506.496815-1.39066206.9957308-2.78657586 2.326523-3.28234059 1.3307921-.49576472 2.6017144.22372434 3.894694.94531409.5755663.4107183 1.2366583.6857843 1.9336925.80456733.358169-.06512164.9453141-.73524429 1.5314088-1.40536695.9988819-1.14172935 2.0030156-2.28976079 3.4587992-2.28976079zm15.0073864 15.6428461c-.4724358-.0006982-.9021511.2733959-1.1007015.7020844-.1985505.4286884-.1296859.9337037.1763944 1.29358.024158.0283595.0504167.0567189.0777258.0819273 6.1265266 6.5430221 6.9792652 16.4289981 2.063664 23.9244856s-14.3224561 10.6531392-22.7649922 7.6416525c-.0367622-.0147049-.0745748-.0283595-.1123873-.0399133-.6407113-.1925905-1.3162359.1706833-1.5088264.8113946-.1925904.6407113.1706833 1.3162359.8113946 1.5088263 9.4917232 3.391121 20.0712629-.1547955 25.6021971-8.581021s4.5760853-19.5432596-2.3107083-26.9029188c-.2298307-.2788878-.5723733-.4400976-.9337602-.4400976zm-3.6552145-3.0743701c-.6688458 0-1.2110524.5422066-1.2110524 1.2110524 0 .6688457.5422066 1.2110523 1.2110524 1.2110523s1.2110524-.5422066 1.2110524-1.2110523c-.0005798-.6684356-.5426166-1.2100023-1.2110524-1.2100021zm-3.9304059-2.1059497c-9.4888901-3.43041364-20.0924986.0869246-25.6499838 8.508393-5.55748525 8.4214684-4.62157105 19.5539545 2.2639636 26.9293314.2749677.3412523.7128452.5073273 1.1449565.434251.4321112-.0730763.7910291-.3739011.9384939-.7865928.1474648-.4126918.0604658-.8728535-.2274837-1.203225-.0234982-.0278477-.0483881-.0544905-.0745748-.0798265-6.1261738-6.5563628-6.96314281-16.4560674-2.0246706-23.9478889 4.9384722-7.4918216 14.3664987-10.62502826 22.8068756-7.5793863.4123159.1725415.8861481.1039526 1.2326128-.1784251s.5092298-.7326319.4234121-1.1712779-.4062648-.7943635-.8336016-.9253529zm-18.7739378 36.5521447c-.6688458 0-1.2110524.5422066-1.2110524 1.2110524 0 .6688457.5422066 1.2110524 1.2110524 1.2110524s1.2110542-.5422067 1.2110542-1.2110524c.000556-.3215549-.1267904-.6301308-.3539673-.8577017-.2271768-.2275709-.5355315-.3554514-.8570869-.3554514zm4.3022294-27.9151347c1.3354828-.0026132 2.6167917.5278313 3.5596328 1.4736493 1.6972614 1.6951768 1.9606527 4.3532439.6290861 6.3485512s-3.8872063 2.7720965-6.1039126 1.8552904c-2.2167064-.9168062-3.4770544-3.2718474-3.0102263-5.6248013.466828-2.352954 2.5308052-4.0484462 4.9296214-4.0495289zm-1.4474786 2.859056c-1.0362417.6916303-1.439535 2.0189933-.9632002 3.1701903s1.6996023 1.8055324 2.9215751 1.5627734 2.1022388-1.3149855 2.1023729-2.5608384c.0005618-.6935782-.2758355-1.3586711-.767806-1.8475638l.0042014.0021007c-.8803831-.8815186-2.2609015-1.0182925-3.2971432-.3266622zm14.5463809-2.3086635-14.1051366 21.3840551c-.2362221.3594929-.2627132.817701-.0694943 1.2020218.193219.3843209.5767933.6363669 1.0062344.6611948.4294411.0248278.8395065-.1813343 1.0757286-.5408273l14.1009351-21.3861557c.3651678-.5557279.2106883-1.3022613-.3450396-1.667429s-1.3022613-.2106882-1.667429.3450396zm1.0020329 13.1976242c1.3353083-.0027736 2.6165528.5272661 3.5596327 1.4726001 1.6978205 1.6954419 1.9614499 4.3541542.6296461 6.3500039-1.3318039 1.9958497-3.8880635 2.7728878-6.1053085 1.8558588-2.217245-.9170289-3.477856-3.2726841-3.0108128-5.6261896s2.5316447-4.0492863 4.9310439-4.0501616zm-1.4457178 2.8609409c-1.0347582.6916789-1.4368665 2.0179544-.9604343 3.1678051s1.698728 1.8030664 2.9194499 1.5602038c1.2207219-.2428627 2.0999739-1.3141714 2.0999739-2.5588176.0011225-.6948219-.2757265-1.3612262-.7688589-1.8507149l.0042014.0052517c-.8803248-.8798707-2.2595738-1.015407-3.294332-.3237281zm-3.9625291-31.83585719c-.6333605-.72158975-1.273023-1.45683404-1.6416955-1.45683404s-1.0093854.73524429-1.6427458 1.453683c-.7011066 1.03591944-1.7291777 1.80697273-2.9199702 2.18997764-1.2643477.0574127-2.5102205-.3199448-3.5302229-1.06925527-.8056177-.44849902-1.6080843-.89279664-1.8822254-.79091279s-.5818934.97052246-.890696 1.83601003c-.2640176 1.21865447-.944901 2.30702787-1.9252897 3.07752253-1.155865.4802679-2.4438375.5386431-3.6384089.16490479-.8917462-.15545165-1.7855932-.31510469-1.9862099-.13969641-.2006166.17540828-.2100698 1.08185941-.2027173 1.98515961.1681528 1.2372811-.1039966 2.4942992-.7688555 3.5512299-.9272586.8315397-2.11646961 1.3120553-3.36111676 1.3581012-.89594769.1512503-1.79294572.3014502-1.93264214.5409298-.13969641.2394795.16490479 1.0944636.469506 1.9546994.56770195 1.1204079.72740136 2.403574.45165006 3.6289558-.58872135 1.0996399-1.53667727 1.9641816-2.68574236 2.4494138-.80876872.4705564-1.62278918.9453141-1.68055838 1.2551671-.05776919.3098529.5251745 1.0503489 1.11126923 1.7855932.91589217.9000933 1.50448833 2.0806131 1.67215559 3.3537643-.16774547 1.2731274-.75632959 2.453623-1.67215559 3.3537644-.58714508.7352443-1.16903842 1.4704885-1.11126923 1.7855932.0577692.3151047.87073931.7846107 1.68055838 1.2551671 1.14864609.4849485 2.09625025 1.3491368 2.68469201 2.4483635.27591487 1.2257192.1162137 2.5092709-.45165006 3.6300061-.30460121.8602358-.60920241 1.7173206-.469506 1.9546994.13969642.2373789 1.03669445.3896795 1.93264214.5398794 1.24466599.0459578 2.43390591.526485 3.36111671 1.3581013.664943 1.0568964.9370991 2.3139452.7688555 3.5512299 0 .9033001-.0084028 1.8066002.2027174 1.9851596.6641451.1035301 1.3430946.0557774 1.9862099-.1396965 1.1946064-.3734678 2.4824845-.3150969 3.6384089.1649048.979966.7690773 1.6608657 1.8559909 1.9252897 3.0733212.3098529.8665379.6197059 1.7362268.8906959 1.83601.2709901.0997832 1.0766077-.3434641 1.8822254-.7909128 1.0202545-.7487066 2.2660319-1.1256645 3.5302229-1.0682049 1.1910194.3825663 2.2192211 1.1537177 2.9199702 2.1899776.6302094.7236905 1.273023 1.453683 1.6427458 1.453683.3697229 0 1.0083351-.7352443 1.6416955-1.453683.7008684-1.0361463 1.7290265-1.8072649 2.9199702-2.1899776 1.2645356-.0576169 2.5106958.3193447 3.5312733 1.0682049.8056177.448499 1.6080843.8927967 1.8822254.7909128.2741411-.1018838.5818933-.9705225.8906959-1.83601.2649203-1.2171282.9457222-2.3038856 1.9252897-3.0733212 1.155865-.4802679 2.4438375-.5386431 3.6384089-.1649048.8917463.156502 1.7855933.3151047 1.9872603.1396965.201667-.1754083.2100698-1.0818595.2027173-1.9851596-.1682436-1.2372847.1039125-2.4943335.7688555-3.5512299.9272109-.8316163 2.1164508-1.3121435 3.3611168-1.3581013.8959476-.1501999 1.793996-.3014501 1.9336924-.5398794.1396965-.2384292-.1649048-1.0944636-.469506-1.9546994-.5678637-1.1207352-.7275649-2.4042869-.45165-3.6300061.5881093-1.0991008 1.5353404-1.963287 2.6836416-2.4483635.8098191-.4705564 1.6227892-.9453141 1.6805584-1.2551671.0577692-.3098529-.5251745-1.0503489-1.1112692-1.7855932-.915826-.9001414-1.5044101-2.080637-1.6721556-3.3537644.1687519-1.2731788.7584655-2.4533454 1.6753066-3.3527139.5871451-.7352443 1.1690385-1.4704886 1.1112693-1.7855933s-.8707393-.7846107-1.6805584-1.255167c-1.1488811-.4838205-2.0971877-1.346861-2.6867927-2.4452125-.2757513-1.2253817-.1160519-2.5085479.45165-3.6289557.3046012-.8602358.6092025-1.7173206.469506-1.9546995-.1396964-.2373789-1.0377448-.3896795-1.9336924-.5409297-1.244666-.0459578-2.4339059-.526485-3.3611168-1.3581013-.6675395-1.0578449-.9412324-2.316981-.7730569-3.5564816 0-.9033002.0084028-1.80765063-.2027173-1.98515961-.2111202-.17750898-1.095514-.01575524-1.9872603.13969641-1.1942375.37357332-2.4818236.31519878-3.6373585-.16490479-.9787915-.76958434-1.6585385-1.85643668-1.9221387-3.07332114-.3098529-.86653791-.6197059-1.73517652-.8906959-1.83601002-.2709901-.10083351-1.0766077.34346411-1.8822254.79091278-1.0203639.7493872-2.2665918 1.12673996-3.5312733 1.06925527-1.1908339-.38293189-2.2189231-1.15400149-2.9199702-2.18997764z" fill="#f7b222" transform=""/></svg>