<svg height="50" viewBox="0 0 62 50" width="62" xmlns="http://www.w3.org/2000/svg"><path d="m28.6805711 17.5293829v-1.3809244c-.0106156-.331347.160096-.6421701.4454122-.8109841s.6399335-.168814.9252498 0c.2853162.168814.4560278.4796371.4454121.8109841v1.3809244h2.2363149v-1.3809244c0-.501495.406542-.908037.908037-.908037s.908037.406542.908037.908037v1.479695c.7506371.1729775 1.4380389.552178 1.9847295 1.0948625.8265693.8127422 1.2646208 1.9411165 1.2029551 3.0986846-.0616656 1.1575681-.6171187 2.2330166-1.5253572 2.9533426 1.2141816.9830552 1.7604779 2.5730852 1.4068734 4.0947942s-1.5450294 2.7079391-3.068269 3.0548909v1.479695c0 .501495-.406542.908037-.908037.908037s-.908037-.406542-.908037-.908037v-1.3809244h-2.2363149v1.3799926c.0106157.331347-.1600959.6421701-.4454121.8109841-.2853163.168814-.6399336.168814-.9252498 0s-.4560278-.4796371-.4454122-.8109841v-1.3799926h-3.5128779c-.501495 0-.9080371-.4065421-.9080371-.9080371s.4065421-.908037.9080371-.908037h1.1181574v-10.8638314h-1.1181574c-.501495 0-.9080371-.406542-.9080371-.908037s.4065421-.908037.9080371-.908037h3.5119461zm19.3543736-6.5943335h6.7862839c.2640369.0000458.51488.1154268.6867351.3158795.1800958.2169905.2608864.4995888.2226997.778983l4.1232056-4.41392651-4.1232056-4.41113113c.007983.25414592-.056664.50529953-.1863596.72400695-.1575759.24582038-.4363864.3864751-.7277341.36712836-7.9401603 0-15.8803206 0-23.8204808 0-10.5449078.0087509-19.3630211 8.01591053-20.3858739 18.51109653-.0473448.4976354-.4891386.862668-.98677394.8153231-.49763537-.0473448-.86266797-.4891385-.81532313-.9867739 1.10218407-11.4315955 10.70895547-20.15505053 22.19356167-20.15292439h22.9110461v-1.57846559c.002136-.37196604.2305779-.70513573.5767741-.84119268s.740351-.04757108.9951689.22341069l6.2719315 6.70894467c.3245331.34792331.3245331.88764068 0 1.23556398l-6.2309324 6.67074102c-.2434654.2964508-.6466402.4084727-1.0081396.2801112-.3614995-.1283615-.6037444-.4695596-.6057343-.8531669v-1.5784656h-4.1362507c1.9114051 2.9755832 3.0827029 6.3655094 3.415971 9.8863754.0473448.4976353-.3176878.9394291-.8153232.9867739-.4976353.0473448-.9394291-.3176878-.9867739-.8153231-.3480916-3.631851-1.6613458-7.1044788-3.8035989-10.0578262h-9.7251744c1.4167148.8168915 2.6814776 1.8726469 3.738373 3.120591 3.4612453 4.119987 4.2213412 9.8724506 1.9489816 14.7500415-2.2723596 4.877591-7.1653791 7.9963957-12.5463188 7.9970082h-23.82700334c-.25393779.0005689-.49615028-.1068176-.66623548-.2953799-.19378586-.2181847-.28171614-.510604-.24040385-.7994826l-4.12506918 4.4111311 4.12600097 4.4139265c-.03815123-.2774759.04008407-.5583811.21617711-.7761876.17184054-.2030392.4244661-.3199765.69046222-.3196067h23.82607155c10.548025.0019675 19.3721939-8.0083452 20.3877375-18.5073693.0306267-.3219136.2306659-.603035.5247646-.7374683.2940988-.1344333.6375766-.1017549.9010486.0857254.263472.1874804.4069106.5012801.3762839.8231937-1.1033626 11.4292267-10.7074728 20.1509235-22.1898346 20.1510608h-22.91477323v1.5840564c-.00198986.3836073-.24423482.7248054-.60573427.8531669-.36149944.1283616-.76467417.0163396-1.00813964-.2801112l-6.23000057-6.6726046c-.32404252-.3466812-.32404252-.8851556 0-1.2318368l6.27193147-6.7145354c.25481794-.2709818.64897271-.3594677.99516891-.2234107.34619619.1360569.57463808.4692266.5767741.8411926v1.5756702h4.13997793c-1.9153157-2.9725364-3.08785695-6.3620082-3.41876637-9.8826482-.03062675-.3219136.11281185-.6357133.37628388-.8231936.26347202-.1874804.60694979-.2201587.90104859-.0857254.2940987.1344332.4941379.4155546.5247646.7374682.3471814 3.6309199 1.6605555 7.1025775 3.8035989 10.054099h9.7289016c-5.4532251-3.1109764-8.1297514-9.5025515-6.5204899-15.5710041 1.6092614-6.0684525 7.1012506-10.2938614 13.379454-10.2938412h17.0332651zm-8.5268823 5.3364064c-4.0554182-4.0539269-10.4096646-4.6788355-15.1771174-1.4925941s-6.6204816 9.2963349-4.4259593 14.5939581c2.1945223 5.2976233 7.8254697 8.3075052 13.4495178 7.189103 5.624048-1.1184023 9.6750235-6.0536384 9.6757576-11.7878114.0021484-3.1895971-1.2651648-6.2489181-3.5221987-8.5026556zm-5.8703266 9.4111585h-5.5339475v4.5238856h5.5339475c.6059938.0014784 1.1876718-.2382333 1.6166693-.6662424.4285542-.4205388.6699987-.9957436.6699987-1.5961697s-.2414445-1.175631-.6699987-1.5961698c-.4293025-.427326-1.010943-.6663517-1.6166693-.6643719zm0-6.3362255h-5.5339475v4.5192265h5.5339475c.6059938.0014785 1.1876718-.2382332 1.6166693-.6662423.4283043-.4214331.6695093-.9971586.6695093-1.5980333 0-.6008748-.241205-1.1766003-.6695093-1.5980334-.4302961-.4256028-1.0114495-.6637585-1.6166693-.6625132z" fill="#f7b222" transform=""/></svg>