<svg height="62" viewBox="0 0 47 62" width="47" xmlns="http://www.w3.org/2000/svg"><path d="m35.0056461 59.9996774c.5523738 0 1.0001613.4477874 1.0001613 1.0001613 0 .5523738-.4477875 1.0001613-1.0001613 1.0001613-.5523739 0-1.0001613-.4477875-1.0001613-1.0001613 0-.5523739.4477874-1.0001613 1.0001613-1.0001613zm-12.0019358-59.9996774c8.6927071 0 15.7395386 7.04683148 15.7395386 15.7395386 0 .0190031-.1820293 4.2006776-.1820293 4.2006776 1.9771399 1.0282615 2.9945482 3.2753815 2.4628206 5.4395603s-2.4746447 3.6839622-4.703182 3.6789104h-.5470882c-1.5463662 3.0831513-3.8316435 5.735736-6.652073 7.7212453.265889 1.3184594 1.3337939 2.326257 2.66543 2.5154058l4.8647846.6951121c5.3668988.768987 9.353119 5.3650299 9.355509 10.7867398v10.0016131c0 .6685344-.5416611 1.2111954-1.2101952 1.2111954h-4.2376835c-.6551016-.0188309-1.1763939-.5553231-1.1763939-1.2106953 0-.6553721.5212923-1.1918644 1.1763939-1.2106953l3.0264881.0020004v-8.7924182c-.0180121-4.2060005-3.1038408-7.7689579-7.2641716-8.3873528v7.7012422c1.668079.5896636 2.6687297 2.2953217 2.3695911 4.0390841-.2991387 1.7437623-1.8110518 3.0183955-3.5802864 3.0183955s-3.2811478-1.2746332-3.5802864-3.0183955c-.2991386-1.7437624.701512-3.4494205 2.3695911-4.0390841v-8.0482981l-2.455396-.3510567c-.1560252-.0220035-.31005-.0530085-.4620745-.0880142l-6.7680917 8.4613648v9.5015325h5.4478787c.6551016.0188309 1.1763939.5553231 1.1763939 1.2106953 0 .6553721-.5212923 1.1918643-1.1763939 1.2106952h-28.45158895c-.66892472 0-1.21119535-.5422706-1.21119535-1.2111953v-10.0016132c.00231848-5.4213807 3.98800717-10.0173021 9.35450879-10.7867398l4.86478461-.6951121c1.3308418-.1903867 2.3978446-1.1977111 2.6644298-2.5154057-2.8204295-1.9855094-5.1057068-4.6380941-6.6520729-7.7212454h-.54708827c-2.22853734.0050518-4.17145438-1.5147315-4.70318198-3.6789103-.5317276-2.1641789.48568065-4.4112989 2.46282063-5.4395604l-.18002904-4.1466688v-.0530086c0-8.69270712 7.04683146-15.7395386 15.73953866-15.7395386zm-7.9782868 41.6037103c-.1520246.0350056-.3050492.0660106-.4610744.0880142l-2.4563962.3510566v4.0866591c2.8165003.5790636 4.8390901 3.0565482 4.8427811 5.9319568v3.8736248c0 .6689247-.5422706 1.2111953-1.2111954 1.2111953h-2.4213905c-.4408371.0126719-.8537204-.2152737-1.0778783-.5950778-.224158-.3798041-.224158-.8514308 0-1.2312349.2241579-.379804.6370412-.6077497 1.0778783-.5950778h1.2101952v-2.6634296c-.0328984-1.9824497-1.6493632-3.5723122-3.6320858-3.5723122-1.98272264 0-3.59918751 1.5898625-3.63208586 3.5723122v2.6644297h1.21119535c.4408371-.0126718.85372035.2152738 1.07787832.5950779.22415798.379804.22415798.8514308 0 1.2312349-.22415797.379804-.63704122.6077497-1.07787832.5950778h-2.42139054c-.66892473 0-1.21119536-.5422706-1.21119536-1.2111954v-3.8746249c.003691-2.8754086 2.02628083-5.3528932 4.8427811-5.9319568v-3.7406033c-4.16033083.6183949-7.24615953 4.1813523-7.26417164 8.3873528v8.7924181l19.37312465-.0020003v-9.5015325zm20.0862397 10.6997257c-.6689248 0-1.2111954.5422707-1.2111954 1.2111954s.5422706 1.2111953 1.2111954 1.2111953c.6686961-.0005515 1.2106438-.5424992 1.2111953-1.2111953 0-.6689247-.5422706-1.2111954-1.2111953-1.2111954zm-8.1813196-14.359316c-2.5090667 1.0651045-5.3431998 1.0651045-7.8522665 0-.3427623 1.0176514-.9724852 1.9144768-1.8132925 2.5824165l5.7389257 7.1751573 5.7399258-7.1741571c-.8409643-.6682091-1.4707009-1.5654013-1.8132925-2.5834167zm-5.8479432-24.2079045c-1.0521343 1.9739041-3.1060604 3.2077207-5.3428618 3.2095177h-1.3002097c-.4569033 2.5439447-2.5207162 4.4917037-5.08682043 4.8007743-.25104049.1630263-2.08833683.5350863-2.08833683 2.4633973.0016532 1.3366117 1.08477885 2.4197374 2.42139055 2.4213906h1.28720761c.460231-.000026.8807124.2607887 1.085175.6731085 2.1623488 4.3687047 6.1449912 9.0174545 10.9457655 9.0174545s8.816422-4.7167608 10.9457654-9.0174545c.2044627-.4123198.624944-.6731345 1.0851751-.6731085h1.2872076c1.3366117-.0016532 2.4197373-1.0847789 2.4213905-2.4213906 0-1.9193095-1.8452976-2.3043716-2.089337-2.4633973-2.5655731-.3097892-4.6287295-2.2573115-5.0858203-4.8007743h-3.1475076c-2.7885464.0096143-5.4522496-1.1554155-7.3381836-3.2095177zm5.1251168 15.3182983c.4309807-.08335.8733265.0730114 1.1561875.4086918.2828609.3356803.3619584.7981328.2067421 1.2087415-.68646 1.9335295-2.514967 3.226219-4.5667365 3.2285207-2.0521367-.0018789-3.8811536-1.2946459-4.5677368-3.2285207-.1552162-.4106087-.0761187-.8730612.2067422-1.2087415.282861-.3356804.7252068-.4920418 1.1561875-.4086918s.7831314.3933639.9204386.8103031c.3421756.9678817 1.2572822 1.6149738 2.2838684 1.6149738s1.9416928-.6470921 2.2838684-1.6149738c.1373072-.4169392.4894579-.7269531.9204386-.8103031zm1.296919-9.0612891c.8285608 0 1.500242.6716812 1.500242 1.500242s-.6716812 1.500242-1.500242 1.500242-1.500242-.6716812-1.500242-1.500242.6716812-1.500242 1.500242-1.500242zm-9.0014518 0c.8285607 0 1.5002419.6716812 1.5002419 1.500242s-.6716812 1.500242-1.5002419 1.500242c-.8285608 0-1.500242-.6716812-1.500242-1.500242s.6716812-1.500242 1.500242-1.500242zm4.5007259-17.57183415c-7.342246.007676-13.29657092 5.94992863-13.31914827 13.29214385l.15102435 3.4525569c1.36109062-.495557 2.26813702-1.7880283 2.27136632-3.236522v-.1900307c0-.6689247.5422707-1.2111953 1.2111954-1.2111953h2.4213905c2.0053078-.0022049 3.6303811-1.6272781 3.6325859-3.6325859-.0006323-.5618268.3854826-1.05020545.9322964-1.17921823.5468139-.12901277 1.1105088.13527211 1.3610735.63813093 1.2721955 2.56498 3.8919611 4.1836181 6.7550896 4.1736732h4.2736893c.6689247 0 1.2111953.5422706 1.2111953 1.2111953v.1900307c.0025874 1.4469387.9074021 2.7386754 2.2663656 3.2355218l.1500242-3.4515567c-.0225756-7.34182539-5.9762926-13.28391752-13.3181481-13.29214385z" fill="#f7b222" opacity=".9" transform=""/></svg>