<svg height="62" viewBox="0 0 47 62" width="47" xmlns="http://www.w3.org/2000/svg"><path d="m24.2003189.00027773c3.7717381.28029342 7.3057674 1.94858527 9.9190038 4.68270427 2.8498288 2.93950176 4.8484902 6.5973073 5.7828865 10.5834205.0852785.3164977-.0047704.6544491-.2362261.8865513s-.5691547.3230934-.885889.2386979c-.3167343-.0843954-.5643844-.3313558-.6496629-.6478534-.8501326-3.6662141-2.677422-7.03370564-5.287773-9.74477898-2.2980439-2.42037577-5.4105738-3.90458655-8.7378185-4.16663124-3.0630592.02764018-6.0382311 1.02717663-8.4966597 2.85453121-.2614623.1971077-.608219.2397543-.9096504.11187522s-.5117429-.40685596-.551712-.73184275c-.0399692-.32498678.0964762-.64661025.3579384-.84371796.2244252-.16930323.4498347-.3267946.6752443-.47838005-4.6241223-1.691336-9.78982863.25463571-12.14870657 4.57653561-2.35887794 4.32189994-1.20110602 9.71920404 2.72284764 12.69337814v-.0482317c.00118108-1.347235.86374927-2.5427799 2.14188272-2.9687124-.16771215-3.1068804.62625545-6.1899494 2.27378171-8.82936036.5462078-.92787651 1.1719619-1.80656695 1.8702102-2.62616871.329437-.38434325.9080703-.42885351 1.2924136-.09941643.3843432.32943707.4288535.90807036.0994164 1.29241361-.4822186.56628191-.925209 1.16482872-1.3258805 1.79146441l4.3142794 4.64599558c3.4274317 2.8182731 7.7172315 4.3767475 12.154397 4.4156645 1.7570132 0 5.1233913-.5374393 6.6166065-1.5217604l.0196864-.0108275c.282357-.1760262.6379927-.1849833.9288529-.0233943s.4711381.4682759.4708517.8010079v.005906h1.6507065c1.726199.0021692 3.1250189 1.4009891 3.1271881 3.1271881v6.5713277c-.0019738 1.44385-.9906968 2.699268-2.3938689 3.0395836.0015982.0311497.0015982.0623608 0 .0935105-.0032544 2.7809263-2.2568291 5.034501-5.0377554 5.0377554h-.0718554c-.9848461 1.2734929-2.1953179 2.355177-3.571117 3.191169v1.9233635c-.0055176 1.8836475 1.2927612 3.5205899 3.1281725 3.9441747l5.0033041 1.1703578c4.5264501 1.040626 7.7291964 5.0766503 7.7141775 9.7211552v6.4246639c0 .5061153-.4103405.9164029-.9164559.9164029h-42.87998034c-.50611538 0-.91640295-.4102876-.91640295-.9164029v-6.4256482c-.01559578-4.6430382 3.18470924-8.6785607 7.7092029-9.7211553l5.00330419-1.1703578c1.8354113-.4235847 3.13369-2.0605271 3.1281725-3.9441746v-1.6546438c-3.2507892-1.794643-5.5865302-4.8853493-6.4256482-8.5025657h-1.98045408c-1.72642356-.001628-3.12556022-1.4007646-3.12718815-3.1271882v-4.319201c-5.46394178-3.2542215-7.35863672-10.2577789-4.28061602-15.82288503 3.0780207-5.56510608 10.01747985-7.68255557 15.67807015-4.78387732 2.193501-1.07455507 4.6062047-1.6260976 7.0487234-1.61162242zm4.2798282 38.81994457c-2.9916426 1.2177143-6.3288052 1.2815532-9.364831.1791464v.8199395c.008861 2.7364502-1.8771498 5.1148013-4.5436263 5.7297332l-2.200942.5147999c.5990998.957937 1.3160363 1.8369117 2.1340082 2.6163255.3664036.3492794.3802855.9294551.0310061 1.2958587s-.9294551.3802856-1.2958587.0310061c-1.0793936-1.0288417-2.0028986-2.2096681-2.7413343-3.5051674l-.93018345.217535c-3.69358078.8516579-6.30609412 4.1461051-6.29379271 7.936581v5.5121982h6.22685888v-2.0769175c.00000006-.5061153.41028762-.9164029.91640298-.9164029.5061153 0 .9164029.4102876.9164029.9164029v2.0769175h24.9239947v-2.0769175c0-.5061154.4102876-.916403.916403-.916403s.9164029.4102876.9164029.916403v2.0769175h6.2258746v-5.5082609c.0123014-3.7904759-2.6002119-7.0849231-6.2937927-7.9365811l-.9301835-.2175349c-4.1033001 7.2048664-13.1968815 9.8332684-20.5112832 5.928566-.4463165-.2389235-.6144418-.7944202-.3755184-1.2407367.2389234-.4463166.7944201-.6144419 1.2407367-.3755186 6.2522824 3.3362988 14.0203406 1.2597403 17.7738862-4.7513179l-2.200942-.5148c-2.6659923-.6167497-4.5503517-2.9963051-4.5396889-5.7326861zm-12.6396674-23.7743077c-.9519115.8469918-1.9955409 1.5848949-3.111439 2.1999577-.1240244.0698868-.2490332.1338676-.374042.1968642v9.3018345c.0027912 4.5173038 2.7194262 8.5977589 6.8928205 10.3393998 4.1733942 1.7416408 8.9847037.8027475 12.197103-2.3801794h-6.624481c-.5061154 0-.916403-.4102876-.916403-.9164029 0-.5061154.4102876-.916403.916403-.916403h8.1226178c1.1942713-1.8208602 1.828728-3.9517997 1.8249482-6.1293675v-8.4454751c-1.9939706.7025485-4.0875309 1.0813833-6.2012399 1.1221261-4.6054799-.0301621-9.0747375-1.5656593-12.7262876-4.3723544zm21.3223638 14.6198753-.885889-.0007382c-.2356427 1.026214-.5956107 2.0198448-1.0719256 2.9588692 1.1859427-.502389 1.9567527-1.6649983 1.9578146-2.9529633 0-.0059059 0-.0059059 0-.0059059zm-17.7432313-1.0214023c.3292967-.079879.675682.0301324.8985443.2853762.8377086.8377867 1.9739322 1.3084569 3.1586864 1.3084569 1.1847541 0 2.3209777-.4706702 3.1586864-1.3084569.3547665-.354593.9297726-.354593 1.2845391 0 .351326.3541953.351326.9254222 0 1.2796174-1.1783194 1.1786-2.7766319 1.8407542-4.4432255 1.8407542-1.6665937 0-3.2649061-.6621542-4.4432255-1.8407542-.2543864-.2238404-.3630673-.5706454-.2819248-.8996331.0811425-.3289876.3386229-.5854815.6679196-.6653605zm18.8377964-9.9702654h-1.6507065v9.1600922h1.6507065c.7146426-.0005428 1.2938394-.5797396 1.2943823-1.2943822v-6.5713277c-.0005429-.7146427-.5797397-1.2938395-1.2943823-1.2943823zm-27.7302942-.0019686h-1.65070648c-.71464261.0005428-1.29383942.5797396-1.29438226 1.2943822v6.5673904c.00054284.7146426.57973965 1.2938395 1.29438226 1.2943823h1.65070648zm8.2318774 1.9824227c.5017664 0 .9085284.406762.9085284.9085283 0 .5017664-.406762.9085284-.9085284.9085284s-.9085284-.406762-.9085284-.9085284c0-.5017663.406762-.9085283.9085284-.9085283zm9.1374528 0c.5017664 0 .9085284.406762.9085284.9085283 0 .5017664-.406762.9085284-.9085284.9085284-.5017663 0-.9085283-.406762-.9085283-.9085284 0-.5017663.406762-.9085283.9085283-.9085283zm-16.8269693-10.3245441c-.952734 1.9357185-1.42059663 4.0740367-1.36328469 6.2307526.39668139-.1309147.78548829-.2815158 1.16642049-.4478661.1149462-.0904772.2500001-.1519268.3937285-.1791465.2057231-.0915418.4045559-.1899739.6004358-.3012022.9029255-.4979129 1.7522666-1.0873391 2.5346269-1.7589818-1.2189883-1.0744154-2.334516-2.2607964-3.331927-3.543556z" fill="#f7b222" transform=""/></svg>