<svg xmlns="http://www.w3.org/2000/svg" width="55.907" height="57.892" viewBox="0 0 55.907 57.892">
    <path data-name="doctor (6)" d="M52.039 37.449a19.773 19.773 0 0 0-8.877-2.115h-3.014v-5.08a14.638 14.638 0 0 0 4.512-10.313 1.053 1.053 0 0 0 .019-.2V8.394a5.471 5.471 0 0 0-5.463-5.463H27.65a3.1 3.1 0 0 0-3.1 3.1v.244h-.905a4.184 4.184 0 0 0-4.181 4.18v8.975a14.736 14.736 0 0 0 4.531 10.784v5.116h-3.019a19.777 19.777 0 0 0-8.876 2.115 14.468 14.468 0 0 0-7.984 12.974v9.428a.975.975 0 0 0 .975.975h53.956a.975.975 0 0 0 .975-.975v-9.421a14.466 14.466 0 0 0-7.983-12.977zm-6.633 10.27a2.08 2.08 0 1 1-2.079 2.081 2.08 2.08 0 0 1 2.079-2.079zM29.762 41.76l-3.817-5.746v-4.3a11.491 11.491 0 0 0 12.252.026v4.275l-6.126 9.221zm2.308-10.214c-5.515 0-10.064-4.79-10.6-10.9h.678a3.317 3.317 0 0 0 3.311-3.312V15.5h13.216v1.833a3.317 3.317 0 0 0 3.317 3.312h.668c-.551 6.088-5.132 10.901-10.59 10.901zM21.414 10.454a2.232 2.232 0 0 1 2.23-2.229h1.881a.975.975 0 0 0 .975-.975V6.03a1.151 1.151 0 0 1 1.15-1.15h11.568a3.518 3.518 0 0 1 3.512 3.512v10.3h-.742a1.366 1.366 0 0 1-1.366-1.361v-2.807a.975.975 0 0 0-.975-.975H24.479a.975.975 0 0 0-.975.975v2.808a1.366 1.366 0 0 1-1.357 1.361h-.73v-8.239zm36.658 48.425h-52v-8.453a12.527 12.527 0 0 1 6.912-11.238 17.8 17.8 0 0 1 4.39-1.526v7.731H13.13a.975.975 0 0 0-.975.975v7.989h1.951v-7.012h8.487v7.014h1.951v-7.99a.975.975 0 0 0-.975-.975h-4.244V37.37c.549-.052 1.1-.085 1.651-.085h3.472l6.81 10.254 3.668 5.514 1.625-1.081L33.247 47l6.453-9.715h3.47c.423 0 .847.02 1.268.051V45.9a4.031 4.031 0 1 0 1.951 0v-8.314a17.8 17.8 0 0 1 4.78 1.6 12.526 12.526 0 0 1 6.9 11.236z" transform="translate(-4.116 -2.931)" style="fill:#5b7988"/>
</svg>
