<svg xmlns="http://www.w3.org/2000/svg" width="45.822" height="65.139" viewBox="0 0 45.822 65.139">
    <path data-name="Path 5068" d="M303.989 159.443c.353.291.718.575 1.085.843a.779.779 0 0 0 .918-1.258c-.343-.25-.683-.515-1.012-.786a.779.779 0 1 0-.992 1.2z" transform="translate(-274.604 -138.202)" style="fill:#5b7988"/>
    <path data-name="Path 5069" d="M258.524 99.162a.779.779 0 0 0 1.112-1.09 21.571 21.571 0 0 1-4.584-6.851.779.779 0 1 0-1.464.529 22.7 22.7 0 0 0 4.936 7.412z" transform="translate(-230.949 -79.585)" style="fill:#5b7988"/>
    <path data-name="Path 5070" d="M116.884 50.053h-8.116V44.7a11.172 11.172 0 0 0 4.506-8.965v-1.187c.871.373 1.785.733 2.751 1.075a.779.779 0 0 0 1.038-.734v-9.308a14.216 14.216 0 0 0-7.006-12.243 7.35 7.35 0 0 0 .077-1.024h.592a2.079 2.079 0 1 0 0-1.557h-.753a7.281 7.281 0 0 0-14.239 0h-.36a.779.779 0 0 0 0 1.557h.2a7.331 7.331 0 0 0 .078 1.023 14.216 14.216 0 0 0-7.007 12.244v1.809a9.924 9.924 0 0 0 .633 3.495 2.725 2.725 0 0 0 1.631 4.681v.169a11.18 11.18 0 0 0 5.013 9.32v5H87.8a8.381 8.381 0 0 0-8.371 8.371v10.932a.779.779 0 0 0 .779.779h44.265a.779.779 0 0 0 .779-.779V58.425a8.381 8.381 0 0 0-8.371-8.371zm-4.232-39.04a.522.522 0 1 1-.522.522.522.522 0 0 1 .522-.522zm-9.8-4.457a5.731 5.731 0 0 1 5.724 5.724q0 .147-.008.294a14.194 14.194 0 0 0-11.433 0c0-.1-.008-.195-.008-.293a5.731 5.731 0 0 1 5.724-5.724zM90.2 25.581a12.652 12.652 0 1 1 25.3 0v8.192c-7.925-3.021-12.179-7.207-14.37-10.245a16.29 16.29 0 0 1-2.93-6.2.779.779 0 1 0-1.539.236 15.638 15.638 0 0 0 1.965 4.955 13.339 13.339 0 0 0-4.292 1.9 7.747 7.747 0 0 0-3.395 5.7 2.693 2.693 0 0 0-.272.036 8.382 8.382 0 0 1-.472-2.775zm2.264 10.154V34.8a.779.779 0 0 0-.779-.779h-.52a1.172 1.172 0 1 1 0-2.345h.52a.779.779 0 0 0 .779-.779 6.209 6.209 0 0 1 2.741-5.18 11.716 11.716 0 0 1 4.307-1.793c.1.141.194.282.3.425a30.277 30.277 0 0 0 11.908 9.494v1.891a9.626 9.626 0 1 1-19.251 0zm14.746 9.937v5.151L105.5 56.4a9.038 9.038 0 0 1-6.311 0l-1.712-5.586v-4.9a11.142 11.142 0 0 0 9.733-.247zM80.99 68.58V58.425a6.822 6.822 0 0 1 6.81-6.814h8.29l5.2 16.969zm18.752-10.369a10.626 10.626 0 0 0 5.205 0l-2.6 8.494zM123.7 68.58h-20.3l5.2-16.969h8.286a6.822 6.822 0 0 1 6.814 6.814z" transform="translate(-79.433 -4.998)" style="fill:#5b7988"/>
    <path data-name="Path 5071" d="M325.423 432.959H318.8a.779.779 0 0 0 0 1.557h6.623a.779.779 0 1 0 0-1.557z" transform="translate(-287.062 -377.427)" style="fill:#5b7988"/>
</svg>
