<svg xmlns="http://www.w3.org/2000/svg" width="55.328" height="55.328" viewBox="0 0 55.328 55.328">
    <g data-name="Group 6176">
        <g data-name="Group 6175">
            <path data-name="Path 5058" d="M91.347 192h-4.811a1.2 1.2 0 0 0-1.2 1.2v9.622a1.2 1.2 0 0 0 2.406 0v-8.42h3.608a1.2 1.2 0 1 0 0-2.406z" transform="translate(-75.711 -170.35)" style="fill:#5b7988"/>
        </g>
    </g>
    <g data-name="Group 6178">
        <g data-name="Group 6177">
            <path data-name="Path 5059" d="M88.941 234.667h-2.405a1.2 1.2 0 1 0 0 2.406h2.406a1.2 1.2 0 1 0 0-2.406z" transform="translate(-75.711 -208.206)" style="fill:#5b7988"/>
        </g>
    </g>
    <g data-name="Group 6180">
        <g data-name="Group 6179">
            <path data-name="Path 5060" d="M27.664 0a27.664 27.664 0 1 0 27.664 27.664A27.7 27.7 0 0 0 27.664 0zm0 52.923a25.259 25.259 0 1 1 25.259-25.259 25.286 25.286 0 0 1-25.259 25.259z" style="fill:#5b7988"/>
        </g>
    </g>
    <g data-name="Group 6182">
        <g data-name="Group 6181">
            <path data-name="Path 5061" d="M133.719 71.667a20.418 20.418 0 0 0-31.893 0 1.2 1.2 0 1 0 1.874 1.506 18.014 18.014 0 0 1 28.143 0 1.2 1.2 0 0 0 1.876-1.506z" transform="translate(-90.108 -56.783)" style="fill:#5b7988"/>
        </g>
    </g>
    <g data-name="Group 6184">
        <g data-name="Group 6183">
            <path data-name="Path 5062" d="M140.875 352.325a1.2 1.2 0 0 0-1.7.046 17.991 17.991 0 0 1-26.161 0 1.2 1.2 0 1 0-1.744 1.655 20.392 20.392 0 0 0 29.649 0 1.2 1.2 0 0 0-.044-1.701z" transform="translate(-98.431 -312.303)" style="fill:#5b7988"/>
        </g>
    </g>
    <g data-name="Group 6186">
        <g data-name="Group 6185">
            <path data-name="Path 5063" d="M174.741 199.185a3.608 3.608 0 0 0-.467-7.185h-2.406a1.2 1.2 0 0 0-1.2 1.2v9.622a1.2 1.2 0 0 0 2.406 0v-1.908l2.757 2.759a1.208 1.208 0 0 0 .852.351 1.191 1.191 0 0 0 .849-.354 1.2 1.2 0 0 0 0-1.7zm-1.669-2.374v-2.406h1.2a1.2 1.2 0 0 1 0 2.406h-1.2z" transform="translate(-151.421 -170.35)" style="fill:#5b7988"/>
        </g>
    </g>
    <g data-name="Group 6188">
        <g data-name="Group 6187">
            <path data-name="Path 5064" d="M262.013 201.622H258.4v-7.217h3.608a1.2 1.2 0 1 0 0-2.406H257.2a1.2 1.2 0 0 0-1.2 1.2v9.622a1.2 1.2 0 0 0 1.2 1.2h4.811a1.2 1.2 0 1 0 0-2.406z" transform="translate(-227.132 -170.35)" style="fill:#5b7988"/>
        </g>
    </g>
    <g data-name="Group 6190">
        <g data-name="Group 6189">
            <path data-name="Path 5065" d="M259.608 234.667H257.2a1.2 1.2 0 1 0 0 2.406h2.406a1.2 1.2 0 1 0 0-2.406z" transform="translate(-227.133 -208.206)" style="fill:#5b7988"/>
        </g>
    </g>
    <g data-name="Group 6192">
        <g data-name="Group 6191">
            <path data-name="Path 5066" d="M347.347 201.622h-3.608v-7.217h3.608a1.2 1.2 0 1 0 0-2.406h-4.811a1.2 1.2 0 0 0-1.2 1.2v9.622a1.2 1.2 0 0 0 1.2 1.2h4.811a1.2 1.2 0 1 0 0-2.406z" transform="translate(-302.844 -170.35)" style="fill:#5b7988"/>
        </g>
    </g>
    <g data-name="Group 6194">
        <g data-name="Group 6193">
            <path data-name="Path 5067" d="M344.941 234.667h-2.406a1.2 1.2 0 1 0 0 2.406h2.406a1.2 1.2 0 1 0 0-2.406z" transform="translate(-302.844 -208.206)" style="fill:#5b7988"/>
        </g>
    </g>
</svg>
