<svg width="28" height="24" xmlns="http://www.w3.org/2000/svg"><g><path d="M25 0H3a3 3 0 0 0-3 3v14a3 3 0 0 0 3 3h7v2H7a1 1 0 0 0 0 2h14a1 1 0 1 0 0-2h-3v-2h7a3 3 0 0 0 3-3V3a3 3 0 0 0-3-3zm0 18H3a1 1 0 0 1-1-1V3a1 1 0 0 1 1-1h22a1 1 0 0 1 1 1v14a1 1 0 0 1-1 1zm-9 4h-4v-2h4v2z" fill="#24bce3" fill-rule="evenodd"/><path d="M9 12V5a1 1 0 0 0-2 0v7a1 1 0 0 0 0 2v1a1 1 0 1 0 2 0v-1a1 1 0 0 0 0-2zM15 6V5a1 1 0 0 0-2 0v1a1 1 0 0 0 0 2v7a1 1 0 1 0 2 0V8a1 1 0 1 0 0-2zM21 9V5a1 1 0 0 0-2 0v4a1 1 0 1 0 0 2v4a1 1 0 1 0 2 0v-4a1 1 0 1 0 0-2z" fill="#24bce3" fill-rule="evenodd"/></g></svg>