<svg height="18" viewBox="0 0 16 18" width="16" xmlns="http://www.w3.org/2000/svg"><path d="m29.3333333 27.7228916c-.6755555 0-1.28.2710843-1.7422222.6957831l-6.3377778-3.75c.0444445-.2078313.08-.4156627.08-.6325301 0-.2168675-.0355555-.4246988-.08-.6325301l6.2666667-3.7138555c.48.4518073 1.1111111.7319277 1.8133333.7319277 1.4755556 0 2.6666667-1.2108433 2.6666667-2.7108433s-1.1911111-2.7108434-2.6666667-2.7108434c-1.4755555 0-2.6666666 1.2108434-2.6666666 2.7108434 0 .2168674.0355555.4246988.08.6325301l-6.2666667 3.7138554c-.48-.4518072-1.1111111-.7319277-1.8133333-.7319277-1.4755556 0-2.6666667 1.2108434-2.6666667 2.7108434s1.1911111 2.7108434 2.6666667 2.7108434c.7022222 0 1.3333333-.2801205 1.8133333-.7319278l6.3288889 3.7590362c-.0444445.189759-.0711111.3885542-.0711111.5873494 0 1.4548193 1.1644444 2.6385542 2.5955555 2.6385542s2.5955556-1.1837349 2.5955556-2.6385542-1.1644445-2.6385542-2.5955556-2.6385542z" fill="#777" fill-rule="evenodd" transform="translate(-16 -15)"/></svg>