<svg height="13.083" viewBox="0 0 12.855 13.083" width="12.855" xmlns="http://www.w3.org/2000/svg"><g fill="#2bbae0"><path d="m253.465 438.536h-1.865a.225.225 0 0 0 -.234.234v1.4a.225.225 0 0 0 .234.234h1.869a.225.225 0 0 0 .233-.234v-1.4a.225.225 0 0 0 -.233-.234z" transform="translate(-245.048 -427.322)"/><path d="m9.369 10.279h-1.4v-10.045a.225.225 0 0 0 -.236-.234h-1.4a.225.225 0 0 0 -.233.234v10.045h-1.4a.217.217 0 0 0 -.219.146.222.222 0 0 0 .051.256l2.336 2.336a.263.263 0 0 0 .168.066.244.244 0 0 0 .168-.066l2.329-2.329a.274.274 0 0 0 .073-.175.225.225 0 0 0 -.234-.234z" transform="translate(-4.457)"/><path d="m254.863 292.362h-3.271a.225.225 0 0 0 -.234.233v1.405a.225.225 0 0 0 .234.233h3.271a.225.225 0 0 0 .237-.233v-1.4a.225.225 0 0 0 -.234-.233z" transform="translate(-245.045 -284.886)"/><path d="m257.838.066a.228.228 0 0 0 -.168-.066h-6.07a.225.225 0 0 0 -.234.234v1.4a.225.225 0 0 0 .234.234h6.074a.225.225 0 0 0 .234-.234v-1.4a.227.227 0 0 0 -.07-.168z" transform="translate(-245.048)"/><path d="m256.265 146.181h-4.673a.225.225 0 0 0 -.234.234v1.4a.225.225 0 0 0 .234.234h4.673a.225.225 0 0 0 .234-.234v-1.4a.225.225 0 0 0 -.234-.234z" transform="translate(-245.045 -142.443)"/></g></svg>