<svg height="16" viewBox="0 0 16 16" width="16" xmlns="http://www.w3.org/2000/svg"><path d="m110.539699 2.29375052-2.092747 4.50874323-5.003512.64446865c-.196946.02505219-.361194.1626542-.420362.35216506-.059167.18951086-.002386.39612108.145321.5287779l3.700874 3.33144614-.99715 4.9994529c-.039205.1957156.039967.3962358.202303.5123772.162335.1161415.377678.1263296.550253.0260332l4.374775-2.5357558 4.376805 2.5357558c.172463.0998696.387417.0895446.549513-.0263949.162097-.1159396.241323-.316027.202536-.5115081l-.99715-4.9999603 3.700874-3.33144614c.14735-.13264065.203961-.33894695.144944-.52821567-.059016-.18926872-.222853-.32683596-.419478-.35221984l-5.003512-.6449761-2.09427-4.50874323c-.083179-.17914543-.262748-.29375052-.460262-.29375052s-.377083.11460509-.460262.29375052z" fill="#ffb400" transform="translate(-103 -2)"/></svg>