<svg width="28" height="28" xmlns="http://www.w3.org/2000/svg"><g><path d="M21 14V8a1 1 0 0 0-1-1h-3a1 1 0 1 0 0 2h2v5a5 5 0 0 1-10 0V9h2a1 1 0 0 0 0-2H8a1 1 0 0 0-1 1v6a7 7 0 0 0 6 6.92c.081 1.44.367 2.646.854 3.592a4.64 4.64 0 0 0 1.086 1.408A4.67 4.67 0 0 0 18.188 27c.365 0 .73-.023 1.092-.07a9.676 9.676 0 0 0 7.14-5.87 16.468 16.468 0 0 0 1.436-4.906A16.45 16.45 0 0 0 28 14c0-7.732-6.268-14-14-14a13.818 13.818 0 0 0-6.19 1.44 1 1 0 1 0 .88 1.79A12 12 0 0 1 26 14c0 .519-.03 1.038-.086 1.553-.485 4.42-2.995 8.839-6.914 9.447a3.26 3.26 0 0 1-2.71-.56A5 5 0 0 1 15 20.92 7 7 0 0 0 21 14zM14 0c7.732 0 14 6.268 14 14 0-7.732-6.268-14-14-14zm5 14a5 5 0 0 1-5 5" fill="#24bce3" fill-rule="evenodd"/><path d="M5 20.01a4.07 4.07 0 0 0-1.26.22A11.992 11.992 0 0 1 5.34 5.7 1 1 0 1 0 3.9 4.32a13.988 13.988 0 0 0-3.893 10.1c.07 2.44.778 4.819 2.053 6.9a3.994 3.994 0 0 0-1.038 2.577A4 4 0 1 0 5 20.01zm0 6a2 2 0 1 1 0-4 2 2 0 0 1 0 4z" fill="#24bce3" fill-rule="evenodd"/></g></svg>