<svg width="31.93" height="25.47" xmlns="http://www.w3.org/2000/svg"><g><path d="M12.7 16.15L9 19.32a3.199 3.199 0 0 0-4.229 4.487 3.2 3.2 0 0 0 5.939-1.657 3.13 3.13 0 0 0-.27-1.26l3.95-3.34-1.69-1.4zm-5.23 7.06a1.07 1.07 0 1 1 1.07-1.06 1.06 1.06 0 0 1-1.07 1.06z" fill="#24bce3" fill-rule="evenodd"/><path d="M28.8 4.01H13.87v-.22A3.2 3.2 0 0 0 11 .61L5.69.02a3.212 3.212 0 0 0-2.492.793A3.2 3.2 0 0 0 2.13 3.2v1a3.2 3.2 0 0 0 1.06 6.22h6L21.6 20.88a3.275 3.275 0 0 0 1.23 4.066 3.279 3.279 0 0 0 4.34-4.804A3.277 3.277 0 0 0 23 19.33l-5.4-4.57 5.13-4.35h6a3.2 3.2 0 0 0 2.26-5.46h.07a3.17 3.17 0 0 0-2.26-.94zm.01 4.26H3.2a1.07 1.07 0 0 1 0-2.13h25.6a1.07 1.07 0 0 1 .75 1.82h.01c-.2.197-.47.308-.75.31zM5.45 2.14l5.33.59c.54.06.948.517.95 1.06v.22H4.27V3.2c0-.3.128-.588.35-.79a1.08 1.08 0 0 1 .83-.27zM16 13.36l-3.49-3h7l-3.51 3zm9.6 8.79a1.07 1.07 0 1 1-2.14 0 1.07 1.07 0 0 1 2.14 0z" fill="#24bce3" fill-rule="evenodd"/></g></svg>