<svg height="138" viewBox="0 0 134.933 138" width="134.933" xmlns="http://www.w3.org/2000/svg"><path d="m455 115.5a3.067 3.067 0 1 1 -3.067 3.067 3.068 3.068 0 0 1 3.067-3.067z" fill="#94d4ff" transform="translate(-323.13 -87.9)"/><path d="m455 375.5a3.067 3.067 0 1 1 -3.067 3.067 3.068 3.068 0 0 1 3.067-3.067z" fill="#94d4ff" transform="translate(-323.13 -268.167)"/><path d="m398.063 435.5a6.133 6.133 0 1 1 -6.133 6.133 6.132 6.132 0 0 1 6.133-6.133z" fill="#24bce3" transform="translate(-281.53 -309.767)"/><path d="m385 25.5a3.067 3.067 0 1 1 -3.067 3.067 3.068 3.068 0 0 1 3.067-3.067z" fill="#94d4ff" transform="translate(-274.597 -25.5)"/><path d="m113.263 55.5a61.333 61.333 0 1 0 61.337 61.333 61.332 61.332 0 0 0 -61.337-61.333z" fill="#ffd400" transform="translate(-45.797 -46.3)"/><path d="m147.93 197.5a46 46 0 1 1 46-46 46 46 0 0 1 -46 46z" fill="#fff" transform="translate(-80.463 -80.967)"/><path d="m219.264 204.157a6.131 6.131 0 0 1 0 8.673l-21.684 21.687-8.673 8.673-8.676-8.673-6.5-6.507a6.133 6.133 0 1 1 8.673-8.673l6.507 6.5 21.685-21.684a6.13 6.13 0 0 1 8.672 0z" fill="#24bce3" transform="translate(-128.997 -148.123)"/><path d="m95 455.5a3.067 3.067 0 1 1 -3.067 3.067 3.068 3.068 0 0 1 3.067-3.067z" fill="#94d4ff" transform="translate(-73.53 -323.633)"/><path d="m59.6 45.5a7.667 7.667 0 1 1 -7.667 7.667 7.666 7.666 0 0 1 7.667-7.667z" fill="#24bce3" transform="translate(-45.797 -39.367)"/><path d="m35 125.5a3.067 3.067 0 1 1 -3.067 3.067 3.068 3.068 0 0 1 3.067-3.067z" fill="#94d4ff" transform="translate(-31.93 -94.833)"/><path d="m35 375.5a3.067 3.067 0 1 1 -3.067 3.067 3.068 3.068 0 0 1 3.067-3.067z" fill="#94d4ff" transform="translate(-31.93 -268.167)"/><g fill="#d0dce7"><path d="m281.8 248.567a3.067 3.067 0 1 0 -6.133 0 30.7 30.7 0 0 1 -30.667 30.666 3.067 3.067 0 0 0 -3.067 3.067v12.162c1.014.067 2.036.1 3.067.1s2.053-.037 3.067-.1v-9.222a36.851 36.851 0 0 0 33.733-36.673z" transform="translate(-177.53 -178.034)"/><path d="m131.93 151.5a3.067 3.067 0 1 0 6.133 0 30.7 30.7 0 0 1 30.667-30.667 3.067 3.067 0 0 0 3.067-3.067v-12.166c-1.014-.067-2.036-.1-3.067-.1s-2.053.037-3.067.1v9.222a36.851 36.851 0 0 0 -33.733 36.678z" transform="translate(-101.263 -80.967)"/></g></svg>