<svg xmlns="http://www.w3.org/2000/svg" width="97.9" height="98.1" viewBox="0 0 97.9 98.1">
    <g data-name="020-heart">
        <g data-name="Group 6058">
            <g data-name="Group 6045">
                <path data-name="Path 5002" d="M93.7 32.1c-.6.9-1.2 1.8-1.9 2.7-8 10.7-20.7 18.4-20.7 18.4s-13.3-7.9-21.4-18.8c-.9-1.2-1.7-2.4-2.5-3.7a24.284 24.284 0 0 1-3.8-12.3 14.839 14.839 0 0 1 27.5-7.8 14.775 14.775 0 0 1 27.4 7.8 22.368 22.368 0 0 1-1.6 8" style="fill:#cef5ff" transform="translate(-2.6 -2.5)"/>
            </g>
            <g data-name="Group 6046">
                <path data-name="Path 5003" d="M50.8 54.8A1.155 1.155 0 0 1 52 56a23.994 23.994 0 0 1-17.3 22.3c-1.8.6-3 1.1-3 1.1V86a1.155 1.155 0 0 1-1.2 1.2H25a1.155 1.155 0 0 1-1.2-1.2v-6.6S11.7 75.1 7.6 69a25.9 25.9 0 0 1-4.1-13 1.155 1.155 0 0 1 1.2-1.2l4.7.1a1.287 1.287 0 0 1 1.2 1.2 17.475 17.475 0 0 0 2.9 9c5.1 7.6 13.2 8.4 19.1 6.5 5.5-1.7 11.9-6.8 12.3-15.5a1.216 1.216 0 0 1 1.2-1.2z" style="fill:#cef5ff" transform="translate(-2.6 -2.5)"/>
            </g>
            <g data-name="Group 6047">
                <path data-name="Path 5004" d="M21.2 34.2c0 1.6-4.2 3-5.8 3a3.009 3.009 0 0 1-3-3 2.946 2.946 0 0 1 3-3c1.7 0 5.8 1.4 5.8 3z" style="fill:#fff" transform="translate(-2.6 -2.5)"/>
            </g>
            <g data-name="Group 6048">
                <path data-name="Path 5005" d="M42.6 34.2a3.009 3.009 0 0 1-3 3c-1.7 0-5.8-1.3-5.8-3s4.2-3 5.8-3a3.076 3.076 0 0 1 3 3z" style="fill:#fff" transform="translate(-2.6 -2.5)"/>
            </g>
            <g data-name="Group 6052">
                <g data-name="Group 6051">
                    <g data-name="Group 6050">
                        <g data-name="Group 6049">
                            <path data-name="Path 5006" d="M84.5 29.8a12 12 0 1 1-12-12 12.035 12.035 0 0 1 12 12z" style="fill:#7addf6" transform="translate(-2.6 -2.5)"/>
                        </g>
                    </g>
                </g>
            </g>
            <path data-name="Path 5007" d="M70.9 36.7a2.006 2.006 0 0 0-2 2v52a4.8 4.8 0 0 1-4.8 4.8H34.5a4.8 4.8 0 0 1-4.8-4.8v-4.3h-4v4.3a8.813 8.813 0 0 0 8.8 8.8h29.6a8.813 8.813 0 0 0 8.8-8.8v-52a2.006 2.006 0 0 0-2-2z" style="fill:#fff" transform="translate(-2.6 -2.5)"/>
            <g data-name="Group 6057">
                <g data-name="Group 6053" transform="translate(-2.6 -2.5)">
                    <circle data-name="Ellipse 1423" cx="11" cy="11" r="11" transform="translate(59.9 17.3)" style="fill:#fff"/>
                </g>
                <g data-name="Group 6056">
                    <g data-name="Group 6054">
                        <path data-name="Path 5008" d="M70.9 34.1a5.7 5.7 0 1 1 5.7-5.7 5.763 5.763 0 0 1-5.7 5.7z" style="fill:#7addf6" transform="translate(-2.6 -2.5)"/>
                    </g>
                    <g data-name="Group 6055">
                        <path data-name="Path 5009" d="M96.3 27.3a1.04 1.04 0 0 0 1.3-.6 22.8 22.8 0 0 0 1.7-8.3A15.919 15.919 0 0 0 83.5 2.5a16.108 16.108 0 0 0-12.7 6.3 16.108 16.108 0 0 0-12.7-6.3 15.855 15.855 0 0 0-15.8 15.9 25.239 25.239 0 0 0 3.9 12.8 28.07 28.07 0 0 0 2.6 3.8c6 8.1 14.6 14.4 19 17.3v38.5a3.8 3.8 0 0 1-3.8 3.8H34.5a3.8 3.8 0 0 1-3.8-3.8v-2.6a2.174 2.174 0 0 0 1.9-2.2v-6c.5-.2 1.3-.5 2.3-.8A25.177 25.177 0 0 0 53 56a2.452 2.452 0 0 0-.6-1.6 2.928 2.928 0 0 0-1.6-.7h-1.3v-16a4.481 4.481 0 0 0-4.5-4.5h-1.4a3.961 3.961 0 0 0-3.8-3c-1.7 0-6.8 1.4-6.8 4s5 4 6.8 4a3.961 3.961 0 0 0 3.8-3H45a2.476 2.476 0 0 1 2.5 2.5v16.1h-1.4a2.2 2.2 0 0 0-2.2 2.1 3.55 3.55 0 0 1-.1 1c-.1 0-.2.1-.3.2-16.9 14.4-30.8 1.3-31.4.8-.1-.1-.2-.1-.3-.2-.1-.6-.1-1.2-.2-1.7a2.18 2.18 0 0 0-2.1-2.1H8.1V37.7a2.476 2.476 0 0 1 2.5-2.5h1a3.961 3.961 0 0 0 3.8 3c1.7 0 6.8-1.4 6.8-4s-5-4-6.8-4a3.961 3.961 0 0 0-3.8 3h-1a4.481 4.481 0 0 0-4.5 4.5v16.1H4.8A2.22 2.22 0 0 0 2.6 56a25.079 25.079 0 0 0 4.3 13.4C10.5 75.1 20.2 79 22.8 80v6a2.249 2.249 0 0 0 1.9 2.2v2.6a9.859 9.859 0 0 0 3.8 7.8H9.3a1 1 0 0 0-1 1 .945.945 0 0 0 1 1H93a1 1 0 0 0 1-1 1.075 1.075 0 0 0-1-1H70a9.859 9.859 0 0 0 3.8-7.8V52.6c4-2.7 12.6-9 18.8-17.2a28.318 28.318 0 0 0 2-2.8 1.012 1.012 0 0 0-1.7-1.1 24.761 24.761 0 0 1-1.9 2.6c-5.4 7.2-12.9 13-17.2 16V39.9a12 12 0 1 0-6 0v9.9c-4.5-3.1-12.1-9-17.4-16.1a37.459 37.459 0 0 1-2.4-3.6 23.311 23.311 0 0 1-3.6-11.8A13.914 13.914 0 0 1 58.2 4.4 14.167 14.167 0 0 1 70 11.1a1.028 1.028 0 0 0 1.7 0 13.5 13.5 0 0 1 11.8-6.6 13.849 13.849 0 0 1 13.8 13.9 19.585 19.585 0 0 1-1.6 7.6 1.145 1.145 0 0 0 .6 1.3zm-56.6 8.8c-1.7 0-4.7-1.3-4.8-2 .1-.6 3.1-2 4.8-2a1.75 1.75 0 0 1 1.8 1.3 1.049 1.049 0 0 0 0 1.3 1.891 1.891 0 0 1-1.8 1.4zm-24.2-3.9c1.7 0 4.7 1.3 4.8 2-.1.6-3.1 2-4.8 2a1.858 1.858 0 0 1-1.9-1.6.854.854 0 0 0 0-.7 1.863 1.863 0 0 1 1.9-1.7zm27.7 27.7a16.892 16.892 0 0 1-11 10.7c-5.5 1.7-13.1 1-17.9-6.2a20.169 20.169 0 0 1-1.8-3.6 26.071 26.071 0 0 0 14.7 4.9c4.8.1 10.3-1.4 16-5.8zm-19 18.5c-.1 0-11.8-4.2-15.8-10A24.22 24.22 0 0 1 4.5 56v-.1l.1-.1c.1 0 5 .1 4.7.1a.215.215 0 0 1 .2.2 18.807 18.807 0 0 0 3.1 9.5c5.4 8.1 14 8.9 20.2 6.9 5.7-1.8 12.6-7.1 13-16.4a.215.215 0 0 1 .2-.2c.1 0 4.8-.1 4.7-.1a.1.1 0 0 1 .1.1v.1c-.3 10.1-6.7 18.3-16.6 21.4-1.8.6-3 1.1-3.1 1.1a.961.961 0 0 0-.6.9v6.7a.961.961 0 0 0-.9-.6h-4a.875.875 0 0 0-.9.6v-6.7a.779.779 0 0 0-.5-1zm36.7-50.1a10 10 0 1 1 9.1 9.9 9.925 9.925 0 0 1-9.1-9.9zm9 12c.3 0 .7.1 1 .1a3.4 3.4 0 0 0 1-.1v50.5a7.81 7.81 0 0 1-7.8 7.8H34.5a7.81 7.81 0 0 1-7.8-7.8v-3.3h2v3.3a5.8 5.8 0 0 0 5.8 5.8h29.6a5.8 5.8 0 0 0 5.8-5.8z" style="fill:#24bce3" transform="translate(-2.6 -2.5)"/>
                        <path data-name="Path 5010" d="M5.2 98.5H3.6a1 1 0 0 0 0 2h1.6a.945.945 0 0 0 1-1 1 1 0 0 0-1-1z" style="fill:#24bce3" transform="translate(-2.6 -2.5)"/>
                        <path data-name="Path 5011" d="M99.5 98.5h-2.6a1 1 0 0 0 0 2h2.6a.945.945 0 0 0 1-1 1 1 0 0 0-1-1z" style="fill:#24bce3" transform="translate(-2.6 -2.5)"/>
                        <path data-name="Path 5012" d="M77.6 28.3a6.75 6.75 0 1 0-6.8 6.8 6.807 6.807 0 0 0 6.8-6.8zm-11.5 0a4.7 4.7 0 0 1 4.7-4.7 4.75 4.75 0 1 1-4.7 4.7z" style="fill:#24bce3" transform="translate(-2.6 -2.5)"/>
                    </g>
                </g>
            </g>
        </g>
    </g>
</svg>
