<svg style="width:auto; height:24px" viewBox="0 0 60 60.701" xmlns="http://www.w3.org/2000/svg"><g fill="currentColor" transform="translate(-2 -1.299)"><path d="m61.03 5.87a6.986 6.986 0 0 0 -4.34-3.86l-1.32-.4a7 7 0 0 0 -8.45 3.83l-14.83 33.15a1 1 0 0 0 .91 1.41h14a.982.982 0 0 0 .9-.57l13.06-27.75a6.975 6.975 0 0 0 .07-5.81zm-1.88 4.96-12.78 27.17h-11.83l14.2-31.75a5.013 5.013 0 0 1 6.04-2.73l1.32.4a5 5 0 0 1 3.05 6.91z"/><path d="m45 33h-5a1 1 0 0 0 0 2h5a1 1 0 0 0 0-2z"/><path d="m42 31h5a1 1 0 0 0 0-2h-5a1 1 0 0 0 0 2z"/><path d="m44 27h5a1 1 0 0 0 0-2h-5a1 1 0 0 0 0 2z"/><path d="m17 60h-14a1 1 0 0 0 0 2h14a1 1 0 0 0 0-2z"/><path d="m61 60h-24a1 1 0 0 0 0 2h24a1 1 0 0 0 0-2z"/><path d="m40 9v8.08a1 1 0 1 1 -2 0v-7.08h-12v15a1 1 0 0 1 -1 1h-15v12h15a1 1 0 0 1 1 1v5.06a1 1 0 0 1 -2 0v-4.06h-15a1 1 0 0 1 -1-1v-14a1 1 0 0 1 1-1h15v-15a1 1 0 0 1 1-1h14a1 1 0 0 1 1 1z"/><path d="m17.6 56.021a28.007 28.007 0 0 1 25.952-49.535 1 1 0 0 0 .826-1.822 30.007 30.007 0 0 0 -27.8 53.072 1 1 0 0 0 1.03-1.715z"/><path d="m40.446 53.256 5.428-9.771a1 1 0 0 0 -.874-1.485h-14a1 1 0 0 0 -.874.515l-10 18a1 1 0 0 0 .874 1.485h4.585a17.01 17.01 0 0 0 14.861-8.744zm-14.861 6.744h-2.885l8.888-16h4.887l-4.062 8.269a1 1 0 0 0 1.8.881l4.487-9.15h4.6l-4.6 8.285a15.009 15.009 0 0 1 -13.115 7.715z"/></g></svg>