<svg height="25" viewBox="0 0 23 25" width="23" xmlns="http://www.w3.org/2000/svg" xmlns:xlink="http://www.w3.org/1999/xlink"><defs><linearGradient id="a" x1="-12.801404%" x2="50%" y1="0%" y2="32.558892%"><stop offset="0" stop-color="#f7b222"/><stop offset="1" stop-color="#23bde3"/></linearGradient><path id="b" d="m23.6738474 11.0337537c-.6099312 0-1.2199852.007859-1.8296707-.0044821-.2010796-.0040523-.2654865.053171-.2632761.2577502.0097009.8781192-.0003684 1.7564839.0069994 2.6347259.0016577.1902734-.059188.2500754-.2513035.2481107-.8863465-.0091484-1.7728158-.0006754-2.6591623-.0067538-.1743713-.0011666-.2451022.0469697-.2441198.2342346.006631 1.2360715.0071836 2.472143-.000569 3.7082145-.0011502.1870194.0598798.231656.237935.2299982.8862851-.0082273 1.7728158.0025174 2.6591009-.0082887.2079562-.0025788.2606974.0664944.2587327.2642584-.0085958.8781806.0003069 1.7565453-.0063855 2.6347873-.0013507.1761518.0459874.2396377.2331909.2384711 1.2279056-.0077975 2.4559339-.0089641 3.6838394.0008871.2037811.0016303.239208-.0716794.2376116-.2523747-.0076748-.8700145.0028857-1.7403361-.0079818-2.6103507-.0026401-.2075264.0430403-.2801606.2665302-.2766609.8699532.0136918 1.7402133-.0001228 2.6102279.0098237.1972115.0022104.2664074-.0457417.2648974-.2542505-.0091733-1.2197396-.0086821-2.4396019-.0003319-3.6594028.0013507-.2034741-.060723-.2630305-.2627235-.2607588-.870076.0098237-1.7403976-.0034383-2.6103507.0093939-.2210341.0032542-.2711351-.0664944-.2684336-.2764153.0112359-.8781806-.0005526-1.7566067.0088414-2.6347258.0020875-.1849932-.0536008-.2334365-.2339277-.2302438-.609747.0106219-1.2197396.0040523-1.8296707.0040523m-7.8869245-3.0337537h1.4637979c.0221034.00982374.0435315.02640129.0663102.02848883 1.0652613.09952672 2.0903681.36550436 3.0860037.74961241.1142009.04408401.2035355.00939394.3011589-.02775206.576776-.21943768 1.1680421-.38693237 1.7699915-.52514005.4351915-.0999565.8789173-.13679551 1.3147842-.22520913h1.4637979c.0630561.01289365.1254983.03137455.1891683.03782138.6751363.06876615 1.3323441.21962188 1.9492133.50076491 1.9255749.87768935 3.2590242 2.33098821 4.0618076 4.27375461.5083783 1.2303001.6627951 2.5143237.5571286 3.8440277-.1070787 1.3482463-.4020978 2.6444267-.9048274 3.8967688-.4358055 1.0859525-1.0542096 2.0653176-1.7317404 3.0134308-.659541.9230013-1.0854613 1.9510553-1.3467727 3.0554887-.1847476.780987-.1439177 1.5838317-.2784415 2.3678886-.1820461 1.061823-.526061 2.0583181-1.1790938 2.9315254-1.1961012 1.5994269-2.8950548 1.1825936-3.755614.2762926-.4622068-.4867661-.7556295-1.0742869-.9758654-1.699322-.4579702-1.2993732-.6716365-2.6568293-.9325794-4.0025582-.0936325-.4829594-.222876-.9548057-.3674077-1.4434751-.0840544.0805546-.0865717.163381-.1084909.2375502-.3527949 1.1935838-.4922919 2.4330322-.7828289 3.6400009-.239822.9961882-.4992914 1.9840262-1.0806109 2.8526286-.8968456 1.3401417-2.8684079 1.8308372-4.1246795.1000179-.6303154-.8683568-.965489-1.84852-1.1514646-2.8922919-.102965-.5777584-.0745376-1.1667528-.1630126-1.7451252-.2148942-1.4058993-.7284913-2.6902913-1.571859-3.8386246-1.4830157-2.019453-2.34093475-4.2641765-2.52734013-6.7744479-.14311954-1.9275396.26861776-3.7009695 1.34493073-5.3015629.9556653-1.42118754 2.2181381-2.47134485 3.8687098-3.01336945.503712-.16540714 1.026519-.23122617 1.5458262-.31718385"/></defs><g fill="none" fill-rule="evenodd" transform="translate(-9 -8)"><use fill="#23bde3" xlink:href="#b"/><use fill="url(#a)" xlink:href="#b"/></g></svg>