<svg style="width:auto; height:24px" fill="currentColor" viewBox="0 0 16 16" xmlns="http://www.w3.org/2000/svg"><path d="m4.545 6.714-.435 1.286h-1.11l1.862-5h1.284l1.854 5h-1.167l-.435-1.286zm1.634-.736-.679-2.022h-.049l-.679 2.022h1.408z"/><path d="m0 2a2 2 0 0 1 2-2h7a2 2 0 0 1 2 2v3h3a2 2 0 0 1 2 2v7a2 2 0 0 1 -2 2h-7a2 2 0 0 1 -2-2v-3h-3a2 2 0 0 1 -2-2zm2-1a1 1 0 0 0 -1 1v7a1 1 0 0 0 1 1h7a1 1 0 0 0 1-1v-7a1 1 0 0 0 -1-1zm7.138 9.995c.193.301.402.583.63.846-.748.575-1.673 1.001-2.768 1.292.178.217.451.635.555.867 1.125-.359 2.08-.844 2.886-1.494.777.665 1.739 1.165 2.93 1.472.133-.254.414-.673.629-.89-1.125-.253-2.057-.694-2.82-1.284.681-.747 1.222-1.651 1.621-2.757h1.199v-1.047h-3v1.047h.765c-.318.844-.74 1.546-1.272 2.13a6.066 6.066 0 0 1 -.415-.492 1.988 1.988 0 0 1 -.94.31z"/></svg>