<svg height="18" viewBox="0 0 18 18" width="18" xmlns="http://www.w3.org/2000/svg"><circle cx="9" cy="9" fill="#00a6de" r="9"/><path d="m47.136 45.444a3.864 3.864 0 0 1 -.784.861.335.335 0 0 0 -.12.261v.03a5.489 5.489 0 0 1 -.354 1.91 5.594 5.594 0 0 1 -1.042 1.746 5.146 5.146 0 0 1 -2.258 1.492 5.648 5.648 0 0 1 -1.775.276 5.418 5.418 0 0 1 -2.721-.733.157.157 0 0 1 -.075-.174.151.151 0 0 1 .147-.113h.229a3.642 3.642 0 0 0 2.04-.619 1.977 1.977 0 0 1 -1.565-1.344.1.1 0 0 1 .12-.134 1.815 1.815 0 0 0 .332.031h.042a1.979 1.979 0 0 1 -1.152-1.82.1.1 0 0 1 .153-.09 1.739 1.739 0 0 0 .45.175 1.977 1.977 0 0 1 -.319-2.4.1.1 0 0 1 .17-.014 5.17 5.17 0 0 0 3.554 1.9h.01a.075.075 0 0 0 .072-.081 2.091 2.091 0 0 1 .046-.723 1.916 1.916 0 0 1 1.289-1.378 2.118 2.118 0 0 1 .625-.1 1.97 1.97 0 0 1 1.305.493.255.255 0 0 0 .17.065.259.259 0 0 0 .06-.008 3.613 3.613 0 0 0 .963-.4.1.1 0 0 1 .151.12 1.954 1.954 0 0 1 -.519.827 3.637 3.637 0 0 0 .631-.213.1.1 0 0 1 .126.149z" fill="#fff" transform="translate(-33.814 -39.219)"/></svg>