<svg xmlns="http://www.w3.org/2000/svg" width="28" height="28" viewBox="0 0 28 28">
    <g transform="translate(.376 .376)">
        <circle data-name="Ellipse 1393" cx="14" cy="14" r="14" transform="translate(-.377 -.376)" style="fill:#f0f0f0"/>
        <g data-name="Group 5767">
            <path data-name="Path 4812" d="M244.87 192.771h14.216a13.639 13.639 0 0 0-.469-3.554H244.87z" transform="translate(-231.839 -179.147)" style="fill:#d80027"/>
            <path data-name="Path 4813" d="M244.87 59.206h12.216a13.7 13.7 0 0 0-3.144-3.554h-9.072z" transform="translate(-231.839 -52.69)" style="fill:#d80027"/>
            <path data-name="Path 4814" d="M105.124 459.31a13.565 13.565 0 0 0 8.48-2.962h-16.96a13.565 13.565 0 0 0 8.48 2.962z" transform="translate(-91.501 -432.062)" style="fill:#d80027"/>
            <path data-name="Path 4815" d="M10.349 326.336H33.6a13.542 13.542 0 0 0 1.53-3.554H8.819a13.542 13.542 0 0 0 1.53 3.554z" transform="translate(-8.35 -305.604)" style="fill:#d80027"/>
        </g>
        <path data-name="Path 4816" d="M6.311 2.128h1.241L6.4 2.966l.441 1.358-1.157-.839-1.155.839.381-1.173A13.7 13.7 0 0 0 2.268 6.1h.4l-.738.53q-.172.287-.33.582l.351 1.08-.651-.475q-.244.517-.446 1.058l.387 1.19h1.424l-1.154.835.441 1.358L.8 11.422l-.692.5A13.755 13.755 0 0 0 0 13.624h13.624V0a13.559 13.559 0 0 0-7.313 2.128zm.528 10.134-1.155-.839-1.155.839.441-1.362-1.155-.839h1.428l.441-1.358.441 1.358h1.427L6.4 10.9zM6.4 6.935l.441 1.358-1.157-.839-1.155.839.441-1.358L3.815 6.1h1.428l.441-1.358.441 1.358h1.427zm5.328 5.326-1.155-.839-1.155.839.439-1.361-1.157-.835h1.427l.441-1.358.441 1.358h1.427l-1.155.839zm-.441-5.326.441 1.358-1.158-.839-1.155.839.441-1.358L8.7 6.1h1.427l.441-1.358.443 1.358h1.427zm0-3.969.441 1.358-1.158-.839-1.155.839.441-1.358L8.7 2.128h1.427L10.57.77l.441 1.358h1.427z" style="fill:#0052b4"/>
    </g>
</svg>
