<svg height="18" viewBox="0 0 18 18" width="18" xmlns="http://www.w3.org/2000/svg"><circle cx="9" cy="9" fill="#2aa81a" r="9"/><g fill="#fff"><path d="m46.067 39.345a4.54 4.54 0 0 0 -7.273 5.255l-.482 2.339a.171.171 0 0 0 .028.136.175.175 0 0 0 .185.072l2.288-.543a4.54 4.54 0 0 0 5.25-7.257zm-.715 5.7a3.56 3.56 0 0 1 -4.094.671l-.32-.159-1.405.332v-.018l.3-1.417-.157-.308a3.554 3.554 0 0 1 5.68-4.127l.016.022a3.555 3.555 0 0 1 -.018 5.007z" transform="translate(-33.603 -33.725)"/><path d="m61.664 61.243a1.484 1.484 0 0 1 -.786.685 3 3 0 0 1 -2.666-1.061l-.014-.013a2.9 2.9 0 0 1 -1.2-2.324 1.473 1.473 0 0 1 .572-.873.328.328 0 0 1 .512.12l.37.836a.325.325 0 0 1 -.04.332l-.188.241a.319.319 0 0 0 -.025.355 3.492 3.492 0 0 0 .635.706 3.754 3.754 0 0 0 .879.63.319.319 0 0 0 .348-.073l.216-.219a.326.326 0 0 1 .329-.092l.879.252a.33.33 0 0 1 .185.5z" transform="translate(-50.039 -50.949)"/></g></svg>